<?xml version="1.0" encoding="UTF-8"?>
<svg id="Layer_2" data-name="Layer 2" xmlns="http://www.w3.org/2000/svg" viewBox="0 0 146.39 189.25">
  <defs>
    <style>
      .cls-1, .cls-2, .cls-3, .cls-4, .cls-5, .cls-6, .cls-7, .cls-8, .cls-9, .cls-10, .cls-11, .cls-12, .cls-13, .cls-14, .cls-15, .cls-16, .cls-17, .cls-18 {
        stroke-width: 0px;
      }

      .cls-1, .cls-16 {
        fill: #ed1c24;
      }

      .cls-2 {
        fill: #ffc74f;
      }

      .cls-2, .cls-3, .cls-4, .cls-5, .cls-6, .cls-7, .cls-9, .cls-10, .cls-11, .cls-12, .cls-13, .cls-14, .cls-15, .cls-16, .cls-17, .cls-18 {
        fill-rule: evenodd;
      }

      .cls-3 {
        fill: #fc9e14;
      }

      .cls-4 {
        fill: #fbd458;
      }

      .cls-5 {
        fill: #fbeea8;
      }

      .cls-6 {
        fill: #cad5dd;
      }

      .cls-7 {
        fill: #d9e0ea;
      }

      .cls-8, .cls-14 {
        fill: #fff;
      }

      .cls-9 {
        fill: #e2e7eb;
      }

      .cls-10 {
        fill: #ffcb05;
      }

      .cls-11 {
        fill: #a82a30;
      }

      .cls-12 {
        fill: #fdea7b;
      }

      .cls-13 {
        fill: #a89986;
      }

      .cls-15 {
        fill: #f2ad01;
      }

      .cls-17 {
        fill: #fff38a;
      }

      .cls-18 {
        fill: #fbf6ca;
      }
    </style>
  </defs>
  <g id="_1" data-name="1">
    <g>
      <g>
        <polygon class="cls-9" points="138.37 62.32 112.06 152.6 58.73 182.82 58.73 17.19 138.37 62.32"/>
        <polygon class="cls-7" points="10.4 80.08 36.71 170.35 58.73 182.82 90.04 35.71 10.4 80.08"/>
        <path class="cls-8" d="m74.38,106.64c22.1-3.22,43.29-19.54,61.9-44.31l-46.25-26.61-15.66,8.96v-1.55l15.32-8.76h0c.2-.11.45-.12.67,0l47.6,27.38h0c.1.06.19.14.25.25.18.32.07.73-.25.92-20.58,27.2-41.76,42.62-63.59,45.31v-1.58Zm-61.9-26.56l46.25,26.61c5.25.74,10.48.7,15.65-.05v1.58c-5.06.62-10.15.56-15.28-.19-.21.13-.48.15-.71.02l-47.58-27.37c-.11-.06-.2-.15-.27-.26-.18-.32-.07-.73.25-.92l63.59-36.37v1.55L12.48,80.08Z"/>
        <path class="cls-13" d="m26,163c-3.75,2.16-3.76,5.67-.04,7.83l28.96,16.8c3.72,2.16,9.77,2.16,13.52,0l55.83-33.06c3.75-2.16,3.76-5.67.04-7.83l-28.96-16.8c-3.72-2.15-9.77-2.15-13.52.01l-55.83,33.04Z"/>
        <g>
          <path class="cls-15" d="m75.48,32.24c-5.51,22.16-6.35,46.36-6.96,70.43-.32-2.32,3.78-3.42,7.91-4.51.87-24.27,1.48-48.6,8.61-71.21-4.3.87-7.9,2.3-9.56,5.29Z"/>
          <path class="cls-4" d="m75.48,32.24c-2.52-1.14-5.03-2.29-7.54-3.43-5.02,23.08-5.61,47.39-6.18,71.71,2.25.72,4.51,1.43,6.76,2.15.55-24.94,1.9-49.21,6.96-70.43Z"/>
          <path class="cls-18" d="m67.93,28.8c1.7-1.96,4.23-3.79,9.7-5.12.31-.17,4.97.93,7.41,3.26-4.85,1.18-8.26,2.86-9.56,5.29-3.7-.69-6.56-1.7-7.54-3.43Z"/>
        </g>
        <g>
          <path class="cls-15" d="m97.82,16.89c-5.5,22.16-6.35,46.36-6.96,70.43-.32-2.32,3.78-3.42,7.91-4.51.87-24.27,1.48-48.6,8.61-71.21-4.3.87-7.9,2.3-9.56,5.29Z"/>
          <path class="cls-4" d="m97.82,16.89c-2.51-1.14-5.03-2.29-7.54-3.43-5.02,23.08-5.61,47.39-6.18,71.71,2.25.71,4.51,1.43,6.76,2.15.55-24.94,1.9-49.21,6.96-70.43Z"/>
          <path class="cls-17" d="m90.28,13.46c1.7-1.96,4.23-3.79,9.7-5.12.31-.17,4.97.93,7.41,3.26-4.85,1.18-8.26,2.86-9.56,5.29-3.7-.69-6.56-1.7-7.54-3.43Z"/>
        </g>
        <g>
          <path class="cls-2" d="m114.59,13.45c-7.28,22.16-10.06,46.36-12.59,70.43-.13-2.32,4.05-3.42,8.27-4.51,1.92-17.75,3.65-38.72,7.61-54.39,1.73-6.87,7.4-14.64,6.69-16.82-3.33,1.76-6.66,3.53-9.98,5.29Z"/>
          <path class="cls-3" d="m114.59,13.45c-2.42-1.14-4.85-2.29-7.27-3.43-6.86,23.08-9.4,47.39-11.9,71.71,2.2.72,4.39,1.43,6.59,2.15,2.54-24.94,5.83-49.21,12.59-70.43Z"/>
          <path class="cls-17" d="m107.32,10.02c4.61-1.37,8.24-3.01,10.11-5.12.7-.56,5.61.18,7.15,3.26-1.88,1.97-4.24,3.87-9.98,5.29-3.8-.41-6.22-1.55-7.27-3.43Z"/>
        </g>
        <g>
          <path class="cls-15" d="m100.47,25.82c5.46,22.16,6.27,46.36,6.83,70.43.32-2.32-3.77-3.42-7.91-4.51-.82-24.27-1.39-48.6-8.47-71.21,3.18,1.76,6.37,3.53,9.55,5.29Z"/>
          <path class="cls-4" d="m100.47,25.82c2.52-1.14,5.03-2.29,7.55-3.43,4.97,23.08,5.52,47.39,6.04,71.71-2.25.72-4.51,1.43-6.76,2.15-.5-24.94-1.8-49.21-6.83-70.43Z"/>
          <path class="cls-17" d="m108.02,22.39c-3.23-1.71-6.46-3.41-9.69-5.12.49.27-3.45,1.76-7.41,3.26,3.18,1.76,6.37,3.53,9.55,5.29,2.52-1.14,5.03-2.29,7.55-3.43Z"/>
        </g>
        <g>
          <path class="cls-3" d="m57.37,9.51c5.46,24.65,6.27,51.54,6.83,78.31.32-2.58-3.77-3.8-7.91-5.01-.82-26.98-1.39-54.04-8.47-79.18,3.18,1.96,6.37,3.92,9.55,5.89Z"/>
          <path class="cls-2" d="m57.37,9.51c2.52-1.27,5.03-2.54,7.55-3.82,4.97,25.67,5.52,52.7,6.04,79.74-2.25.8-4.51,1.59-6.76,2.39-.5-27.73-1.8-54.72-6.83-78.31Z"/>
          <path class="cls-17" d="m64.92,5.69C63.36,3.48,60.13,1.58,55.23,0c-.11-.03-6.05.55-7.41,3.62,1.71,2.16,4.7,4.15,9.55,5.89,3.79-.68,6.48-1.88,7.55-3.82Z"/>
        </g>
        <g>
          <path class="cls-3" d="m85.87,11.01c3.55,20.38,2.27,42.62.76,64.75.52-2.13-3.48-3.14-7.52-4.14-4.06-18.41-3.64-39.97-2.34-65.47,3.03,1.62,6.06,3.24,9.09,4.87Z"/>
          <path class="cls-12" d="m85.87,11.01c4.71-2.58,6.58-3.05,7.85-3.15-7.4,33.67-3.74,49.71-.14,65.93-2.32.66-4.63,1.32-6.95,1.97-1.75-20.03-3.22-40.42-.76-64.75Z"/>
          <path class="cls-17" d="m93.72,7.85c-4.28-.47-7.36-2.04-9.25-4.71-1.02-.23-6.07.83-7.7,3,.89,2.5,3.64,4.24,9.09,4.87,2.62-1.05,5.23-2.1,7.85-3.15Z"/>
        </g>
        <g>
          <path class="cls-4" d="m70.04,20.74c-9.78,22.16-15.29,46.35-20.54,70.43.13-2.32,4.44-3.42,8.78-4.51,5.54-24.27,10.86-48.6,22.34-71.21-3.21.15-6.69,1.7-10.58,5.29Z"/>
          <path class="cls-15" d="m70.04,20.74c-2.29-1.14-4.59-2.29-6.88-3.43-9.47,23.08-14.75,47.39-20.01,71.71,2.12.72,4.23,1.43,6.35,2.15,5.35-24.94,11.39-49.21,20.54-70.43Z"/>
          <path class="cls-17" d="m63.16,17.3c1.55-2.04,5.56-3.67,10.68-5.12,1.26-.81,4.5.92,6.78,3.26-2.67.75-4.27.22-10.58,5.29-2.29-1.14-4.59-2.29-6.88-3.43Z"/>
        </g>
        <g>
          <path class="cls-3" d="m70.11,43.75c6.04,20.12,7.48,41.8,8.67,63.36.26-2.06-3.86-3.27-8.01-4.47-1.46-21.75-2.67-43.54-10.33-64.15,2.18,2.24,5.11,4.13,9.67,5.26Z"/>
          <path class="cls-17" d="m70.11,43.75c2.48-.88,4.97-1.77,7.45-2.65,5.57,20.92,6.76,42.69,7.92,64.46-2.23.51-4.46,1.03-6.7,1.55-1.15-22.33-3.09-44.11-8.67-63.36Z"/>
          <path class="cls-17" d="m77.56,41.1c-4.56-1.02-8-2.63-9.81-5.11-1.1.05-6.44.97-7.32,2.5,2.21,2.11,5.14,3.96,9.67,5.26,4.98-.23,6.46-1.37,7.45-2.65Z"/>
        </g>
        <g>
          <path class="cls-3" d="m99.27,58.94c.88,22.26-3.33,45.78-7.76,69.14.81-2.2-3.07-3.88-6.98-5.57,4.21-23.59,8.68-47.2,6.27-70.15,2.82,2.19,5.65,4.38,8.47,6.58Z"/>
          <path class="cls-4" d="m99.27,58.94c2.76-.72,5.52-1.44,8.27-2.17.19,23.08-4.29,46.67-8.81,70.26-2.41.35-4.81.7-7.22,1.04,4.67-24.19,8.4-47.86,7.76-69.14Z"/>
          <path class="cls-17" d="m107.54,56.77c-2.88-2.14-5.76-4.29-8.64-6.43.43.33-3.82,1.17-8.1,2.02,2.82,2.19,5.65,4.38,8.47,6.58,2.76-.72,5.52-1.44,8.27-2.17Z"/>
        </g>
        <g>
          <path class="cls-15" d="m44.05,25.28c9.65,21.34,15.06,45.13,20.2,68.83-.12-2.32-4.41-3.01-8.72-3.68-5.43-23.87-10.64-47.82-21.99-69.44,3.5,1.43,7.01,2.86,10.51,4.29Z"/>
          <path class="cls-2" d="m44.05,25.28c2.29-1.37,4.57-2.75,6.86-4.12,9.34,22.29,14.52,46.23,19.66,70.17-2.11.93-4.21,1.85-6.32,2.78-5.24-24.56-11.16-48.39-20.2-68.83Z"/>
          <path class="cls-17" d="m50.9,21.16c-5.1-.43-8.64-1.8-10.61-4.11.11-.46-4.18.35-6.75,3.94,2.5,1.77,4.81,3.6,10.51,4.29,4.52-1.14,6.31-2.56,6.86-4.12Z"/>
        </g>
        <g>
          <path class="cls-2" d="m136.4,17.6c-7.28,22.16-10.06,46.35-12.59,70.43-.13-2.32,4.05-3.42,8.27-4.51,2.8-24.27,5.37-48.6,14.3-71.21-4.27.57-7.72,2.17-9.98,5.29Z"/>
          <path class="cls-3" d="m136.4,17.6c-2.42-1.14-4.85-2.29-7.27-3.43-6.86,23.08-9.4,47.39-11.9,71.71,2.2.71,4.39,1.43,6.59,2.15,2.54-24.94,5.83-49.21,12.59-70.43Z"/>
          <path class="cls-17" d="m129.13,14.17c1.52-1.71,5.11-3.41,10.11-5.12-.51.27,3.3,1.76,7.15,3.26-4.79.66-8.12,2.43-9.98,5.29-3.66-.42-5.81-1.73-7.27-3.43Z"/>
        </g>
        <g>
          <path class="cls-4" d="m126.9,29.29c-9.78,22.16-15.29,46.35-20.54,70.43.13-2.32,4.44-3.42,8.78-4.51,5.54-24.27,10.86-48.6,22.34-71.21-4.47,1.02-8.62,2.29-10.58,5.29Z"/>
          <path class="cls-3" d="m126.9,29.29c-4.17-.36-6.47-1.51-6.88-3.43-9.47,23.08-14.75,47.39-20.01,71.71,2.12.72,4.23,1.43,6.35,2.15,5.35-24.94,11.39-49.21,20.54-70.43Z"/>
          <path class="cls-17" d="m120.01,25.86c1.4-2.37,5.22-4,10.68-5.12-.54.27,3.1,1.76,6.78,3.26-5.4,1.14-8.93,2.9-10.58,5.29-4.67-.51-6.99-1.87-6.88-3.43Z"/>
        </g>
        <g>
          <path class="cls-2" d="m114.29,50.89c-5.88,22.16-7.14,46.35-8.15,70.43-.28-2.32,3.84-3.42,7.99-4.51,1.27-24.27,2.31-48.6,9.81-71.21-3.81.7-7.42,1.76-9.65,5.29Z"/>
          <path class="cls-15" d="m114.29,50.89c-2.5-1.14-4.99-2.29-7.49-3.43-5.41,23.08-6.41,47.39-7.39,71.71,2.24.72,4.48,1.43,6.72,2.15.97-24.94,2.73-49.21,8.15-70.43Z"/>
          <path class="cls-17" d="m106.8,47.46c1.21-2.39,3.88-4.29,9.78-5.12-.49.27,3.41,1.76,7.35,3.26-4.68.78-8.09,2.41-9.65,5.29-3.04.5-5.7-.18-7.49-3.43Z"/>
        </g>
        <g>
          <path class="cls-15" d="m20.88,34.04c7.67,22.16,10.88,46.35,13.84,70.43.09-2.32-4.11-3.42-8.35-4.51-3.23-24.27-6.23-48.6-15.56-71.21,3.36,1.76,6.72,3.53,10.08,5.29Z"/>
          <path class="cls-4" d="m20.88,34.04c2.4-1.14,4.81-2.29,7.21-3.43,7.27,23.08,10.24,47.39,13.18,71.71-2.18.72-4.37,1.43-6.55,2.15-2.98-24.94-6.7-49.21-13.84-70.43Z"/>
          <path class="cls-17" d="m28.09,30.61c-2.55-2.3-5.55-4.28-10.2-5.12-.56-.32-4.49,1.09-7.09,3.26,2.24,2.32,5.33,4.23,10.08,5.29,4.91-.48,5.64-2.07,7.21-3.43Z"/>
        </g>
        <g>
          <path class="cls-3" d="m39.16,36.55c5.5,22.16,6.35,46.35,6.96,70.43.32-2.32-3.78-3.42-7.91-4.51-.87-24.27-1.48-48.6-8.61-71.21,4.3.87,7.9,2.3,9.56,5.29Z"/>
          <path class="cls-4" d="m39.16,36.55c2.51-1.14,5.03-2.29,7.54-3.43,5.02,23.09,5.61,47.39,6.18,71.71-2.25.72-4.51,1.43-6.76,2.15-.55-24.94-1.9-49.21-6.96-70.43Z"/>
          <path class="cls-17" d="m46.7,33.12c-1.7-1.96-4.23-3.79-9.7-5.12-.31-.17-4.97.93-7.41,3.26,4.85,1.18,8.26,2.86,9.56,5.29,3.7-.69,6.56-1.7,7.54-3.43Z"/>
        </g>
        <g>
          <path class="cls-3" d="m50.56,51.37c9.65,21.34,15.06,45.13,20.2,68.83-.12-2.32-4.41-3.01-8.72-3.68-5.43-23.87-10.64-47.82-21.99-69.44,5.59.4,10.48,1.15,10.51,4.29Z"/>
          <path class="cls-4" d="m50.56,51.37c2.29-1.37,4.57-2.75,6.86-4.12,9.34,22.29,14.52,46.23,19.66,70.17-2.11.93-4.21,1.85-6.32,2.78-5.24-24.56-11.16-48.39-20.2-68.83Z"/>
          <path class="cls-17" d="m57.42,47.25c-1.19-1.81-4.48-2.9-10.61-4.11-.54-.11-4.54,1.02-6.75,3.94,5.8.41,10.36,1.37,10.51,4.29,2.29-1.37,4.57-2.75,6.86-4.12Z"/>
        </g>
        <g>
          <path class="cls-3" d="m10.51,48.25c9.65,21.34,15.06,45.13,20.2,68.83-.12-2.32-4.41-3.01-8.72-3.68C16.55,89.54,11.35,65.58,0,43.96c3.5,1.43,7.01,2.86,10.51,4.29Z"/>
          <path class="cls-4" d="m10.51,48.25c1.82-2.71,4.16-3.92,6.86-4.12,9.34,22.29,14.52,46.23,19.66,70.17-2.11.92-4.21,1.85-6.32,2.78-5.24-24.56-11.16-48.39-20.2-68.83Z"/>
          <path class="cls-17" d="m17.37,44.13c-1.25-1.64-4.13-3.09-10.61-4.11-.82-.29-5.08,1.32-6.75,3.94,3.5,1.43,7.01,2.86,10.51,4.29,1.15-2.13,3.2-3.66,6.86-4.12Z"/>
        </g>
        <g>
          <path class="cls-5" d="m82.16,54.26c-5.88,22.16-7.14,46.36-8.15,70.43-.28-2.32,3.84-3.42,7.99-4.51,1.27-24.27,2.3-48.6,9.81-71.21-3.22,1.77-6.43,3.53-9.65,5.29Z"/>
          <path class="cls-15" d="m82.16,54.26c-2.5-1.14-4.99-2.29-7.49-3.43-5.41,23.08-6.41,47.39-7.39,71.71,2.24.72,4.48,1.43,6.72,2.15.97-24.94,2.73-49.21,8.15-70.43Z"/>
          <path class="cls-17" d="m74.67,50.83c3.26-1.71,6.52-3.41,9.78-5.12-.49.27,3.41,1.76,7.35,3.26-3.22,1.77-6.43,3.53-9.65,5.29-4.15-.07-6.45-1.34-7.49-3.43Z"/>
        </g>
        <g>
          <path class="cls-2" d="m92.08,48.57c-7.28,22.16-10.06,46.35-12.59,70.43-.13-2.32,4.05-3.42,8.27-4.51,2.8-24.27,5.37-48.6,14.3-71.21-4.78,1.09-7.98,2.91-9.98,5.29Z"/>
          <path class="cls-3" d="m92.08,48.57c-2.42-1.14-4.85-2.29-7.27-3.43-6.86,23.08-9.4,47.39-11.91,71.71,2.2.72,4.39,1.43,6.59,2.15,2.54-24.94,5.83-49.21,12.59-70.43Z"/>
          <path class="cls-17" d="m84.81,45.13c1.89-2.43,4.95-4.29,10.11-5.12.66-.08,5.26,1.18,7.15,3.26-3.53,1-7,2.26-9.98,5.29-2.42-1.14-4.85-2.29-7.27-3.43Z"/>
        </g>
        <g>
          <path class="cls-4" d="m78.74,76.53c-12.15,19.45-20.48,42.19-28.55,64.9.42-2.3,4.68-2.14,8.96-1.95,8.37-22.81,16.53-45.76,30.37-65.16-4.09-.48-7.69.26-10.78,2.21Z"/>
          <path class="cls-15" d="m78.74,76.53c-2.05-1.83-4.1-3.66-6.14-5.49-11.97,20.46-20.1,43.4-28.2,66.35,1.93,1.34,3.86,2.69,5.79,4.03,8.27-23.55,17.11-46.22,28.55-64.9Z"/>
          <path class="cls-17" d="m72.6,71.04c.52-1.21,4.5-1.82,10.86-2.01-.55.11,2.74,2.69,6.07,5.28-4.48-.6-7.97.3-10.78,2.21-.58-2.46-2.63-4.29-6.14-5.49Z"/>
        </g>
        <g>
          <path class="cls-2" d="m26.78,44.69c-3.21,22.17-1.55,46.36.34,70.43-.56-2.32,3.43-3.42,7.45-4.51-1.65-24.27-3.56-48.6,1.22-71.21-3.61.66-6.74,2.2-9.01,5.29Z"/>
          <path class="cls-15" d="m26.78,44.69c-2.63-1.14-5.27-2.29-7.9-3.43-2.62,23.08-.7,47.39,1.26,71.71,2.33.71,4.66,1.43,6.98,2.15-2.04-24.94-3.21-49.21-.34-70.43Z"/>
          <path class="cls-17" d="m18.88,41.25c1.02-1.97,3.44-3.75,9.17-5.12.69.16,4.92,1.63,7.75,3.26-3.92,1.12-7.18,2.71-9.01,5.29-2.63-1.14-5.27-2.29-7.9-3.43Z"/>
        </g>
        <g>
          <path class="cls-3" d="m39.07,66.58c9.97,18.54,15.74,39.5,21.25,60.39-.16-2.07-4.44-2.45-8.76-2.82-5.8-21.02-11.38-42.14-23.04-60.84,5.31.68,9.34,1.66,10.55,3.27Z"/>
          <path class="cls-2" d="m39.07,66.58c2.26-1.35,4.51-2.7,6.77-4.05,9.67,19.41,15.22,40.51,20.74,61.61-2.09.94-4.17,1.88-6.26,2.82-5.62-21.65-11.91-42.61-21.25-60.39Z"/>
          <path class="cls-17" d="m45.84,62.53c-1.59-1.29-4.24-2.44-10.65-3.1.54.16-3.05,2.01-6.67,3.88,6.02.94,9.87,2.01,10.55,3.27,2.26-1.35,4.51-2.7,6.77-4.05Z"/>
        </g>
        <polygon class="cls-11" points="10.4 80.08 36.71 170.35 58.73 182.82 58.73 107.46 10.4 80.08"/>
        <polygon class="cls-6" points="34.71 163.49 36.71 170.35 58.73 182.82 58.73 177.11 34.71 163.49"/>
        <path class="cls-16" d="m138.37,62.32l-26.31,90.27-53.33,30.23v-75.36c26.33,5.18,52.88-9.87,79.64-45.14Z"/>
        <polygon class="cls-14" points="114.05 145.74 112.06 152.6 58.73 182.82 58.73 177.11 114.05 145.74"/>
        <path class="cls-8" d="m12.48,80.08l46.25,26.61c27.7,3.91,54.59-13.79,77.56-44.37l1.69-.58h0c.1.06.19.14.25.25.18.32.07.73-.25.92-25.35,33.5-51.61,49.13-78.87,45.12-.21.13-.48.15-.71.02l-47.58-27.37c-.11-.06-.2-.15-.27-.26-.18-.32-.07-.73.25-.92l1.68.58Z"/>
      </g>
      <g>
        <path class="cls-14" d="m95.35,109.03c11.55-7.4,20.91-4.03,20.91,7.52s-9.36,26.91-20.91,34.3-20.91,4.03-20.91-7.52,9.36-26.91,20.91-34.3Z"/>
        <path class="cls-10" d="m95.35,114.94c3.3-2.12,6.35-3,8.83-2.78l-22.94,21.7c2.09-7.11,7.62-14.77,14.11-18.92Z"/>
        <path class="cls-16" d="m95.35,110.73c10.61-6.79,19.21-3.7,19.21,6.91s-8.6,24.72-19.21,31.51v-1.92c9.55-6.11,17.29-18.81,17.29-28.36s-7.74-12.33-17.29-6.22v-1.92Zm0,38.42c-10.61,6.79-19.21,3.7-19.21-6.91s8.6-24.72,19.21-31.51v1.92c-9.55,6.11-17.29,18.81-17.29,28.36s7.74,12.33,17.29,6.22v1.92Z"/>
        <path class="cls-14" d="m76.22,143.93l36.81-35.06,2.27,7.46-36.37,34.85c-1.72-1.03-3.59-2.96-2.71-7.25Z"/>
        <polygon class="cls-1" points="79.33 150.85 81.96 148.33 81.96 144.68 85.27 141.52 85.27 139.31 81.96 142.48 81.96 140.58 85.82 136.89 85.82 134.68 79.33 140.89 79.33 150.85"/>
        <path class="cls-1" d="m91.44,136.43l1.45,1.44,2.94-2.81-2.16-1.79c.96-1.44,1.61-2.99,1.61-4.42,0-2.43-1.76-1.5-3.84.46v2.09c.83-.74,1.27-.86,1.27-.09s-.44,1.63-1.27,2.52v2.6Zm-3.9,6.57l2.63-2.52v-3.34l1.01-.97.26.26v-2.6c-.1.11-.21.21-.32.32l-.95.91v-2.45l.95-.91c.11-.11.22-.21.32-.29v-2.09l-.14.13-3.77,3.6v9.95Z"/>
        <polygon class="cls-1" points="97.18 133.77 103.77 127.47 103.77 125.26 99.82 129.04 99.82 127.27 103.06 124.16 103.06 121.96 99.82 125.06 99.82 123.5 103.61 119.87 103.61 117.66 97.18 123.81 97.18 133.77"/>
        <polygon class="cls-1" points="105.7 125.62 112.28 119.32 112.28 117.12 108.33 120.9 108.33 119.12 111.58 116.02 111.58 113.81 108.33 116.92 108.33 115.36 112.13 111.72 112.13 109.52 105.7 115.67 105.7 125.62"/>
        <polygon class="cls-16" points="98.64 134.88 99.46 136.69 102.13 134.29 99.97 137.79 100.79 139.58 98.64 139.94 96.49 143.45 97.31 140.17 95.15 140.54 97.82 138.16 98.64 134.88"/>
      </g>
    </g>
  </g>
</svg>