<?xml version="1.0" encoding="UTF-8"?>
<svg id="Layer_2" data-name="Layer 2" xmlns="http://www.w3.org/2000/svg" viewBox="0 0 198.51 140.13">
  <defs>
    <style>
      .cls-1 {
        fill: #fad584;
      }

      .cls-1, .cls-2, .cls-3, .cls-4, .cls-5, .cls-6, .cls-7, .cls-8, .cls-9, .cls-10, .cls-11, .cls-12, .cls-13, .cls-14, .cls-15, .cls-16, .cls-17 {
        stroke-width: 0px;
      }

      .cls-1, .cls-2, .cls-3, .cls-4, .cls-5, .cls-6, .cls-8, .cls-9, .cls-10, .cls-11, .cls-12, .cls-13, .cls-14, .cls-15, .cls-16, .cls-17 {
        fill-rule: evenodd;
      }

      .cls-2 {
        fill: #590905;
      }

      .cls-3 {
        fill: #c33417;
      }

      .cls-4 {
        fill: #641006;
      }

      .cls-5 {
        fill: #f2dab0;
      }

      .cls-6 {
        fill: #9c3;
      }

      .cls-7, .cls-9 {
        fill: #a33c12;
      }

      .cls-8 {
        fill: #d07f2e;
      }

      .cls-10 {
        fill: #d1db39;
      }

      .cls-11 {
        fill: #f5aa28;
      }

      .cls-12 {
        fill: #a89986;
      }

      .cls-13 {
        fill: #922422;
      }

      .cls-14 {
        fill: #699b42;
      }

      .cls-15 {
        fill: #531804;
      }

      .cls-16 {
        fill: #963018;
      }

      .cls-17 {
        fill: #febd30;
      }
    </style>
  </defs>
  <g id="_1" data-name="1">
    <g>
      <path class="cls-12" d="m195.31,106.3c.67.06,1.4.13,2.17.22,0-.05,0-.09,0-.13h0c0-2.13-1.71-2.87-4-3.01.37-1.55.51-3.11.38-4.66-1.12-13.47-17.18-22.71-33.57-29.27-47.76-19.12-32.87-6.52-78.9-29.51-45.48-19.24-103.7,1.83-72.64,21.39,44.67,25.48,63.72,41.01,108.4,66.49,6.01,3.52,13.21,5.15,20.76,5.3.28,1.57.55,3.09.78,4.49-.21.81,1.85-.62,3.74-1.92.08.46.13,1.1.11,1.98h0c-.34.67,1.26-.43,2.99-1.56-.81,1.48-1.4,2.68-1.78,3.66-.05.09-.08.17-.08.22h0c-.03.1,0,.14.08.13.69.22,5.68-3.01,8.57-4.82.39,1.35,2.34,2.98,3.11,2.93h0c.91.37,1.91-.86,1.19-4.16-.05-.24-.1-.47-.13-.69,1.14,1.27,2.52,2.33,2.8,2.19h0c.48.31,1.12-.5,1.63-1.59.5,1.41,1.07,2.46,1.46,2.26h0c.07.48.59.06,2.01-2.35.58-.99,1.41-2.43,2.2-3.62.53.81,1.5,1.56,2.56,1.82.03,0,.06.02.09.02h.03s.09.02.14.01h0c.27,0,.63-.08,1.09-.24,2.18-.77,2.94-4.75,3.33-6.41.52.47,1.08.99,1.64,1.55.08-.06.15-.11.23-.16,2.89-2.13,3.2-3.8,2.19-5.16.99-.63,1.95-1.29,2.88-1.96,1.31.57,2.56,1.12,3.72,1.63.51.41.59-.79.66-1.87.41.18.94.44,1.62.83h0c.32.39.39-.53.51-1.51.69.87,1.29,1.56,1.84,2.09.04.05.09.09.13.12h0c.05.05.1.06.14.04.57-.1.93-2.89,1.19-4.48,1.29.48,3.7.65,4.1.42h0c.82-.09.43-.91-2.58-2.15-.22-.09-.43-.18-.62-.27,1.66.24,3.29.32,3.34.18h0c.53,0,.25-.53-.31-1.15,1.39.48,2.55.78,2.62.58h0c.42.19.39-.14-.68-1.58-.44-.6-1.09-1.45-1.57-2.19.95.21,2.09.27,2.91.09.02,0,.04,0,.07-.02h.02s.06-.02.09-.04h0c.16-.08.3-.21.44-.41.66-.94-2.03-2.89-3.1-3.72Z"/>
      <path class="cls-17" d="m15.53,57.69c44.67,25.48,56.93,35.15,101.6,60.63,27.13,15.91,70.43-8.43,72.36-30.63,1.19-13.73-10.54-28.25-26.92-34.81C114.81,33.75,99.98,29.58,53.95,6.6,8.47-12.65-15.52,38.13,15.53,57.69Z"/>
      <path class="cls-8" d="m151.57,52.35c2.98.72,6.52-1.01,9.04-.12,12.91,4.53,20.58,13.13,24.11,27.49,4.19,17.02-.98,23.27-22.42,35.5-21.44,12.23-50.58,7.29-50.84-10.49-.26-17.78,20.54-45.53,40.1-52.38Z"/>
      <g>
        <path class="cls-14" d="m188.11,69.03c-4.25.83-7.61,2.29-3.45.92,1.13-.37,5.32,6.01,4.23,7.07-1.29,1.25-3.55,1.56-4.46.72-4.85-4.47.79,2.02,2.24,5.04.81,1.69,1.86,1.85,1.82,2.25-.12,1.03-6.79-1.01-7.79-2.43-2.17-3.07-.57-2.09,2.66,1.2,1.05,1.07,2.96,2.58,2.86,3.42-.06.55-4.93,1.79-6.52.94-4.02-2.15-1.52-.53,2.81,1.17,2.54,1,4.1,2.03,3.77,2.59-.58.99-5.76,2.1-4.96-.69.2-.7.63,12.46-.12,11.44-1.02-1.39-2.19-3.63-3.78-6.9-.98.72,1.88,7,1.21,6.54-5.97-4.14-.72,3.83-2.19,3.17-6.15-2.8-14.82-6.36-20.6-9.08-1.33-.63-3.8-1.82-4.32-3.55-.4-1.34-1-2.51-1.36-4.11-.2-.93-.9-5.11-.95-4.92,3.66-11.35,7.86-11.35,15.22-11.78,6.24-.36,10.27-2.64,16.06-5.96,3.4-1.95,7.44-3.15,7.61,2.95Z"/>
        <path class="cls-6" d="m188.11,69.03c-1.76-5.78-4.48-2.19-2.47.19.87,1.03,4.37,4.2,3.74,6.64-.37,1.44-.83,1.73-1.75.88-4.85-4.47-1.43,2.29.02,5.3,2.89,6-.76,1.52-2.15-.45-2.17-3.07-4.39-1.82-1.16,1.47,1.74,1.78,3.87,5.71-.13,3.57-4.02-2.15-5.04.25-.71,1.96,5.8,2.28,2.49,5.53-1.18,1.9-.38-.37-.05,18.06-1.75,10.29-.47-2.15.73-7.29-1.07-5.95-.98.72.09,11.52-1.3,6.07-2.34-9.17-.46,6-1.74,4.56-4.5-5.08-13.84-7.09-19.62-9.81-1.33-.63-3.8-1.82-4.32-3.55-.4-1.34-1.01-2.51-1.36-4.11-.2-.93-.9-5.11-.95-4.92,3.67-11.35,7.86-11.35,15.22-11.78,6.24-.36,10.27-2.64,16.06-5.95,3.4-1.95,6.45-2.43,6.63,3.68Z"/>
        <path class="cls-10" d="m184.6,65.62c-4.8.85-7.28,3.88-10.32,5.62-1.12.64-2.47.72-3.55,1.28-.79.4-1.92.36-.3.34,4.46-.07,8.13-3.13,12.32-3.57,1.73-.18,3.83,2.81,2.92,1.06-.54-1.04-1.76-3.76-1.06-4.72Z"/>
        <path class="cls-10" d="m184.8,75.18c-2.08-.91-4.14-.28-5.55-.25-2.82.07-5.69.08-8.5-.16-3.22-.28,2.75.6,3.47.74,2.83.55,4.36.64,7.17,1.48.54.16,3.21,1.46,3.6,1.44.2-1.09-.64-2.41-.18-3.26Z"/>
        <path class="cls-10" d="m182.46,79.84c-2.16-.77-4.17-.44-5.58-.52-.63-.03-1.25-.33-1.89-.41-.6-.08-1.22-.2-.2.26,1.74.78,3.48,1.72,5.19,2.45l3.25,1.39c.31.13-1.29-2.11-.76-3.18Z"/>
        <path class="cls-10" d="m179.9,94.31c-1-.75-2.04-1.09-3.07-1.87l-7.11-5.45-2.3-1.7,1.43,1.32,9.1,8.51c1.83,1.71.18-.61,1.94-.81Z"/>
        <path class="cls-10" d="m176.81,97.51c-.79-.4-2.22-.82-2.92-1.47-1.44-1.36-2.75-2.13-4.42-3.14-2.41-1.46,2.92,2.87,3.68,3.8.68.83,1.46,2.35,2.02,3.44.78,1.5.87,1.45.97-.49.04-.71.96-2.3.67-2.14Z"/>
        <path class="cls-10" d="m181.96,90.5c-1.66-1.54-3.93-1.19-5.39-3.02-.96-1.21-2.49-1.07-3.53-1.41-1.05-.34.87.88,1.08,1.02,2,1.32,4.35,3.79,6.12,5.73.57.62.84,1.45.97-.61.04-.6.81-1.75.75-1.71Z"/>
      </g>
      <path class="cls-14" d="m171.62,101.8c.02-1.12-.09-2.83.28-3.78.42-1.09.66-1.89,1.35-2.55.22.21.41.41.65.55.24.15.3.32.52.44.08.05.25.12.37.22.05.04.03.11.07.15.13.11.4.03.45.03-.89-.59-.22.12-.22-.77,0-1.12-.37-2.16-.37-3.11v-1.19c0-.23.23-.83.23-.81l.36.29.07-.07c.14-.14.28.15.44.3.21.19.38.26.59.44.23.21.46.17.43.5-.1-.57.02-.13.01-.5-.02-.81-.74-1.69-.74-2.37,0-.38-.05-.86.07-1.18.11-.29.63-.83.39-.91,1,.82,0,.26.72.39.28.05.71.49.96.67.13.09.93.67.94.56-.25-.28-.23-.34-.13-.71.22-.77-.7-2.07.07-2.81.6-.57.63-.59,1.55-.59,3.49,0-1.28-3.73-1.45-3.68-.27-.19-1.58-1.35-1.58-1.87,0-1.3,1.02-2.06-.3-2.89-.44-.28-.95-.51-1.55-.74-.53-.2-1.33-.84-1.6-.29.8-3.23,1.96-4.29-1.68-5.66-2.17.79-4.42,1.29-7.08,1.45-4.83,5.36-5.2,19.74-4.43,24.57.09.58.3,1.16.59,1.73,3.3,1.22,6.92,2.49,10,4.2Z"/>
      <g>
        <path class="cls-14" d="m166.75,110.9c-3.54-2.49-6.92-3.91-3.05-1.85,1.05.56-.66,8-2.17,7.95-1.79-.06-3.58-1.48-3.61-2.72-.14-6.59-.91,1.97-2.08,5.11-.65,1.75-.04,2.62-.37,2.87-.83.63-3.97-5.6-3.64-7.3.71-3.69,1.11-1.86.97,2.75-.04,1.5.19,3.92-.48,4.43-.44.34-4.71-2.32-5.2-4.05-1.24-4.39-.67-1.46,1.1,2.84,1.04,2.52,1.38,4.36.75,4.51-1.12.27-5.51-2.7-2.94-4.05.64-.34-8.56,9.08-8.34,7.83.29-1.69,1.1-4.09,2.36-7.5-1.2-.2-3.75,6.2-3.88,5.4-1.15-7.18-3.27,2.13-3.8.61-2.24-6.38-5.67-15.1-7.71-21.15-.47-1.39-1.32-4-.43-5.57.69-1.21,1.11-2.46,2.03-3.82.53-.79,3.07-4.19,2.9-4.09,10.73-5.21,13.63-2.19,19.04,2.83,4.58,4.25,9.02,5.58,15.41,7.46,3.76,1.1,7.42,3.18,3.14,7.54Z"/>
        <path class="cls-6" d="m166.75,110.9c2.95-5.27-1.52-4.75-1.85-1.65-.14,1.34,0,6.06-2.2,7.29-1.3.73-1.82.59-1.85-.65-.14-6.6-2.64.55-3.81,3.69-2.33,6.23-1.62.51-1.17-1.87.71-3.69-1.73-4.43-1.87.18-.08,2.49-1.44,6.74-2.67,2.38-1.24-4.39-3.68-3.46-1.91.84,2.37,5.76-2.26,5.62-2.19.46,0-.53-13.06,12.47-8.63,5.87,1.22-1.83,5.76-4.52,3.55-4.9-1.2-.2-8.25,8.04-5.28,3.27,5-8.03-4.65,3.82-4.5,1.9.54-6.76-4.47-14.89-6.51-20.95-.47-1.39-1.32-4.01-.43-5.57.69-1.21,1.11-2.46,2.03-3.82.53-.79,3.07-4.19,2.9-4.09,10.73-5.21,13.63-2.19,19.04,2.83,4.58,4.25,9.02,5.58,15.42,7.46,3.76,1.1,6.22,2.98,1.93,7.33Z"/>
        <path class="cls-10" d="m166.78,106.01c-3.93-2.87-7.84-2.57-11.2-3.56-1.24-.37-2.23-1.28-3.38-1.68-.83-.29-1.59-1.13-.45.01,3.14,3.17,7.89,3.7,11.11,6.41,1.33,1.12.62,4.71,1.26,2.84.38-1.1,1.49-3.88,2.67-4.03Z"/>
        <path class="cls-10" d="m160.02,112.77c-.79-2.13-2.66-3.18-3.66-4.18-2-1.99-4-4.05-5.77-6.24-2.03-2.52,1.47,2.4,1.87,3.02,1.56,2.43,2.55,3.59,3.9,6.2.26.5,1.17,3.33,1.45,3.6.92-.61,1.29-2.13,2.22-2.39Z"/>
        <path class="cls-10" d="m155.04,114.3c-.94-2.09-2.57-3.31-3.5-4.38-.41-.48-.63-1.13-1.01-1.65-.36-.48-.7-1.02-.32.04.64,1.79,1.17,3.7,1.82,5.44l1.24,3.31c.12.32.63-2.39,1.77-2.75Z"/>
        <path class="cls-10" d="m142.82,122.48c-.15-1.24-.63-2.23-.77-3.5l-.99-8.9-.37-2.84.03,1.95.16,12.46c.03,2.51.57-.29,1.93.84Z"/>
        <path class="cls-10" d="m138.37,122.47c-.26-.85-.95-2.17-.96-3.12-.02-1.98-.37-3.46-.8-5.36-.62-2.75-.05,4.09-.19,5.28-.13,1.07-.69,2.68-1.08,3.84-.55,1.6-.45,1.64,1.02.36.54-.47,2.33-.9,2.01-1Z"/>
        <path class="cls-10" d="m147,121.33c-.04-2.26-1.86-3.66-1.55-5.98.2-1.53-.95-2.54-1.43-3.52-.48-1-.03,1.23.01,1.48.43,2.36.28,5.77.11,8.38-.05.84-.46,1.62,1.11.28.46-.39,1.82-.63,1.75-.64Z"/>
      </g>
      <path class="cls-14" d="m155.16,114.15c.24-.32.26-.2.03-.46-.12-.14-.23-.27-.33-.39-.09-.1-.33-.62-.44-.66-.63-.25-.11.99-.33-.61-.41.1-.63.64-.83.99-.06.12-.32.34-.38.44-.05.09-.17.22-.22.33-.11.24-.23.27-.46.41.04-.12-.55-1.25-.64-1.35-.36-.36-1.29.34-1.65.61-1.53,1.14-2.54,3.49-3.95,4.58.27-.24.02-.21,0-.45-.02-.16-.08-.44-.11-.55-.1-.4-.08-.84-.27-1.21-.09-.17-.12-.29-.12-.48.08.17-.45.12-.6.21-.31.17-.46.29-.71.5-.45.36-.8,1.42-1.38,1.87-.4.31-.41.08-.78.46.24-.13.1-.38,0-.62-.06-.15-.06-.48-.11-.66-.15-.56-.28-1.56-.12-2.12-2.22.21-1.97,2.57-3.67,3.99-.3.25-.41.1-.67.37.17-.16.04-.22-.04-.43-.06-.15-.04-.38-.11-.55-.12-.33-.11-.85-.11-1.21,0-.75,0-.5-.07-1.03,0-.11-.6.1-.64.15-.12.12-.46.37-.66.5-.81.53-1.08,1.14-1.76,1.98-.53.65-1.6,1.9-2.45,2.5-1.29-4.58-3.76-9.29-5.26-13.27,3.87-7.12,14.45-11.25,23.03-11.94l.07.07c4.58,4.25,9.02,5.58,15.42,7.46,1.08.32,2.06.7,2.8,1.19-1.81-.1-3.56-.11-4.78,1.39-1.62,2,.35,4.05-2.69,5.67-.06-.17-.68-.73-.88-.83-.12-.06-.31-.35-.44-.39-.15-.04-.24-.07-.35-.16.02-.16-.78.23-.97.27-.22.06-.7.54-.83.72-.52.71-.51,1.3-.88,2.04-.26.53-.35-.19-.63.68Z"/>
      <path class="cls-8" d="m34.28,2.39c-7.87,5.55-11.21,11.18-6.77,21.1,21.95,48.97,93.63,24.41,124.06,28.87,1.66.24,11.83-.39,13.31-.06-2.29-2.07.18-.73-2.82-2.38C116.94,25.2,101.8,30.79,55.77,7.81c-7.69-4.2-14.94-5.77-21.49-5.42Z"/>
      <path class="cls-1" d="m140.36,55.32c-11.63,3.33-27.07,18.06-28.51,29.16-.27,2.05-4.17,13.3-5.91,13.46-6.09.55-5.43-8.29-8.55-11.42-5.41-5.41-12.65,1.08-17.11-7.34-3.59-6.76-21.45-10.12-28.31-17.94C43.46,51.54,2.79,45.62,6.95,30.65c4.64-16.71,6.23-20.31,15.07-5.3,9.58,16.26,33.93,29.67,53.77,31.19,12.42.95,24.39,3.97,36.66.82,3.48-.89,27.7-5.63,27.9-2.04Z"/>
      <path class="cls-17" d="m10.62,35.95c-.56,1.95-.81,3.41-.81,5.51,0,2.48,2.47,5.24,4.89,5.91,2.32.65,3.05-2.12,3.05-3.87,0-2.3-1.05-5.34-2.65-6.73-.81-.7-4.04-2.34-4.48-.82Z"/>
      <path class="cls-17" d="m57.87,62.45c-1.8,2.29-3.45,6.13-1.02,8.56.56.56,1.45,1.16,2.24,1.22,1.57.12,2.13-.22,2.24-1.83.14-2-.03-3.87-.41-5.5-.27-1.19-1.82-1.82-3.06-2.45Z"/>
      <path class="cls-17" d="m88.83,67.55c-.45,1.91-2.62,6.75,0,8.36,2.52,1.55,4.49.22,5.5-2.24,1.29-3.15,1.17-4.98-1.22-6.93-1.48-1.21-4.68-.32-4.28.82Z"/>
      <path class="cls-17" d="m113.88,64.09c-2.18,1.09-3.46,2.83-4.89,4.89-1.88,2.71,0,4.69,2.85,4.69s6.39-3.98,6.72-6.52c.38-2.96-2.67-2.85-4.69-3.06Z"/>
      <path class="cls-9" d="m146.22,55.44c4.69,1.79,19.15,2.59,19.44,6.31.11,1.45,4.26.41,5.69,2.28.49.63,2.26,6.57,1.46,6.99-3.24,1.72,2.1,4.55,3.41,6.01,1.45,1.62-3.38,3.31-1.46,4.71,1.98,1.45-.58,7.53-.97,11.38-.05.47-5.69,3.26-5.69,5.36,0,7.93-2.98,3.34-5.85,7.48-3.37,4.85-4.79,1.97-8.78,5.04-2,1.54-4.72-1.11-5.36.97-1.22,3.96-5.04,2.7-8.94,1.14-3.71-1.49-4.98,5-8.51,6.94-9.98-2.35-17.24-8.43-17.24-16.45,0-13.89,17.77-37.93,32.81-48.16Z"/>
      <g>
        <path class="cls-15" d="m162.73,91.59c-3.32-4.33-7.31-8.12-13-5.06-3.64,1.96,1.12,8.51.02,12.39-.87,3.09,1.94,3.83,4.4,4.78,4.67,1.81,4.47-2.38,7.88-4.75,1.12-.78,1.06-2.62,1.2-4.09.06-.67.21-1.42.2-2.08-.02-.8-.84-.91-.7-1.2Z"/>
        <path class="cls-16" d="m164.67,92.75c-3.32-4.33-3.35-6.66-9.03-3.6-3.65,1.96-2.85,7.05-3.94,10.94-.87,3.09,1.94,3.83,4.4,4.78,4.66,1.81,4.47-2.38,7.88-4.75,1.12-.78,1.06-2.62,1.2-4.09.06-.67.21-1.42.2-2.08-.02-.8-.84-.91-.69-1.2Z"/>
        <path class="cls-3" d="m153.88,95.68c-.03.19-1.11,1.56-.59,1.68,1.16.26,3.09-.36,1.25,2.14-1.6,2.18-.23,1.54.86,3.12,2.28,3.29,2.89-1.31,3.64-3.27.16-.41.28-2.64.57-1.39.17.74-.32,4.46.3,4.52.82.08,2.82-2.99,3.37-3.44,4.46-3.68-6.92-17.51-9.39-3.35Z"/>
      </g>
      <path class="cls-2" d="m161.64,58.89c-2,.91-3.95,1.72-5.41,1.72-4.02,0-2.7-1.01-5.85,2.93-.72.9-3.35-4.51-5.36-.49-.65,1.31-3.25,1.03-3.25,2.6s4.18,1.94.49,3.09c-5.49,1.7-3.01-.55-6.01,3.09-3.07,3.71,5.53,7.28-1.46,9.1-.55.14-4.61,8.41-4.75,9.47-7.11-1.15-6.14,1.52-6.14,5.97,0,1.61-8.37,1.94-4.23,6.99.75.92,4.07,2.59,3.25,3.41-5.06,5.06.73,8.47,1.91,11.34l-.21-.09-.1-.05h-.01s-.32-.15-.32-.15l-.04-.02-.28-.13h-.01s-.24-.12-.24-.12l-.13-.07-.21-.11-.07-.04-.25-.13-.3-.16h0s-.14-.09-.14-.09l-.19-.11-.2-.11-.11-.06-.22-.13-.03-.02c-.37-.22-.73-.45-1.07-.69l-.05-.03-.23-.16h0c-.09-.06-.18-.13-.26-.19h0c-.09-.06-.17-.13-.25-.19l-.21-.16-.07-.05c-.15-.12-.3-.24-.45-.36l-.11-.09c-.13-.11-.26-.22-.38-.32h-.01c-.15-.14-.3-.28-.45-.42l-.03-.02c-.21-.2-.41-.39-.61-.6l-.04-.04-.14-.14-.12-.12-.14-.15h0s-.18-.21-.18-.21h0c-.07-.09-.14-.17-.21-.25l-.07-.09-.17-.21-.05-.06-.12-.15-.12-.16-.06-.08c-.07-.09-.14-.19-.2-.28l-.1-.14-.1-.14-.08-.13-.09-.13-.09-.15-.09-.15h0c-.05-.09-.1-.17-.15-.26h0c-.05-.08-.1-.17-.14-.25h0s-.1-.19-.1-.19l-.05-.1-.1-.2-.02-.04c-.04-.07-.07-.15-.11-.22h0c-.04-.1-.08-.18-.12-.27h0s-.03-.08-.03-.08l-.09-.22-.06-.14-.07-.18-.04-.1-.08-.23-.04-.11h0c-.03-.09-.06-.18-.09-.27h0s-.04-.12-.04-.12l-.06-.19-.04-.15-.04-.16-.05-.2h0c-.04-.17-.08-.33-.12-.5v-.06s-.04-.13-.04-.13l-.04-.21-.02-.13-.03-.21v-.1s-.05-.24-.05-.24l-.02-.15c-.01-.1-.02-.2-.03-.3v-.03c-.01-.1-.02-.19-.02-.29v-.11s-.02-.24-.02-.24v-.1c0-.11,0-.23,0-.34,0-.23,0-.47.02-.7,0-.08,0-.16.01-.24,0-.16.02-.32.03-.48,0-.1.02-.2.03-.3.01-.14.03-.28.04-.43.01-.11.03-.21.04-.32.02-.14.04-.29.06-.44l.05-.32c.03-.15.05-.31.08-.46l.06-.3c.03-.16.07-.32.1-.49l.07-.31c.04-.17.08-.34.12-.51.02-.09.04-.18.07-.28.05-.21.11-.41.17-.62l.05-.2c.08-.27.16-.55.24-.82l.05-.16c.07-.22.14-.44.21-.66l.11-.31c.06-.18.12-.35.18-.53l.13-.35c.06-.16.12-.32.18-.48l.14-.37c.07-.17.14-.35.21-.53l.13-.32c.08-.19.16-.39.25-.59l.12-.28c.09-.2.17-.4.26-.6l.14-.31c.09-.2.18-.4.27-.6l.13-.28c.14-.29.28-.58.42-.88l.11-.22c.11-.23.23-.46.35-.69l.14-.28c.11-.21.22-.42.33-.63l.15-.28c.11-.21.23-.42.34-.64l.16-.29c.12-.22.24-.43.36-.65l.15-.26c.12-.21.24-.42.37-.63l.18-.31c.12-.21.25-.42.37-.62l.17-.29c.14-.23.28-.47.43-.7l.13-.22c.38-.61.77-1.22,1.17-1.83l.16-.24c.16-.24.31-.47.47-.71l.13-.2c.16-.24.32-.48.49-.71l.17-.24c.16-.22.31-.45.47-.67l.19-.26c.15-.21.3-.42.45-.63l.22-.3c.16-.22.32-.43.48-.65l.18-.24c.19-.25.37-.5.56-.74l.12-.15c.23-.3.45-.59.68-.89v-.02s.11-.13.11-.13c.19-.25.39-.49.58-.74l.25-.32c.15-.19.3-.37.45-.56l.27-.33c.14-.18.29-.35.44-.53l.29-.34.46-.55.24-.28c.17-.2.34-.4.51-.6l.21-.24c.2-.23.4-.46.6-.69l.12-.14c.76-.85,1.52-1.69,2.3-2.5l.13-.13c.21-.22.42-.45.64-.66l.17-.17c.21-.21.41-.42.62-.63l.16-.16c.19-.19.38-.38.57-.56l.27-.27c.17-.16.34-.33.5-.49l.26-.25.55-.52.22-.2c.23-.21.45-.42.68-.62l.08-.07c.53-.48,1.06-.95,1.59-1.41l.13-.12c.21-.18.42-.36.63-.54l.23-.2c.18-.15.36-.3.54-.45l.25-.2c.18-.14.35-.28.53-.42l.27-.21c.17-.13.33-.26.5-.39l.26-.2c.18-.14.37-.28.55-.41l.22-.16c.17-.13.34-.25.51-.37l.27-.19c.26-.18.51-.36.77-.53,3.15,1.2,10.71,1.96,15.42,3.45Z"/>
      <g>
        <g>
          <path class="cls-15" d="m155.34,59.58c-4,3.71-6.32,3.96-2.73,9.33,2.3,3.44,4.85,4.61,8.82,5.33,3.15.57,6.07-4.73,6.78-7.27,1.36-4.81-2.79-4.23-5.47-7.4-.88-1.04-2.7-.8-4.18-.8-.67,0-1.43-.08-2.09,0-.79.09-.83.92-1.13.8Z"/>
          <path class="cls-7" d="m161.91,74.43c-.17,0-.34-.02-.5-.04-3.83-.7-6.52-1.8-8.92-5.4-3.05-4.57-1.89-5.55.9-7.9.55-.47,1.18-1,1.86-1.62l.07-.06.08.03s.09-.11.14-.17c.16-.23.39-.58.92-.64.38-.04.92-.04,1.43-.02.47.02.91.02,1.38,0,1.32-.03,2.79-.08,3.59.87.92,1.09,2.03,1.73,3.01,2.3,1.83,1.07,3.41,1.99,2.49,5.23-.71,2.5-3.41,7.41-6.45,7.41Zm-6.52-14.7c-.66.61-1.27,1.12-1.81,1.58-2.73,2.3-3.75,3.16-.84,7.51,2.34,3.51,4.97,4.59,8.73,5.27.15.03.3.04.45.04,2.75,0,5.44-4.62,6.16-7.2.85-3.03-.49-3.81-2.36-4.9-1-.58-2.13-1.24-3.08-2.37-.72-.85-2.11-.79-3.36-.76-.47.01-.92.01-1.4,0-.5-.02-1.02-.03-1.39.02-.39.04-.57.3-.71.51-.11.16-.21.3-.38.3h0Z"/>
        </g>
        <path class="cls-16" d="m156.31,57.54c-4,3.71-6.32,3.96-2.74,9.33,2.3,3.44,7.29,2.17,11.26,2.9,3.16.57,3.63-2.29,4.34-4.83,1.36-4.81-2.79-4.23-5.47-7.4-.88-1.04-2.7-.8-4.18-.8-.67,0-1.43-.08-2.09,0-.79.09-.83.92-1.13.8Z"/>
        <path class="cls-3" d="m158.37,58.34c-.76.53-2.16,1.37-2.45,1.88-.35.62.39,2.18.86,2.31.66.17-4.21,2.74-1.01,2.74,1.18,0,2.61-1.5,1.87.72-1.1,3.29.03,1.81,2.59,2.02.19.02,1.66.96,1.73.43.15-1.18-.65-3.04,2.02-1.44,2.32,1.39,1.55.09,3.03-1.15,3.06-2.58-1.57-2.75-3.6-3.32-.42-.12-2.65-.03-1.44-.43.72-.24,4.47-.11,4.47-.72,0-.82-3.25-2.53-3.75-3.03-.94-.94-3.83.06-4.32,0Z"/>
      </g>
      <g>
        <path class="cls-15" d="m149.29,64.39c-5.33-1.18-9.45-2.14-11.83,3.86-1.53,3.85,2.19,5.94,3.85,9.61,1.32,2.92,6.71,2.17,9.2,1.32,4.73-1.62,1.9-4.7,2.98-8.71.36-1.32-.87-2.68-1.71-3.9-.38-.55-.75-1.22-1.19-1.72-.52-.6-1.23-.16-1.3-.47Z"/>
        <path class="cls-16" d="m151.52,64.03c-5.33-1.18-6.85-2.95-9.23,3.05-1.53,3.85,2.35,7.23,4.01,10.91,1.32,2.92,3.95,1.68,6.44.83,4.73-1.62,1.9-4.7,2.99-8.71.36-1.32-.87-2.68-1.71-3.9-.38-.55-.75-1.22-1.19-1.72-.52-.6-1.23-.16-1.3-.47Z"/>
        <path class="cls-3" d="m152.02,66.18c-.87-.33-2.35-1-2.93-.95-.71.06-1.58,1.56-1.41,2.02.23.64-4.65-1.91-2.83.73.67.97,2.72,1.3.47,1.95-3.33.97-1.47,1.05-.19,3.28.1.17.16,1.91.62,1.67,5.02-2.58,3.73,3.54,4.75,4.31.61.46,3.1-4.3,3.61-4.64.68-.47.24-4.11.37-4.8.24-1.3-2.22-3.12-2.46-3.56Z"/>
      </g>
      <path class="cls-2" d="m159.43,105.13c.26.04,7.58-.01,5.09-3.89-2.35-3.66.74-2.21,2.76-5.85.75-1.35-.35-3.14-1.14-4.23-1.03-1.43,4.76-3.5,6.83-5.04,2.22-1.65-4.59-2.68-2.11-4.88.84-.75,2.37-3.14,4.18-5.25.49.39.92.73,1.18,1.03,1.45,1.62-3.38,3.31-1.46,4.71,1.98,1.45-.58,7.53-.97,11.38-.05.47-5.69,3.26-5.69,5.36,0,7.93-2.98,3.34-5.85,7.48-3.37,4.85-4.79,1.97-8.78,5.04-1.21.93-2.68.33-3.8.17.18-.28.36-.65.55-1.14.91-2.36,2.43,2.09,4.55-1.95,1.19-2.27,3.88-1.37,4.67-2.93h0Zm-29.53,14.72c1.13-1,2.02-2.44,2.44-3.5.86-2.17,1.39-.72,2.71-1.35-1.29,1.72-2.53,4.01-4.39,5.04-.25-.06-.51-.12-.76-.19h0Zm5.86-5.71c.31-.95.29-2.42,1.13-2.99,1.74-1.2,6.34,4.3,6.34.98,0-1.16-.21-7.33,2.44-4.23,1.03,1.21,1.83,3.03,2.61,3.68-.07.1-.13.23-.17.39-1.22,3.96-5.04,2.7-8.94,1.14-1.4-.56-2.45.01-3.41,1.04Z"/>
      <g>
        <path class="cls-4" d="m159.52,79.84c-6.14,2.98-1.3,8.37,4.43,6.5,3.28-1.07,8.07-.51,11.23.3,2.37.61,4.2-.05,4.29-2.66.3-8.5-13.91-7.7-19.95-4.14Z"/>
        <path class="cls-13" d="m160.46,81.57c2.2-1.69,6.05-2.44,8.94-2.44.87,0,5.04-.52,5.04.65,0,2.48-13.12-.61-13.98,1.79Z"/>
      </g>
      <g>
        <path class="cls-4" d="m138.3,72.83c-5.88-4.1-9.56,1.73-5.07,5.87,2.58,2.37,4.07,6.54,4.57,9.44.38,2.17,1.87,3.47,4.73,2.67,9.27-2.61,2.24-14.15-4.23-17.98Z"/>
        <path class="cls-13" d="m136.84,74.19c2.78,1.26,5.25,4.21,6.51,6.61.38.72,2.75,4.01,1.49,4.41-2.67.84-5.05-11.12-8-11.02Z"/>
      </g>
      <g>
        <path class="cls-4" d="m132.24,116.25c-6.73,1.15-5.92-6.05-.18-7.87,3.29-1.04,6.87-4.28,8.96-6.78,1.57-1.87,3.44-2.4,5.03-.33,5.18,6.74-6.83,14.36-13.82,14.97Z"/>
        <path class="cls-13" d="m131.99,114.29c2.77.1,6.33-1.53,8.69-3.22.71-.51,4.4-2.51,3.72-3.46-1.45-2.02-10.32,8.13-12.41,6.68Z"/>
      </g>
      <g>
        <path class="cls-15" d="m133.46,91.93c-5.33-1.18-6.85-2.95-9.23,3.05-1.53,3.85-2.98,8.12-1.32,11.79,1.32,2.92,9.28.8,11.77-.05,4.73-1.62,1.9-4.7,2.98-8.71.36-1.32-.87-2.68-1.71-3.9-.38-.55-.75-1.22-1.19-1.72-.52-.6-1.23-.16-1.3-.47Z"/>
        <path class="cls-16" d="m135.7,91.57c-5.33-1.18-6.85-2.95-9.23,3.05-1.53,3.85,2.35,7.23,4.01,10.91,1.32,2.92,3.95,1.68,6.44.83,4.73-1.62,1.9-4.7,2.98-8.71.36-1.32-.87-2.68-1.71-3.9-.38-.55-.75-1.22-1.19-1.72-.52-.6-1.23-.16-1.3-.47Z"/>
        <path class="cls-3" d="m136.2,93.71c-.87-.33-2.35-1-2.93-.95-.71.06-1.58,1.56-1.41,2.02.23.64-4.65-1.91-2.83.73.67.97,2.72,1.3.47,1.95-3.33.97-1.47,1.05-.19,3.28.1.17.16,1.91.63,1.67,1.06-.55,2.14-2.26,2.33.84.17,2.7,10,1.81,3.93-9.54Z"/>
      </g>
      <g>
        <path class="cls-14" d="m135.47,75.88c-4.33-.14-7.93.54-3.57.13,1.19-.11,3.84,7.05,2.54,7.84-1.53.93-3.81.73-4.51-.29-3.74-5.44.32,2.15,1.06,5.41.42,1.83,1.41,2.21,1.27,2.6-.35.98-6.39-2.5-7.06-4.1-1.43-3.47-.09-2.16,2.33,1.76.78,1.28,2.31,3.18,2.03,3.97-.18.53-5.21.65-6.57-.54-3.44-2.99-1.36-.85,2.48,1.77,2.25,1.54,3.55,2.89,3.1,3.36-.79.84-6.09.76-4.68-1.77.36-.64-2.17,12.29-2.67,11.12-.69-1.58-1.33-4.02-2.14-7.57-1.11.49.27,7.24-.28,6.64-4.9-5.37-1.56,3.58-2.84,2.6-.64-.49-1.31-1-2.01-1.52h0c-.04-.14-.08-.27-.11-.41l-.02-.09v-.06s-.03-.06-.03-.06v-.06c-.04-.13-.07-.26-.1-.39-.02-.11-.05-.23-.07-.34-.02-.09-.03-.17-.04-.26-.03-.17-.05-.35-.07-.52l-.02-.14c-.02-.19-.04-.39-.05-.59v-.09c-.02-.23-.03-.46-.03-.69,0-8.8,7.15-21.69,16.21-32.55,3.48-.89,6.95-.68,5.85,4.83Z"/>
        <path class="cls-6" d="m135.47,75.88c-.43-6.02-3.88-3.13-2.45-.36.62,1.19,3.32,5.06,2.16,7.31-.68,1.33-1.2,1.5-1.9.47-3.73-5.44-1.91,1.91-1.16,5.17,1.47,6.49-1.08,1.32-2-.92-1.43-3.48-3.87-2.75-1.46,1.18,1.3,2.12,2.5,6.42-.93,3.45-3.44-2.99-4.97-.88-1.13,1.75,5.14,3.52,1.2,5.94-1.58,1.59-.28-.45-4.07,17.59-4,9.64.02-2.2,2.33-6.94.28-6.04-1.11.49-2.48,11.25-2.62,5.63-.23-9.46-1.79,5.75-2.72,4.06-.62-1.14-1.44-2.21-2.4-3.22v-.05s0,0,0,0v-.03s0,0,0,0l-.03-.21v-.03s0-.03,0-.03c-.01-.12-.03-.23-.04-.35-.01-.15-.03-.31-.04-.46v-.16c-.02-.21-.03-.43-.03-.65,0-8.87,7.25-21.87,16.4-32.78h.01c3.75-1.14,6.83-.93,5.65,5.06Z"/>
        <path class="cls-10" d="m132.81,71.78c-1.54-.08-2.9.11-4.14.43-.75.93-1.49,1.87-2.21,2.82,1.25-.17,2.49-.25,3.73-.1,1.73.21,3.11,3.59,2.61,1.69-.29-1.13-.88-4.06.02-4.83Z"/>
        <path class="cls-10" d="m130.87,81.14c-1.83-1.35-3.98-1.2-5.36-1.48-.69-.14-1.38-.28-2.07-.43-.2.29-.4.59-.6.89,1.39.57,2.6,1.08,4.29,2.04.49.27,2.81,2.14,3.18,2.21.43-1.02-.09-2.49.55-3.21Z"/>
        <path class="cls-10" d="m127.55,85.15c-1.94-1.23-3.97-1.35-5.33-1.75-.4-.11-.77-.34-1.14-.54l-.24.4c1.31,1.02,2.6,2.13,3.9,3.07l2.85,2.08c.27.2-.78-2.34-.03-3.27Z"/>
        <path class="cls-10" d="m121.83,98.7c-.81-.96-1.75-1.51-2.57-2.51l-3.15-3.8c-.11.27-.22.53-.32.79l3.97,5.87c1.41,2.08.31-.55,2.07-.36Z"/>
        <path class="cls-10" d="m118.1,101.12c-.68-.57-1.98-1.29-2.51-2.08-.41-.61-.81-1.13-1.24-1.62-.1.37-.19.73-.28,1.09.3.44.54.8.64,1.01.48.97.89,2.62,1.2,3.81.42,1.63.52,1.61,1.05-.26.19-.68,1.45-2.03,1.13-1.94Z"/>
        <path class="cls-10" d="m124.69,95.44c-1.27-1.87-3.57-2.04-4.58-4.14-.56-1.17-1.72-1.5-2.63-1.91l-.2.42c.24.26.47.49.53.56,1.66,1.73,3.4,4.67,4.69,6.95.41.73.5,1.61,1.09-.37.17-.57,1.17-1.53,1.11-1.5Z"/>
      </g>
      <g>
        <path class="cls-11" d="m149.51,80.63c-3.37,2.59,2.11,6.2,4.15,6.72,1.73.44,3.06-.03,3.13-1.94.21-6.21-3.22-7.9-7.28-4.78Z"/>
        <path class="cls-5" d="m149.91,81.79c-1.25.97.79,2.31,1.55,2.5.64.17,1.14-.01,1.17-.72.08-2.31-1.2-2.95-2.71-1.78Z"/>
      </g>
      <g>
        <path class="cls-11" d="m168.91,76.27c3.33,2.64,5.5-3.55,5.52-5.65.01-1.79-.77-2.96-2.64-2.57-6.07,1.29-6.89,5.03-2.87,8.22Z"/>
        <path class="cls-5" d="m168.43,72.79c1.24.98,2.05-1.32,2.06-2.11,0-.67-.29-1.1-.99-.96-2.26.48-2.57,1.88-1.07,3.06Z"/>
      </g>
      <g>
        <path class="cls-11" d="m141.36,95.52c2.42,1.91,3.99-2.58,4-4.1,0-1.3-.56-2.15-1.92-1.86-4.41.94-5,3.65-2.08,5.96Z"/>
        <path class="cls-5" d="m141.02,92.99c.9.71,1.49-.96,1.49-1.53,0-.48-.21-.8-.71-.69-1.64.35-1.86,1.36-.78,2.22Z"/>
      </g>
      <g>
        <path class="cls-11" d="m171.5,85.44c-1.38-2.76-4.71.64-5.36,2.02-.56,1.17-.4,2.19.95,2.5,4.39,1.02,6.07-1.19,4.41-4.52Z"/>
        <path class="cls-5" d="m169.8,85.92c-.51-1.03-1.76.24-2,.75-.21.44-.15.81.35.93,1.64.38,2.26-.44,1.65-1.68Z"/>
      </g>
      <g>
        <path class="cls-11" d="m139.85,66.15c-1.38-2.76-4.71.64-5.36,2.02-.56,1.17-.4,2.19.95,2.5,4.39,1.02,6.07-1.19,4.41-4.52Z"/>
        <path class="cls-5" d="m138.15,66.63c-.51-1.03-1.75.24-2,.75-.21.44-.15.81.35.93,1.64.38,2.26-.44,1.65-1.68Z"/>
      </g>
      <g>
        <path class="cls-11" d="m128.88,107.87c-1.38-2.76-4.71.64-5.36,2.02-.56,1.17-.4,2.19.95,2.5,4.39,1.02,6.07-1.19,4.41-4.52Z"/>
        <path class="cls-5" d="m127.18,108.35c-.51-1.03-1.75.24-2,.75-.21.44-.15.81.35.93,1.64.38,2.26-.44,1.64-1.68Z"/>
      </g>
      <g>
        <path class="cls-4" d="m169.76,112.38c-6.14,2.98-1.3,8.37,4.43,6.5,3.28-1.07,8.07-.51,11.23.3,2.37.61,4.19-.04,4.29-2.66.3-8.5-13.91-7.7-19.95-4.14Z"/>
        <path class="cls-13" d="m170.7,114.12c2.2-1.69,6.05-2.44,8.94-2.44.87,0,5.04-.52,5.04.65,0,2.48-13.12-.61-13.98,1.79Z"/>
      </g>
      <g>
        <path class="cls-11" d="m164.57,122.83c.02,4.25,6.21,2.09,7.86.79,1.4-1.11,1.83-2.45.36-3.67-4.8-3.94-8.23-2.24-8.21,2.88Z"/>
        <path class="cls-5" d="m166.99,120.28c0,1.58,2.31.78,2.93.29.52-.41.68-.91.13-1.37-1.79-1.47-3.07-.84-3.06,1.07Z"/>
      </g>
      <path class="cls-14" d="m120.08,91.01c.03-.94-.91-2.54.18-3.15.54-.3,4.06,1.17,3.82,0-.1-.47-1.55-1.65-1.91-2.06-.38-.42-1.69-2.79-.37-2.28.79.3,1.63.12,2.54.36.02-.42-.42-.73-.63-1.1-.33-.59-.37-.91-.37-1.62,0-.99.08-2.31,1.25-1.98,1.06.3,2.23.27,3.3.59.42.12.86.08.4.27,1.19-.65-.55-3.89-.55-5.12,0-1.65,1.07-2.95,2.1-4.12h-.02s-.01,0-.01,0c-9.15,10.91-16.4,23.92-16.4,32.78,0,.22,0,.43.02.65v.16c.02.15.03.31.05.46.01.12.03.23.04.35v.03s0,.03,0,.03l.03.21h0s0,.04,0,.04h0s0,.06,0,.06c.25.27.49.53.72.81.21-.28.31-.76.31-1.41,0-1.28-.47-7.75.59-6.69.3.3,1.27,1.38,1.32,1.32.35-.35-.81-3.39-.81-4.56,0-3.74,1.85-1.24,2.42-.24.48-.55.51-.3.45-1.15-.04-.56-.28-1.46-.59-1.91-.39-.57-1-2.21.22-2.21.54,0,1.25,1.08,1.88,1.46Z"/>
      <path class="cls-17" d="m32.98.05c-7.87,5.55-11.21,11.18-6.77,21.1,19.89,44.38,83.27,25.32,125.48,28.99,4.37.38,3.83.51,7.68,1.47,1.63.41,19.45,12.95,20.93,13.28-3.61-6.64-13.09-13.73-19.54-17.3C115.75,22.66,100.5,28.45,54.47,5.47,46.79,1.27,39.53-.3,32.98.05Z"/>
      <path class="cls-1" d="m34.29,1.06c-6.54,4.62-9.33,9.31-5.64,17.56,18.12,40.41,85.79,19.37,118.56,26.66-1.9-1.72-4.09-3.29-6.59-4.66-37.55-20.57-44.05-9.79-82.35-28.92-6.4-3.5-18.53-10.93-23.98-10.64Z"/>
      <path class="cls-17" d="m113.48,34.93c-1.11.42-3.06,1.58-3.67,2.45-.37.53-.9,1.36-.81,2.04.11.84,4.26.36,5.09,0,1.28-.56,6.2-2.46,4.89-4.08-.85-1.04-5.06-2.13-5.5-.41Z"/>
      <path class="cls-17" d="m61.33,29.83c-.37.2-1.3.69-1.63,1.02-.29.29-.61,1.2-.61,1.63,0,.16-.04.46,0,.61.08.29.99.41,1.43.41.88,0,1.17-.06,1.83-.61.28-.24.59-.31.81-.41.19-.08.09-.24.2-.41.09-.13.27-.12.41-.2.35-.2,1.02-.81,1.02-1.22,0-.44-.07.03-.2-.41-.12-.41-.51-.21-.81-.41-.28-.17,0-.41-.61-.41-.98,0-2.24-.15-1.83.41Z"/>
      <path class="cls-17" d="m103.49,36.56c-.69.37-1.71.98-2.04,1.63-.16.33-.24.18-.2.61.07.81-.04.15.41.41.52.29-.02.41.82.41s2.24.24,2.24-.61v-.2h.2c.4,0,.53-.46.82-.82.08-.1.17-.07.2-.2.27-1.04.14-.86-.81-1.22-.41-.16-1.56,0-1.63,0Z"/>
      <path class="cls-17" d="m49.72,10.26c-1.47,0-2.78.44-4.07,1.02-.52.23-.68.99-.61,1.63.27,2.3,8.69,1.81,9.57.2,1.72-3.13-3.39-2.65-4.89-2.85Z"/>
      <path class="cls-17" d="m89.62,22.07c-2.13,2.4,1.16.42-.79.42-1.7,0-4.14.59-3.87,2.65.16,1.25,7.53.58,8.55,0,1.47-.83.72-1.94-.41-2.45-.47-.21-1.67-.35-2.24-.41-.8-.08-1.67.35-1.25-.22Z"/>
    </g>
  </g>
</svg>