<?xml version="1.0" encoding="UTF-8"?>
<svg id="Layer_2" data-name="Layer 2" xmlns="http://www.w3.org/2000/svg" xmlns:xlink="http://www.w3.org/1999/xlink" viewBox="0 0 104.74 223.89">
  <defs>
    <style>
      .cls-1 {
        fill: #d7dfe2;
      }

      .cls-1, .cls-2, .cls-3, .cls-4, .cls-5, .cls-6, .cls-7, .cls-8, .cls-9, .cls-10, .cls-11, .cls-12, .cls-13, .cls-14, .cls-15, .cls-16, .cls-17, .cls-18, .cls-19, .cls-20 {
        stroke-width: 0px;
      }

      .cls-1, .cls-2, .cls-3, .cls-4, .cls-5, .cls-6, .cls-7, .cls-8, .cls-10, .cls-12, .cls-14, .cls-15, .cls-16, .cls-17, .cls-18, .cls-19, .cls-20 {
        fill-rule: evenodd;
      }

      .cls-2 {
        fill: #c8252f;
      }

      .cls-3, .cls-11 {
        fill: #eaeced;
      }

      .cls-4 {
        fill: #cd8c5d;
      }

      .cls-5 {
        fill: url(#GradientFill_3);
      }

      .cls-6 {
        fill: #da242c;
      }

      .cls-7 {
        fill: #cad5dd;
      }

      .cls-8 {
        fill: #a2b3bc;
      }

      .cls-9, .cls-20 {
        fill: #f4f4f7;
      }

      .cls-10 {
        fill: url(#GradientFill_1-2);
      }

      .cls-12 {
        fill: #ffcb05;
      }

      .cls-13 {
        fill: #98abb6;
      }

      .cls-14 {
        fill: #b6c3cc;
      }

      .cls-15 {
        fill: #a89986;
      }

      .cls-16 {
        fill: url(#GradientFill_1);
      }

      .cls-17 {
        fill: #f2ad01;
      }

      .cls-18 {
        fill: #ed1c24;
      }

      .cls-19 {
        fill: #f8bb33;
      }
    </style>
    <linearGradient id="GradientFill_1" data-name="GradientFill 1" x1="52.37" y1="61.37" x2="52.37" y2="126.41" gradientUnits="userSpaceOnUse">
      <stop offset="0" stop-color="#f4f4f7"/>
      <stop offset="1" stop-color="#fff"/>
    </linearGradient>
    <linearGradient id="GradientFill_1-2" data-name="GradientFill 1" y1="80.34" x2="52.37" y2="107.43" xlink:href="#GradientFill_1"/>
    <linearGradient id="GradientFill_3" data-name="GradientFill 3" x1="111.26" y1="-4.46" x2="4.95" y2="141.86" gradientUnits="userSpaceOnUse">
      <stop offset="0" stop-color="#f18c2c"/>
      <stop offset="1" stop-color="#e02f2b"/>
    </linearGradient>
  </defs>
  <g id="_1" data-name="1">
    <g>
      <path class="cls-15" d="m51.29,223.89c21.77,0,39.53-11.03,39.53-24.55s-17.76-24.55-39.53-24.55-39.53,11.03-39.53,24.55,17.76,24.55,39.53,24.55Z"/>
      <path class="cls-7" d="m5.71,119.81h93.32l-15.39,77.23h-.27c0,11.12-14.52,20.14-32.43,20.14-16.18,0-29.6-7.36-32.04-16.99-.15-.61-.52-2.28-.66-3.15L5.71,119.81Z"/>
      <path class="cls-7" d="m5.71,119.81h93.32l-13.51,67.8h-.22c0,.53-.03,1.05-.09,1.56l-.43,2.17c-2.85,10.03-16.95,17.66-33.92,17.66-15.85,0-29.21-6.65-33.22-15.71L5.71,119.81Z"/>
      <path class="cls-1" d="m97.71,126.44l-14.06,70.6c-.17.85-.23,1.73-.41,2.59-2.06,9.9-15.79,17.55-32.28,17.55-8.46,0-16.18-2.02-21.95-5.32-.51-1.59-.73-3.26-.63-4.97h-.26l-7.87-80.45h77.48Z"/>
      <path class="cls-1" d="m97.71,126.44l-12.19,61.18-.31,1.55-.44,2.22c-2.87,10.01-16.96,17.62-33.91,17.62-8.88,0-16.98-2.09-23.09-5.52l-7.54-77.05h77.48Z"/>
      <path class="cls-4" d="m86.88,126.44l-10.44,83.06c-5.94,4.68-15.15,7.68-25.48,7.68-4.78,0-9.32-.65-13.4-1.8l-3.97-87.22,15.35-1.72h37.96Z"/>
      <path class="cls-20" d="m86.88,126.44l-10.44,83.06c-5.94,4.68-15.15,7.68-25.48,7.68-4.78,0-9.32-.65-13.4-1.8l-3.97-87.22,15.35-1.72h37.96Z"/>
      <path class="cls-3" d="m86.88,126.44l-9.4,74.75c-6.32,4.77-15.9,7.82-26.62,7.82-4.86,0-9.49-.63-13.69-1.76l-3.6-79.09,15.35-1.72h37.96Z"/>
      <path class="cls-17" d="m88.11,119.81l-10.48,81.26c-6.31,4.84-15.96,7.94-26.77,7.94-9.21,0-17.57-2.25-23.75-5.9l-7.69-83.29h68.69Z"/>
      <path class="cls-12" d="m77.48,201.19c-6.32,4.77-15.89,7.82-26.62,7.82-4.86,0-9.49-.63-13.69-1.76l-3.6-79.09,15.35-1.72h37.96l-9.4,74.75Z"/>
      <path class="cls-6" d="m88.11,119.81l-9.29,72.03c-6.77,4.96-16.88,8.11-28.17,8.11-9.33,0-17.86-2.15-24.36-5.7l-6.87-74.44h68.69Z"/>
      <path class="cls-18" d="m78.63,191.98c-6.77,4.88-16.8,7.98-27.99,7.98-4.91,0-9.6-.6-13.89-1.68l-3.19-70.12,15.35-1.72h37.96l-8.24,65.54Z"/>
      <polygon class="cls-12" points="53.77 150.99 55.69 156.93 61.93 156.91 56.87 160.58 58.81 166.51 53.77 162.84 48.72 166.52 50.66 160.58 45.61 156.93 51.85 156.93 53.77 150.99"/>
      <path class="cls-11" d="m35.76,188.36c-.58-.18-1.07-.48-1.47-.92-.4-.43-.71-.98-.92-1.65-.22-.67-.33-1.46-.33-2.37,0-.62.06-1.3.18-2.04.12-.74.3-1.51.53-2.31.23-.79.52-1.59.84-2.4.32-.79.68-1.56,1.08-2.31l-.22-4.87c-.15.15-.3.3-.44.46-.7.78-1.34,1.62-1.92,2.5-.58.88-1.1,1.79-1.57,2.74-.45.93-.85,1.87-1.17,2.81-.32.94-.56,1.86-.73,2.76-.17.9-.26,1.75-.26,2.54,0,1.13.18,2.22.53,3.26.35,1.04.85,1.95,1.51,2.73.65.77,1.44,1.37,2.37,1.79.81.37,1.7.53,2.68.5l-.14-3.12c-.19-.03-.38-.05-.56-.1Z"/>
      <g>
        <path class="cls-9" d="m38.56,170.33c.54-.53,1.09-.97,1.68-1.33.58-.36,1.19-.59,1.8-.69.52-.09.96-.08,1.32,0,.36.09.66.25.89.46.22.21.39.49.5.81.1.33.15.68.15,1.07,0,.73-.14,1.43-.43,2.09-.29.65-.65,1.25-1.1,1.77-.45.52-.95.94-1.51,1.27-.56.33-1.11.54-1.66.62-.2.03-.37.04-.51.03-.13-.01-.24-.03-.34-.05-.09-.02-.18-.04-.25-.06-.08-.02-.17-.02-.27-.01-.17.02-.3.08-.4.17-.1.1-.17.22-.22.36-.05.14-.09.3-.1.46-.02.17-.03.33-.03.48,0,.1,0,.2,0,.29,0,.1,0,.17,0,.25,0,.39.19.67.57.84.38.16.97.2,1.74.08.58-.08,1.17-.29,1.76-.61.59-.32,1.15-.73,1.7-1.21.54-.48,1.06-1.04,1.53-1.65.47-.62.88-1.27,1.23-1.94.35-.67.62-1.36.83-2.05.2-.69.3-1.36.3-1.99,0-.94-.16-1.73-.48-2.35-.32-.62-.73-1.1-1.23-1.44-.5-.35-1.07-.57-1.7-.66-.63-.09-1.25-.09-1.86.02-.95.16-1.85.46-2.74.9-.87.43-1.71.96-2.51,1.59-.62.5-1.22,1.04-1.79,1.64l.22,4.89.02-.04c.41-.76.86-1.48,1.34-2.17.48-.69,1-1.29,1.53-1.82Z"/>
        <path class="cls-9" d="m79.75,168.33c-.43.84-.85,1.61-1.27,2.32-.18.3-.37.6-.57.9-.2.3-.4.58-.6.84-.2.26-.4.49-.6.69-.2.2-.38.35-.56.45-.24.13-.39.11-.46-.07-.07-.18-.11-.46-.11-.85,0-.46.07-1.06.21-1.81.14-.75.27-1.41.38-1.99.11-.59.21-1.15.29-1.69.09-.55.13-1.02.13-1.43,0-.27-.02-.47-.07-.6-.05-.13-.11-.22-.2-.25-.09-.04-.18-.04-.3,0-.11.04-.23.09-.35.16-.1.06-.19.12-.29.17-.1.06-.19.11-.29.16-.11.06-.23.11-.33.16-.11.04-.22.07-.31.08-.1.01-.19-.01-.26-.07-.07-.06-.14-.13-.21-.18-.08-.06-.17-.1-.28-.12-.11-.02-.27.02-.46.12-.59.3-1.17.72-1.74,1.26-.57.53-1.11,1.13-1.62,1.8-.1.13-.2.26-.29.39-.4.55-.79,1.14-1.13,1.76-.17.3-.34.62-.5.96-.25.51-.49,1.05-.72,1.62-.3.75-.54,1.45-.71,2.08-.04.16-.08.31-.12.46-.14.6-.21,1.15-.24,1.68l-.02.04c-.13.13-.25.27-.38.41-.25.26-.5.49-.74.71l-.1.09c-.2.18-.39.33-.58.46-.21.16-.41.27-.57.33-.06.02-.13,0-.21-.07-.08-.07-.15-.18-.21-.32-.07-.14-.13-.31-.18-.5-.05-.19-.07-.4-.07-.62,0-.06,0-.12,0-.18.02-.19.06-.38.1-.58.04-.2.09-.38.13-.56.04-.17.09-.34.14-.5.04-.15.09-.29.13-.39.39-.93.82-1.9,1.28-2.9l.05-.1c.45-.97.89-1.96,1.34-2.96l.26-.58c.37-.84.73-1.68,1.07-2.52.12-.31.24-.61.36-.91.28-.73.53-1.44.76-2.15.32-.99.58-1.95.77-2.89.04-.19.07-.37.1-.56.12-.71.18-1.4.18-2.04,0-.32-.03-.63-.09-.92-.02-.12-.06-.22-.09-.32-.06-.14-.13-.27-.21-.37-.15-.18-.35-.29-.61-.33-.22-.03-.5.02-.81.14-.05.02-.11.04-.16.07-.43.19-.85.47-1.27.84-.11.1-.22.2-.33.31-.44.45-.86.97-1.27,1.56-.08.12-.16.23-.24.35-.48.74-.94,1.56-1.38,2.46-.44.91-.85,1.86-1.22,2.84-.37.99-.75,2.26-1.12,3.79l-.22.9c-.23.95-.35,1.42-.35,1.42,0,0-.12.74-.37,2.23-.04.24-.07.46-.1.69h0c-.41-.29-.84-.54-1.31-.7-.62-.22-1.28-.34-1.98-.37-.71-.03-1.47.08-2.27.32-.42.12-.82.28-1.2.45-.48.22-.93.49-1.36.8-.76.56-1.4,1.2-1.92,1.94-.14.2-.27.41-.4.62-.33.57-.6,1.17-.81,1.82-.27.85-.4,1.82-.42,2.9v.03c-.6.52-1.18,1.04-1.74,1.58-.66.63-1.31,1.25-1.98,1.86-.66.6-1.35,1.16-2.05,1.66-.7.5-1.45.92-2.23,1.27-.78.34-1.62.56-2.52.66-.5.05-.97.04-1.4-.03l.14,3.11c.14,0,.28-.01.43-.02,1.04-.09,1.99-.27,2.84-.52.86-.25,1.64-.56,2.35-.92.71-.35,1.36-.74,1.95-1.17.59-.43,1.13-.87,1.63-1.32.5-.45.96-.94,1.39-1.43.43-.5.85-.98,1.25-1.44.14-.16.28-.31.43-.46h0c.14.32.29.62.49.88.08.1.16.2.25.28.3.3.65.52,1.07.66.53.19,1.17.19,1.92-.02.24-.07.47-.15.69-.25.27-.12.53-.27.78-.45.46-.31.88-.68,1.27-1.11.38-.42.73-.89,1.03-1.41.3-.51.56-1.05.77-1.59.21-.55.37-1.1.48-1.64.11-.55.16-1.09.16-1.59,0-.69-.06-1.29-.18-1.81-.12-.51-.31-.98-.56-1.39.03-.06.07-.12.1-.18.31.1.67.25,1.1.41.42.16.86.38,1.29.67.1.06.19.12.28.17,0,0,0,0,0,0h0s0,0,0,0c0,.19-.02.38-.02.54,0,.98.09,1.89.25,2.72.16.83.39,1.54.68,2.11.05.09.09.18.14.26.26.44.56.77.89.98.39.26.82.3,1.28.12.29-.11.62-.28.96-.49.34-.21.69-.46,1.05-.73h0c.35-.28.71-.57,1.07-.89.18-.16.35-.32.53-.48.11-.1.22-.2.32-.3,0,0,0,0,0-.01h.03s-.01,0-.02.01c.09.08.17.16.28.22.25.15.53.24.83.26.06,0,.13,0,.19,0,.39,0,.79-.1,1.2-.29.08-.04.16-.08.25-.12.31-.17.61-.37.91-.62.39-.32.76-.66,1.12-1.03.36-.37.68-.76.98-1.17.29-.4.55-.77.76-1.11.28.54.6.89.98,1.05.38.16.85.08,1.42-.24.47-.26.93-.64,1.4-1.15.47-.5.91-1.05,1.32-1.63.4-.58.78-1.17,1.1-1.74.33-.58.59-1.06.79-1.45-.2-.81-.41-1.62-.61-2.43Zm-24.74,11.37c-.12.68-.29,1.27-.5,1.78-.21.51-.45.96-.72,1.33-.21.29-.43.49-.65.61-.06.03-.13.06-.19.08-.33.1-.62.11-.86.03-.24-.08-.43-.21-.57-.41-.15-.2-.26-.45-.32-.74-.07-.3-.1-.63-.1-.99,0-.71.08-1.37.21-1.97.13-.6.32-1.17.56-1.7.24-.54.52-.99.83-1.38.14-.18.29-.33.45-.45.18-.14.36-.24.55-.29.26-.08.5-.07.68.02.19.09.34.24.45.45.12.21.21.48.27.8.06.32.09.68.09,1.07,0,.5-.06,1.08-.18,1.76Zm8.32-10.45c.23-1.25.34-1.87.34-1.87,0,0,.18-.7.56-2.1.25-.93.47-1.69.68-2.3.1-.31.2-.58.29-.81.27-.67.54-1.22.8-1.66.18-.29.34-.49.5-.63.09-.08.17-.13.25-.17.06-.03.1.04.11.22.01.17.03.38.02.63-.05.66-.18,1.39-.38,2.19-.05.19-.1.39-.16.59-.28,1.03-.61,2.08-1,3.16-.15.41-.3.82-.45,1.23-.25.65-.5,1.3-.77,1.94-.43,1.03-.84,1.97-1.22,2.81.04-.9.18-1.97.41-3.21Zm9.26,3.02c-.05.29-.11.67-.22,1.14-.12.48-.27.95-.45,1.43-.19.48-.41.92-.67,1.32-.25.4-.54.68-.85.83-.2.09-.36.12-.49.08-.13-.04-.23-.13-.3-.25l-.03-.05c-.06-.12-.11-.27-.14-.44-.03-.19-.05-.4-.05-.62,0-.37.06-.79.15-1.26l.03-.14c.1-.44.26-.97.47-1.58.24-.67.48-1.26.73-1.76.25-.5.52-.97.81-1.41.3-.45.6-.83.94-1.17.34-.35.68-.61,1.03-.79-.32,1.55-.66,3.1-.96,4.66Z"/>
      </g>
      <path class="cls-14" d="m5.71,119.81h93.32l-1.87,9.41c-9.16,9.45-25.84,15.77-44.89,15.77s-35.92-6.4-45.05-15.94l-1.5-9.25Z"/>
      <path class="cls-2" d="m88.11,120.14l-2.27,17.62c-9.09,4.72-20.8,7.57-33.58,7.57-11.65,0-22.41-2.36-31.1-6.36l-1.74-18.83h68.69Z"/>
      <path class="cls-19" d="m101.59,6.7c4.38-4.56-2.22-8.96-5.63-5.41l-32.24,33.56,5.63,5.41L101.59,6.7Z"/>
      <path class="cls-7" d="m52.37,73.46c23.55,0,43.47,9.66,50.06,22.94h2.16v7.08c.1.83.15,1.66.15,2.5,0,17.96-23.45,32.52-52.37,32.52S0,123.94,0,105.98v-9.58h2.31c6.59-13.28,26.51-22.94,50.06-22.94Z"/>
      <path class="cls-8" d="m104.59,104.49v.95c.02.16.04.33.05.49-1.66,17.03-24.43,30.53-52.27,30.53S0,121.9,0,103.94c0-.33,0-.66.03-.99.82,17.51,23.95,31.56,52.34,31.56s50.16-13.23,52.22-30.02Z"/>
      <path class="cls-16" d="m52.37,126.41c28.84,0,52.37-14.61,52.37-32.52s-23.53-32.52-52.37-32.52S0,75.97,0,93.89s23.53,32.52,52.37,32.52Z"/>
      <path class="cls-7" d="m52.37,63.59c26.95,0,48.8,13.57,48.8,30.31s-21.85,30.31-48.8,30.31v-1.91c25.25,0,45.72-12.71,45.72-28.39s-20.48-28.39-45.72-28.39v-1.91Zm0,60.62c-26.95,0-48.8-13.57-48.8-30.31s21.85-30.31,48.8-30.31v1.91c-25.25,0-45.72,12.71-45.72,28.39s20.47,28.39,45.72,28.39v1.91Z"/>
      <path class="cls-7" d="m52.37,115.72c19.36,0,35.15-9.81,35.15-21.83s-15.79-21.83-35.15-21.83-35.15,9.81-35.15,21.83,15.79,21.83,35.15,21.83Z"/>
      <path class="cls-3" d="m52.37,77.63c17.89,0,32.66,8.3,34.87,19.04-2.2,10.74-16.97,19.05-34.87,19.05s-32.66-8.31-34.87-19.05c2.2-10.74,16.98-19.04,34.87-19.04Z"/>
      <path class="cls-7" d="m52.37,111.16c12.01,0,21.81-6.08,21.81-13.54s-9.8-13.54-21.81-13.54-21.81,6.08-21.81,13.54,9.8,13.54,21.81,13.54Z"/>
      <path class="cls-10" d="m52.37,107.43c12.01,0,21.81-6.08,21.81-13.54s-9.8-13.54-21.81-13.54-21.81,6.08-21.81,13.54,9.8,13.54,21.81,13.54Z"/>
      <ellipse class="cls-13" cx="52.8" cy="93.93" rx="5.91" ry="3.67"/>
      <path class="cls-5" d="m70.66,38.26c1.2-4.97-6.42-6.3-7.55-1.98l-14.54,60.2c2.61,1.46,5.28,1.48,8,.27l14.09-58.5Z"/>
    </g>
  </g>
</svg>