<?xml version="1.0" encoding="UTF-8"?>
<svg id="Layer_2" data-name="Layer 2" xmlns="http://www.w3.org/2000/svg" xmlns:xlink="http://www.w3.org/1999/xlink" viewBox="0 0 139.43 180.56">
  <defs>
    <style>
      .cls-1, .cls-2, .cls-3, .cls-4, .cls-5, .cls-6, .cls-7, .cls-8, .cls-9, .cls-10, .cls-11, .cls-12, .cls-13, .cls-14, .cls-15, .cls-16, .cls-17, .cls-18 {
        stroke-width: 0px;
      }

      .cls-1, .cls-2, .cls-5, .cls-6, .cls-7, .cls-9, .cls-10, .cls-11, .cls-12, .cls-13, .cls-14, .cls-15, .cls-16, .cls-17, .cls-18 {
        fill-rule: evenodd;
      }

      .cls-1, .cls-4 {
        fill: #d7dfe2;
      }

      .cls-2 {
        fill: #c8252f;
      }

      .cls-3, .cls-15 {
        fill: #f3f6f9;
      }

      .cls-5 {
        fill: #da242c;
      }

      .cls-6 {
        fill: #fbbe73;
      }

      .cls-7 {
        fill: #cad5dd;
      }

      .cls-8 {
        fill: url(#GradientFill_1);
      }

      .cls-9 {
        fill: #a2b3bc;
      }

      .cls-10 {
        fill: #cc8410;
      }

      .cls-11 {
        fill: #9c4609;
      }

      .cls-12 {
        fill: #e2e7eb;
      }

      .cls-13 {
        fill: #f7f8f9;
      }

      .cls-14 {
        fill: #ffcb05;
      }

      .cls-16 {
        fill: #a89986;
      }

      .cls-17 {
        fill: #ed1c24;
      }

      .cls-18 {
        fill: #febd30;
      }
    </style>
    <linearGradient id="GradientFill_1" data-name="GradientFill 1" x1="67.77" y1="0" x2="67.77" y2="74.96" gradientUnits="userSpaceOnUse">
      <stop offset="0" stop-color="#f4f4f7"/>
      <stop offset="1" stop-color="#fff"/>
    </linearGradient>
  </defs>
  <g id="_1" data-name="1">
    <g>
      <path class="cls-16" d="m66.69,160.22c26.2,0,47.56-13.27,47.56-29.53s-21.37-29.54-47.56-29.54-47.56,13.27-47.56,29.54,21.37,29.53,47.56,29.53Z"/>
      <path class="cls-7" d="m14,67.36l108.14-2.01-19.06,65.91c-3.19,11.02-18.24,19.68-36.94,19.68s-34.11-8.48-36.92-19.58c-5.37-21.22-10.11-42.69-15.21-64Z"/>
      <path class="cls-1" d="m28.87,67.08l82.17-1.53-16.36,76.95c-6.83,5.12-16.99,8.42-28.54,8.42-10.29,0-19.62-2.59-26.38-6.77l-10.88-77.08Z"/>
      <path class="cls-15" d="m47.33,66.74l53.15-.99-11.19,80.06c-6.33,3.19-14.34,5.12-23.16,5.12-6.41,0-12.45-1-17.72-2.77l-1.08-81.42Z"/>
      <path class="cls-2" d="m14,67.36l108.14-2.01-17.69,61.15c-5.78,9.65-20.34,16.71-37.89,16.71-18.83,0-34.65-8.01-39.1-18.84-4.67-18.94-8.92-38.04-13.46-57Z"/>
      <path class="cls-5" d="m28.87,67.08l82.17-1.53-14.74,69.33c-7.34,5.08-17.85,8.32-29.73,8.32-10.84,0-20.68-2.66-27.93-6.98l-9.76-69.14Z"/>
      <path class="cls-17" d="m47.33,66.74l53.15-.99-10.14,72.52c-6.63,3.09-14.82,4.93-23.78,4.93-6.57,0-12.77-.98-18.26-2.71l-.98-73.75Z"/>
      <g>
        <path class="cls-4" d="m47.57,122.09c-.06-.02-.12-.04-.17-.06h0c-.05-.02-.12-.02-.19,0-.11.02-.21.09-.27.18-.07.1-.12.22-.16.36-.04.15-.06.3-.07.46-.01.17-.02.33-.02.48,0,.1,0,.2,0,.29,0,.1,0,.18,0,.25,0,.39.13.67.39.83.09.05.19.09.3.12.19.04.43.04.71,0l-.04-2.85c-.1.02-.19.02-.26.01-.09-.01-.17-.03-.23-.05Z"/>
        <path class="cls-4" d="m48.18,133.51c-.25.16-.51.29-.78.4-.31.13-.63.22-.96.28-.5.09-.95.06-1.35-.11-.4-.16-.74-.44-1.01-.85-.28-.41-.49-.94-.64-1.6-.15-.65-.22-1.44-.22-2.34,0-.61.04-1.3.13-2.04.08-.74.21-1.52.37-2.32.16-.81.35-1.62.57-2.44.23-.82.48-1.61.76-2.38.28-.77.59-1.5.92-2.2.33-.7.68-1.31,1.05-1.84.12-.18.25-.35.38-.51.19-.23.38-.44.57-.63l-.04-3-.09.06c-.15.11-.29.22-.44.34-.44.36-.87.78-1.28,1.27-.55.64-1.06,1.37-1.54,2.17-.48.81-.92,1.68-1.32,2.58-.4.91-.76,1.85-1.08,2.82-.32.97-.59,1.94-.81,2.89-.22.96-.39,1.9-.51,2.81-.12.92-.17,1.76-.17,2.55,0,1.13.12,2.2.37,3.2.24,1.01.58,1.87,1.04,2.6.45.72.99,1.27,1.63,1.65.63.36,1.35.49,2.14.35.55-.09,1.06-.23,1.53-.4.15-.05.29-.11.43-.17.15-.06.29-.13.43-.2l-.04-3-.04.02Z"/>
        <path class="cls-4" d="m98.34,106.99c-.37.62-.57.94-.59.94-.01,0-.15.24-.4.72-.06.11-.17.29-.37.54-.13.16-.23.27-.3.33-.19.14-.34.07-.43-.2-.09-.28-.14-.68-.14-1.21,0-.31.02-.67.04-1.06.03-.39.06-.79.1-1.2.04-.41.09-.88.14-1.41.05-.52.09-.95.13-1.28.04-.34.08-.63.1-.86.03-.24.04-.41.04-.5,0-.63-.09-1.06-.27-1.29-.17-.23-.4-.25-.7-.05l-.08.06-1.17,8.38c-.02.39-.03.75-.03,1.08,0,1.31.11,2.22.33,2.74.22.52.49.68.81.45.32-.22.62-.51.92-.85.11-.13.4-.5.85-1.12.19-.25.66-.95,1.4-2.07.52-.79.8-1.21.83-1.28.14-.27.29-.54.44-.81,0-.95,0-1.9.01-2.86-.66,1.11-1.22,2.06-1.68,2.84Z"/>
      </g>
      <g>
        <path class="cls-3" d="m49.51,124.35c.4-.31.79-.71,1.17-1.18l.11-.14c.33-.44.65-.92.94-1.46.33-.6.61-1.23.85-1.88.24-.66.43-1.32.57-2.01.14-.68.21-1.34.21-1.97,0-.93-.11-1.72-.33-2.35-.22-.63-.5-1.13-.85-1.49-.35-.36-.74-.6-1.17-.71-.07-.02-.15-.03-.22-.05-.36-.06-.72-.06-1.07.02-.62.14-1.21.41-1.79.8l.04,3c.07-.07.14-.13.21-.2.4-.35.81-.58,1.23-.67.36-.08.66-.07.91.03.18.07.33.17.46.3.05.05.1.11.15.18.15.22.27.49.34.82.07.33.1.68.1,1.07,0,.72-.09,1.42-.29,2.07-.09.29-.19.58-.31.85-.13.32-.29.61-.45.88-.31.51-.65.92-1.04,1.25-.38.32-.76.52-1.14.6l-.09.02.04,2.85c.06,0,.13-.02.2-.04.4-.08.81-.27,1.21-.59Z"/>
        <path class="cls-3" d="m94.45,108.87l1.17-8.38c-.26.19-.5.45-.72.75-.24.33-.46.79-.64,1.38-.04.13-.1.33-.18.6-.08.27-.17.57-.27.91-.1.35-.21.71-.33,1.09-.11.38-.22.8-.32,1.26-.1.46-.19.82-.26,1.07-.08.26-.13.45-.17.57-.06.04-.12.08-.17.11,0-.05.01-.18.03-.36.02-.19.04-.47.07-.84.03-.37.05-.71.08-1,.03-.29.06-.59.08-.87.03-.27.05-.53.07-.76.02-.23.02-.41.02-.53,0-.47-.06-.81-.18-1.01-.12-.2-.35-.2-.66,0-.32.21-.57.49-.75.88-.18.38-.31.79-.37,1.22-.08.55-.17,1.21-.25,1.98-.09.76-.17,1.61-.24,2.53-.05.67-.09,1.29-.13,1.87v.15s-.02.01-.02.01c0-.05,0-.09,0-.12-.09.15-.2.32-.32.53-.33.56-.68,1.11-1.05,1.63-.37.52-.75,1.01-1.14,1.44-.39.43-.76.76-1.11.97-.05.03-.1.06-.15.08-.06.03-.11.04-.16.06-.1.02-.19.02-.28-.02-.09-.04-.17-.1-.26-.2-.08-.1-.17-.24-.26-.41.33-.33.65-.67.96-1.05.16-.2.31-.4.46-.61.44-.62.81-1.26,1.13-1.91.32-.65.59-1.37.83-2.16.24-.79.36-1.44.36-1.96,0-.48-.06-.89-.17-1.21-.12-.31-.28-.55-.49-.7-.21-.16-.45-.23-.73-.21-.28.02-.59.13-.91.32-.16.09-.32.2-.47.32-.22.18-.43.39-.63.62-.33.39-.62.84-.89,1.35-.26.5-.5,1.03-.69,1.59-.2.58-.36,1.15-.49,1.73-.13.58-.26,1.23-.38,1.94-.12.73-.19,1.33-.19,1.8,0,.27,0,.54.03.79-.18.35-.36.8-.53,1.18-.15.32-.3.61-.45.88-.15.27-.29.51-.43.7-.14.19-.27.32-.39.38-.21.12-.37.13-.47.05-.1-.08-.15-.27-.15-.58,0-.36.06-.76.18-1.19.12-.42.26-.88.44-1.34.17-.46.37-.93.57-1.41.2-.47.4-.94.57-1.4.17-.46.34-.99.5-1.56.16-.58.24-1.05.24-1.41s-.03-.68-.1-.93c-.07-.26-.15-.46-.26-.61-.11-.15-.24-.24-.39-.27-.15-.03-.3,0-.47.09-.32.18-.62.39-.88.67-.26.28-.49.55-.67.84-.12.19-.3.57-.55,1.17-.25.6-.49,1.18-.73,1.74-.24.56-.5,1.13-.75,1.74l-.2.49c-.17.42-.34.81-.49,1.18-.07-.03-.14-.06-.21-.09.23-.63.47-1.25.7-1.88.12-.31.23-.63.35-.94.06-.16.16-.51.32-1.03.16-.52.35-1.16.56-1.92.21-.75.43-1.59.66-2.5.23-.93.45-1.86.64-2.8.19-.95.36-1.88.48-2.8.12-.91.19-1.73.19-2.46,0-.4-.02-.78-.07-1.1-.05-.33-.12-.58-.24-.77-.11-.19-.27-.3-.46-.34-.19-.04-.44.02-.74.18-.38.19-.73.49-1.05.88-.22.26-.42.56-.62.88-.09.16-.18.32-.27.5-.27.53-.51,1.12-.73,1.75-.22.64-.41,1.29-.58,1.95-.17.67-.32,1.34-.44,2.02-.12.68-.24,1.33-.34,1.95-.11.62-.2,1.2-.26,1.73-.06.53-.12.98-.16,1.35-.12,1.06-.21,2.14-.29,3.25-.08,1.1-.14,2.16-.19,3.15-.02.51-.05,1.01-.07,1.48-.06.15-.14.31-.58,1.2-.3.61-.64,1.18-.98,1.72-.34.54-.68,1.02-1.02,1.42-.34.4-.65.67-.93.8-.29.12-.52.13-.7.03-.18-.1-.33-.27-.45-.5-.12-.23-.19-.5-.23-.82-.04-.32-.05-.63-.05-.93,0-.21,0-.47.02-.77.01-.31.04-.64.09-1,.05-.36.14-.8.25-1.34.12-.54.23-.97.35-1.3.12-.32.26-.6.43-.84.17-.24.37-.41.61-.52.1-.04.17,0,.19.12.03.13.05.29.05.49,0,.24,0,.39-.01.46-.08.54-.13.88-.16,1.02-.05.28,0,.55.13.82.09.18.28.19.58.06.2-.09.37-.24.53-.45.15-.2.32-.54.48-.99.17-.45.27-.84.33-1.15.06-.3.08-.6.08-.9,0-.42-.06-.78-.18-1.09-.12-.31-.29-.54-.51-.71-.22-.17-.48-.26-.78-.27-.31-.02-.63.06-.99.22-.39.17-.75.44-1.09.79-.33.35-.63.76-.9,1.23-.27.47-.5.98-.71,1.54-.21.56-.37,1.12-.51,1.7-.14.58-.27,1.24-.38,1.98-.12.74-.17,1.36-.17,1.86,0,.44.03.87.08,1.27-.05.1-.21.35-.36.57-.26.41-.52.78-.78,1.1-.26.32-.49.52-.71.6-.18.07-.3,0-.36-.2-.06-.19-.08-.5-.08-.88s.04-.84.13-1.36c.08-.51.15-1.02.21-1.53.06-.51.16-1.14.31-1.89.15-.75.26-1.36.34-1.84.08-.47.14-.88.21-1.26.06-.37.09-.65.09-.83,0-.22-.04-.39-.13-.48-.09-.1-.25-.1-.49,0-.13.05-.29.13-.45.24-.17.12-.32.26-.48.41-.15.16-.29.34-.41.54-.14.23-.22.45-.25.68-.05.33-.2,1.05-.41,2.16-.25,1.34-.39,2.21-.48,2.6-.03.13-.08.52-.16,1.18-.29.63-.58,1.19-.88,1.72-.13.24-.28.48-.43.7-.16.24-.31.45-.47.64-.16.19-.32.37-.48.51-.16.14-.31.24-.45.29-.11.04-.21-.03-.28-.22-.07-.18-.1-.44-.1-.8,0-.63.05-1.27.16-1.89.11-.62.32-1.38.63-2.3.31-.91.53-1.67.64-2.27.11-.6.16-1.2.16-1.79,0-.29-.03-.53-.08-.69-.05-.17-.11-.29-.2-.37-.08-.07-.16-.12-.25-.13-.09,0-.17,0-.23.02-.28.1-.58.37-.91.79-.32.42-.73,1.07-1.23,1.94-.5.88-.9,1.64-1.2,2.27-.19.4-.37.79-.53,1.16l-.28.63c-.06-.04-.12-.08-.17-.12.13-.42.28-.89.45-1.4l.24-.71c.26-.8.53-1.64.79-2.54.27-.89.54-1.82.79-2.76.26-.94.49-1.87.69-2.77.2-.91.36-1.77.49-2.59.12-.81.19-1.55.19-2.18,0-.43-.02-.81-.07-1.14-.05-.33-.13-.6-.25-.81-.12-.21-.28-.34-.48-.41-.2-.07-.46-.05-.78.06-.61.2-1.14.62-1.61,1.25l-.02.02c-.47.65-.88,1.45-1.23,2.4-.35.95-.65,2.02-.89,3.2-.24,1.18-.42,2.4-.55,3.67-.12,1.26-.25,2.53-.37,3.79-.13,1.28-.21,2.49-.25,3.66-.03.71-.05,1.38-.06,2.01-.1.11-.2.23-.3.35-.47.57-.94,1.15-1.39,1.74-.45.59-.91,1.19-1.37,1.78-.11.14-.22.28-.34.42-.35.42-.71.82-1.07,1.19-.47.48-.97.89-1.5,1.22l.04,3c.42-.21.82-.44,1.19-.7.49-.35.94-.72,1.34-1.13h0c.41-.41.78-.84,1.12-1.27.35-.43.67-.89.96-1.36.3-.48.58-.94.86-1.38.14-.23.29-.45.43-.66v.27c0,.33,0,.66.02.98.02.32.06.59.12.83.06.23.14.42.25.54.11.12.27.16.46.1.15-.04.27-.13.36-.24.1-.12.19-.27.26-.47.08-.2.15-.45.23-.76.08-.31.19-.67.32-1.09.26-.84.55-1.67.87-2.5.17-.45.34-.87.51-1.27.14-.34.28-.66.42-.97.3-.68.57-1.24.81-1.7.24-.46.41-.75.51-.88.06,0,.12-.01.19-.02-.02.03-.06.14-.12.32-.06.19-.14.42-.22.71-.08.29-.17.61-.26.98-.09.35-.18.72-.26,1.09-.07.36-.14.73-.19,1.09-.05.36-.08.67-.08.94,0,.4.04.8.11,1.21.08.42.19.79.35,1.1.16.32.36.56.6.72.24.16.53.18.86.06.21-.07.43-.2.66-.37.23-.18.46-.39.69-.61.23-.23.46-.49.69-.76.23-.27.44-.55.64-.81.16-.22.32-.42.46-.62.01.18.04.35.07.51.06.3.15.54.28.71.13.17.3.28.5.33.21.04.47,0,.78-.12.34-.13.7-.36,1.08-.69.38-.33.74-.71,1.11-1.12.36-.42.71-.84,1.02-1.3.08-.11.15-.22.22-.32.07.13.15.25.23.36.28.37.63.61,1.03.73.41.11.89.06,1.43-.18.31-.14.62-.34.92-.62.3-.28.59-.59.87-.94.28-.36.55-.74.81-1.15.25-.4.48-.82.7-1.23.18-.34.35-.69.53-1.04,0,.16,0,.32,0,.46,0,.39.01.74.03,1.06.02.33.07.59.14.81.07.22.19.37.34.45.14.08.34.05.6-.07.19-.09.35-.24.49-.43.14-.19.3-.47.43-.86.46-1.38.92-2.78,1.37-4.17l1.21-3.71c.18-.56.36-.99.52-1.27.15-.27.29-.44.39-.49.08-.04.14-.02.19.07.04.09.07.23.07.41,0,.1-.02.19-.05.3-.04.1-.09.22-.15.35-.06.14-.14.29-.23.46-.09.17-.2.36-.29.57-.28.64-.48,1.22-.64,1.75-.16.52-.29.99-.38,1.39-.09.41-.16.77-.19,1.08-.03.3-.05.56-.05.76,0,.31.03.6.08.86.05.26.16.47.31.63.15.15.36.22.63.23.26,0,.61-.11,1.03-.33.32-.17.66-.41,1-.72.36-.32.69-.68,1.01-1.08.33-.4.63-.84.91-1.3.09-.14.16-.29.24-.43.03.04.06.09.1.13.27.34.61.56,1.02.62.41.06.88-.07,1.43-.39h.01c.35-.21.7-.48,1.04-.8.34-.32.67-.68.99-1.07.32-.39.62-.81.92-1.25.22-.33.46-.64.74-1.01h0c0,.07.01.14.02.21.03.3.08.55.16.75.08.2.19.33.34.39.14.05.33,0,.58-.15.19-.12.36-.3.51-.52.14-.2.27-.53.4-.97.77-2.72,1.53-5.45,2.3-8.19.05-.03.1-.06.14-.1-.07.73-.13,1.41-.18,2.04-.01.21-.03.42-.04.62Zm-37.87,12.52c-.19.68-.36,1.33-.52,1.91.07-.99.18-2.01.3-3.06.05-.45.08-.92.13-1.41.05-.5.1-1.01.15-1.53.05-.52.12-1.04.2-1.57.09-.54.15-1.06.28-1.55.15-.58.29-1.1.43-1.58.23-.77.44-1.41.63-1.92.3-.82.52-1.26.67-1.31.12-.04.19.27.19.92,0,.42-.08,1.11-.24,2.07-.16.95-.4,2.13-.75,3.55-.1.42-.24.93-.4,1.53l-.1.38c-.13.49-.27,1-.41,1.54-.18.68-.37,1.36-.56,2.05Zm20.37-6.03c.05-1.07.11-2.16.21-3.28.04-.47.09-.95.14-1.48.05-.52.11-1.06.16-1.6.05-.55.12-1.11.21-1.67.09-.57.15-1.13.26-1.67.13-.64.29-1.2.42-1.72v-.06c.13-.48.25-.91.37-1.27.12-.37.25-.69.38-.93.14-.24.3-.41.49-.51.13-.07.19.04.19.32,0,.19-.03.45-.07.75-.04.31-.11.64-.18,1-.07.36-.16.74-.25,1.13-.09.4-.18.78-.27,1.15-.09.37-.17.72-.25,1.03-.08.33-.14.59-.18.8-.06.32-.14.69-.23,1.12l-.11.52c-.13.64-.28,1.33-.43,2.06-.15.73-.3,1.47-.46,2.21-.15.75-.29,1.44-.43,2.08Zm8.41-1.84c0-.19,0-.41.02-.67.01-.26.07-.63.16-1.08.1-.46.18-.84.25-1.15.08-.32.17-.62.29-.9.12-.27.26-.53.43-.76v-.02c.19-.24.41-.43.66-.58.14-.08.26-.03.36.15.1.18.14.46.14.84,0,.26-.1.67-.31,1.2-.2.53-.41.99-.62,1.36-.07.12-.15.25-.23.36-.15.22-.31.43-.47.63-.25.3-.48.51-.69.63Z"/>
      </g>
      <path class="cls-2" d="m14,67.36h107.54l-.03.17-3.47,11.99c-10.8,10.16-29.33,16.86-50.39,16.86s-40.16-6.91-50.88-17.32c-.92-3.91-1.83-7.81-2.77-11.71Z"/>
      <path class="cls-12" d="m67.77,13.94c27.14,0,50.09,11.13,57.68,26.44h2.49v8.16c.12.95.18,1.91.18,2.88,0,20.7-27.03,37.48-60.35,37.48S7.42,72.11,7.42,51.42v-11.04h2.67c7.59-15.31,30.55-26.44,57.69-26.44Z"/>
      <ellipse class="cls-8" cx="67.77" cy="37.48" rx="60.35" ry="37.48"/>
      <path class="cls-7" d="m67.77,72.05c30.66,0,55.67-15.53,55.67-34.57S98.43,2.91,67.77,2.91,12.09,18.44,12.09,37.48s25.01,34.57,55.67,34.57Z"/>
      <g>
        <path class="cls-11" d="m44.85,36.57c2.86-3.49,16.92-7.54,21.74-10.85,7.04-4.83,18.82-27.32,32.84-21.1,12.49,5.54,15.3,18.74,7.97,28.73-14.89,20.29-27.01,5.7-42.22,12.61-16.83,7.65-30.71,3.27-20.34-9.39Z"/>
        <path class="cls-10" d="m98.25,4.17c1.97,1.21,3.62,2.63,4.96,4.21-.3.09-.95.41-.08,1.04,1.49,1.09,1.74,1.41,2.48,2.8.42.78.39,1.52.96,2.19.27.83.47,1.69.61,2.55-.2.48-.36.96-.2,1.38.18.46.32.86.42,1.22,0,.73-.03,1.46-.11,2.19-.86.79-3.15-.41-3.19.78-.04,1.24,1.81,2.18,1.64,2.76-.7,2.32-.22,3.43-2.26,4.26-.72.29-2.42-.95-2.69-.71-.69.6.64,3.02.72,3.66.09.72-1-.21-1.4,0-.44.23.56,1.87.21,2.69-.11.11-.21.23-.32.34-.02.01-.05.03-.08.04-.99.4-2.41,1.43-2.41,1.43-.32.47-.53,1.03-.77,1.5-.44.34-.88.66-1.33.95-.1-.01-.2-.03-.31-.07-2.16-.66-1.17-.69-2.75.56-.36.29-1.05.73-1.74.76-1.8.09-1.49,3.04-3.49-.2-.29-.47-1.85-3.34-2.67-2.53-1.13,1.11-.91,2.58-.52,3.82.07.23-1.25-.06-1.6-.05-.91.02-1.25.91-2.13.64-.57-.17-1.04-1.74-1.87-.57-2.48-.69-4.53,1-5.48-.37-.96-1.38-.94-.45-1.01.56-.5,0-1,0-1.51,0-.85-1.31-2-2.73-2.66-.53-.1.33-.2.58-.29.77-.34.05-.69.1-1.03.17-.37-.3-.81-.72-1.4-.48-.35.15-.74.62-1.08,1.08-.59.18-1.18.39-1.77.63-1.12-.6-1.17-1.05-2.51,1.08-.2.08-.41.17-.61.25-.39-.35-.93-1.14-1.04-1.19-1.81-.82-3.55-1.4-3.66,1.79-.05,1.38-1.7-1.84-2.07-.63-.47,1.54-5.64.62-6.15,2.86-1.25,0-2.41-.11-3.44-.32-2.18-2.18-1.88-5.9,2.23-10.92,2.86-3.49,16.92-7.54,21.74-10.85,6.84-4.69,18.16-26.06,31.66-21.56Z"/>
        <path class="cls-18" d="m99.59,5.06c-.06,1.65-1.71,2.3-1.95,4.12-.17,1.34,4.32,2.03,5.27,2.43.94.4-4.58,6.75-7.62,1.21-1.44-2.62-7.5-2.14-2.96,4.28,2.26,3.2-.66,1.7-3.23,1.09-4.27-1.01-.49,3.38-.79,3.28-2.19-.67-3.88-11.1-6.41-2.78-1.68,5.53,5.66,2.86-.4,6.1-3.25,1.74-4.93,2.03-.98,3.23,2.59.79-2.62-.13-3.21-.35-1.08-.41-1.01-.88-1.3-1.85-.83-2.7-1.13-1.22-3.06.52-2.4,2.17,4.19,5.36-.06,7.03-5.19,2.03-6.09-6.46-6.51,3-.11,2.49-4.22-1.15-4.55-1.38-1.75-1.24-5.46.68-4.86,3.71.58,2.93-2.86-2.23-3.33-2.67-.53-.49-5.86,1.06-6.1,1.67-.83,2.04,2.53,3.76.03,3.32-4.04-.71-3.32,3.7-4.61,6.54-.1-.02-.21-.04-.31-.06-2.18-2.18-1.88-5.9,2.23-10.92,2.86-3.49,16.92-7.54,21.74-10.85,6.84-4.69,18.16-26.06,31.66-21.56.46.28.91.58,1.34.89Z"/>
        <path class="cls-18" d="m88.23,25.59c.4.5,1.05,1.15,2.3,1.54,1.4.42.27.82-.08,1.63-.3.68.07,1.63.37,2.19.58,1.1.23.36.6,1.43.3.85,1.3,1.23-.23.76l-3.42-1.04c-1.41-.43.43-2.98.26-4.27-.07-.52-.98-1.55-1.06-1.98,0-.04.55-.45.55-.45.42-.11.94.51.7.2Z"/>
        <path class="cls-18" d="m77.46,31.24c.57.17.8.44,1.01.1.32-.52.61-.7,1.24-.66.38.03,1.03-.24.89.48-.29,1.47-.64,2.37.1,3.76,0,.02.6.79.07.44-.6-.4-1.03-1.08-1.67-1.34-.38-.15-1.81-1.01-1.91-1.2-.34-.63-.29-1.06.27-1.58Z"/>
        <path class="cls-18" d="m90.76,20.51c1.16.74-.18.56.98.56.29,0,.53.05.82.04.56-.02.93.3,1.02.73.07.31-.17.69-.1,1.01.12.54.49.93.66,1.24.06.12.02.17.13.25.55.36-1.99.4-2.38.31-.64-.14-.62-.4-1.08-.54-.85-.26-1.01-1.15-.87-1.92.08-.44.3-.84.67-.83.33,0,.41-.65.14-.84Z"/>
        <path class="cls-18" d="m58.29,35.38c.67.59,4.2,3.13,4.02,4.1-.07.36-.37.99-.59,1.27-.16.2-.36.49-.55.45-.52-.09-1.56-.32-1.46-.65l.06-.19c.08-.28-.65-.67-.72-1.05-.09-.53.03-1.23.14-1.82.03-.16-.06-.28-.07-.44,0-.13.09-.25.12-.38.1-.59-.29-.78-.93-1.3Z"/>
      </g>
      <g>
        <path class="cls-11" d="m13.77,5.9c4.85,2,14.12,16.29,19.43,20.54,7.76,6.21,36.79,11.71,34.61,29.44-1.94,15.79-15.69,23.38-29.29,18.6-27.63-9.72-15.49-28.15-28.33-42.75C-4.03,15.58-3.85-1.37,13.77,5.9Z"/>
        <path class="cls-10" d="m67.92,54.41c-.68,2.6-1.71,4.92-3.02,6.95-.2-.31-.78-.91-1.19.26-.71,2.03-.98,2.41-2.28,3.71-.73.73-1.56.95-2.11,1.81-.84.58-1.72,1.09-2.63,1.54-.6-.06-1.2-.08-1.61.25-.45.36-.85.65-1.21.88-.81.25-1.63.46-2.47.62-1.18-.69-.61-3.65-1.94-3.29-1.4.37-1.82,2.76-2.52,2.76-2.82,0-3.89.92-5.51-1.08-.57-.7.24-3.01-.12-3.23-.9-.56-3.14,1.73-3.83,2.04-.77.34-.11-1.19-.48-1.56-.41-.41-1.89,1.26-2.92,1.15-.16-.08-.33-.16-.48-.24-.02-.02-.05-.05-.07-.08-.78-.97-2.4-2.2-2.4-2.2-.63-.2-1.33-.24-1.93-.35-.53-.38-1.03-.76-1.51-1.15-.02-.11-.03-.23-.03-.37,0-2.63.37-1.54-1.56-2.88-.44-.31-1.16-.92-1.44-1.68-.71-1.98-3.89-.63-.96-3.95.42-.48,3.1-3.19,1.92-3.83-1.61-.88-3.18-.14-4.43.72-.23.16-.35-1.41-.48-1.8-.33-1.01-1.44-1.08-1.44-2.16,0-.69,1.58-1.75,0-2.28-.07-3-2.65-4.7-1.44-6.23,1.21-1.53.19-1.2-.97-.93-.16-.56-.33-1.12-.52-1.67,1.17-1.39,2.36-3.14-.31-3.14-.41,0-.72-.02-.96-.07-.17-.37-.35-.73-.54-1.09.21-.52.53-1.15.06-1.72-.28-.34-.94-.62-1.57-.84-.4-.59-.83-1.18-1.3-1.76.29-1.45.77-1.66-2.05-2.43-.16-.2-.32-.4-.48-.6.26-.56.95-1.42.97-1.57.3-2.29.36-4.43-3.23-3.47-1.55.41,1.48-2.52,0-2.52-1.87,0-2.59-6.08-5.27-5.88-.42-1.4-.69-2.72-.8-3.94,1.69-3.17,5.93-4.09,12.91-1.21,4.85,2,14.12,16.29,19.43,20.54,7.54,6.03,35.17,11.4,34.72,27.97Z"/>
        <path class="cls-18" d="m67.38,56.2c-1.86.49-3.14-1.13-5.24-.78-1.55.26-.8,5.49-.92,6.69-.12,1.18-9.07-2.82-3.92-8.08,2.43-2.49-.15-9.07-5.77-1.85-2.79,3.59-2.11-.16-2.31-3.23-.32-5.09-3.92.6-3.92.23,0-2.67,11.04-8.08.92-8.08-6.73,0-1.27,7.27-6.93,1.62-3.04-3.04-3.92-4.8-3.92,0,0,3.15-.74-2.96-.69-3.69.09-1.34.63-1.42,1.62-2.08,2.73-1.84.98-1.68-1.62-3.23-3.23-1.94-4.55,6.48-7.85,2.31-4.02-5.09,5.14-8.97-5.54-6.23-2.81.72-.15-5.09,0-5.54.79-2.37-2.61-5.85-5.77-4.16-3.07,1.65,1.52-3.94,1.85-4.62.37-.76-3.16-6.16-3.92-6.23-2.56-.23-3.34,4.09-3.69,1.15-.58-4.74-5.24-2.45-8.84-2.92-.01-.12-.03-.25-.04-.37,1.69-3.17,5.93-4.09,12.91-1.21,4.85,2,14.12,16.29,19.43,20.54,7.54,6.03,35.17,11.4,34.72,27.97-.16.61-.34,1.21-.53,1.79Z"/>
        <path class="cls-18" d="m40.68,50.49c-.42.62-.93,1.56-.93,3.08,0,1.7-.82.58-1.85.46-.86-.1-1.79.63-2.31,1.15-1.02,1.02-.32.37-1.39,1.15-.85.62-.92,1.87-.92,0v-4.16c0-1.71,3.46-.53,4.85-1.15.56-.25,1.39-1.62,1.85-1.85.04-.02.69.45.69.46.27.43-.24,1.22,0,.85Z"/>
        <path class="cls-18" d="m30.74,40.41c0,.69-.22,1.04.23,1.15.69.18.99.45,1.15,1.15.1.43.62,1.07-.23,1.15-1.74.18-2.85.08-4.16,1.38-.02.02-.68.94-.46.23.24-.8.86-1.52.92-2.31.04-.47.51-2.36.69-2.54.59-.59,1.08-.68,1.85-.23Z"/>
        <path class="cls-18" d="m47.19,51.6c-.43,1.54-.69,0-.29,1.28.1.33.12.6.23.92.21.62-.02,1.13-.46,1.39-.32.18-.83.05-1.15.23-.56.31-.86.86-1.15,1.15-.11.11-.19.08-.23.23-.22.73-1.12-2.08-1.15-2.54-.06-.76.23-.82.23-1.38,0-1.04.94-1.51,1.85-1.62.52-.06,1.03.05,1.15.46.11.36.86.24.98-.13Z"/>
        <path class="cls-18" d="m19.64,20.47c-.43.94-2.07,5.73-3.21,5.86-.42.05-1.23-.08-1.62-.23-.28-.11-.66-.24-.69-.46-.08-.6-.17-1.85.23-1.85h.23c.34,0,.52-.95.92-1.15.56-.28,1.38-.38,2.08-.46.18-.02.29-.16.46-.23.14-.06.31.02.46,0,.69-.09.77-.58,1.13-1.48Z"/>
      </g>
      <g>
        <path class="cls-11" d="m127.07,12.04c-5.03.97-16.66,12.8-22.57,15.82-8.63,4.41-37.42,4.01-38.8,21.36-1.23,15.46,10.42,25.39,24.35,23.48,28.29-3.89,20.29-23.87,35.4-35.3,16.73-12.65,19.86-28.87,1.62-25.36Z"/>
        <path class="cls-10" d="m65.88,47.79c.14,2.62.67,5.03,1.52,7.22.25-.26.92-.72,1.08.48.28,2.08.46,2.5,1.45,3.99.56.84,1.31,1.21,1.67,2.14.69.72,1.43,1.38,2.21,1.98.59.06,1.16.16,1.49.55.36.43.69.78.99,1.07.72.4,1.47.76,2.24,1.07,1.26-.43,1.29-3.37,2.5-2.76,1.26.63,1.2,2.99,1.87,3.12,2.69.55,3.54,1.63,5.47.05.68-.56.36-2.92.75-3.07.97-.36,2.66,2.27,3.26,2.69.67.48.33-1.11.76-1.39.47-.31,1.56,1.57,2.57,1.67.17-.04.34-.09.51-.13.03-.02.05-.04.08-.06.93-.77,2.72-1.63,2.72-1.63.64-.06,1.31.03,1.91.04.58-.26,1.13-.53,1.66-.81.04-.1.08-.22.1-.34.51-2.51-.06-1.55,2.05-2.44.48-.21,1.29-.65,1.7-1.32,1.07-1.75,3.84.16,1.69-3.59-.31-.54-2.34-3.65-1.08-4.04,1.71-.53,3.07.49,4.09,1.55.19.19.61-1.28.81-1.62.51-.9,1.58-.75,1.79-1.78.13-.66-1.17-1.98.44-2.17.65-2.85,3.45-3.97,2.59-5.67-.86-1.7.05-1.18,1.11-.7.26-.5.54-1,.82-1.5-.85-1.56-1.64-3.46.91-2.94.39.08.69.12.93.12.23-.32.48-.63.73-.94-.1-.54-.28-1.2.28-1.65.33-.27,1.02-.41,1.66-.49.5-.49,1.02-.96,1.58-1.43,0-1.45-.41-1.74,2.43-1.92.2-.16.39-.32.58-.47-.14-.58-.63-1.55-.62-1.68.16-2.24.52-4.3,3.77-2.69,1.4.69-.92-2.69.49-2.4,1.79.37,3.66-5.3,6.18-4.59.68-1.25,1.19-2.46,1.54-3.6-1-3.36-4.87-5.07-12.09-3.68-5.03.97-16.66,12.8-22.57,15.82-8.38,4.29-35.81,4.03-38.62,19.93Z"/>
        <path class="cls-18" d="m66.04,49.6c1.68.83,3.22-.46,5.16.28,1.43.55-.31,5.4-.43,6.57-.11,1.15,9.21-.93,5.33-6.95-1.84-2.85,1.92-8.63,5.87-.64,1.97,3.98,2.05.26,2.84-2.64,1.3-4.8,3.63,1.34,3.7.99.52-2.55-8.97-9.87.7-7.9,6.43,1.31-.2,7.19,6.3,2.89,3.49-2.31,4.69-3.82,3.75.77-.62,3.01,1.29-2.68,1.38-3.39.18-1.3-.33-1.48-1.14-2.3-2.25-2.29-.61-1.79,2.17-2.77,3.46-1.22,3.08,7.08,7.05,3.74,4.83-4.08-3.15-9.57,6.51-4.87,2.55,1.24,1.14-4.83,1.08-5.29-.29-2.42,3.63-5.08,6.32-2.84,2.61,2.17-.68-4.06-.86-4.77-.2-.8,4.22-5.27,4.97-5.19,2.49.28,2.39,4.56,3.3,1.82,1.48-4.42,5.48-1.32,9.02-1.06.04-.11.07-.23.11-.34-1-3.36-4.87-5.07-12.09-3.68-5.03.97-16.66,12.8-22.57,15.82-8.38,4.29-35.81,4.03-38.62,19.93.03.62.09,1.22.16,1.81Z"/>
        <path class="cls-18" d="m92.65,49.37c.28.67.59,1.67.29,3.12-.33,1.62.67.71,1.67.8.84.07,1.58.95,1.98,1.55.78,1.18.24.42,1.1,1.37.69.76.52,1.96.88.18l.81-3.97c.33-1.64-3.21-1.19-4.41-2.05-.48-.35-1.02-1.82-1.4-2.12-.04-.03-.75.3-.75.31-.34.36,0,1.22-.17.81Z"/>
        <path class="cls-18" d="m104.11,41.68c-.14.66.01,1.03-.45,1.06-.7.04-1.03.23-1.33.88-.18.39-.8.9,0,1.15,1.62.51,2.71.64,3.7,2.13.01.02.46,1.03.4.31-.08-.81-.52-1.62-.43-2.39.06-.46-.03-2.35-.16-2.56-.45-.67-.9-.86-1.72-.58Z"/>
        <path class="cls-18" d="m86.22,49.15c.11,1.55.66.13.02,1.28-.16.29-.23.55-.4.84-.32.55-.2,1.09.17,1.41.27.23.78.21,1.06.45.48.41.66.99.88,1.33.08.12.16.12.18.27.07.74,1.48-1.77,1.6-2.2.2-.71-.06-.83.05-1.37.2-.99-.6-1.63-1.45-1.9-.49-.16-.99-.16-1.19.22-.18.33-.87.06-.91-.31Z"/>
        <path class="cls-6" d="m118.61,24.8c.23.98.86,5.88,1.92,6.23.4.13,1.19.16,1.59.1.29-.05.68-.1.75-.31.19-.56.52-1.73.14-1.81l-.22-.05c-.33-.07-.31-1.01-.66-1.28-.48-.38-1.24-.63-1.89-.85-.17-.06-.24-.21-.4-.31-.13-.08-.3-.04-.44-.09-.64-.22-.62-.71-.79-1.63Z"/>
      </g>
      <g>
        <path class="cls-11" d="m109.42,36.52c-2.5-3.53-15.68-8.34-20.07-11.83-6.41-5.09-16.17-27.39-30-22.38-12.32,4.46-15.89,16.9-9.55,26.94,12.89,20.4,25.46,7.26,39.54,14.89,15.58,8.44,29.15,5.18,20.08-7.62Z"/>
        <path class="cls-10" d="m60.51,1.96c-1.96,1.02-3.64,2.28-5.02,3.7.29.1.88.46,0,1-1.5.94-1.76,1.23-2.56,2.51-.45.72-.47,1.43-1.06,2.03-.31.78-.56,1.58-.75,2.39.16.47.28.95.1,1.34-.21.43-.36.8-.48,1.14-.06.69-.07,1.4-.04,2.1.77.82,3.04-.19,3,.95-.04,1.19-1.88,1.96-1.75,2.53.52,2.26-.02,3.29,1.88,4.23.67.33,2.37-.74,2.62-.5.62.62-.81,2.84-.93,3.45-.13.68.97-.13,1.34.1.4.25-.66,1.75-.38,2.56.09.12.19.23.28.35.02.01.05.03.07.04.92.45,2.21,1.53,2.21,1.53.27.47.44,1.02.64,1.48.4.36.8.69,1.2,1,.09,0,.19-.02.3-.04,2.11-.48,1.17-.58,2.59.72.33.3.95.77,1.61.85,1.72.21,1.22,3.01,3.35.04.31-.43,1.99-3.07,2.73-2.24,1,1.13.7,2.53.24,3.69-.08.21,1.2.02,1.53.05.87.08,1.13.96,2,.76.55-.13,1.11-1.59,1.83-.42,2.42-.5,4.26,1.26,5.27,0,1.01-1.26.93-.37.93.61.48.03.96.06,1.44.11.9-1.2,2.09-2.47,2.58-.33.07.33.15.57.23.76.32.07.65.15.98.23.38-.27.82-.63,1.37-.36.32.16.67.64.96,1.1.55.21,1.1.45,1.65.72,1.12-.5,1.19-.93,2.33,1.2.19.09.38.19.57.28.4-.31.97-1.03,1.08-1.07,1.78-.66,3.49-1.1,3.39,1.96-.05,1.32,1.75-1.65,2.02-.46.34,1.5,5.36.97,5.69,3.15,1.2.08,2.31.06,3.31-.08,2.23-1.94,2.2-5.52-1.4-10.59-2.5-3.53-15.68-8.34-20.07-11.83-6.23-4.95-15.63-26.14-28.84-22.74Z"/>
        <path class="cls-18" d="m59.17,2.72c-.06,1.58,1.48,2.31,1.59,4.07.08,1.29-4.26,1.65-5.21,1.97-.93.32,3.94,6.76,7.21,1.66,1.55-2.41,7.31-1.55,2.54,4.3-2.37,2.91.52,1.67,3.02,1.26,4.15-.68.24,3.26.54,3.19,2.14-.49,4.46-10.35,6.32-2.23,1.24,5.41-5.6,2.36-.02,5.86,3,1.88,4.58,2.27.72,3.15-2.53.58,2.51.05,3.09-.12,1.06-.32,1.02-.77,1.37-1.68.97-2.53,1.17-1.09,2.89.7,2.15,2.23-4.37,4.85-.41,6.73,4.83,2.29,6.26-5.77,6.03,3.3-.06,2.39,4.12-.82,4.45-1.02,1.76-1.07,5.18,1.02,4.4,3.87-.76,2.77,2.89-1.95,3.37-2.33.54-.44,5.53,1.41,5.73,2.01.66,2.01-2.67,3.43-.25,3.18,3.92-.41,2.93,3.76,3.97,6.56.1-.01.2-.02.3-.04,2.23-1.94,2.2-5.52-1.4-10.59-2.5-3.53-15.68-8.34-20.07-11.83-6.23-4.95-15.63-26.14-28.84-22.74-.46.24-.91.49-1.34.76Z"/>
        <path class="cls-18" d="m68.66,23.11c-.42.45-1.08,1.03-2.3,1.31-1.36.31-.32.76-.03,1.57.24.67-.18,1.55-.5,2.07-.63,1.01-.24.33-.67,1.32-.34.8-1.33,1.08.17.74l3.34-.76c1.37-.31-.21-2.88.04-4.11.1-.49,1.05-1.42,1.14-1.82,0-.04-.49-.47-.5-.47-.4-.14-.94.42-.68.15Z"/>
        <path class="cls-18" d="m78.58,29.24c-.56.13-.79.37-.97.03-.27-.52-.54-.71-1.14-.71-.37,0-.97-.3-.88.4.18,1.43.46,2.31-.35,3.59-.01.02-.63.72-.1.41.6-.34,1.06-.97,1.68-1.17.37-.12,1.8-.85,1.91-1.02.36-.58.35-.99-.15-1.53Z"/>
        <path class="cls-18" d="m66.58,18.09c-1.16.63.13.55-.98.47-.28-.02-.5.01-.78-.02-.53-.06-.91.22-1.03.63-.08.29.11.68.03.97-.15.51-.53.85-.71,1.14-.07.11-.03.17-.14.23-.55.31,1.88.52,2.25.46.62-.09.62-.34,1.07-.44.83-.19,1.04-1.03.96-1.78-.05-.43-.23-.82-.58-.84-.31-.02-.35-.65-.08-.81Z"/>
        <path class="cls-18" d="m96.64,34.48c-.68.52-4.22,2.72-4.12,3.66.04.35.29.97.48,1.26.14.2.32.49.5.47.5-.05,1.51-.2,1.44-.52l-.04-.19c-.06-.27.67-.59.76-.95.12-.5.05-1.18-.01-1.75-.02-.15.08-.26.1-.41.02-.12-.07-.24-.08-.37-.05-.57.33-.73.98-1.18Z"/>
      </g>
      <g>
        <path class="cls-11" d="m80.43,69.56c-1.2-4.42-12.54-13.99-15.64-19.05-4.52-7.39-6.11-33.1-21.67-33.15-13.87-.05-21.94,11.02-19.29,23.3,5.38,24.96,22.65,16.47,33.87,29.18,12.41,14.06,27.08,15.75,22.73-.27Z"/>
        <path class="cls-10" d="m44.4,17.43c-2.32.3-4.44.94-6.34,1.85.25.21.71.77-.36,1-1.83.39-2.2.58-3.46,1.56-.71.55-.99,1.25-1.79,1.63-.59.66-1.13,1.37-1.62,2.11-.01.53-.06,1.04-.39,1.36-.36.35-.65.67-.89.95-.31.67-.58,1.36-.8,2.07.47,1.09,3.09.92,2.63,2.04-.47,1.17-2.58,1.27-2.66,1.87-.31,2.44-1.22,3.26.33,4.88.54.57,2.63.12,2.78.46.39.84-1.84,2.53-2.18,3.09-.38.63,1.01.22,1.29.58.31.4-1.3,1.5-1.31,2.4.05.15.1.3.15.44.02.02.04.04.06.07.75.78,1.64,2.32,1.64,2.32.1.57.07,1.17.09,1.71.27.5.55.98.83,1.43.09.03.2.05.31.07,2.27.29,1.37-.15,2.32,1.66.22.42.67,1.11,1.29,1.43,1.63.83.12,3.43,3.31,1.26.46-.31,3.09-2.33,3.52-1.24.59,1.49-.23,2.77-1.11,3.75-.16.18,1.18.46,1.5.61.83.39.78,1.36,1.71,1.48.59.08,1.69-1.18,1.97.25,2.58.39,3.78,2.81,5.23,1.92,1.46-.88,1.06-.03.7.94.47.2.93.41,1.39.63,1.33-.86,2.98-1.7,2.68.61-.04.35-.06.62-.05.83.3.19.59.38.89.58.47-.13,1.05-.33,1.49.14.26.28.43.88.55,1.45.47.41.93.85,1.38,1.32,1.29-.09,1.52-.49,1.87,2.04.15.16.31.32.46.48.51-.16,1.34-.67,1.46-.67,2.01,0,3.87.17,2.65,3.18-.53,1.29,2.34-1,2.17.27-.2,1.62,4.97,2.91,4.51,5.2,1.16.52,2.28.9,3.32,1.12,2.93-1.12,4.19-4.68,2.46-11.03-1.2-4.42-12.54-13.99-15.64-19.05-4.39-7.18-6.02-31.66-20.39-33.08Z"/>
        <path class="cls-18" d="m42.79,17.69c-.63,1.55.63,2.84.1,4.62-.39,1.31-4.84.09-5.89.07-1.04-.02,1.45,8.15,6.56,4.28,2.42-1.83,7.83,1.12.97,5.19-3.41,2.02-.09,1.85,2.54,2.35,4.37.83-.95,3.33-.63,3.37,2.31.29,8.2-8.67,7.09.08-.74,5.82-6.43.31-2.16,5.81,2.29,2.96,3.73,3.92-.43,3.39-2.73-.34,2.48.96,3.12,1,1.17.07,1.3-.39,1.97-1.17,1.89-2.16,1.56-.66,2.62,1.75,1.32,3-6.11,3.23-2.85,6.54,3.96,4.03,8.32-3.46,4.78,5.47-.93,2.35,4.39.69,4.79.61,2.13-.42,4.78,2.89,2.96,5.45-1.76,2.48,3.58-.88,4.2-1.09.7-.24,4.99,3.41,4.96,4.08-.08,2.24-3.9,2.44-1.4,3.07,4.04,1.02,1.55,4.8,1.56,7.97.1.03.21.05.31.07,2.93-1.12,4.19-4.68,2.46-11.03-1.2-4.42-12.54-13.99-15.64-19.05-4.39-7.18-6.02-31.66-20.39-33.08-.55.07-1.08.16-1.6.27Z"/>
        <path class="cls-18" d="m44.8,41.41c-.58.3-1.45.64-2.76.47-1.47-.19-.59.64-.6,1.55,0,.76-.74,1.48-1.25,1.87-1,.77-.36.24-1.15,1.07-.63.67-1.72.59-.1.8l3.59.45c1.48.19.84-2.94,1.53-4.07.28-.45,1.55-1.03,1.8-1.39.02-.04-.32-.64-.32-.65-.34-.28-1.08.08-.73-.1Z"/>
        <path class="cls-18" d="m52.43,51.1c-.6-.08-.92.08-.97-.33-.08-.62-.28-.91-.87-1.12-.36-.13-.85-.65-1.02.07-.34,1.48-.38,2.46-1.65,3.44-.02.01-.89.48-.25.37.72-.12,1.41-.58,2.1-.55.41.02,2.1-.19,2.27-.32.57-.44.7-.86.4-1.57Z"/>
        <path class="cls-18" d="m44.56,35.66c-1.38.2-.07.6-1.14.11-.27-.12-.51-.17-.77-.3-.51-.25-.98-.11-1.25.25-.19.26-.13.71-.33.97-.33.45-.84.65-1.12.87-.11.08-.09.15-.22.17-.66.11,1.68,1.2,2.07,1.28.65.13.74-.11,1.22-.05.9.11,1.41-.65,1.6-1.42.11-.44.07-.9-.27-1.05-.3-.13-.11-.77.22-.83Z"/>
        <path class="cls-18" d="m68.47,62.89c-.86.27-5.18,1.16-5.42,2.14-.09.36-.06,1.07.02,1.42.06.25.14.6.32.65.51.13,1.58.35,1.62,0l.02-.2c.04-.3.88-.35,1.1-.67.3-.45.48-1.15.63-1.75.04-.16.17-.23.25-.37.06-.12.02-.27.05-.4.15-.58.59-.6,1.4-.82Z"/>
      </g>
      <g>
        <path class="cls-7" d="m127.94,40.96v7.57c.12.95.18,1.91.18,2.88,0,20.7-27.03,37.48-60.35,37.48S7.42,72.11,7.42,51.42v-10.46h4.96c2.81,17.46,26.54,31.09,55.39,31.09s52.58-13.63,55.39-31.09h4.78Z"/>
        <path class="cls-13" d="m127.86,40.96c-2.83,19.06-28.66,34-60.09,34S10.51,60.02,7.68,40.96h4.7c2.81,17.46,26.54,31.09,55.39,31.09s52.58-13.63,55.39-31.09h4.7Z"/>
      </g>
      <path class="cls-9" d="m127.94,49.7v1.09c.02.19.04.37.06.56-1.91,19.63-28.15,35.19-60.24,35.19S7.42,69.76,7.42,49.06c0-.38.01-.76.03-1.14.95,20.18,27.6,36.37,60.32,36.37s57.8-15.24,60.17-34.59Z"/>
      <polygon class="cls-14" points="66.22 107.54 67.24 110.71 70.58 110.7 67.88 112.66 68.91 115.83 66.22 113.86 63.53 115.83 64.56 112.66 61.86 110.71 65.2 110.71 66.22 107.54"/>
      <path class="cls-16" d="m12.47,144.18h.03s0,0,0,0h.02s.02,0,.02,0h.01s0,0,0,0h0s0,0,0,0h.05s0,.01,0,.01h.03s0,0,0,0h.01s0,0,0,0h0s0,0,0,0h0s.01,0,.01,0h0s0,0,0,0h.04s0,0,0,0h0s0,0,0,0h0s0,0,0,0h0s0,0,0,0h0s0,0,0,0h.01s0,0,0,0h0s0,0,0,0h0s0,0,0,0h0s0,0,0,0h.02s0,0,0,0h0s0,0,0,0h.01s0,0,0,0h0s0,0,0,0h0s0,0,0,0h.01s0,0,0,0h0s0,0,0,0h0s0,0,0,0h0s0,0,0,0h0s0,0,0,0h.02s0,0,0,0h0s0,0,0,0h0s0,0,0,0h0s0,0,0,0h0s0,0,0,0h0s0,0,0,0h0s0,0,0,0h0s0,0,0,0h0s.09.02.13.04h0s0,0,0,0h0s0,0,0,0h0s0,0,0,0h0s0,0,0,0h0s0,0,0,0h0s0,0,0,0h0s0,0,0,0h0s.03,0,.03,0h0s.02,0,.02,0h0s0,0,0,0h0s.02,0,.02,0h0s0,0,0,0h0s0,0,0,0h0s0,0,0,0h0s0,0,0,0h0s0,0,0,0h0s0,0,0,0h0s0,0,0,0h0s0,0,0,0h.02s0,0,0,0h0s0,0,0,0h0s0,0,0,0h.02s0,0,0,0h0s0,0,0,0h.03s0,0,0,0h0s.01,0,.01,0h0s.04.02.04.02h0s0,0,0,0h0s0,0,0,0h0s0,0,0,0h0s0,0,0,0h0s0,0,0,0h0s0,0,0,0h0s0,0,0,0h0s0,0,0,0h0s0,0,0,0h0s0,0,0,0h0l.11.03h0s.02,0,.02,0l.05.02h0s0,0,0,0c.07.02.15.05.23.07.1.03.2.07.3.1l.32.11c.11.04.22.08.33.12l.34.13.35.13.36.14.37.14.38.15.39.16.39.16.4.17.41.17.42.18.42.18.43.19.43.19.44.19.44.2.45.2.45.2.46.2.46.21.46.21.46.21.47.21.47.21.47.21.47.21.47.21.47.21.47.21.47.21.47.21.47.21.46.21.46.21.46.21.45.21.45.2.45.2.44.2.44.19.43.19.43.19.42.18.41.18.4.17.4.17.39.16.38.16.37.15.36.15.35.14.34.14.33.13.32.12h.01s0,0,0,0h0s.01,0,.01,0h0s.01,0,.01,0h0s0,0,0,0h0s0,0,0,0h0s0,0,0,0h0s0,0,0,0h0s0,0,0,0h0s0,0,0,0h.01s0,0,0,0h0s0,0,0,0h.01s0,0,0,0h0s0,0,0,0h0s0,0,0,0h.01s0,0,0,0h0s.01,0,.01,0h0s.01,0,.01,0h0s0,0,0,0h0s0,0,0,0h.01s0,0,0,0h0s.01,0,.01,0h0s.02,0,.02,0l.07.02h0s0,0,0,0h0s0,0,0,0h.02s0,.01,0,.01h0s0,0,0,0h0s0,0,0,0h0s0,0,0,0h0s0,0,0,0h0s.02,0,.02,0h0s0,0,0,0h0s0,0,0,0h0s.02,0,.02,0h0s0,0,0,0h0s.02.01.02.01h0s0,0,0,0h.04s.02.02.02.02h0s0,0,0,0h.02s0,0,0,0h0s.02,0,.02,0h0s0,0,0,0l.19.06h0s.02,0,.02,0h0s.02,0,.02,0h0s0,0,0,0h0s.1.03.1.03h.03s0,.01,0,.01h0s0,0,0,0h.01s.03.01.03.01l.07.02h0s.01,0,.01,0h0s0,0,0,0h0s0,0,0,0h0s.15.05.15.05h0s.01,0,.01,0h0s0,0,0,0h0s0,0,0,0h0s0,0,0,0h.04s0,.02,0,.02l.24.07h.05s.19.07.19.07h0s.14.04.14.04h0s.09.03.09.03h0s.08.03.08.03h0s.18.05.18.05l.15.04h0s0,0,0,0h0s0,0,0,0h0s.06.02.06.02h0s0,0,0,0h0s0,0,0,0l.07.02h0s0,0,0,0h0s.17.05.17.05l.12.03.43.12.09.02.45.12h.01s.12.03.12.03c.14.04.29.07.43.11l.26.07h.02s.29.08.29.08h0s.21.05.21.05l.39.1.29.07h.06s.25.07.25.07l.29.07.29.07h.01s.46.11.46.11l.08.02.08.02.38.09h.06s.26.07.26.07l.37.09.15.03.81.18.53.12.68.15.36.08.33.07c5.57,1.25,15.19,1.62,20.85,3.64h.02s.04.02.04.02h.01s0,0,0,0c.23.08.46.17.68.25h.01s0,0,0,0c.21.08.41.15.61.23h.02s.09.04.09.04c.21.08.41.16.62.24h0s.01,0,.01,0h.02s0,.01,0,.01h0c.21.09.43.18.64.26h.02s0,.01,0,.01h0c.22.09.43.18.65.27h.01s0,0,0,0h0s0,0,0,0c.2.08.39.17.58.26h0s.07.03.07.03h.03s0,.02,0,.02c.17.08.33.15.5.23h0s0,0,0,0h0s.01,0,.01,0h0s0,0,0,0l.04.02h0s0,0,0,0h0s0,0,0,0c.19.09.38.18.57.27h.02s.01.01.01.01c.2.1.39.19.58.29h0s.02.01.02.01h.02s0,.01,0,.01h0c.18.1.36.19.54.29h0s.05.03.05.03h0c.18.1.36.2.54.3l.04.02h0s0,0,0,0c.18.1.35.2.53.31h0s.04.02.04.02h.01s0,.01,0,.01h0s0,0,0,0c.16.1.33.2.49.3h0s0,0,0,0l.03.02c.17.1.33.21.49.32h0s0,0,0,0h0s.03.02.03.02h0c.17.12.33.23.5.34h0s.02.02.02.02h0s0,.01,0,.01c.15.11.3.21.45.32h0s0,.01,0,.01h0s0,0,0,0h0s0,.01,0,.01h0s0,.01,0,.01h0s0,.01,0,.01c.15.11.29.22.43.33h0s0,.01,0,.01h0s0,0,0,0h0c.15.12.3.24.44.37h.01s0,.01,0,.01h.01s0,.01,0,.01c.15.12.3.25.44.38h0s0,0,0,0c.57.51,1.09,1.04,1.55,1.6,7.03,8.46-3.42,12.23-15.03,11.45-28.45-1.9-26.62-14.82-43.99-22.42-11.61-5.08-19.46-10.4-20.14-13.01h0s0-.02,0-.02h0s0,0,0,0h0s0,0,0,0h0s0,0,0,0h0s0,0,0,0h0s0-.01,0-.01h0s0,0,0,0h0s-.01-.08-.01-.08h0s0,0,0,0h0s0,0,0,0h0s-.01-.1-.02-.14h0c0-.08,0-.15.01-.23h0c0-.06.02-.11.04-.16h0s.01-.03.01-.03h0s0,0,0,0h0s.02-.04.02-.04h0s0,0,0,0l.03-.06h0s0,0,0,0h0s0,0,0,0h0s0,0,0,0l.02-.03h0s0-.01,0-.01h0s0,0,0,0h0s0,0,0,0h0s0,0,0,0h0s0,0,0,0h0s0,0,0,0h0s0,0,0,0h0s0,0,0,0h0s0,0,0,0h0s.04-.05.04-.05h0s0-.01,0-.01h0s0,0,0,0h0s0,0,0,0h0s0-.01,0-.01h0s0,0,0,0h0s0,0,0,0h0s.03-.03.03-.03h0s0-.01,0-.01h0s0,0,0,0l.05-.04h0s0,0,0,0l.05-.04h0s0,0,0,0l.05-.04h0s0,0,0,0h0l.05-.04h0s0,0,0,0h0s0,0,0,0h0s0,0,0,0h0s0,0,0,0h0s0,0,0,0h0s0,0,0,0h0s0,0,0,0h0s0,0,0,0h0s.05-.03.05-.03h0s0,0,0,0h0s0,0,0,0l.03-.02h0s0,0,0,0h0s0,0,0,0h0s0,0,0,0h0s0,0,0,0h0s.02-.01.02-.01h0s0,0,0,0h0s0,0,0,0h0s0,0,0,0h0s.03-.01.03-.01h0s0,0,0,0h0s0,0,0,0h0s0,0,0,0h0s0,0,0,0h0s0,0,0,0h0s0,0,0,0h.03s0-.01,0-.01h0s.06-.02.06-.02l.08-.03h0s0,0,0,0h0s0,0,0,0h0s0,0,0,0h0s0,0,0,0h0s0,0,0,0h0s0,0,0,0h0s0,0,0,0h0s.03-.01.03-.01h0s0,0,0,0h0s0,0,0,0h0s.02,0,.02,0h0s0,0,0,0h0s0,0,0,0h.05s0-.01,0-.01h0s0,0,0,0h0s0,0,0,0h0s0,0,0,0h0s0,0,0,0h0s0,0,0,0h0s0,0,0,0h0s0,0,0,0h0s0,0,0,0h0s0,0,0,0h0s0,0,0,0h0s0,0,0,0h.03s0,0,0,0h0s0,0,0,0h0s.01,0,.01,0h0s0,0,0,0h0s0,0,0,0h.01s.01,0,.01,0h0s0,0,0,0h0s0,0,0,0h.01s0,0,0,0h0s0,0,0,0h.07s0-.02,0-.02h.01s0,0,0,0h0s0,0,0,0h0s0,0,0,0h0s0,0,0,0h0s0,0,0,0h0s.02,0,.02,0h0s0,0,0,0h0s0,0,0,0h0s0,0,0,0h0s0,0,0,0h0s.02,0,.02,0h0s0,0,0,0h.01s0,0,0,0h.01s0,0,0,0h.03s0,0,0,0h0s0,0,0,0h0s0,0,0,0h0s0,0,0,0h0s0,0,0,0h.07s0,0,0,0h0s0,0,0,0h0s0,0,0,0h0s0,0,0,0h0s0,0,0,0h0s0,0,0,0h0s0,0,0,0h0s.02,0,.02,0h0s0,0,0,0h0s0,0,0,0h0s0,0,0,0h0s0,0,0,0h0s0,0,0,0h0s0,0,0,0h0s0,0,0,0h0s0,0,0,0h0s0,0,0,0h0s0,0,0,0h0s0,0,0,0h.07s0,0,0,0h.01s0,0,0,0h0s.06,0,.06,0h0s0,0,0,0h.03s.09,0,.09,0h.02s0,0,0,0h0s0,0,0,0h0s0,0,0,0h.01s0,0,0,0h0s0,0,0,0h.02s0,0,0,0h.02s0,0,0,0h0s0,0,0,0h.02s0,0,0,0h0s0,0,0,0h.02s0,0,0,0h.01s0,0,0,0h.05s0,0,0,0h.01s0,0,0,0h.01s0,0,0,0h.02s0,0,0,0h0s0,0,0,0h0s0,0,0,0h0s.02,0,.02,0h0s0,0,0,0h0s0,0,0,0h.05s0,0,0,0h0s0,0,0,0h.02s0,0,0,0h.02s0,0,0,0h0s0,0,0,0h.04s0,0,0,0h.02s0,0,0,0h.02s.01,0,.01,0h.04s0,0,0,0h0s.01,0,.01,0h.03s0,0,0,0h.03s0,0,0,0h0s0,0,0,0h.01s0,0,0,0h.03s.01,0,.01,0h.04s0,0,0,0h.03s0,0,0,0h.01s.11,0,.11,0h0s0,0,0,0h.01s0,0,0,0h.02s0,0,0,0h.03s.02,0,.02,0h.04s.01,0,.01,0h.03s.01,0,.01,0h.02s.01,0,.01,0h.02s.01,0,.01,0h.06s.02,0,.02,0h.01s.01,0,.01,0h.01s.01,0,.01,0h.05s.02,0,.02,0h.11s.02,0,.02,0h.14s.02.01.02.01h.01s.02,0,.02,0h.02s.01,0,.01,0h.02s.16.01.16.01h.02s.01,0,.01,0h0s0,0,0,0h.04s.02,0,.02,0h0s.11.01.11.01h.03s.01,0,.01,0h.02s.02,0,.02,0h.02s0,0,0,0h.05s.02,0,.02,0l.16.02h.02s.02,0,.02,0h.02s.02,0,.02,0h.02s.02,0,.02,0h.02s.11.01.11.01h.02s.02,0,.02,0h.02s.05,0,.05,0h.02s.05,0,.05,0h0s.02,0,.02,0h.02s.18.03.18.03h0s.04,0,.04,0h0s.03,0,.03,0h.03s.28.04.28.04h.02s.02,0,.02,0h.02s.02,0,.02,0h.03s0,0,0,0h.02s.02,0,.02,0h.02s0,0,0,0h.06s.02.01.02.01h.02s.02,0,.02,0h.02s.02,0,.02,0h0s.03,0,.03,0h.02s.02,0,.02,0h.02s.02,0,.02,0h.02s.02,0,.02,0h.02s.02,0,.02,0l.18.03h.02s.02,0,.02,0h.02s.02,0,.02,0h.02s.02,0,.02,0h.02s.02,0,.02,0h0s.01,0,.01,0h.02s.02,0,.02,0h.04s0,0,0,0h.04s.02.01.02.01h.02s.04.01.04.01h.02s.02,0,.02,0h0s.21.04.21.04h.02s.02,0,.02,0l.26.05h0s.02,0,.02,0h.02s0,0,0,0h.01s.02,0,.02,0h0c.15.03.31.06.46.09h.02s.02,0,.02,0h.02s.01,0,.01,0h0s.02,0,.02,0h.02s.02,0,.02,0h.02s.02,0,.02,0h.04s0,0,0,0h.02s0,0,0,0h.01s.01,0,.01,0h.01s.01,0,.01,0h.01s.01,0,.01,0h.01s.01,0,.01,0h.01s0,0,0,0h0s0,0,0,0h.02s0,0,0,0c.19.04.39.08.59.12Z"/>
      <g>
        <path class="cls-11" d="m18.69,134.75c4.54-.58,17.73,6.22,23.59,7.14,8.56,1.34,32.91-7.05,38.93,7.3,5.36,12.79-1.76,24.48-14.12,26.75-25.11,4.6-23.9-14.61-39.93-20.09-17.74-6.07-24.93-18.97-8.46-21.09Z"/>
        <path class="cls-10" d="m80.66,148.03c.61,2.26.84,4.46.72,6.56-.29-.15-.99-.36-.79.71.34,1.84.3,2.25-.12,3.8-.24.87-.77,1.39-.82,2.28-.38.8-.83,1.57-1.32,2.3-.48.21-.94.46-1.11.88-.19.46-.37.86-.54,1.19-.5.54-1.04,1.06-1.6,1.54-1.19-.01-2.04-2.5-2.89-1.65-.9.88-.18,2.87-.71,3.17-2.13,1.22-2.55,2.38-4.64,1.57-.74-.29-1.12-2.38-1.49-2.4-.92-.04-1.63,2.67-2.02,3.2-.43.59-.59-.85-1.04-.97-.48-.13-.89,1.77-1.71,2.13-.16.01-.31.02-.47.03-.03,0-.05-.02-.08-.03-1.01-.39-2.77-.63-2.77-.63-.56.12-1.11.39-1.61.57-.57-.06-1.11-.13-1.64-.22-.06-.08-.12-.16-.18-.26-1.13-1.99-.38-1.33-2.42-1.5-.47-.04-1.28-.19-1.81-.65-1.39-1.19-3.21,1.2-2.44-2.58.11-.55.96-3.75-.21-3.73-1.6.03-2.47,1.27-3.04,2.46-.11.22-.88-.91-1.14-1.15-.68-.62-1.56-.2-2.02-1.01-.3-.52.44-2.01-.99-1.72-1.35-2.24-4.04-2.41-3.78-4.09.26-1.68-.37-.99-1.14-.29-.36-.35-.74-.7-1.12-1.04.29-1.56.43-3.4-1.59-2.25-.31.18-.55.29-.75.36-.29-.2-.58-.4-.88-.59-.06-.49-.1-1.1-.7-1.32-.36-.14-.98-.06-1.55.04-.56-.28-1.14-.53-1.75-.77-.41-1.23-.13-1.59-2.6-.95-.21-.08-.42-.16-.62-.24-.05-.53.1-1.49.06-1.6-.76-1.86-1.64-3.51-3.95-1.23-.99.98.03-2.54-1.09-1.9-1.42.81-4.59-3.48-6.53-2.17-.93-.87-1.7-1.76-2.31-2.63-.09-3.13,2.72-5.66,9.25-6.5,4.54-.58,17.73,6.22,23.59,7.14,8.32,1.3,31.55-6.58,38.37,6.14Z"/>
        <path class="cls-18" d="m81.02,149.62c-1.19,1.18-2.86.51-4.3,1.68-1.06.87,1.77,4.5,2.2,5.47.42.95-8.08,1.79-6.47-4.42.76-2.93-4.04-6.8-5.17,1.1-.56,3.93-1.67.79-3.14-1.45-2.45-3.72-2.71,2.15-2.87,1.87-1.15-2.02,4.86-10.89-2.8-6.51-5.09,2.91,2.18,6.05-4.54,4.22-3.61-.98-5.05-1.94-2.97,1.7,1.36,2.39-1.84-1.92-2.12-2.5-.51-1.05-.13-1.35.32-2.27,1.27-2.57.02-1.69-2.62-1.75-3.28-.07-.64,6.88-4.94,5.14-5.25-2.11,0-9.01-6.89-2.32-1.82,1.76-2.32-3.79-2.4-4.19-.43-2.13-4.5-3.3-6.17-.65-1.61,2.57-.56-3.64-.6-4.29-.05-.74-5.06-3.3-5.67-3.02-2.04.93-.75,4.54-2.3,2.47-2.49-3.34-5.03.41-7.96,1.61-.06-.09-.13-.17-.19-.26-.09-3.13,2.72-5.66,9.25-6.5,4.54-.58,17.73,6.22,23.59,7.14,8.32,1.3,31.55-6.58,38.37,6.14.14.53.27,1.06.37,1.58Z"/>
        <path class="cls-18" d="m58.35,156.85c-.05.65-.03,1.58.63,2.73.74,1.29-.37.79-1.2,1.15-.69.3-1.08,1.25-1.25,1.87-.33,1.22-.08.42-.55,1.47-.37.84.11,1.81-.7.4l-1.8-3.15c-.74-1.3,2.39-1.9,3.17-2.97.31-.43.35-1.83.6-2.2.02-.04.72.05.72.05.39.21.34,1.03.37.64Z"/>
        <path class="cls-18" d="m46.47,153.53c.3.52.28.88.67.77.6-.16.94-.09,1.37.37.26.28.93.54.32.97-1.24.89-2.12,1.3-2.54,2.85,0,.02-.11,1-.25.37-.16-.71,0-1.52-.3-2.15-.17-.37-.63-2.01-.57-2.22.19-.7.53-.98,1.3-.97Z"/>
        <path class="cls-18" d="m63.75,154.87c.34,1.35-.53.29.34,1.09.22.2.35.4.57.6.43.37.48.87.25,1.25-.16.27-.61.4-.77.67-.29.48-.28,1.03-.37,1.37-.04.13-.11.14-.08.27.15.65-1.75-1.09-1.97-1.42-.37-.55-.18-.72-.42-1.15-.45-.78.06-1.55.7-2.02.37-.27.8-.41,1.07-.15.24.23.75-.2.68-.52Z"/>
        <path class="cls-18" d="m29.44,143.23c.08.9.91,5.23.11,5.83-.3.22-.97.47-1.32.52-.26.04-.61.11-.72-.05-.32-.42-.93-1.32-.62-1.5l.17-.1c.26-.15-.02-.95.2-1.27.3-.45.88-.88,1.37-1.25.13-.1.15-.25.25-.37.08-.1.24-.12.35-.2.48-.37.33-.78.22-1.61Z"/>
      </g>
    </g>
  </g>
</svg>