<?xml version="1.0" encoding="UTF-8"?>
<svg id="Layer_2" data-name="Layer 2" xmlns="http://www.w3.org/2000/svg" viewBox="0 0 161.64 150.53">
  <defs>
    <style>
      .cls-1 {
        fill: #753033;
      }

      .cls-1, .cls-2, .cls-3, .cls-4, .cls-5, .cls-6, .cls-7, .cls-8, .cls-9, .cls-10, .cls-11, .cls-12, .cls-13, .cls-14, .cls-15, .cls-16, .cls-17, .cls-18, .cls-19, .cls-20, .cls-21, .cls-22, .cls-23, .cls-24 {
        stroke-width: 0px;
      }

      .cls-1, .cls-2, .cls-3, .cls-5, .cls-7, .cls-8, .cls-9, .cls-10, .cls-11, .cls-12, .cls-13, .cls-14, .cls-15, .cls-16, .cls-17, .cls-18, .cls-19, .cls-20, .cls-21, .cls-22, .cls-23, .cls-24 {
        fill-rule: evenodd;
      }

      .cls-2 {
        fill: #e52614;
      }

      .cls-3 {
        fill: #fc9e14;
      }

      .cls-4, .cls-12 {
        fill: #883c3d;
      }

      .cls-5 {
        fill: #9c3;
      }

      .cls-6, .cls-8 {
        fill: #cf6030;
      }

      .cls-7 {
        fill: #e9311a;
      }

      .cls-9 {
        fill: #d69508;
      }

      .cls-10 {
        fill: #652d2d;
      }

      .cls-11 {
        fill: #d1db39;
      }

      .cls-13 {
        fill: #a89986;
      }

      .cls-14 {
        fill: #fcd041;
      }

      .cls-15 {
        fill: #f6d695;
      }

      .cls-16 {
        fill: #699b42;
      }

      .cls-17 {
        fill: #f8dab0;
      }

      .cls-18 {
        fill: #e47b06;
      }

      .cls-19 {
        fill: #ed1c24;
      }

      .cls-20 {
        fill: #c4262e;
      }

      .cls-21 {
        fill: #f07464;
      }

      .cls-22 {
        fill: #fff38a;
      }

      .cls-23 {
        fill: #febd30;
      }

      .cls-24 {
        fill: #ffb596;
      }
    </style>
  </defs>
  <g id="_1" data-name="1">
    <g>
      <path class="cls-13" d="m158.87,99.33l-11.07-6.42c-6.73-12.42-23.7-22.26-45.16-26.2l-14-8.12c-3.72-2.15-9.77-2.15-13.52.01l-13.99,8.07c-21.47,3.9-38.48,13.72-45.27,26.13l-13.05,7.53c-3.75,2.16-3.76,5.67-.04,7.83l12.36,7.17c6.42,13.51,24.84,24.19,48.17,27.95l9.69,5.62c3.72,2.16,9.77,2.16,13.52,0l8.48-4.9c27.5-3.09,49.26-15.66,54.64-31.55l9.19-5.3c3.75-2.16,3.76-5.67.04-7.83Z"/>
      <ellipse class="cls-6" cx="81.8" cy="97.55" rx="65.24" ry="37.71"/>
      <path class="cls-18" d="m81.8,59.84c35.04,0,63.64,15.98,65.17,36.01-1.54,20.03-30.13,36.01-65.17,36.01s-63.64-15.98-65.17-36.01c1.54-20.04,30.13-36.01,65.17-36.01Z"/>
      <path class="cls-15" d="m81.8,125.17c36.07,0,65.5-15.25,65.5-33.94s-29.42-33.94-65.5-33.94-65.5,15.25-65.5,33.94,29.42,33.94,65.5,33.94Z"/>
      <path class="cls-23" d="m2.82,85.54c-3.75,2.16-3.76,5.67-.04,7.83l70.23,40.75c3.72,2.16,9.77,2.16,13.52,0l72.3-41.75c3.75-2.16,3.76-5.67.04-7.83l-70.23-40.75c-3.72-2.15-9.77-2.15-13.52.01L2.82,85.54Z"/>
      <path class="cls-14" d="m2.82,81.94c-3.75,2.16-3.76,5.67-.04,7.83l70.23,40.75c3.72,2.16,9.77,2.16,13.52,0l72.3-41.75c3.75-2.16,3.76-5.67.04-7.83l-70.23-40.75c-3.72-2.15-9.77-2.15-13.52.02L2.82,81.94Z"/>
      <path class="cls-9" d="m82.05,52.82c35.57,0,64.41,15.78,64.41,35.23,0,3.25-.77,6.28-2.1,9.06l-41.26,23.82c-1.17.23-2.45.56-2.83.72h0c-.19.09-.34.18-.55.18-.85,0-13.87.46-14.43,1.02-.2-.21-1.64.07-1.83.17h0s.09-.05.09-.05c-2.13,0-9.38-1.06-11.12-.18h0s.09-.05.09-.05c-.82,0-2.45-.43-3.16-.28-1.47-.83-7.07-.62-8.76-1.31-.15-.15-4-1-6.45-1.58l-30.47-17.68c-.27-1.16-1.51-1.47-2.44-2.21-2.23-3.51-3.61-7.43-3.61-11.64,0-19.46,28.84-35.23,64.41-35.23Z"/>
      <path class="cls-9" d="m154.13,78.19c.75.73,1.12,1.44.67,2.03-.28.35-.56.6-.87.75-.04.02-.08.04-.12.05h-.02c-.05.02-.1.04-.15.05-1.52.43-3.62.54-5.36.39.86,1.07,2.04,2.3,2.85,3.16,1.94,2.08,1.99,2.59,1.22,2.36h0c-.13.32-2.26.06-4.82-.44,1.02.87,1.52,1.65.54,1.74h0c-.09.24-3.1.4-6.16.33.35.1.73.2,1.13.3,5.54,1.41,6.23,2.62,4.71,2.91h0c-.75.44-5.2.61-7.56.08-.51,2.55-1.23,7.01-2.29,7.26-.08.05-.17.04-.27-.02h-.02c-.07-.04-.14-.09-.21-.16-1.02-.74-2.11-1.72-3.37-2.96-.24,1.55-.39,3.01-.97,2.47h0c-1.25-.49-2.22-.81-2.97-1.02-.16,1.72-.32,3.62-1.26,3.06-10.79-3.03-26.04-7.02-36.17-9.94-2.33-.67-6.67-1.94-7.43-3.32-.59-1.06-1.57-2.04-2.05-3.29-.28-.73-1.14-3.98-1.25-3.84,3.74-3.9,7.45-5.75,11.83-6.52,4.98-1.3,10.75-.89,18.45-.44,11.24.67,18.7-.44,29.4-2.05l.29-.04,12.26,7.11Z"/>
      <path class="cls-9" d="m9.14,78.29c-.73.83-1.54,1.68-2.14,2.32-1.94,2.07-1.99,2.59-1.22,2.36h0c.13.32,2.26.06,4.82-.44-1.02.87-1.52,1.65-.54,1.74h0c.09.24,3.1.4,6.16.33-.35.1-.73.2-1.13.3-5.54,1.41-6.23,2.62-4.71,2.91h0c.75.44,5.2.61,7.56.08.51,2.55,1.23,7.01,2.29,7.26.08.05.17.04.27-.02h.02c.07-.04.14-.09.21-.16,1.02-.74,2.11-1.72,3.37-2.96.24,1.55.39,3.01.97,2.47h0c1.25-.49,2.22-.81,2.97-1.02.16,1.72.32,3.62,1.26,3.06,10.79-3.03,26.04-7.02,36.17-9.94,2.33-.67,6.67-1.94,7.43-3.32.59-1.06,1.57-2.04,2.06-3.29.28-.73,1.14-3.98,1.25-3.84-3.74-3.9-7.45-5.75-11.83-6.52-4.98-1.3-10.75-.9-18.45-.44-7.61.46-13.49.1-19.81-.69l-16.98,9.8Z"/>
      <path class="cls-1" d="m81.8,51.54c35.57,0,64.41,15.78,64.41,35.23,0,13.36-12.94,22.85-24.35,27.62-1.06,0-2.91.59-3.72,1.4h0s.26-.26.26-.26c-.64,0-1.35-.1-1.94.2h0c-.59.29-1.27.73-1.75,1.21,0,0-2.53.36-2.59.39h0c-1.28.64-2.93.19-4.1,1.35,0,0-2.93.75-2.97.78-.3-.3-4.29.6-5.02.91h0c-.19.09-.34.18-.55.18-.85,0-13.87.46-14.43,1.02-.2-.2-1.64.07-1.83.17h0s.09-.05.09-.05c-2.13,0-9.38-1.06-11.12-.18h0s.09-.05.09-.05c-.82,0-2.45-.43-3.16-.28-1.47-.83-7.07-.62-8.76-1.31-.21-.21-7.35-1.71-8.34-2.07-.49-.54-3.29-1.06-4.29-1.55h0c-.24-.12-.5-.28-.76-.37h0c-3.51-1.24-8.9-2.69-11.59-5.22,0-.27-1.02-1.1-1.34-1.26h0c-.53-.27-1.39-.44-1.94-.11-1.64-1.1-2.98-2.91-4.79-3.9-.26-.52-.37-1.09-.94-1.38-.4-.4-1.28-.42-1.47-.84l.03.07c0-1.18-.97-1.64-1.7-2.37l.26.26c0-1.6-1.44-1.88-2.49-2.71-2.23-3.51-3.61-7.43-3.61-11.64,0-19.46,28.84-35.23,64.41-35.23Z"/>
      <path class="cls-12" d="m81.8,44.2c35.57,0,64.41,14.95,64.41,33.38,0,17.44-25.82,31.76-58.73,33.25-2.43-.82-6.07.72-8.42-.23-1.44-.85-2.98.86-4.23-.08-1.21-1.59-2.89.55-4.36-.26h0c-.8-.4-2.14-.59-3.01-.15h0s.09-.05.09-.05c-1.44,0-4.72-.8-6.1-1.3-1.19-1.3-2.6-.4-3.31-.83l.08-.08c-1.09,0-2.97-1.66-3.84-.64-1.52-.44-3.45-.32-4.96-.77-.89-1.49-2.73-.23-3.75-1.3-.33,0-.99-.49-1.53-.49-16.19-6.06-26.75-15.92-26.75-27.06,0-18.43,28.84-33.38,64.41-33.38Z"/>
      <path class="cls-10" d="m71.17,68.71c-.06-.06-.13-.13-.2-.21h0s-.1-.13-.1-.13h0s-.08-.11-.08-.11l-.02-.03h0c-.11-.15-.22-.32-.33-.5v-.02s-.04-.05-.04-.05l-.03-.05c-.28-.43-.58-.94-.93-1.51l-.04-.06-.04-.06h0s-.03-.06-.03-.06l-.04-.06-.04-.07-.04-.07c-2.56-4.17-7.19-10.82-16.82-10.71-25.4.27-32.86,13.95-34.29,24.68-.13.95-.1,1.91.07,2.87-.02.16-.05.33-.07.49-1.26,9.39,12.69,20.19,26.25,21.68,15.23,1.68,36.8-4.94,41.05-15.82.86-2.2,1.01-4.02.65-5.54,1.44-7.26-6.06-9.54-11.38-12.33l-.06-.03h-.01s-.13-.08-.13-.08l-.07-.03-.06-.03-.06-.03h0s-.06-.04-.06-.04l-.25-.14h0s0,0,0,0l-.06-.03-.06-.04-.19-.11h0s0,0,0,0l-.17-.1-.06-.04-.06-.04h-.01s-.02-.02-.02-.02c-.19-.11-.38-.23-.56-.35l-.02-.02h0c-.18-.12-.35-.24-.52-.37l-.03-.02-.02-.02c-.08-.06-.16-.12-.23-.18h0s-.01-.02-.01-.02h0c-.08-.06-.16-.13-.24-.19h0c-.07-.07-.15-.13-.22-.2h-.01s0-.02,0-.02h0c-.07-.07-.14-.14-.21-.21Z"/>
      <path class="cls-10" d="m83.92,76.76c.06-.06.13-.13.2-.21h0s.1-.13.1-.13h0s.08-.11.08-.11l.02-.03h0c.11-.15.22-.32.33-.5v-.02s.04-.05.04-.05l.03-.05c.28-.43.58-.94.93-1.51l.04-.06.04-.06h0s.03-.06.03-.06l.04-.06.04-.07.04-.07c2.56-4.17,7.19-10.82,16.82-10.71,25.4.27,32.86,13.95,34.29,24.68.13.95.1,1.91-.07,2.87.02.16.05.33.07.49,1.26,9.39-12.69,20.19-26.25,21.68-15.23,1.68-36.8-4.94-41.05-15.82-.86-2.2-1.01-4.02-.65-5.54-1.44-7.26,6.06-9.54,11.38-12.33l.06-.03h.01s.13-.08.13-.08l.07-.03.06-.03.06-.03h0s.06-.04.06-.04l.25-.14h0s0,0,0,0l.06-.03.06-.04.19-.11h0s0,0,0,0l.17-.1.06-.04.06-.04h.01s.02-.02.02-.02c.19-.12.38-.23.56-.35l.02-.02h0c.18-.12.35-.24.52-.37l.03-.02.02-.02c.08-.06.16-.12.23-.18h0s.01-.02.01-.02h0c.08-.06.16-.13.24-.19h0c.07-.07.15-.13.22-.2h.01s0-.02,0-.02h0c.07-.07.14-.14.21-.21Z"/>
      <g>
        <path class="cls-20" d="m66.34,69.44c-2.03-2-5.97-13.84-18.8-13.7-25.4.27-32.86,13.95-34.29,24.68-1.26,9.39,12.69,20.19,26.25,21.68,15.23,1.68,36.8-4.94,41.05-15.82,4.35-11.13-9.54-12.24-14.2-16.84Z"/>
        <g>
          <path class="cls-7" d="m66.34,66.08c-2.03-2-5.97-13.84-18.8-13.7-25.4.27-32.86,13.95-34.29,24.68-1.26,9.39,12.69,20.19,26.25,21.68,15.23,1.68,36.8-4.94,41.05-15.82,4.35-11.13-9.54-12.24-14.2-16.84Z"/>
          <path class="cls-21" d="m64.44,67c-1.85-1.82-5.45-12.64-17.16-12.51-23.19.25-29.99,12.74-31.31,22.53-1.15,8.57,11.59,18.43,23.96,19.79,13.9,1.53,33.59-4.51,37.47-14.44,3.97-10.16-8.7-11.17-12.97-15.37Z"/>
          <path class="cls-24" d="m52.8,68.11c-1.64-2.14-4.14-4.5-8-4.65-12.93-.5-16,6.78-16.16,12.6-.14,5.09,7.55,11.35,14.53,12.51,7.85,1.31,19.7-.87,21.28-6.7.85-3.11-1.9-5.75-3.94-7.09,2.62-2.17,5.84-4.5,9.44-6.29-1.42-.74-2.69-1.5-3.6-2.41-.51-.5-1.15-1.64-2.02-3.06-3.96,1.89-7.3,3.74-11.52,5.09Z"/>
          <path class="cls-2" d="m51.57,67.04c3.55-9.16-5.31-13.43-19.42-5.4-9.81,5.58-10.36,10.93-8.04,18.2,1.44,4.5,9.82.02,7.98-3.27-5.46-9.79,13.64-18.83,13.37-8.07-.05,1.91,4.94,1.52,6.1-1.46Z"/>
          <path class="cls-2" d="m62.02,76.57c13.45,1.85,15.08,9.23-1.58,14.43-11.59,3.61-18.76,1.59-27.17-3.07-5.2-2.88,4.31-6.09,7.77-3.5,10.29,7.72,30.47-.12,16.38-4.72-2.49-.81.21-3.74,4.6-3.13Z"/>
        </g>
      </g>
      <g>
        <path class="cls-20" d="m92.59,80.97c2.03-2,5.97-13.84,18.8-13.7,25.4.27,32.86,13.95,34.29,24.68,1.26,9.39-12.69,20.19-26.25,21.68-15.23,1.68-36.8-4.94-41.05-15.82-4.35-11.13,9.54-12.24,14.2-16.84Z"/>
        <g>
          <path class="cls-7" d="m92.59,77.6c2.03-1.99,5.97-13.84,18.8-13.7,25.4.27,32.86,13.95,34.29,24.68,1.26,9.39-12.69,20.19-26.25,21.68-15.23,1.68-36.8-4.94-41.05-15.82-4.35-11.13,9.54-12.24,14.2-16.84Z"/>
          <path class="cls-21" d="m94.48,78.52c1.85-1.82,5.45-12.64,17.16-12.51,23.19.25,29.99,12.74,31.31,22.53,1.15,8.57-11.59,18.43-23.96,19.79-13.9,1.53-33.59-4.51-37.47-14.44-3.97-10.16,8.7-11.17,12.97-15.37Z"/>
          <path class="cls-24" d="m106.13,79.63c1.64-2.14,4.14-4.5,8-4.65,12.93-.5,16,6.78,16.16,12.6.14,5.09-7.55,11.35-14.53,12.51-7.85,1.31-19.7-.87-21.28-6.7-.85-3.11,1.9-5.75,3.94-7.09-2.62-2.17-5.84-4.5-9.44-6.29,1.42-.74,2.69-1.5,3.61-2.41.51-.5,1.15-1.64,2.02-3.06,3.96,1.89,7.3,3.74,11.52,5.09Z"/>
          <path class="cls-2" d="m107.36,78.57c-3.55-9.16,5.31-13.43,19.42-5.4,9.81,5.58,10.36,10.93,8.04,18.2-1.44,4.49-9.82.02-7.98-3.27,5.46-9.79-13.64-18.83-13.37-8.07.05,1.91-4.94,1.52-6.1-1.46Z"/>
          <path class="cls-2" d="m96.91,88.09c-13.45,1.85-15.08,9.23,1.58,14.43,11.58,3.61,18.76,1.59,27.16-3.07,5.2-2.88-4.31-6.09-7.77-3.5-10.3,7.72-30.47-.12-16.38-4.72,2.49-.81-.21-3.74-4.6-3.13Z"/>
        </g>
      </g>
      <path class="cls-19" d="m94.8,73.2c5.44,0,9.88-2.3,9.88-5.12s-4.44-5.12-9.88-5.12-9.88,2.3-9.88,5.12,4.44,5.12,9.88,5.12Z"/>
      <g>
        <path class="cls-16" d="m5.17,55.36c8.31-1.01,15.06-.93,6.81-.55-2.25.1-8.77,8.92-6.45,9.58,2.74.78,7.13.1,8.69-1.22,8.25-7.03-1.05,2.55-3.13,6.48-1.16,2.2-3.13,2.84-2.95,3.26.46,1.07,12.73-4.15,14.33-6.14,3.45-4.31.61-2.52-4.8,2.5-1.76,1.63-5.05,4.13-4.69,5,.24.58,9.83-.27,12.68-1.91,7.19-4.14,2.78-1.26-5.11,2.54-4.62,2.22-7.37,4.04-6.62,4.51,1.33.82,11.49-.31,9.31-2.98-.55-.67,1.66,13.82,2.86,12.37,1.63-1.96,3.36-4.93,5.63-9.19,2.03.35-1.98,8.44-.82,7.64,10.46-7.18,2.26,3.84,4.91,2.45,11.1-5.8,26.85-13.57,37.27-19.12,2.4-1.28,6.85-3.69,7.43-5.8.45-1.63,1.35-3.17,1.65-5.07.18-1.1.54-5.96.68-5.77-9.6-10.68-17.61-8.8-31.77-5.95-12,2.41-20.23,1.74-32.03.75-6.94-.59-14.93-.08-13.86,6.63Z"/>
        <path class="cls-5" d="m5.17,55.36c2.04-7.06,8.06-4.39,4.76-.9-1.42,1.5-7.38,6.52-5.62,8.89,1.04,1.4,1.99,1.5,3.54.18,8.25-7.03,3.26,1.84,1.18,5.77-4.14,7.81,1.79,1.31,4.01-1.46,3.45-4.31,7.97-3.95,2.56,1.08-2.92,2.71-6.08,7.93,1.07,3.82,7.19-4.14,9.69-1.99,1.81,1.81-10.55,5.09-3.49,7.12,2.7,1.53.64-.58,4.22,19.59,5.69,10.39.41-2.54-3.06-7.59.69-6.95,2.03.35,2.47,12.55,3.87,6.01,2.37-11.01,2.26,6.31,4.37,4.17,7.44-7.54,24.81-13.92,35.23-19.47,2.4-1.28,6.85-3.69,7.43-5.8.45-1.63,1.35-3.17,1.65-5.07.18-1.1.54-5.96.68-5.77-9.6-10.68-17.61-8.8-31.77-5.95-12,2.41-20.23,1.74-32.03.75-6.94-.59-12.88.26-11.82,6.98Z"/>
        <path class="cls-11" d="m11.09,50.09c9.36-1.23,14.8.94,21.01,1.46,2.3.19,4.88-.32,7.07-.21,1.6.08,3.75-.47.66.23-8.53,1.92-16.25.25-24.34,1.65-3.34.58-6.67,4.77-5.34,2.46.79-1.37,2.51-4.88.94-5.6Z"/>
        <path class="cls-11" d="m12.91,60.55c3.77-1.92,7.85-2.17,10.55-2.77,5.39-1.19,10.89-2.47,16.2-3.99,6.1-1.75-5.12,1.89-6.46,2.37-5.28,1.87-8.17,2.65-13.36,4.83-.99.42-5.81,3.03-6.54,3.19-.62-1.09.68-2.9-.39-3.62Z"/>
        <path class="cls-11" d="m18.44,64.56c3.95-1.81,7.87-2.35,10.55-3.07,1.19-.32,2.31-.92,3.52-1.3,1.12-.35,2.29-.77.43.19-3.15,1.62-6.25,3.43-9.34,4.99l-5.88,2.97c-.56.28,1.97-2.87.72-3.79Z"/>
        <path class="cls-11" d="m26.64,79.14c1.73-1.27,3.66-2.1,5.43-3.41l12.33-9.11,4.01-2.88-2.42,2.08-15.44,13.33c-3.11,2.69-.49-.57-3.89-.01Z"/>
        <path class="cls-11" d="m33.28,81.22c1.42-.79,4.05-1.88,5.23-2.91,2.45-2.12,4.77-3.55,7.72-5.39,4.27-2.67-4.91,4.43-6.15,5.78-1.12,1.21-2.24,3.21-3.07,4.64-1.14,1.98-1.33,1.97-1.96-.1-.23-.76-2.37-2.07-1.77-2.02Z"/>
        <path class="cls-11" d="m21.83,75.92c2.81-2.42,7.24-3.06,9.6-5.7,1.57-1.75,4.51-2.28,6.43-3.12,1.93-.84-1.45,1.34-1.82,1.59-3.52,2.33-7.45,6.08-10.38,8.97-.94.93-1.28,1.96-2-.22-.21-.63-1.94-1.54-1.82-1.52Z"/>
      </g>
      <g>
        <path class="cls-16" d="m155.98,53.11c-7.72-.02-13.88.76-6.29.23,2.07-.14,8.99,7.07,6.94,7.9-2.42.99-6.52.85-8.08-.18-8.3-5.43,1.23,2.18,3.56,5.48,1.3,1.84,3.17,2.22,3.05,2.61-.31,1-12.1-2.37-13.77-3.98-3.62-3.5-.83-2.2,4.67,1.73,1.78,1.28,5.07,3.17,4.83,3.98-.16.54-9.02.8-11.81-.37-7.03-2.95-2.68-.83,4.95,1.74,4.46,1.5,7.18,2.85,6.54,3.34-1.13.87-10.55.94-8.84-1.68.43-.66-.03,12.56-1.28,11.39-1.7-1.59-3.61-4.06-6.15-7.64-1.82.52,2.73,7.36,1.57,6.77-10.35-5.33-1.66,3.68-4.23,2.72-10.79-4.03-26.04-9.32-36.17-13.19-2.33-.89-6.66-2.58-7.43-4.41-.59-1.41-1.57-2.7-2.06-4.37-.28-.97-1.14-5.28-1.25-5.1,7.64-10.59,15.17-9.75,28.44-8.7,11.24.89,18.7-.58,29.4-2.72,6.29-1.26,13.65-1.66,13.4,4.47Z"/>
        <path class="cls-5" d="m155.98,53.11c-2.62-6.12-7.85-3.08-4.46-.3,1.46,1.2,7.46,5.06,6.1,7.37-.8,1.37-1.66,1.56-3.22.53-8.31-5.43-2.79,2-.46,5.3,4.63,6.56-1.5,1.37-3.83-.88-3.62-3.5-7.72-2.69-2.22,1.24,2.97,2.12,6.42,6.47-.57,3.54-7.03-2.95-9.09-.76-1.46,1.81,10.21,3.44,3.96,6.01-2.3,1.66-.65-.45-1.75,18.01-4.09,9.92-.65-2.24,1.98-7.12-1.38-6.16-1.82.52-.91,11.51-2.89,5.8-3.35-9.61-1.39,5.9-3.55,4.2-7.62-5.97-24.2-9.85-34.34-13.72-2.33-.89-6.66-2.58-7.43-4.41-.59-1.41-1.57-2.7-2.06-4.37-.28-.97-1.14-5.28-1.25-5.1,7.64-10.59,15.17-9.75,28.44-8.7,11.24.89,18.7-.58,29.4-2.72,6.29-1.26,11.82-1.13,11.57,5Z"/>
        <path class="cls-11" d="m149.99,49.01c-8.69-.12-13.44,2.41-19.07,3.53-2.08.42-4.5.23-6.5.56-1.45.24-3.48-.02-.58.28,8.02.82,14.9-1.5,22.46-1.1,3.12.16,6.62,3.57,5.15,1.64-.87-1.14-2.82-4.11-1.47-4.92Z"/>
        <path class="cls-11" d="m149.45,58.58c-3.66-1.32-7.42-1.11-9.95-1.36-5.07-.5-10.23-1.06-15.26-1.86-5.77-.93,4.89,1.15,6.17,1.44,5.03,1.12,7.77,1.51,12.74,2.91.95.27,5.64,2.1,6.33,2.16.45-1.05-.94-2.53-.03-3.29Z"/>
        <path class="cls-11" d="m144.82,62.76c-3.81-1.2-7.45-1.27-9.98-1.63-1.12-.16-2.21-.58-3.36-.79-1.06-.2-2.18-.44-.38.22,3.05,1.12,6.09,2.42,9.09,3.49l5.7,2.04c.55.2-2.12-2.36-1.07-3.32Z"/>
        <path class="cls-11" d="m138.89,76.69c-1.72-.95-3.57-1.49-5.33-2.48l-12.26-6.86-3.98-2.16,2.44,1.61,15.57,10.31c3.14,2.08.39-.57,3.56-.42Z"/>
        <path class="cls-11" d="m133.03,79.26c-1.38-.56-3.91-1.26-5.1-2.05-2.47-1.65-4.74-2.67-7.65-4.01-4.19-1.94,4.97,3.45,6.25,4.52,1.15.97,2.4,2.64,3.31,3.84,1.25,1.65,1.43,1.62,1.78-.29.13-.7,1.94-2.1,1.4-2Z"/>
        <path class="cls-11" d="m142.95,73.3c-2.83-1.87-6.95-1.98-9.4-4.09-1.62-1.4-4.38-1.57-6.22-2.11-1.86-.55,1.47,1.05,1.84,1.23,3.47,1.72,7.47,4.66,10.47,6.94.96.73,1.38,1.62,1.81-.41.12-.59,1.61-1.59,1.51-1.56Z"/>
      </g>
      <g>
        <path class="cls-16" d="m111.77,96.31c-2.84-6.07-6.29-10.56-2.67-4.83.99,1.56-7.03,10.23-9.02,8.99-2.35-1.46-3.67-4.73-2.75-6.42,4.88-8.95-2.74,1.94-6.71,5.25-2.22,1.85-2.07,3.48-2.69,3.57-1.59.21-1.03-10.56.72-12.59,3.79-4.41,2.92-1.63-.81,4.44-1.21,1.97-2.76,5.4-4.05,5.58-.85.12-4.54-6.72-3.86-9.43,1.71-6.84.23-2.47-.71,4.66-.55,4.18-1.5,6.91-2.47,6.63-1.7-.5-5.31-7.85-.83-7.69,1.13.04-18.46,5.61-17.21,4.1,1.7-2.05,4.62-4.65,8.93-8.25-1.45-1.19-9.79,5.44-9.35,4.27,3.98-10.51-6.02.35-5.57-2.1,1.9-10.27,3.99-24.61,5.9-34.3.44-2.23,1.31-6.39,3.71-7.81,1.85-1.1,3.38-2.45,5.65-3.57,1.32-.65,7.33-3.26,7.03-3.27,18.4,1.24,19.98,7.53,23.37,18.42,2.88,9.22,7.82,14.42,14.95,21.85,4.19,4.37,7.52,9.97-1.58,12.52Z"/>
        <path class="cls-5" d="m111.77,96.31c8-4.8,1.6-7.54-1.21-3.63-1.21,1.68-4.66,8.12-8.56,8.09-2.31-.02-2.9-.6-1.98-2.29,4.88-8.95-3.97-1.29-7.95,2.02-7.91,6.58-2.57-.56-.13-3.4,3.79-4.41,1.08-7.26-2.65-1.19-2.01,3.28-7.11,7.94-5.41,1.14,1.71-6.84-2.27-7.47-3.21-.33-1.25,9.55-7.35,5.81-3.29-1.06.42-.71-27.1,6.7-16.09,1.24,3.05-1.51,11.2-1.64,8.53-3.84-1.45-1.19-17.24,4.45-9.6.33,12.87-6.94-9.18,1.55-7.5-.9,5.93-8.66,5.45-23.41,7.36-33.1.44-2.23,1.31-6.39,3.71-7.81,1.86-1.1,3.38-2.45,5.65-3.57,1.32-.65,7.33-3.26,7.03-3.27,18.4,1.24,19.97,7.53,23.37,18.42,2.88,9.22,7.82,14.41,14.95,21.85,4.19,4.37,6.06,8.77-3.04,11.32Z"/>
        <path class="cls-11" d="m115.57,89.77c-3.07-6.87-8.54-9.47-12.29-13.38-1.39-1.45-2.01-3.43-3.25-4.85-.9-1.03-1.26-2.74-.62-.33,1.78,6.66,7.75,11.02,9.98,17.13.92,2.52-2.78,6.79-.49,4.78,1.35-1.19,4.98-4.05,6.68-3.36Z"/>
        <path class="cls-11" d="m101.3,93.64c.58-3.46-1.13-6.32-1.71-8.42-1.16-4.2-2.26-8.5-2.95-12.81-.79-4.94.13,4.36.18,5.48.23,4.45.67,6.77.47,11.31-.04.87-.98,5.37-.82,5.94,1.7-.11,3.37-1.87,4.81-1.5Z"/>
        <path class="cls-11" d="m93.44,91.89c.34-3.53-.91-6.42-1.32-8.57-.18-.95.03-2-.09-2.99-.11-.92-.16-1.91-.46-.2-.51,2.9-1.28,5.87-1.74,8.7l-.88,5.39c-.08.52,2.68-2.72,4.48-2.33Z"/>
        <path class="cls-11" d="m70.78,93.48c.75-1.78.86-3.47,1.65-5.3l5.51-12.7,1.68-4.09-1.45,2.64-9.35,16.84c-1.88,3.39.98.05,1.95,2.61Z"/>
        <path class="cls-11" d="m64.82,90.04c.31-1.34.39-3.64,1.11-4.92,1.5-2.67,2.16-4.92,3.05-7.8,1.28-4.16-3.21,5.45-4.32,6.94-.99,1.34-2.98,3.07-4.4,4.31-1.96,1.73-1.85,1.85,1.1,1.27,1.08-.21,3.81.58,3.46.2Z"/>
        <path class="cls-11" d="m77.27,95.14c1.69-3.06.31-6.34,2.51-9.22,1.45-1.9.67-4.14.79-5.83.12-1.71-.99,1.63-1.12,2-1.23,3.49-4.06,7.95-6.29,11.33-.72,1.08-1.86,1.81,1.28,1.23.91-.17,2.93.55,2.85.48Z"/>
      </g>
      <path class="cls-16" d="m16.14,51.61c-.2,2.11-1.58,4.43-1.58,6.41,0,1.22,2.87.12,4.22.12,1.09,0-.5,5.59.6,5.49,1.9-.18,3.2.22,3.38,2.17.63,6.91,2.5,5.36,6.52,6.1,1.07.2.88,4.5,2.78,3.82,3.99-1.44,3.09,4.69,3.89,4.14,9.53-6.48,5.07,6.25,10.57,3.35,3.21-1.69,7.16-2.21,9.99-4.52,3.11-2.53-8.86-17.09-10.68-19.6-3.41-4.73-14.11-15.9-19.99-15.9-3.08,0-7.14,4.43-11.64,5.03,2.38,1.45,1.92,3.38,1.92,3.38Z"/>
      <path class="cls-16" d="m55.08,85.02c2.23.37,4.5-.66,6.45.09,1.13.44,2.53-.28,3.64-.28,2.07,0-.98,3.94,1.59,3.09,1.62-.54,4.23-2.42,5.52-3.27,1.33-1.04-.46-.92,1.11,0,.64.38-1.4,3.24-1.4,4.02,0,.89,2.44-1.04,2.71-1.22.79-.51,2.24-1.43,3.07-1.64,1.49-.14,1.04-.36,1.04,1.08,0,.41-.8,2.56-.47,2.9.27.27,2.4-1.62,2.62-1.87.87-1,2.03-2.37,3.18-1.22.75.75,1.35,2.71,1.59,3.65,2.5-1.39,4.61-3.48,6.64-4.49,1.06-.53.75.87.75,1.59s.63,1.63.32,1.8c1.21-.82.99-.3,1.83-1.43.59-.79,2.82-3.99,3.93-3.37,1.26.71.9,3.82,1.82,4.88.8,1.41,3.14-3.02,3.6-3.57,1.16-1.38,2.73-3.65,4.86-3.65,1.4,0,1.19.63,2.15,1.03,5.16,2.12-4.19-5.95-3.66-6.12-2.22-5.18.23-7.33-5.22-9.5-10.76-4.28-31.87-1.97-42.43,2.99-5.26,2.47-5.33,9.08-5.23,14.5Z"/>
      <path class="cls-16" d="m147.64,47.59c-.69,1.64-1.95,3.64-.13,5.6.74.8,1.56,2,2.16,2.97.85,1.38.89,1.9-.21,2.42-.53-.29-.38-.43-1.07-.47-.89-.05-5.98-1.28-3.58,2.16.46.65.62.84.62,1.69-1.27,1.64.09.47-.74.47-.64,0-1.55-.4-2.29-.4-.82,0-1.65-.36-2.51-.33-.68.9-2.02,2.17-1,3.7.23.34,1.9.94,1.68,1.28-.35.57-5.33.25-3.7,1.69,1.03.91,2.66,1.61,2.29,3.31l-.47-.14c-9.31-2.72-.31,4.99-4.98,2.36-1.5-.84-4.26-1.96-4.04.47.47,5.1,1.29,4.11-3.96,1.48-2.58-1.29-.56,3.86-2.37,5.13-2.42,1.69-15.02-.81-12.73-4.31,4.87-7.46,14.08-14.01,21.35-19.21,3.79-2.72,7.54-7,11.06-9.05,1.02-.11,1.65-.58,2.42-.79.78-.22,1.47-.27,2.22,0Z"/>
      <g>
        <path class="cls-8" d="m81.8,0C127.51,0,146.98,29.78,148.55,49.61c-1.57,19.83-30.86,35.64-66.75,35.64S16.63,69.43,15.05,49.61C16.63,29.78,36.09,0,81.8,0Z"/>
        <path class="cls-3" d="m84.87.75c32.91-.41,58.26,25.1,59.67,41.48-1.41,16.39-27.59,29.46-59.67,29.46s-58.26-13.07-59.67-29.46C26.6,25.85,51.96,1.16,84.87.75Z"/>
        <path class="cls-23" d="m90.73,3.93c16.47-.14,29.17,8.64,29.88,14.29-.7,5.64-13.81,10.14-29.88,10.14s-29.17-4.5-29.88-10.14c.7-5.64,13.4-14.14,29.88-14.29Z"/>
        <path class="cls-18" d="m53.39,47.22c2.08,0,3.78-.96,3.78-2.14s-1.7-2.14-3.78-2.14-3.78.96-3.78,2.14,1.7,2.14,3.78,2.14Z"/>
        <path class="cls-17" d="m54.22,46.1c2.08,0,3.78-.96,3.78-2.14s-1.7-2.14-3.78-2.14-3.78.96-3.78,2.14,1.7,2.14,3.78,2.14Z"/>
        <path class="cls-18" d="m76.16,32.16c1.93.79,3.13,2.32,2.69,3.42-.45,1.09-2.38,1.34-4.31.55-1.93-.79-3.13-2.32-2.69-3.42.45-1.1,2.38-1.34,4.31-.55Z"/>
        <path class="cls-17" d="m77.35,31.44c1.93.79,3.13,2.32,2.69,3.42-.45,1.1-2.38,1.34-4.31.55-1.93-.79-3.13-2.32-2.69-3.42.45-1.09,2.38-1.34,4.31-.55Z"/>
        <path class="cls-18" d="m97.09,44.66c1.94-.77,3.87-.5,4.3.6.44,1.1-.79,2.62-2.73,3.38-1.94.77-3.87.5-4.3-.6-.44-1.1.79-2.62,2.73-3.38Z"/>
        <path class="cls-17" d="m97.46,43.31c1.94-.77,3.87-.5,4.3.6.44,1.1-.79,2.62-2.73,3.38-1.94.77-3.87.5-4.3-.6-.44-1.1.79-2.62,2.73-3.38Z"/>
        <path class="cls-18" d="m114.88,26.4c2.06.33,3.58,1.54,3.4,2.71-.19,1.17-2.01,1.85-4.07,1.52-2.06-.33-3.58-1.54-3.4-2.71.19-1.17,2.01-1.85,4.07-1.52Z"/>
        <path class="cls-17" d="m115.88,25.43c2.06.33,3.58,1.54,3.4,2.71-.19,1.17-2.01,1.85-4.07,1.52-2.06-.33-3.58-1.54-3.4-2.71.19-1.17,2.01-1.85,4.07-1.52Z"/>
        <path class="cls-18" d="m54.28,16.32c1.87-.93,3.81-.83,4.34.23.53,1.06-.56,2.67-2.43,3.6-1.87.93-3.81.83-4.34-.23-.53-1.06.56-2.67,2.43-3.6Z"/>
        <path class="cls-17" d="m54.53,14.95c1.87-.93,3.81-.83,4.34.23.53,1.06-.56,2.67-2.43,3.6-1.87.93-3.81.83-4.34-.23-.53-1.06.56-2.67,2.43-3.6Z"/>
        <path class="cls-18" d="m95.06,23.64c1.8,1.65,2.5,3.82,1.57,4.84-.94,1.02-3.16.51-4.96-1.14-1.8-1.65-2.5-3.82-1.57-4.84.94-1.02,3.16-.51,4.96,1.14Z"/>
        <path class="cls-17" d="m96.66,23.34c1.8,1.65,2.5,3.82,1.57,4.84-.94,1.02-3.16.51-4.96-1.14-1.8-1.65-2.5-3.82-1.57-4.84.94-1.02,3.16-.51,4.96,1.14Z"/>
        <path class="cls-18" d="m127.72,16.24c1.9.77,3.03,2.16,2.53,3.11-.5.95-2.44,1.09-4.33.32-1.9-.77-3.03-2.16-2.53-3.11.5-.95,2.44-1.09,4.33-.32Z"/>
        <path class="cls-17" d="m128.95,15.66c1.9.77,3.03,2.16,2.53,3.11-.5.95-2.44,1.09-4.33.32-1.89-.77-3.03-2.16-2.53-3.11.5-.95,2.44-1.09,4.33-.32Z"/>
        <path class="cls-18" d="m34.84,25.4c1.89.77,3.03,2.16,2.53,3.11s-2.44,1.09-4.33.32c-1.89-.77-3.03-2.16-2.53-3.11.5-.95,2.44-1.09,4.33-.32Z"/>
        <path class="cls-17" d="m36.06,24.81c1.89.77,3.03,2.16,2.53,3.11-.5.95-2.44,1.09-4.33.32-1.9-.77-3.03-2.16-2.53-3.11.5-.95,2.44-1.09,4.33-.32Z"/>
        <path class="cls-18" d="m72.42,5.37c1.33-1.61,3.14-2.31,4.06-1.56.91.75.58,2.67-.75,4.28-1.33,1.61-3.15,2.31-4.06,1.56-.91-.75-.58-2.67.75-4.28Z"/>
        <path class="cls-17" d="m72.09,4.02c1.33-1.61,3.15-2.31,4.06-1.56.91.75.58,2.67-.75,4.28-1.33,1.61-3.15,2.31-4.06,1.56-.91-.75-.58-2.67.75-4.28Z"/>
        <path class="cls-18" d="m102.94,3.45c2.06.33,3.58,1.54,3.4,2.71-.19,1.17-2.01,1.85-4.07,1.52-2.06-.33-3.58-1.54-3.4-2.71.19-1.17,2.01-1.85,4.07-1.52Z"/>
        <path class="cls-17" d="m103.94,2.48c2.06.33,3.58,1.54,3.4,2.71-.19,1.17-2.01,1.85-4.07,1.52-2.06-.33-3.58-1.54-3.4-2.71.19-1.17,2.01-1.85,4.07-1.52Z"/>
        <path class="cls-18" d="m72.59,20.6c1.88-.81,3.67-.65,3.99.37.33,1.02-.93,2.5-2.81,3.31-1.88.81-3.67.65-3.99-.37-.33-1.02.93-2.5,2.81-3.31Z"/>
        <path class="cls-17" d="m73.03,19.32c1.88-.81,3.67-.65,3.99.37.33,1.02-.93,2.5-2.81,3.31-1.88.81-3.67.65-3.99-.37-.33-1.02.93-2.5,2.81-3.31Z"/>
        <path class="cls-18" d="m104.97,14.85c2.03-.27,3.7.37,3.74,1.44.04,1.07-1.57,2.16-3.6,2.43-2.03.27-3.7-.37-3.74-1.44-.04-1.07,1.57-2.15,3.6-2.43Z"/>
        <path class="cls-17" d="m105.74,13.73c2.03-.27,3.7.37,3.74,1.44.04,1.07-1.57,2.15-3.6,2.43-2.03.27-3.7-.37-3.74-1.44-.04-1.07,1.57-2.15,3.6-2.43Z"/>
        <path class="cls-18" d="m129.81,28.57c1.41,1.48,1.87,3.22,1.03,3.87-.84.66-2.67,0-4.08-1.49-1.41-1.48-1.87-3.22-1.03-3.87s2.67,0,4.08,1.49Z"/>
        <path class="cls-17" d="m131.16,28.54c1.41,1.48,1.87,3.22,1.03,3.87-.84.66-2.67,0-4.08-1.49-1.41-1.48-1.87-3.22-1.03-3.87.84-.66,2.67,0,4.08,1.49Z"/>
        <path class="cls-18" d="m54.33,3.24c1.98-.66,3.86-.45,4.22.45.35.91-.96,2.18-2.94,2.83-1.98.66-3.86.45-4.22-.45-.35-.91.96-2.18,2.94-2.83Z"/>
        <path class="cls-17" d="m54.79,2.12c1.98-.66,3.86-.45,4.22.45.35.91-.96,2.18-2.94,2.83-1.98.66-3.86.45-4.22-.45-.35-.91.96-2.18,2.94-2.83Z"/>
        <path class="cls-18" d="m39.67,11.32c2.44-.19,4.45.48,4.5,1.49.05,1.01-1.89,1.98-4.32,2.17-2.44.19-4.45-.48-4.5-1.49-.05-1.01,1.89-1.98,4.33-2.17Z"/>
        <path class="cls-17" d="m40.6,10.29c2.44-.19,4.45.48,4.5,1.49.05,1.01-1.89,1.98-4.32,2.17-2.44.19-4.45-.48-4.5-1.49-.05-1.01,1.89-1.98,4.33-2.17Z"/>
      </g>
      <path class="cls-18" d="m81.8,0c44.28,0,63.93,27.94,66.55,47.72-5.06,17.95-32.88,31.69-66.44,31.69S20.01,65.42,15.33,47.23C18.2,27.49,37.88,0,81.8,0Z"/>
      <path class="cls-3" d="m84.87.75c32.91-.41,58.26,25.1,59.67,41.48-1.41,16.39-27.59,29.46-59.67,29.46s-58.26-13.07-59.67-29.46C26.6,25.85,51.96,1.16,84.87.75Z"/>
      <path class="cls-23" d="m90.73,3.93c16.48-.14,29.17,8.64,29.88,14.29-.7,5.64-13.81,10.14-29.88,10.14s-29.17-4.5-29.88-10.14c.7-5.64,13.4-14.14,29.88-14.29Z"/>
      <path class="cls-18" d="m53.39,42.93c2.09,0,3.78.96,3.78,2.14s-1.69,2.14-3.78,2.14-3.78-.96-3.78-2.14,1.69-2.14,3.78-2.14Z"/>
      <path class="cls-17" d="m54.22,41.82c2.09,0,3.78.96,3.78,2.14s-1.69,2.14-3.78,2.14-3.78-.96-3.78-2.14,1.69-2.14,3.78-2.14Z"/>
      <path class="cls-18" d="m76.16,32.16c1.93.79,3.14,2.32,2.69,3.41-.45,1.09-2.38,1.34-4.31.55-1.93-.79-3.13-2.32-2.69-3.42.45-1.1,2.38-1.34,4.31-.55Z"/>
      <path class="cls-17" d="m77.35,31.44c1.93.79,3.13,2.32,2.69,3.42-.45,1.1-2.38,1.34-4.31.55-1.93-.79-3.13-2.32-2.69-3.42.45-1.09,2.38-1.34,4.31-.55Z"/>
      <path class="cls-18" d="m97.09,44.66c1.94-.77,3.87-.5,4.3.6.44,1.1-.79,2.62-2.73,3.38-1.94.77-3.87.5-4.3-.6-.43-1.1.79-2.62,2.73-3.38Z"/>
      <path class="cls-17" d="m97.46,43.31c1.94-.77,3.87-.5,4.3.6.44,1.1-.79,2.62-2.73,3.38-1.94.77-3.87.5-4.3-.6-.44-1.1.79-2.62,2.73-3.38Z"/>
      <path class="cls-18" d="m114.88,26.4c2.06.33,3.58,1.54,3.4,2.71-.19,1.17-2.01,1.85-4.07,1.52-2.06-.33-3.58-1.54-3.4-2.71.19-1.17,2.01-1.85,4.07-1.52Z"/>
      <path class="cls-17" d="m115.88,25.43c2.06.33,3.58,1.54,3.4,2.71-.19,1.17-2.01,1.85-4.07,1.52-2.06-.33-3.58-1.54-3.4-2.71.19-1.17,2.01-1.85,4.07-1.52Z"/>
      <path class="cls-18" d="m54.28,16.32c1.87-.93,3.81-.83,4.34.23.53,1.06-.56,2.67-2.43,3.6-1.87.93-3.81.83-4.34-.23-.53-1.06.56-2.67,2.43-3.6Z"/>
      <path class="cls-17" d="m54.53,14.95c1.87-.93,3.81-.83,4.34.23.53,1.06-.56,2.67-2.43,3.6-1.87.93-3.81.83-4.34-.23-.53-1.06.56-2.67,2.43-3.6Z"/>
      <path class="cls-18" d="m95.06,23.64c1.8,1.65,2.5,3.82,1.57,4.84-.94,1.02-3.16.51-4.96-1.14-1.8-1.65-2.5-3.82-1.57-4.84.94-1.02,3.16-.51,4.96,1.14Z"/>
      <path class="cls-17" d="m96.66,23.34c1.8,1.65,2.5,3.82,1.57,4.84-.94,1.02-3.16.51-4.96-1.14-1.8-1.65-2.5-3.82-1.57-4.84.94-1.02,3.16-.51,4.96,1.14Z"/>
      <path class="cls-18" d="m127.72,16.24c1.9.77,3.03,2.16,2.53,3.11-.5.95-2.44,1.09-4.33.32-1.89-.77-3.03-2.16-2.53-3.11.5-.94,2.44-1.09,4.33-.32Z"/>
      <path class="cls-17" d="m128.95,15.66c1.9.77,3.03,2.16,2.53,3.11-.5.94-2.44,1.09-4.33.32-1.89-.77-3.03-2.16-2.53-3.11.5-.95,2.44-1.09,4.33-.32Z"/>
      <path class="cls-18" d="m34.84,25.4c1.9.77,3.03,2.16,2.53,3.11-.5.95-2.44,1.09-4.33.32-1.89-.77-3.03-2.16-2.53-3.11.5-.95,2.44-1.09,4.33-.32Z"/>
      <path class="cls-17" d="m36.06,24.81c1.89.77,3.03,2.16,2.53,3.11-.5.95-2.44,1.09-4.33.32-1.89-.77-3.03-2.16-2.53-3.11.5-.95,2.44-1.09,4.33-.32Z"/>
      <path class="cls-18" d="m72.42,5.37c1.33-1.61,3.14-2.31,4.06-1.56.91.75.58,2.67-.75,4.28-1.33,1.61-3.14,2.31-4.06,1.56-.91-.75-.58-2.67.75-4.28Z"/>
      <path class="cls-17" d="m72.09,4.02c1.33-1.61,3.15-2.31,4.06-1.56.91.75.58,2.67-.75,4.28-1.33,1.61-3.14,2.31-4.06,1.56-.91-.75-.58-2.67.75-4.28Z"/>
      <path class="cls-18" d="m102.94,3.45c2.06.33,3.58,1.54,3.4,2.71-.19,1.17-2.01,1.85-4.07,1.52-2.06-.33-3.58-1.54-3.4-2.71.19-1.17,2.01-1.85,4.07-1.52Z"/>
      <path class="cls-17" d="m103.94,2.48c2.06.33,3.58,1.54,3.4,2.71-.19,1.17-2.01,1.85-4.07,1.52-2.06-.33-3.58-1.54-3.4-2.71.19-1.17,2.01-1.85,4.07-1.52Z"/>
      <path class="cls-18" d="m72.59,20.6c1.88-.81,3.67-.65,3.99.37.33,1.02-.93,2.5-2.81,3.31-1.88.81-3.67.65-3.99-.37-.33-1.02.93-2.5,2.81-3.31Z"/>
      <path class="cls-17" d="m73.03,19.32c1.88-.81,3.67-.65,3.99.37.33,1.02-.93,2.5-2.81,3.31-1.88.81-3.67.65-3.99-.37s.93-2.5,2.81-3.31Z"/>
      <path class="cls-18" d="m104.97,14.85c2.03-.27,3.7.37,3.74,1.44.04,1.07-1.57,2.16-3.6,2.43-2.03.27-3.7-.37-3.74-1.44-.04-1.07,1.57-2.15,3.6-2.43Z"/>
      <path class="cls-17" d="m105.74,13.73c2.03-.27,3.7.37,3.74,1.44.04,1.07-1.57,2.16-3.6,2.43-2.03.27-3.7-.37-3.74-1.44-.04-1.07,1.57-2.15,3.6-2.43Z"/>
      <path class="cls-18" d="m129.81,28.57c1.41,1.48,1.87,3.22,1.03,3.87-.84.66-2.67-.01-4.08-1.49-1.41-1.48-1.87-3.22-1.03-3.87.84-.66,2.67,0,4.08,1.49Z"/>
      <path class="cls-17" d="m131.16,28.54c1.41,1.48,1.87,3.22,1.03,3.87-.84.66-2.67-.01-4.08-1.49-1.41-1.48-1.87-3.22-1.03-3.87.84-.66,2.67.01,4.08,1.49Z"/>
      <path class="cls-18" d="m54.33,3.24c1.98-.66,3.86-.45,4.22.45.35.91-.96,2.18-2.94,2.83-1.98.66-3.86.45-4.22-.45-.35-.91.96-2.18,2.94-2.83Z"/>
      <path class="cls-17" d="m54.79,2.12c1.97-.66,3.86-.45,4.22.45.35.91-.96,2.18-2.94,2.83-1.98.66-3.86.46-4.22-.45-.35-.91.96-2.18,2.94-2.83Z"/>
      <path class="cls-18" d="m39.67,11.32c2.44-.19,4.45.48,4.5,1.49.05,1.01-1.89,1.99-4.32,2.17-2.44.19-4.45-.48-4.5-1.49-.05-1.01,1.89-1.98,4.32-2.17Z"/>
      <path class="cls-17" d="m40.6,10.29c2.44-.19,4.45.48,4.5,1.49.05,1.01-1.89,1.98-4.32,2.17-2.44.19-4.45-.48-4.5-1.49-.05-1.01,1.89-1.98,4.32-2.17Z"/>
      <g>
        <path class="cls-12" d="m35.76,108.33c.57,0,1.03-.82,1.03-1.83s-.46-1.84-1.03-1.84-1.03.82-1.03,1.84.46,1.83,1.03,1.83Z"/>
        <path class="cls-10" d="m35.76,107.27c.57,0,1.03-.59,1.03-1.31s-.46-1.31-1.03-1.31-1.03.59-1.03,1.31.46,1.31,1.03,1.31Z"/>
      </g>
      <g>
        <path class="cls-12" d="m38.78,111.34c.45,0,.82-.66.82-1.46s-.37-1.46-.82-1.46-.82.66-.82,1.46.37,1.46.82,1.46Z"/>
        <path class="cls-10" d="m38.78,110.5c.45,0,.82-.47.82-1.04s-.37-1.04-.82-1.04-.82.47-.82,1.04.37,1.04.82,1.04Z"/>
      </g>
      <g>
        <path class="cls-12" d="m66.64,116.82c.57,0,1.03-.82,1.03-1.84s-.46-1.83-1.03-1.83-1.03.82-1.03,1.83.46,1.84,1.03,1.84Z"/>
        <path class="cls-10" d="m66.64,115.76c.57,0,1.03-.59,1.03-1.31s-.46-1.31-1.03-1.31-1.03.59-1.03,1.31.46,1.31,1.03,1.31Z"/>
      </g>
      <g>
        <path class="cls-12" d="m95.96,120.68c.45,0,.82-.66.82-1.46s-.37-1.46-.82-1.46-.82.66-.82,1.46.37,1.46.82,1.46Z"/>
        <path class="cls-10" d="m95.96,119.84c.45,0,.82-.47.82-1.04s-.37-1.04-.82-1.04-.82.47-.82,1.04.37,1.04.82,1.04Z"/>
      </g>
      <g>
        <ellipse class="cls-4" cx="63.33" cy="115.57" rx=".82" ry="1.46"/>
        <path class="cls-10" d="m63.33,116.19c.45,0,.82-.47.82-1.04s-.37-1.04-.82-1.04-.82.47-.82,1.04.37,1.04.82,1.04Z"/>
      </g>
      <g>
        <path class="cls-12" d="m91.58,116.43c.45,0,.82-.66.82-1.46s-.37-1.46-.82-1.46-.82.66-.82,1.46.37,1.46.82,1.46Z"/>
        <path class="cls-10" d="m91.58,115.58c.45,0,.82-.47.82-1.04s-.37-1.04-.82-1.04-.82.47-.82,1.04.37,1.04.82,1.04Z"/>
      </g>
      <g>
        <path class="cls-12" d="m58.99,115.05c.78,0,1.41-1.13,1.41-2.52s-.64-2.52-1.41-2.52-1.41,1.13-1.41,2.52.64,2.52,1.41,2.52Z"/>
        <path class="cls-10" d="m58.99,113.6c.78,0,1.41-.8,1.41-1.79s-.64-1.79-1.41-1.79-1.41.8-1.41,1.79.64,1.79,1.41,1.79Z"/>
      </g>
      <g>
        <path class="cls-12" d="m52.9,115.32c.45,0,.82-.66.82-1.46s-.37-1.46-.82-1.46-.82.66-.82,1.46.37,1.46.82,1.46Z"/>
        <path class="cls-10" d="m52.9,114.48c.45,0,.82-.47.82-1.04s-.37-1.04-.82-1.04-.82.47-.82,1.04.37,1.04.82,1.04Z"/>
      </g>
      <g>
        <path class="cls-12" d="m86.43,115.55c.57,0,1.03-.82,1.03-1.83s-.46-1.84-1.03-1.84-1.03.82-1.03,1.84.46,1.83,1.03,1.83Z"/>
        <path class="cls-10" d="m86.43,114.49c.57,0,1.03-.59,1.03-1.31s-.46-1.31-1.03-1.31-1.03.59-1.03,1.31.46,1.31,1.03,1.31Z"/>
      </g>
      <g>
        <path class="cls-12" d="m78.98,120.94c.57,0,1.03-.82,1.03-1.84s-.46-1.84-1.03-1.84-1.03.82-1.03,1.84.46,1.84,1.03,1.84Z"/>
        <path class="cls-10" d="m78.98,119.88c.57,0,1.03-.59,1.03-1.31s-.46-1.31-1.03-1.31-1.03.59-1.03,1.31.46,1.31,1.03,1.31Z"/>
      </g>
      <path class="cls-22" d="m60.41,122.27c4.53,2.61,8.87,5.59,13.59,7.83,4.11,1.95,7.66,1.75,10.17.29,4.71-2.74,7.44-4.96,11.96-7.44-11.57,3.1-22.34,3.09-35.72-.69Z"/>
    </g>
  </g>
</svg>