<?xml version="1.0" encoding="UTF-8"?>
<svg xmlns="http://www.w3.org/2000/svg" xmlns:xlink="http://www.w3.org/1999/xlink" viewBox="0 0 230 230">
  <defs>
    <linearGradient id="_Áåçûìÿííûé_ãðàäèåíò_6" data-name="Áåçûìÿííûé ãðàäèåíò 6" x1="130.17" y1="157.67" x2="152.14" y2="157.67" gradientUnits="userSpaceOnUse">
      <stop offset="0" stop-color="#d8d5d0"/>
      <stop offset="1" stop-color="#e3e1dc"/>
    </linearGradient>
    <clipPath id="clippath-1">
      <path d="m184.13,176.86l-7.5,4.32c-.87.5-1.58.2-1.58-.67s.71-1.99,1.58-2.5l7.5-4.32c.87-.5,1.58-.2,1.58.67s-.71,1.99-1.58,2.5Z" fill="#161515" stroke-width="0"/>
    </clipPath>
    <linearGradient id="_Áåçûìÿííûé_ãðàäèåíò_6-2" data-name="Áåçûìÿííûé ãðàäèåíò 6" x1="38.36" y1="88.35" x2="157.18" y2="88.35" xlink:href="#_Áåçûìÿííûé_ãðàäèåíò_6"/>
    <linearGradient id="_Áåçûìÿííûé_ãðàäèåíò_10" data-name="Áåçûìÿííûé ãðàäèåíò 10" x1="113.8" y1="67.59" x2="99.94" y2="67.59" gradientUnits="userSpaceOnUse">
      <stop offset="0" stop-color="#d9d7d1"/>
      <stop offset="1" stop-color="#e3e1dc"/>
    </linearGradient>
    <linearGradient id="_Áåçûìÿííûé_ãðàäèåíò_14" data-name="Áåçûìÿííûé ãðàäèåíò 14" x1="102.48" y1="46.75" x2="125.31" y2="46.75" gradientUnits="userSpaceOnUse">
      <stop offset="0" stop-color="#e23333"/>
      <stop offset=".39" stop-color="#eb3f3e"/>
      <stop offset="1" stop-color="#f84f4d"/>
    </linearGradient>
    <linearGradient id="_Áåçûìÿííûé_ãðàäèåíò_656" data-name="Áåçûìÿííûé ãðàäèåíò 656" x1="101.6" y1="30.99" x2="126.25" y2="30.99" gradientUnits="userSpaceOnUse">
      <stop offset="0" stop-color="#d3d0ca"/>
      <stop offset="1" stop-color="#eae8e3"/>
    </linearGradient>
    <linearGradient id="_Áåçûìÿííûé_ãðàäèåíò_656-2" data-name="Áåçûìÿííûé ãðàäèåíò 656" x1="104.85" y1="27.91" x2="123" y2="27.91" xlink:href="#_Áåçûìÿííûé_ãðàäèåíò_656"/>
    <clipPath id="clippath-2">
      <path id="Cylinder_face-3" data-name="Cylinder face" d="m122.64,31.37c4.81-2.78,4.81-7.29,0-10.07-4.81-2.78-12.62-2.78-17.43,0-4.81,2.78-4.81,7.29,0,10.07,4.81,2.78,12.62,2.78,17.43,0Z" fill="none" stroke-width="0"/>
    </clipPath>
    <linearGradient id="_Áåçûìÿííûé_ãðàäèåíò_656-3" data-name="Áåçûìÿííûé ãðàäèåíò 656" x1="102.38" y1="28.15" x2="125.47" y2="28.15" xlink:href="#_Áåçûìÿííûé_ãðàäèåíò_656"/>
    <linearGradient id="_Áåçûìÿííûé_ãðàäèåíò_656-4" data-name="Áåçûìÿííûé ãðàäèåíò 656" x1="50.47" y1="84.14" x2="67.81" y2="84.14" xlink:href="#_Áåçûìÿííûé_ãðàäèåíò_656"/>
    <linearGradient id="_Áåçûìÿííûé_ãðàäèåíò_656-5" data-name="Áåçûìÿííûé ãðàäèåíò 656" x1="48.06" y1="68.71" x2="70.3" y2="68.71" xlink:href="#_Áåçûìÿííûé_ãðàäèåíò_656"/>
    <clipPath id="clippath-3">
      <path d="m89.59,98.85l.95-.55c3.89-4.29,9.45-7.52,16.58-9.64l.71-.41h6.38l-4.47,11.73c-7.17,2.12-13.9,7.01-17.79,11.32l-2.38-6.17.02-6.28Z" fill="none" stroke-width="0"/>
    </clipPath>
  </defs>
  <g isolation="isolate">
    <g id="Layer_2" data-name="Layer 2">
      <g id="_0" data-name="0">
        <circle id="_0-2" data-name="0" cx="115" cy="115" r="115" transform="translate(-47.63 115) rotate(-45)" fill="#057a55" stroke-width="0"/>
        <g id="_1" data-name="1">
          <g id="_1-2" data-name="1">
            <g>
              <path d="m212.96,151.63L8.45,116.48l.03,5.78c0,2.41,1.59,4.82,4.76,6.66l116.48,67.18c6.38,3.7,16.74,3.7,23.15,0l55.29-31.94c3.23-1.86,4.84-4.31,4.83-6.75l-.03-5.78Z" fill="url(#_Áåçûìÿííûé_ãðàäèåíò_6)" stroke-width="0"/>
              <path d="m206.54,158.73l-53.36,30.7c-4.36,2.45-9.4,3.41-14.35,2.71-2.79-.4-5.11-.97-5.63-1.28L12.55,121.21c-2.41-1.39-5.41-4.73-1.73-8.88l56.45-33.04c4.3-2.59,10.58-4.2,15.56-3.56,2.21.28,4.97.82,6.22,1.55l120.1,69.06c5.18,2.99,2.57,9.4-2.61,12.39Z" fill="#191414"/>
              <path d="m208.2,144.97l-116.48-67.18c-6.37-3.7-16.74-3.7-23.15,0l-55.29,31.94c-6.41,3.7-6.44,9.71-.07,13.41l116.48,67.18c6.38,3.7,16.74,3.7,23.15,0l55.29-31.93c6.41-3.7,6.45-9.71.07-13.41Zm-77.56,43.57L12.2,120.18c-3.02-1.74-3.02-6.11,0-7.85l14.26-8.23c.24-.14.51-.23.79-.26l10.96-1.28c.21-.02.41-.09.59-.2l17.23-9.96c.25-.15.46-.36.61-.61l4.13-7.33c.1-.18.24-.32.42-.42l8.76-5.06c6.44-3.72,14.37-3.72,20.81,0l117.58,67.86c3.47,2,3.47,7.01,0,9.01l-56.6,32.69c-6.53,3.77-14.57,3.77-21.09,0Z" fill="#3d3838" stroke-width="0"/>
              <path d="m50.88,90.36l-11.52,6.65c-.63.37-.7.92-.15,1.24.55.32,1.51.28,2.14-.09l11.52-6.65c.63-.37.7-.92.15-1.24-.55-.32-1.51-.28-2.14.09Z" fill="#191414" stroke-width="0"/>
              <g>
                <g>
                  <path d="m36.03,138.83c-.11-.32-.28-.64-.48-.92-.23-.32-.51-.59-.81-.76l-10.58-6.11c-.4-.23-.75-.25-1.01-.1l-1.05.6c.26-.15.62-.13,1.01.1l10.58,6.1c.3.17.58.44.81.76.2.28.37.6.48.92.09.27.14.55.14.81v.46c0,.46-.16.79-.43.94l1.05-.6c.26-.15.43-.48.43-.94v-.46c0-.26-.05-.54-.14-.81Z" fill="#f7f5f0" stroke-width="0"/>
                  <path d="m33.69,137.75l-10.58-6.1c-.8-.46-1.44-.08-1.44.84v.46c0,.92.64,2.03,1.44,2.49l10.58,6.1c.79.45,1.44.07,1.44-.84v-.46c0-.93-.65-2.04-1.44-2.49Z" fill="#e1dfda" stroke-width="0"/>
                </g>
                <g>
                  <path d="m52.17,148.15c-.11-.32-.28-.64-.48-.92-.23-.32-.51-.59-.81-.76l-10.58-6.11c-.4-.23-.75-.25-1.01-.1l-1.05.6c.26-.15.62-.13,1.01.1l10.58,6.11c.3.17.58.44.81.76.2.28.37.6.48.92.09.27.14.55.14.81v.46c0,.46-.16.79-.43.94l1.05-.6c.26-.15.43-.48.43-.94v-.46c0-.26-.05-.54-.14-.81Z" fill="#f7f5f0" stroke-width="0"/>
                  <path d="m49.82,147.07l-10.58-6.11c-.8-.46-1.44-.08-1.44.84v.46c0,.92.64,2.03,1.44,2.49l10.58,6.1c.79.45,1.44.07,1.44-.84v-.46c0-.93-.65-2.04-1.44-2.49Z" fill="#e1dfda" stroke-width="0"/>
                </g>
              </g>
              <g>
                <path d="m37.18,101.05c-.78.45-2.04.45-2.81,0-.77-.45-.77-1.18,0-1.63.78-.45,2.04-.45,2.81,0,.77.45.77,1.18,0,1.63Z" fill="#191414" stroke-width="0"/>
                <g>
                  <path d="m34.78,100.85c.58.32,1.52.29,2.08-.05.56-.35.55-.89-.04-1.2-.58-.32-1.52-.29-2.08.05-.56.35-.55.89.04,1.2Z" fill="#cfd5d5" opacity=".1" stroke-width="0"/>
                  <path d="m35.21,100.53c.32.17.82.16,1.13-.03.31-.19.3-.48-.02-.65-.32-.17-.82-.16-1.13.03-.31.19-.3.48.02.65Z" fill="#cfd5d5" opacity=".1" stroke-width="0"/>
                  <path d="m35.56,100.31c.12.06.3.06.42-.01.11-.07.11-.18,0-.24-.12-.06-.3-.06-.42.01-.11.07-.11.18,0,.24Z" fill="#cfd5d5" mix-blend-mode="screen" opacity=".2" stroke-width="0"/>
                </g>
              </g>
              <g>
                <path d="m184.13,176.86l-7.5,4.32c-.87.5-1.58.2-1.58-.67s.71-1.99,1.58-2.5l7.5-4.32c.87-.5,1.58-.2,1.58.67s-.71,1.99-1.58,2.5Z" fill="#161515"/>
                <g clip-path="url(#clippath-1)">
                  <path d="m173.77,178.05l-1.04.6,3.7,2.14,1.04-.6-3.71-2.14Zm2.3-1.33l-1.04.6,3.7,2.14,1.04-.6-3.71-2.14Zm2.3-1.33l-1.04.6,3.7,2.14,1.04-.6-3.7-2.14Zm2.3-1.33l-1.04.6,3.71,2.14,1.04-.6-3.7-2.14Z" fill="#9e6512" stroke-width="0"/>
                </g>
              </g>
            </g>
          </g>
          <g>
            <polygon points="83.05 60.78 6.95 104.72 141.13 182.19 217.23 138.25 83.05 60.78" fill="#84a2ff" mix-blend-mode="screen" opacity=".9" stroke-width="0"/>
            <polygon points="83.05 45.86 6.95 89.8 141.13 167.27 217.23 123.33 83.05 45.86" fill="#84a2ff" mix-blend-mode="screen" opacity=".9" stroke-width="0"/>
            <polygon points="83.05 45.86 6.95 89.8 14.4 94.1 90.5 50.16 83.05 45.86" fill="#5b5bd6" stroke-width="0"/>
          </g>
          <g>
            <path d="m152.21,88.38l-7.27-4.2,1.38-.8c.31-.18.52-.39.64-.62l-22.98-13.27c-.39.07-.76.2-1.06.37l-1.38.8-7.27-4.2c-3.15-1.82-8.25-1.82-11.39,0l-59.57,34.62c-3.14,1.82-3.12,4.78.03,6.6l7.27,4.2-1.38.8c-.51.3-.94.78-.96,1.17l22.34,12.9c.67-.01,1.51-.26,2.02-.56l1.38-.8,7.27,4.2c3.15,1.82,8.25,1.82,11.39,0l59.57-34.62c3.13-1.82,3.12-4.78-.04-6.6Z" fill="#849ae8" stroke-width="0"/>
            <g>
              <g>
                <path d="m42.19,90.57l1.36,2.36c.33.57.81,1.05,1.38,1.38l34.72,20.04c4.3,2.49,9.61,2.49,13.91,0l56.85-32.83c.57-.33,1.05-.81,1.38-1.38l1.36-2.36-110.97,12.79Z" fill="#cdcac4" stroke-width="0"/>
                <path d="m121.95,80.11l26.58-15.35c.55-.32.82-.74.82-1.16v-1.43c0,.42-11.03,0-11.03,0l-23.83,19.64-44.74,7.92-31.4-4.45v1.43c0,1.26.82,2.51,2.48,3.47l7.6,4.39h.28s-2.55.57-2.55.57v1.43c0,.42.27.85.84,1.17l20.44,11.8c1.11.64,2.92.64,4.02,0l1.44-.84,7.6,4.39c3.3,1.9,8.63,1.9,11.91,0l62.3-36.2c1.63-.95,2.44-2.18,2.44-3.42v-1.43s-35.22,8.07-35.22,8.07Z" fill="url(#_Áåçûìÿííûé_ãðàäèåíò_6-2)" stroke-width="0"/>
                <path d="m154.7,68.56l-7.6-4.39,1.44-.84c1.1-.64,1.1-1.69-.01-2.33l-20.44-11.8c-1.12-.65-2.92-.64-4.02,0l-1.44.84-7.6-4.39c-3.3-1.9-8.63-1.9-11.91,0l-62.3,36.2c-3.28,1.91-3.26,5,.03,6.9l7.6,4.39-1.44.84c-1.1.64-1.1,1.68.01,2.33l20.44,11.8c1.11.64,2.92.64,4.02,0l1.44-.84,7.6,4.39c3.3,1.9,8.63,1.9,11.91,0l62.3-36.2c3.28-1.9,3.26-4.99-.04-6.9Z" fill="#f7f5f0" stroke-width="0"/>
                <path d="m150.72,69.33l-36.65-21.16c-3.03-1.75-7.92-1.75-10.93,0l-58.7,34.11c-3,1.75-2.99,4.58.04,6.33l36.65,21.16c3.03,1.75,7.92,1.75,10.93,0l58.7-34.11c3.01-1.75,2.99-4.58-.04-6.33Z" fill="#f7f5f0" stroke-width="0"/>
                <path d="m150.72,69.33l-36.65-21.16c-3.03-1.75-7.92-1.75-10.93,0l-58.7,34.11c-2.85,1.65-2.98,4.29-.4,6.05-.68-1.46-.04-3.08,1.92-4.22l57.28-33.28c2.94-1.71,7.71-1.7,10.67,0l35.83,20.68c1.55.89,2.28,2.08,2.21,3.24,1.74-1.72,1.34-3.96-1.22-5.43Z" fill="url(#_Áåçûìÿííûé_ãðàäèåíò_10)" stroke-width="0"/>
              </g>
              <path d="m151.73,74.89l-42.78-24.7c-.3-.18-.68-.18-.99,0l-62.85,36.29c-.21.12-.21.43,0,.55l41.64,24.04c1.93-.02,3.84-.45,5.3-1.3l58.7-34.11c.39-.23.73-.47,1.02-.73-.01,0-.02-.02-.04-.03Z" fill="#849ae8" stroke-width="0"/>
            </g>
            <polygon points="79.73 59.95 60.54 71.03 62.17 71.98 62.84 74.33 79.6 85.17 64.94 93.63 85.41 105.6 89.32 105.57 87.79 81.21 89.78 75.22 79.73 59.95" fill="#bab8b5" mix-blend-mode="multiply" opacity=".7" stroke-width="0"/>
            <g>
              <g>
                <g>
                  <path d="m102.48,29.27l3.36,30.62c.12,1.07.87,2.13,2.26,2.97,3.12,1.88,8.29,1.93,11.54.12,1.54-.86,2.38-1.98,2.5-3.13l3.19-30.64-22.84.07Z" fill="url(#_Áåçûìÿííûé_ãðàäèåíò_14)" stroke-width="0"/>
                  <path d="m122.15,24.22c-4.37-2.63-11.62-2.71-16.18-.16-4.56,2.54-4.71,6.74-.34,9.37,4.37,2.63,11.62,2.71,16.18.16,4.56-2.54,4.71-6.74.34-9.37Z" fill="#dfddd7" stroke-width="0"/>
                </g>
                <g>
                  <g id="Axonometric_Cylinder" data-name="Axonometric Cylinder">
                    <path d="m101.6,26.28v2.25c-.03,1.84,1.17,3.69,3.61,5.1,4.81,2.78,12.62,2.78,17.43,0,2.38-1.37,3.58-3.17,3.61-4.97v-2.25l-24.65-.13Z" fill="url(#_Áåçûìÿííûé_ãðàäèåíò_656)" stroke-width="0"/>
                    <path id="Cylinder_face" data-name="Cylinder face" d="m122.64,31.37c4.81-2.78,4.81-7.29,0-10.07-4.81-2.78-12.62-2.78-17.43,0-4.81,2.78-4.81,7.29,0,10.07,4.81,2.78,12.62,2.78,17.43,0Z" fill="#f3f1ec" stroke-width="0"/>
                  </g>
                  <g id="Axonometric_Cylinder-2" data-name="Axonometric Cylinder">
                    <path d="m104.85,24.85v.82c-.02,1.36.86,2.72,2.66,3.75,3.54,2.05,9.29,2.05,12.84,0,1.75-1.01,2.64-2.33,2.66-3.66v-.82l-18.15-.1Z" fill="url(#_Áåçûìÿííûé_ãðàäèåíò_656-2)" stroke-width="0"/>
                    <ellipse id="Cylinder_face-2" data-name="Cylinder face" cx="113.92" cy="24.9" rx="9.08" ry="5.24" fill="#f3f1ec" stroke-width="0"/>
                    <path d="m109.09,21.47c-2.42,1.16-3.38,3.14-2.32,4.85.46.78,1.15,1.23,1.83,1.65-6.48-4.31,3.08-9.56,10.06-6.32,2.7,1.26,3.68,3.52,1.5,5.64-.28.24-.51.41-.68.51-.16.11-.25.17-.25.17,0,0,.09-.05.26-.16.17-.09.41-.26.7-.49,4.81-4.33-4.46-9.04-11.1-5.85Z" fill="#dfddd7" stroke-width="0"/>
                  </g>
                </g>
              </g>
              <g clip-path="url(#clippath-2)">
                <g opacity=".2">
                  <path id="Cylinder_face-4" data-name="Cylinder face" d="m122.09,32.86c4.51-2.6,4.51-6.82,0-9.43-4.51-2.6-11.82-2.6-16.33,0-4.51,2.6-4.51,6.82,0,9.43,4.51,2.6,11.82,2.6,16.33,0Z" fill="url(#_Áåçûìÿííûé_ãðàäèåíò_656-3)" stroke-width="0"/>
                  <path d="m103.48,30.97c.55.68,1.31,1.33,2.28,1.89,4.51,2.6,11.82,2.6,16.33,0,.98-.56,1.73-1.21,2.28-1.89-.52-.92-1.4-1.79-2.67-2.52-4.3-2.48-11.26-2.48-15.56,0-1.27.73-2.15,1.6-2.67,2.52Z" fill="#382825" stroke-width="0"/>
                  <path d="m115.74,34.28c.32-.09.63-.18.95-.28l-1.85-8.73c-.5.11-1.01.22-1.52.31l1.87,8.79c.18-.03.37-.06.55-.09Z" fill="#b7b7b7" stroke-width="0"/>
                </g>
              </g>
              <path id="Cylinder_face-5" data-name="Cylinder face" d="m114.94,25.49c.56-.33.56-.85,0-1.18-.56-.33-1.48-.33-2.04,0s-.56.85,0,1.18c.56.33,1.48.33,2.04,0Z" fill="#d4d1cb" stroke-width="0"/>
              <path d="m114.78,25.55s.03-.03.06-.05c0-.07.01-.14,0-.22l-2.53-12.08c-.11-.53-.4-1.01-.82-1.35l-5.71-4.72c-.55-.4-1.56.86-.98,1.19l5.71,4.72c.15.12.25.29.29.48l2.53,12.08c.44.19,1.06.18,1.46-.05Z" fill="#d3d3d3" stroke-width="0"/>
              <path d="m114.68,25.59l-2.68-12.45c-.08-.38-.29-.73-.59-.99l-5.71-4.85c-.08-.07-.2-.06-.27.02-.07.08-.06.2.02.27l5.71,4.85c.23.2.4.48.46.78l2.68,12.48c.13-.02.26-.06.37-.11Z" fill="#e4e4e4" mix-blend-mode="screen" opacity=".4" stroke-width="0"/>
            </g>
            <g>
              <g>
                <g>
                  <polygon points="96.96 79.5 96.96 85.24 78.63 74.66 75.2 67.89 96.96 79.5" fill="#cbc8c2" stroke-width="0"/>
                  <polygon points="96.93 79.49 96.93 85.23 115.25 74.66 118.69 67.89 96.93 79.49" fill="#e3e0da" stroke-width="0"/>
                </g>
                <polygon points="115.6 69.15 112.78 70.78 110.47 77.43 113.23 75.84 115.6 69.15" fill="#e4831a" stroke-width="0"/>
                <g>
                  <polygon points="78.57 56.42 73.04 67.4 96.95 81.21 99.18 56.42 78.57 56.42" fill="#dad7d1" stroke-width="0"/>
                  <polygon points="115.33 56.42 96.94 65.7 96.95 81.21 120.86 67.4 115.33 56.42" fill="#eae8e3" stroke-width="0"/>
                  <polygon points="115.33 56.42 96.95 67.03 78.57 56.42 96.95 45.81 115.33 56.42" fill="#f9f7f2" stroke-width="0"/>
                </g>
                <g>
                  <polygon points="112.45 58.09 109.79 58.48 109.64 59.72 111.99 64.87 114.75 63.27 112.45 58.09" fill="#ee9429" stroke-width="0"/>
                  <polygon points="103.11 55.95 109.63 59.72 112.44 58.09 105.92 54.33 103.11 55.95" fill="#ffab3e" stroke-width="0"/>
                  <polygon points="91.25 49.1 97.07 52.47 99.89 50.84 94.06 47.48 91.25 49.1" fill="#ffab3e" stroke-width="0"/>
                </g>
              </g>
              <g>
                <path d="m92.4,62.31c-.29-.12-.41-.33-.25-.42l14.42-8.33c.15-.09.52-.02.72.14,2.03,1.61-12.1,9.77-14.9,8.6Z" fill="#ffab3e" stroke-width="0"/>
                <path d="m105.48,54.21l-12.3,7.1c-.32.18-.83.18-1.14,0l-.53-.31c-.32-.18-.32-.48,0-.66l12.3-7.1c.32-.18.83-.18,1.14,0l.53.31c.32.18.32.48,0,.66Z" fill="#8d4221" stroke-width="0"/>
                <polygon points="99.07 54.6 96.58 60.3 90.18 59.73 99.07 54.6" fill="#ffcd43" stroke-width="0"/>
                <path d="m102.83,52.68l-12.3,7.1c-.32.18-.83.18-1.14,0l-.53-.31c-.32-.18-.32-.48,0-.66l12.3-7.1c.32-.18.83-.18,1.14,0l.53.31c.32.18.32.48,0,.66Z" fill="#8d4221" stroke-width="0"/>
                <path d="m104.02,53.16l-12.66,7.31c-.22.12-.57.12-.78,0l-.23-.13c-.22-.12-.22-.33,0-.45l12.66-7.31c.22-.12.57-.12.78,0l.23.13c.22.12.22.33,0,.45Z" fill="#ee4b4b" stroke-width="0"/>
                <polygon points="87.53 58.2 100.51 54.98 100.72 50.58 87.53 58.2" fill="#90b119" stroke-width="0"/>
                <path d="m90.3,52.49c-3.88,2.24-5.18,5.17-3.15,6.78.21.17.57.23.72.14l14.42-8.33c.15-.09.04-.3-.25-.42-2.79-1.17-7.87-.42-11.74,1.82Z" fill="#ffab3e" stroke-width="0"/>
              </g>
              <path d="m97.65,62.72l-1.17.68.32.18,1.17-.68-.32-.18Zm1.73-1l-1.3.75.32.18,1.3-.75-.32-.18Zm.43-.25l.32.18,1.15-.67-.32-.18-1.15.67Zm2.99-1.72l-1.41.81.32.18,1.41-.81-.32-.18Zm1.65-.95l-1.22.7.32.18,1.22-.7-.32-.18Zm-4.85,3.79l-2.28,1.31.32.18,2.28-1.31-.32-.18Zm1.62-.94l-1.19.69.32.18,1.19-.69-.32-.18Zm.43-.25l.32.18,1.33-.77-.32-.18-1.33.77Zm-2.85,2.64l-.59.34.32.18.59-.34-.32-.18Zm2.31-1.33l-1.89,1.09.32.18,1.89-1.09-.32-.18Zm.43-.25l.32.18,1.15-.67-.32-.18-1.15.67Z" fill="#ad9c8b" stroke-width="0"/>
              <path d="m83.29,55.44l-.32.19-.32-.18.32-.19.32.18Zm3.26-2.25l-3.15,1.82.32.18,3.15-1.82-.32-.18Zm.43-.25l.32.18,1.33-.77-.32-.18-1.33.77Zm2.7-1.56l-.95.55.32.18.95-.55-.32-.18Zm.96-.55l-.53.31.32.18.53-.31-.32-.18Z" fill="#ad9c8b" stroke-width="0"/>
            </g>
            <path d="m40.84,88.75l1.06.61c.31-.06.63-.13.96-.22l1.34.04c.39.15.87.24,1.42.26,0,0,7.84.2,7.84.2.46.01.98-.05,1.54-.15l5.73.17c.18,0,.37,0,.56-.02v-9l-5.25-1.21c-.46-.09-.98-.13-1.56-.09l-1.54-.35c-.41-.42-1.03-.69-1.83-.79l-1.84-.21c-.53-.07-1.14-.06-1.81.02l-6.65,3.87c-3.28,1.91-3.26,5,.03,6.9Z" fill="#bab8b5" mix-blend-mode="multiply" opacity=".7" stroke-width="0"/>
            <g>
              <g>
                <path d="m50.47,78.5l1.1,7.27c.15.97.85,1.92,2.12,2.68,2.92,1.74,7.72,1.79,10.72.11,1.35-.76,2.11-1.74,2.26-2.74l1.14-7.26-17.34-.05Z" fill="url(#_Áåçûìÿííûé_ãðàäèåíò_656-4)" stroke-width="0"/>
                <path d="m48.68,69.7l1.33,8.44c.18,1.17,1.03,2.31,2.55,3.22,3.53,2.11,9.33,2.17,12.96.13,1.62-.91,2.54-2.09,2.74-3.3l1.38-8.43-20.96-.06Z" fill="#b8a796" stroke-width="0"/>
                <path d="m66.91,65.05l-.28-.18-14.9-.04-.29.18c-3.78,2.36-3.75,6.05.17,8.39,1.77,1.06,4.04,1.67,6.39,1.82,3.02.2,6.15-.36,8.5-1.67.42-.24.8-.49,1.14-.75,2.95-2.31,2.72-5.57-.73-7.75Z" fill="#ccbaa8" stroke-width="0"/>
                <path d="m48.06,62.73l1,6.6c.2,1.3,1.14,2.57,2.83,3.58,3.9,2.33,10.32,2.4,14.34.14,1.81-1.01,2.82-2.32,3.03-3.67l1.04-6.6-22.24-.06Z" fill="url(#_Áåçûìÿííûé_ãðàäèåíò_656-5)" stroke-width="0"/>
                <path d="m67.19,57.68c-4.3-2.57-11.37-2.64-15.79-.16-4.42,2.48-4.52,6.58-.22,9.14,4.3,2.57,11.37,2.64,15.79.16,4.42-2.48,4.52-6.58.22-9.14Z" fill="#f3f1ec" stroke-width="0"/>
              </g>
              <g>
                <g id="Axonometric_Cylinder-3" data-name="Axonometric Cylinder">
                  <path d="m47.16,60.97v2.16c-.03,1.77,1.13,3.55,3.47,4.9,4.63,2.67,12.13,2.67,16.76,0,2.29-1.32,3.44-3.05,3.47-4.78v-2.16l-23.7-.13Z" fill="#412b1c" stroke-width="0"/>
                  <path id="Cylinder_face-6" data-name="Cylinder face" d="m67.39,65.87c4.63-2.67,4.63-7.01,0-9.68-4.63-2.67-12.13-2.67-16.76,0-4.63,2.67-4.63,7.01,0,9.68,4.63,2.67,12.13,2.67,16.76,0Z" fill="#543d31" stroke-width="0"/>
                </g>
                <g id="Axonometric_Cylinder-4" data-name="Axonometric Cylinder">
                  <path d="m50.29,59.6v.79c-.02,1.3.83,2.61,2.56,3.61,3.41,1.97,8.93,1.97,12.34,0,1.68-.97,2.54-2.24,2.56-3.52v-.79l-17.45-.09Z" fill="#412b1c" stroke-width="0"/>
                  <path id="Cylinder_face-7" data-name="Cylinder face" d="m65.18,63.21c3.41-1.97,3.41-5.16,0-7.13-3.41-1.97-8.93-1.97-12.34,0-3.41,1.97-3.41,5.16,0,7.13,3.41,1.97,8.93,1.97,12.34,0Z" fill="#543d31" stroke-width="0"/>
                  <path d="m54.37,56.35c-2.32,1.12-3.25,3.02-2.23,4.67.44.75,1.1,1.18,1.76,1.58-6.23-4.15,2.96-9.2,9.67-6.08,2.6,1.21,3.54,3.39,1.44,5.43-.27.23-.49.4-.65.49-.16.1-.24.16-.24.16,0,0,.09-.05.25-.15.17-.09.39-.25.67-.47,4.63-4.16-4.29-8.69-10.68-5.63Z" fill="#412b1c" stroke-width="0"/>
                </g>
                <path d="m67.84,64.77l-1.63.94c-.25.14-.66.14-.91,0l-.29-.17c-.25-.14-.25-.38,0-.52l1.63-.94c.25-.14.66-.14.91,0l.29.17c.25.14.25.38,0,.52Z" fill="#412b1c" stroke-width="0"/>
              </g>
            </g>
            <g>
              <g>
                <g isolation="isolate">
                  <path d="m73.54,86.07c-.1-.08-.15-.17-.15-.27l-.02,6.86c0,.09.05.19.15.27l15.81,12.64.02-6.86-15.81-12.64Z" fill="#cbc8c2" stroke-width="0"/>
                  <path d="m107.05,88.41c-7.28,2.16-12.8,5.41-16.64,9.67l-1.07.62-.02,6.86,1.07-.62c3.84-4.26,9.36-7.5,16.64-9.67l1.04-.6.02-6.86-1.04.6Z" fill="#e3e0da" stroke-width="0"/>
                  <path d="m89.59,98.85l.95-.55c3.89-4.29,9.45-7.52,16.58-9.64l.71-.41-.02,6.28-.91.53c-7.17,2.12-12.81,5.4-16.7,9.72l-.64.36.02-6.28Z" fill="#dad7d1" stroke-width="0"/>
                  <path d="m86.22,78.7c-.31-.13-.74-.11-1.01.05l-11.6,6.74c-.27.15-.3.4-.07.58l15.81,12.64,1.07-.62c3.84-4.26,9.36-7.5,16.64-9.67l1.04-.6-21.87-9.11Z" fill="#f9f7f2" stroke-width="0"/>
                </g>
                <path d="m107.12,88.65c-2.07.61-3.98,1.33-5.78,2.13l6.48,3.74.02-6.28-.71.41Z" fill="#cbc8c2" stroke-width="0"/>
              </g>
              <g clip-path="url(#clippath-3)">
                <g>
                  <g>
                    <path d="m104.63,93.72c-.52.3-1.07.5-1.68.46l3.51,3.76,1.59-.67-3.43-3.54Z" fill="#fd2" stroke-width="0"/>
                    <polygon points="106.47 97.94 100.59 90.47 96.83 91.92 100.56 92.87 106.04 99.57 107.59 98.73 108.06 97.27 106.47 97.94" fill="#f8bd04" stroke-width="0"/>
                  </g>
                  <g>
                    <polygon points="89.95 96.66 89.46 98.24 95.6 104.81 97.19 104.14 89.95 96.66" fill="#fd2" stroke-width="0"/>
                    <polygon points="95.6 104.81 89.72 97.34 88.38 98.14 95.16 106.44 96.72 105.59 97.19 104.14 95.6 104.81" fill="#f8bd04" stroke-width="0"/>
                  </g>
                  <g>
                    <polygon points="89.11 98.72 88.48 100.09 93.41 105.63 94.93 105.2 89.11 98.72" fill="#fd2" stroke-width="0"/>
                    <polygon points="93.41 105.63 88.82 99.31 87.52 99.88 92.83 107.06 94.33 106.47 94.93 105.2 93.41 105.63" fill="#f8bd04" stroke-width="0"/>
                  </g>
                  <g>
                    <polygon points="95.01 92.37 94.7 93.92 101.69 99.29 103.13 98.49 95.01 92.37" fill="#fd2" stroke-width="0"/>
                    <polygon points="101.69 99.29 94.85 93.04 93.66 93.93 101.44 100.88 102.83 99.92 103.13 98.49 101.69 99.29" fill="#f8bd04" stroke-width="0"/>
                  </g>
                  <g>
                    <polygon points="91.31 95.97 91 97.52 97.99 102.89 99.43 102.09 91.31 95.97" fill="#fd2" stroke-width="0"/>
                    <polygon points="97.99 102.89 91.15 96.64 89.96 97.53 97.74 104.48 99.13 103.52 99.43 102.09 97.99 102.89" fill="#f8bd04" stroke-width="0"/>
                  </g>
                  <g>
                    <polygon points="96.22 91.3 96.03 92.8 103.38 97.21 104.7 96.35 96.22 91.3" fill="#fd2" stroke-width="0"/>
                    <polygon points="103.38 97.21 96.12 91.95 95.04 92.88 103.25 98.75 104.51 97.74 104.7 96.35 103.38 97.21" fill="#f8bd04" stroke-width="0"/>
                  </g>
                  <g>
                    <polygon points="92.15 93.93 91.96 95.43 99.31 99.84 100.63 98.98 92.15 93.93" fill="#fd2" stroke-width="0"/>
                    <polygon points="99.31 99.84 92.05 94.58 90.97 95.51 99.18 101.38 100.44 100.37 100.63 98.98 99.31 99.84" fill="#f8bd04" stroke-width="0"/>
                  </g>
                  <g>
                    <path d="m105.22,92.63c-.05.14-.1.27-.16.4-.06.29-.13.58-.21.87l4.81,1.03,1.01-1.09-5.45-1.21Z" fill="#fd2" stroke-width="0"/>
                    <polygon points="109.65 94.93 100.68 92.23 99.91 93.33 109.89 96.36 110.81 95.15 110.67 93.84 109.65 94.93" fill="#f8bd04" stroke-width="0"/>
                  </g>
                  <g>
                    <polygon points="99.33 90.18 99.74 91.29 109.48 90.31 110.09 89.24 99.33 90.18" fill="#fd2" stroke-width="0"/>
                    <polygon points="109.48 90.31 99.5 90.67 99.08 91.7 109.94 91.43 110.46 90.27 110.09 89.24 109.48 90.31" fill="#f8bd04" stroke-width="0"/>
                  </g>
                  <g>
                    <polygon points="97.54 91.98 97.81 93.13 105.78 92.98 106.51 91.99 97.54 91.98" fill="#fd2" stroke-width="0"/>
                    <polygon points="105.78 92.98 97.64 92.48 97.11 93.46 106.1 94.14 106.75 93.06 106.51 91.99 105.78 92.98" fill="#f8bd04" stroke-width="0"/>
                  </g>
                  <g>
                    <polygon points="97.25 91.92 97.41 93.29 106.03 95 107.01 93.95 97.25 91.92" fill="#fd2" stroke-width="0"/>
                    <polygon points="106.03 95 97.3 92.52 96.55 93.58 106.25 96.4 107.15 95.22 107.01 93.95 106.03 95" fill="#f8bd04" stroke-width="0"/>
                  </g>
                  <g>
                    <polygon points="92.61 94.08 92.78 95.46 101.39 97.17 102.38 96.11 92.61 94.08" fill="#fd2" stroke-width="0"/>
                    <polygon points="101.39 97.17 92.67 94.68 91.92 95.75 101.62 98.56 102.51 97.38 102.38 96.11 101.39 97.17" fill="#f8bd04" stroke-width="0"/>
                  </g>
                  <g>
                    <polygon points="99.98 89.74 100.15 91.11 108.76 92.82 109.75 91.77 99.98 89.74" fill="#fd2" stroke-width="0"/>
                    <polygon points="108.76 92.82 100.04 90.34 99.29 91.4 108.99 94.22 109.89 93.04 109.75 91.77 108.76 92.82" fill="#f8bd04" stroke-width="0"/>
                  </g>
                  <g>
                    <polygon points="89.9 94.46 89.74 95.83 96.61 99.34 97.81 98.53 89.9 94.46" fill="#fd2" stroke-width="0"/>
                    <polygon points="96.61 99.34 89.81 95.06 88.84 95.92 96.51 100.75 97.65 99.8 97.81 98.53 96.61 99.34" fill="#f8bd04" stroke-width="0"/>
                  </g>
                  <g>
                    <polygon points="86.34 99.62 86.5 101 95.12 102.71 96.1 101.65 86.34 99.62" fill="#fd2" stroke-width="0"/>
                    <polygon points="95.12 102.71 86.4 100.22 85.65 101.29 95.35 104.1 96.24 102.92 96.1 101.65 95.12 102.71" fill="#f8bd04" stroke-width="0"/>
                  </g>
                </g>
              </g>
              <g>
                <polygon points="84.61 89.12 92.1 84.79 93.43 85.56 85.94 89.89 84.61 89.12" fill="#f84f4d" stroke-width="0"/>
                <path d="m89.75,84.74l1.05-.61-.28-.16-1.05.61.28.16Zm-1.55.89l1.17-.67-.28-.16-1.17.67.28.16Zm-.38.22l-.28-.16-1.04.6.28.16,1.04-.6Zm-2.68,1.55l1.26-.73-.28-.16-1.26.73.28.16Zm-1.48.85l1.1-.63-.28-.16-1.1.63.28.16Zm2.9-2.56l2.82-1.63-.28-.16-2.82,1.63.28.16Zm-.38.22l-.28-.16-1.19.69.28.16,1.2-.69Zm-2.43,1.4l.85-.49-.28-.16-.85.49.28.16Z" fill="#ad9c8b" stroke-width="0"/>
              </g>
            </g>
            <polygon points="147.54 75.46 119.33 91.75 105.03 83.5 133.24 67.21 147.54 75.46" fill="#849ae8" mix-blend-mode="screen" opacity=".5" stroke-width="0"/>
            <path d="m108.62,83.4l-.9.52-.44-.25.9-.52.44.25Zm1.47-1.36l-1.32.76.44.25,1.32-.76-.44-.25Zm4.23-2.44l-3.64,2.1.44.25,3.64-2.1-.44-.25Zm2.03-1.17l-1.44.83.44.25,1.44-.83-.44-.25Zm.59-.34l.44.25,2.34-1.35-.44-.25-2.34,1.35Zm4.23-2.45l-1.31.75.44.25,1.31-.75-.44-.25Zm1.7-.98l-1.11.64.44.25,1.11-.64-.44-.25Zm-12.38,8.52l-2.03,1.17.44.25,2.03-1.17-.44-.25Zm1.91-1.1l-1.32.76.44.25,1.32-.76-.44-.25Zm2.2-1.27l-1.62.93.44.25,1.62-.93-.44-.25Zm1.59-.92l-1,.58.44.25,1-.58-.44-.25Zm.59-.34l.44.25,2.89-1.67-.44-.25-2.89,1.67Zm4.63-2.67l-1.15.66.44.25,1.15-.66-.44-.25Zm3.67-2.12l-3.08,1.78.44.25,3.08-1.78-.44-.25Zm-14.52,9.76l-.9.52.44.25.9-.52-.44-.25Zm1.91-1.1l-1.32.76.44.25,1.32-.76-.44-.25Zm1.96-1.13l-1.37.79.44.25,1.37-.79-.44-.25Zm4.3-2.48l-3.71,2.14.44.25,3.71-2.14-.44-.25Zm.59-.34l.44.25,2.34-1.35-.44-.25-2.34,1.35Zm4.23-2.45l-1.31.75.44.25,1.31-.75-.44-.25Zm1.7-.98l-1.11.64.44.25,1.11-.64-.44-.25Zm-12.38,8.52l-2.03,1.17.44.25,2.03-1.17-.44-.25Zm1.91-1.1l-1.32.76.44.25,1.32-.76-.44-.25Zm2.2-1.27l-1.62.93.44.25,1.62-.93-.44-.25Zm1.59-.92l-1,.58.44.25,1-.58-.44-.25Zm.59-.34l.44.25,2.89-1.67-.44-.25-2.89,1.67Zm4.63-2.67l-1.15.66.44.25,1.15-.66-.44-.25Zm3.96-2.28l-3.37,1.95.44.25,3.37-1.95-.44-.25Zm-14.82,9.93l-.9.52.44.25.9-.52-.44-.25Zm1.91-1.1l-1.32.76.44.25,1.32-.76-.44-.25Zm4.51-2.6l-3.92,2.26.44.25,3.92-2.26-.44-.25Zm1.75-1.01l-1.96,1.13.44.25,1.96-1.13-.44-.25Zm.59-.34l.44.25,2.34-1.35-.44-.25-2.34,1.35Zm4.23-2.45l-1.31.75.44.25,1.31-.75-.44-.25Zm1.7-.98l-1.11.64.44.25,1.11-.64-.44-.25Zm-12.38,8.52l-2.03,1.17.44.25,2.03-1.17-.44-.25Zm1.91-1.1l-1.32.76.44.25,1.32-.76-.44-.25Zm1.28-.74l-.69.4.44.25.69-.4-.44-.25Zm2.51-1.45l-1.92,1.11.44.25,1.92-1.11-.44-.25Zm.59-.34l.44.25,2.89-1.67-.44-.25-2.89,1.67Zm4.63-2.67l-1.15.66.44.25,1.15-.66-.44-.25Zm4.25-2.45l-3.66,2.11.44.25,3.66-2.11-.44-.25Zm-4.92-4.02l-2.03,1.17.44.25,2.03-1.17-.44-.25Zm1.91-1.1l-1.32.76.44.25,1.32-.76-.44-.25Zm4.29-2.48l-3.71,2.14.44.25,3.71-2.14-.44-.25Zm-3.89,3.62l-2.14,1.24.44.25,2.14-1.24-.44-.25Zm1.91-1.1l-1.32.76.44.25,1.32-.76-.44-.25Zm2.2-1.27l-1.62.93.44.25,1.62-.93-.44-.25Zm-4.05,3.71l-2.03,1.17.44.25,2.03-1.17-.44-.25Zm1.91-1.1l-1.32.76.44.25,1.32-.76-.44-.25Zm2.7-1.56l-2.12,1.22.44.25,2.12-1.22-.44-.25Zm-2.3,2.7l-1.85,1.07.44.25,1.85-1.07-.44-.25Zm1.91-1.1l-1.32.76.44.25,1.32-.76-.44-.25Zm2.71-1.56l-2.12,1.22.44.25,2.12-1.22-.44-.25Zm-4.56,4l-2.03,1.17.44.25,2.03-1.17-.44-.25Zm1.91-1.1l-1.32.76.44.25,1.32-.76-.44-.25Zm3.33-1.92l-2.74,1.58.44.25,2.74-1.58-.44-.25Zm-2.93,3.06l-1.56.9.44.25,1.56-.9-.44-.25Zm1.91-1.1l-1.32.76.44.25,1.32-.76-.44-.25Zm1.49-.86l-.91.52.44.25.91-.52-.44-.25Zm-18.44,14.57l-.9.52.44.25.9-.52-.44-.25Zm1.91-1.1l-1.32.76.44.25,1.32-.76-.44-.25Zm4.23-2.44l-3.64,2.1.44.25,3.64-2.1-.44-.25Zm2.03-1.17l-1.44.83.44.25,1.44-.83-.44-.25Zm.59-.34l.44.25,2.34-1.35-.44-.25-2.34,1.35Zm4.23-2.45l-1.31.75.44.25,1.31-.75-.44-.25Zm1.7-.98l-1.11.64.44.25,1.11-.64-.44-.25Zm-12.38,8.52l-2.03,1.17.44.25,2.03-1.17-.44-.25Zm1.91-1.1l-1.32.76.44.25,1.32-.76-.44-.25Zm2.2-1.27l-1.62.93.44.25,1.62-.93-.44-.25Zm1.59-.92l-1,.58.44.25,1-.58-.44-.25Zm.59-.34l.44.25,2.89-1.67-.44-.25-2.89,1.67Zm4.63-2.67l-1.15.66.44.25,1.15-.66-.44-.25Zm3.67-2.12l-3.08,1.78.44.25,3.08-1.78-.44-.25Zm.41-1.61l-2.03,1.17.44.25,2.03-1.17-.44-.25Zm1.91-1.1l-1.32.76.44.25,1.32-.76-.44-.25Zm.4,1.14l-2.14,1.24.44.25,2.14-1.24-.44-.25Z" fill="#f7f5f0" stroke-width="0"/>
          </g>
          <g>
            <g>
              <path d="m188.39,124.3l-43.89,25.34c-2.08,1.2-5.46,1.2-7.54,0l-16.76-9.68c-2.08-1.2-2.08-3.15,0-4.35l43.89-25.34c2.08-1.2,5.46-1.2,7.54,0l16.76,9.68c2.08,1.2,2.08,3.15,0,4.35Z" fill="#849ae8" stroke-width="0"/>
              <g>
                <path d="m118.65,121.01v3.04c0,.76.5,1.51,1.51,2.1l16.76,9.68c2.08,1.2,5.46,1.2,7.54,0l43.89-25.34c1.01-.58,1.5-1.33,1.51-2.09v-3.04l-71.22,15.66Z" fill="#ededed" stroke-width="0"/>
                <path d="m188.35,107.59l-43.89,25.34c-2.08,1.2-5.46,1.2-7.54,0l-16.76-9.68c-2.08-1.2-2.08-3.15,0-4.35l43.89-25.34c2.08-1.2,5.46-1.2,7.54,0l16.76,9.68c2.08,1.2,2.08,3.15,0,4.35Z" fill="#f84f4d" stroke-width="0"/>
              </g>
            </g>
            <path d="m143.31,125.73l-11.73-6.77c-.27-.16-.27-.32,0-.47l4.68-2.7c1.03-.59,2.09-.89,3.2-.9,1.11,0,2.17.28,3.18.87l.8.46c1.11.64,1.31,1.35.61,2.13.6-.25,1.23-.37,1.88-.35.66.02,1.3.21,1.94.58l1.17.68c1.01.59,1.52,1.2,1.5,1.84-.01.64-.53,1.25-1.54,1.84l-4.88,2.82c-.27.16-.55.16-.82,0Zm-4.35-5.62l1.99-1.15c.42-.24.63-.47.65-.68.02-.21-.17-.44-.57-.67l-.76-.44c-.4-.23-.79-.34-1.15-.34-.36,0-.76.13-1.17.37l-2.01,1.16c-.14.08-.14.16,0,.25l2.6,1.5c.14.08.29.08.43,0Zm5.39,3.11l2.19-1.26c.43-.25.65-.48.66-.69.01-.21-.18-.43-.58-.67l-1.13-.65c-.4-.23-.79-.34-1.15-.33-.36.02-.77.15-1.21.41l-2.15,1.24c-.14.08-.14.17,0,.25l2.95,1.7c.14.08.29.08.43,0Zm4.08-14.45l1.64-.95c.29-.16.56-.17.82-.02l8.98,5.18c1.01.59,1.52,1.2,1.5,1.85-.01.65-.53,1.26-1.54,1.85l-2.15,1.24c-1.03.59-2.09.89-3.2.9-1.11,0-2.17-.28-3.2-.88l-8.96-5.17c-.27-.16-.27-.32,0-.47l1.66-.96c.27-.16.55-.16.82,0l8.84,5.1c.42.24.8.36,1.15.36.35,0,.73-.12,1.13-.35l1.34-.78c.42-.24.62-.46.63-.67,0-.2-.21-.42-.63-.66l-8.84-5.1c-.27-.16-.27-.32,0-.47Zm21.66,1.98l-1.66.96c-.27.16-.55.16-.82,0l-4.18-2.41-11.1-2.29c-.17-.04-.27-.1-.29-.18-.03-.08.02-.16.14-.22l2.07-1.19c.21-.12.5-.13.88-.03l6.69,1.61.14-.08-2.83-3.84c-.18-.21-.16-.38.06-.51l2.07-1.19c.13-.08.26-.11.4-.1.14.01.24.07.3.19l3.96,6.41,4.18,2.41c.27.16.27.32,0,.47Zm-3.92-8.26l-3.02-1.75c-.27-.16-.27-.32,0-.47l1.85-1.07c.27-.16.55-.16.82,0l3.02,1.75c.52.3,1.07.65,1.66,1.06.59.41,1.02.71,1.31.9.28.2.51.36.68.48.17.13.26.2.27.2.22.19.21.35-.04.5l-1.11.64c-.25.14-.53.15-.86.02-.01,0-.13-.06-.35-.16-.22-.1-.5-.23-.85-.39-.34-.16-.71-.34-1.1-.54-1.14-.57-1.91-.96-2.28-1.18Zm8.92,2.13l2.4,1.39c.27.16.28.31.02.46l-1.72.99c-.26.15-.53.14-.82-.02l-2.36-1.36c-.26-.15-.26-.3,0-.45l1.72-.99c.26-.15.51-.15.76-.01Z" fill="#fffcf3" stroke-width="0"/>
          </g>
        </g>
      </g>
    </g>
  </g>
</svg>