<?xml version="1.0" encoding="UTF-8"?>
<svg id="Layer_2" data-name="Layer 2" xmlns="http://www.w3.org/2000/svg" xmlns:xlink="http://www.w3.org/1999/xlink" viewBox="0 0 223.06 144.75">
  <defs>
    <style>
      .cls-1 {
        fill: url(#GradientFill_2-10);
      }

      .cls-1, .cls-2, .cls-3, .cls-4, .cls-5, .cls-6, .cls-7, .cls-8, .cls-9, .cls-10, .cls-11, .cls-12, .cls-13, .cls-14, .cls-15, .cls-16, .cls-17, .cls-18, .cls-19, .cls-20, .cls-21, .cls-22, .cls-23, .cls-24, .cls-25, .cls-26, .cls-27, .cls-28, .cls-29, .cls-30 {
        stroke-width: 0px;
      }

      .cls-1, .cls-2, .cls-3, .cls-4, .cls-5, .cls-6, .cls-8, .cls-9, .cls-10, .cls-11, .cls-12, .cls-14, .cls-15, .cls-16, .cls-17, .cls-18, .cls-20, .cls-21, .cls-22, .cls-23, .cls-25, .cls-26, .cls-27, .cls-28, .cls-29, .cls-30 {
        fill-rule: evenodd;
      }

      .cls-2 {
        fill: #e52614;
      }

      .cls-3 {
        fill: #634c86;
      }

      .cls-4 {
        fill: url(#GradientFill_2);
      }

      .cls-5, .cls-7 {
        fill: #6e2e2e;
      }

      .cls-6 {
        fill: #82b941;
      }

      .cls-8 {
        fill: #c40202;
      }

      .cls-9, .cls-13 {
        fill: #8b3236;
      }

      .cls-10 {
        fill: url(#GradientFill_2-5);
      }

      .cls-11 {
        fill: #b9592c;
      }

      .cls-12 {
        fill: url(#GradientFill_2-3);
      }

      .cls-14 {
        fill: url(#GradientFill_2-6);
      }

      .cls-15 {
        fill: url(#GradientFill_2-9);
      }

      .cls-16 {
        fill: url(#GradientFill_2-2);
      }

      .cls-17 {
        fill: #a89986;
      }

      .cls-18 {
        fill: #e47b06;
      }

      .cls-19, .cls-30 {
        fill: #692c2d;
      }

      .cls-20 {
        fill: url(#GradientFill_2-8);
      }

      .cls-21 {
        fill: #f07464;
      }

      .cls-22 {
        fill: #a6ce39;
      }

      .cls-23 {
        fill: #4c3a68;
      }

      .cls-24, .cls-28 {
        fill: #ddcbba;
      }

      .cls-25 {
        fill: url(#GradientFill_2-7);
      }

      .cls-26 {
        fill: url(#GradientFill_2-4);
      }

      .cls-27 {
        fill: #febd30;
      }

      .cls-29 {
        fill: #ffb596;
      }
    </style>
    <linearGradient id="GradientFill_2" data-name="GradientFill 2" x1="111.3" y1="101.83" x2="110.04" y2="125.84" gradientUnits="userSpaceOnUse">
      <stop offset="0" stop-color="#eb262b"/>
      <stop offset=".69" stop-color="#eb262b"/>
      <stop offset="1" stop-color="#fff"/>
    </linearGradient>
    <linearGradient id="GradientFill_2-2" data-name="GradientFill 2" x1="184.71" y1="52.52" x2="183.45" y2="76.52" xlink:href="#GradientFill_2"/>
    <linearGradient id="GradientFill_2-3" data-name="GradientFill 2" x1="50.28" y1="76.69" x2="51.96" y2="100.68" xlink:href="#GradientFill_2"/>
    <linearGradient id="GradientFill_2-4" data-name="GradientFill 2" x1="101.4" y1="62.66" x2="100.15" y2="86.67" xlink:href="#GradientFill_2"/>
    <linearGradient id="GradientFill_2-5" data-name="GradientFill 2" x1="135.28" y1="44.14" x2="134.03" y2="68.14" xlink:href="#GradientFill_2"/>
    <linearGradient id="GradientFill_2-6" data-name="GradientFill 2" x1="90.95" y1="34.45" x2="89.69" y2="58.46" xlink:href="#GradientFill_2"/>
    <linearGradient id="GradientFill_2-7" data-name="GradientFill 2" x1="45.08" y1="30.34" x2="43.82" y2="54.35" xlink:href="#GradientFill_2"/>
    <linearGradient id="GradientFill_2-8" data-name="GradientFill 2" x1="164.49" y1="82.66" x2="166.17" y2="106.65" xlink:href="#GradientFill_2"/>
    <linearGradient id="GradientFill_2-9" data-name="GradientFill 2" x1="105.76" y1="5.86" x2="104.5" y2="29.87" xlink:href="#GradientFill_2"/>
    <linearGradient id="GradientFill_2-10" data-name="GradientFill 2" x1="158.26" y1="15.76" x2="159.94" y2="39.75" xlink:href="#GradientFill_2"/>
  </defs>
  <g id="_1" data-name="1">
    <g>
      <path class="cls-17" d="m75.19,8.56c55.87-14.5,118.78,3.06,140.48,39.22,21.7,36.16-6.01,77.25-61.88,91.76-55.87,14.5-123.74-1.97-146.68-41.07C-15.83,59.38,19.32,23.07,75.19,8.56Z"/>
      <g>
        <path class="cls-11" d="m77.2,12.2c52.77-13.7,112.19,2.89,132.69,37.05,20.5,34.16-5.68,72.97-58.45,86.67-52.77,13.7-116.87-1.86-138.54-38.79C-8.76,60.2,24.43,25.9,77.2,12.2Z"/>
        <path class="cls-27" d="m73.76,4.89c53.69-13.94,114.13,2.94,134.99,37.69,20.85,34.75-5.77,74.23-59.46,88.17-53.68,13.94-114.13-2.94-134.99-37.69C-6.55,58.31,20.08,18.82,73.76,4.89Z"/>
        <path class="cls-18" d="m76.1,8.79c50.36-13.07,107.06,2.76,126.62,35.35,19.56,32.6-5.42,69.63-55.77,82.7-50.36,13.07-107.06-2.76-126.62-35.35C.77,58.89,25.74,21.86,76.1,8.79Z"/>
        <path class="cls-27" d="m79.75,10.57c47.77-12.4,99.73,3.88,118.28,34.79,18.55,30.92-5.14,66.05-52.9,78.45-47.77,12.4-101.55-2.62-120.1-33.53C6.47,59.35,31.98,22.96,79.75,10.57Z"/>
        <g>
          <path class="cls-23" d="m31,76.84c3.54,0,6.41,1.78,6.41,3.98s-2.87,3.98-6.41,3.98v-1.96c1.8,0,3.26-.91,3.26-2.02s-1.46-2.02-3.26-2.02v-1.96Zm0,7.96c-3.54,0-6.41-1.78-6.41-3.98s2.87-3.98,6.41-3.98v1.96c-1.8,0-3.26.91-3.26,2.02s1.46,2.02,3.26,2.02v1.96Z"/>
          <path class="cls-3" d="m31,75.86c3.54,0,6.41,1.78,6.41,3.98s-2.87,3.98-6.41,3.98v-1.88c1.87,0,3.39-.94,3.39-2.1s-1.52-2.1-3.39-2.1v-1.88Zm0,7.96c-3.54,0-6.41-1.78-6.41-3.98s2.87-3.98,6.41-3.98v1.88c-1.87,0-3.39.94-3.39,2.1s1.52,2.1,3.39,2.1v1.88Z"/>
        </g>
        <g>
          <path class="cls-8" d="m101.63,110.36c.96-.94,2.82-6.53,8.87-6.47,11.98.13,15.5,6.58,16.18,11.64.59,4.43-5.99,9.53-12.38,10.23-7.19.79-17.36-2.33-19.37-7.46-2.05-5.25,4.5-5.77,6.7-7.94Z"/>
          <g>
            <path class="cls-4" d="m101.63,108.78c.96-.94,2.82-6.53,8.87-6.47,11.98.13,15.5,6.58,16.18,11.64.59,4.43-5.99,9.53-12.38,10.23-7.19.79-17.36-2.33-19.37-7.46-2.05-5.25,4.5-5.77,6.7-7.94Z"/>
            <path class="cls-21" d="m102.52,109.21c.87-.86,2.57-5.96,8.1-5.9,10.94.12,14.15,6.01,14.77,10.63.54,4.04-5.47,8.7-11.3,9.34-6.56.72-15.85-2.13-17.68-6.81-1.87-4.79,4.11-5.27,6.12-7.25Z"/>
            <path class="cls-29" d="m108.02,109.73c.77-1.01,1.95-2.12,3.78-2.19,6.1-.23,7.55,3.2,7.63,5.95.07,2.4-3.56,5.35-6.86,5.9-3.7.62-9.29-.41-10.04-3.16-.4-1.47.9-2.71,1.86-3.34-1.24-1.02-2.76-2.12-4.45-2.97.67-.35,1.27-.71,1.7-1.13.24-.24.54-.78.95-1.44,1.87.89,3.44,1.76,5.44,2.4Z"/>
            <path class="cls-2" d="m108.6,109.23c-1.68-4.32,2.51-6.34,9.16-2.55,4.63,2.63,4.89,5.16,3.79,8.58-.68,2.12-4.63.01-3.77-1.54,2.57-4.62-6.43-8.89-6.31-3.81.02.9-2.33.72-2.88-.69Z"/>
            <path class="cls-2" d="m103.66,113.72c-6.35.87-7.11,4.36.75,6.81,5.47,1.7,8.85.75,12.82-1.45,2.45-1.36-2.03-2.88-3.67-1.65-4.86,3.64-14.37-.06-7.73-2.23,1.18-.38-.1-1.76-2.17-1.48Z"/>
          </g>
        </g>
        <g>
          <path class="cls-8" d="m175.04,61.05c.96-.94,2.82-6.53,8.87-6.47,11.98.13,15.5,6.58,16.18,11.64.59,4.43-5.99,9.53-12.38,10.23-7.18.79-17.36-2.33-19.37-7.46-2.05-5.25,4.5-5.77,6.7-7.94Z"/>
          <g>
            <path class="cls-16" d="m175.04,59.47c.96-.94,2.82-6.53,8.87-6.47,11.98.13,15.5,6.58,16.18,11.64.59,4.43-5.99,9.53-12.38,10.23-7.18.79-17.36-2.33-19.37-7.46-2.05-5.25,4.5-5.77,6.7-7.94Z"/>
            <path class="cls-21" d="m175.93,59.9c.87-.86,2.57-5.96,8.1-5.9,10.94.12,14.15,6.01,14.77,10.63.54,4.04-5.47,8.7-11.3,9.34-6.56.72-15.85-2.13-17.68-6.81-1.87-4.79,4.11-5.27,6.12-7.25Z"/>
            <path class="cls-29" d="m181.43,60.42c.77-1.01,1.95-2.12,3.78-2.19,6.1-.23,7.55,3.2,7.62,5.95.07,2.4-3.56,5.35-6.86,5.9-3.7.62-9.29-.41-10.04-3.16-.4-1.47.9-2.71,1.86-3.35-1.24-1.02-2.76-2.12-4.45-2.97.67-.35,1.27-.71,1.7-1.14.24-.24.54-.78.95-1.44,1.87.89,3.44,1.77,5.44,2.4Z"/>
            <path class="cls-2" d="m182.01,59.92c-1.67-4.32,2.51-6.34,9.16-2.55,4.63,2.63,4.89,5.16,3.79,8.58-.68,2.12-4.63.01-3.77-1.54,2.57-4.62-6.43-8.89-6.31-3.81.02.9-2.33.72-2.88-.69Z"/>
            <path class="cls-2" d="m177.08,64.41c-6.35.87-7.11,4.36.75,6.81,5.47,1.7,8.85.75,12.82-1.45,2.45-1.36-2.03-2.88-3.66-1.65-4.86,3.64-14.37-.06-7.73-2.23,1.18-.38-.1-1.76-2.17-1.48Z"/>
          </g>
        </g>
        <g>
          <path class="cls-23" d="m147.05,68.8c3.54,0,6.41,1.78,6.41,3.98s-2.87,3.98-6.41,3.98v-1.96c1.8,0,3.26-.91,3.26-2.02s-1.46-2.02-3.26-2.02v-1.96Zm0,7.96c-3.54,0-6.41-1.78-6.41-3.98s2.87-3.98,6.41-3.98v1.96c-1.8,0-3.26.91-3.26,2.02s1.46,2.02,3.26,2.02v1.96Z"/>
          <path class="cls-3" d="m147.05,67.82c3.54,0,6.41,1.78,6.41,3.98s-2.87,3.98-6.41,3.98v-1.88c1.87,0,3.39-.94,3.39-2.1s-1.52-2.1-3.39-2.1v-1.88Zm0,7.96c-3.54,0-6.41-1.78-6.41-3.98s2.87-3.98,6.41-3.98v1.88c-1.87,0-3.39.94-3.39,2.1s1.52,2.1,3.39,2.1v1.88Z"/>
        </g>
        <g>
          <path class="cls-23" d="m78.32,107.2c3.54,0,6.41,1.78,6.41,3.98s-2.87,3.98-6.41,3.98v-1.96c1.8,0,3.26-.91,3.26-2.02s-1.46-2.02-3.26-2.02v-1.96Zm0,7.96c-3.54,0-6.41-1.78-6.41-3.98s2.87-3.98,6.41-3.98v1.96c-1.8,0-3.26.91-3.26,2.02s1.46,2.02,3.26,2.02v1.96Z"/>
          <path class="cls-3" d="m78.32,106.22c3.54,0,6.41,1.78,6.41,3.98s-2.87,3.98-6.41,3.98v-1.88c1.87,0,3.39-.94,3.39-2.1s-1.52-2.1-3.39-2.1v-1.88Zm0,7.96c-3.54,0-6.41-1.78-6.41-3.98s2.87-3.98,6.41-3.98v1.88c-1.87,0-3.39.94-3.39,2.1s1.52,2.1,3.39,2.1v1.88Z"/>
        </g>
        <g>
          <path class="cls-23" d="m76.51,76.93c3.54,0,6.41,1.78,6.41,3.98s-2.87,3.98-6.41,3.98v-1.96c1.8,0,3.26-.91,3.26-2.02s-1.46-2.02-3.26-2.02v-1.96Zm0,7.96c-3.54,0-6.41-1.78-6.41-3.98s2.87-3.98,6.41-3.98v1.96c-1.8,0-3.26.9-3.26,2.02s1.46,2.02,3.26,2.02v1.96Z"/>
          <path class="cls-3" d="m76.51,75.96c3.54,0,6.41,1.78,6.41,3.98s-2.87,3.98-6.41,3.98v-1.88c1.87,0,3.39-.94,3.39-2.1s-1.52-2.1-3.39-2.1v-1.88Zm0,7.96c-3.54,0-6.41-1.78-6.41-3.98s2.87-3.98,6.41-3.98v1.88c-1.87,0-3.39.94-3.39,2.1s1.52,2.1,3.39,2.1v1.88Z"/>
        </g>
        <g>
          <path class="cls-23" d="m56.47,24.29c3.54,0,6.41,1.78,6.41,3.98s-2.87,3.98-6.41,3.98v-1.96c1.8,0,3.26-.91,3.26-2.02s-1.46-2.02-3.26-2.02v-1.96Zm0,7.96c-3.54,0-6.41-1.78-6.41-3.98s2.87-3.98,6.41-3.98v1.96c-1.8,0-3.26.91-3.26,2.02s1.46,2.02,3.26,2.02v1.96Z"/>
          <path class="cls-3" d="m56.47,23.32c3.54,0,6.41,1.78,6.41,3.98s-2.87,3.98-6.41,3.98v-1.88c1.87,0,3.39-.94,3.39-2.1s-1.52-2.1-3.39-2.1v-1.88Zm0,7.96c-3.54,0-6.41-1.78-6.41-3.98s2.87-3.98,6.41-3.98v1.88c-1.87,0-3.39.94-3.39,2.1s1.52,2.1,3.39,2.1v1.88Z"/>
        </g>
        <g>
          <path class="cls-23" d="m128.8,16.7c3.54,0,6.41,1.78,6.41,3.98s-2.87,3.98-6.41,3.98v-1.96c1.8,0,3.26-.91,3.26-2.02s-1.46-2.02-3.26-2.02v-1.96Zm0,7.96c-3.54,0-6.41-1.78-6.41-3.98s2.87-3.98,6.41-3.98v1.96c-1.8,0-3.26.91-3.26,2.02s1.46,2.02,3.26,2.02v1.96Z"/>
          <path class="cls-3" d="m128.8,15.72c3.54,0,6.41,1.78,6.41,3.98s-2.87,3.98-6.41,3.98v-1.88c1.87,0,3.39-.94,3.39-2.1s-1.52-2.1-3.39-2.1v-1.88Zm0,7.96c-3.54,0-6.41-1.78-6.41-3.98s2.87-3.98,6.41-3.98v1.88c-1.87,0-3.39.94-3.39,2.1s1.52,2.1,3.39,2.1v1.88Z"/>
        </g>
        <g>
          <path class="cls-23" d="m78.92,39.46c3.54,0,6.41,1.78,6.41,3.98s-2.87,3.98-6.41,3.98v-1.96c1.8,0,3.26-.91,3.26-2.02s-1.46-2.02-3.26-2.02v-1.96Zm0,7.96c-3.54,0-6.41-1.78-6.41-3.98s2.87-3.98,6.41-3.98v1.96c-1.8,0-3.26.91-3.26,2.02s1.46,2.02,3.26,2.02v1.96Z"/>
          <path class="cls-3" d="m78.92,38.48c3.54,0,6.41,1.78,6.41,3.98s-2.87,3.98-6.41,3.98v-1.88c1.87,0,3.39-.94,3.39-2.1s-1.52-2.1-3.39-2.1v-1.88Zm0,7.96c-3.54,0-6.41-1.78-6.41-3.98s2.87-3.98,6.41-3.98v1.88c-1.87,0-3.39.94-3.39,2.1s1.52,2.1,3.39,2.1v1.88Z"/>
        </g>
        <g>
          <path class="cls-23" d="m114.92,88.31c3.54,0,6.41,1.78,6.41,3.98s-2.87,3.98-6.41,3.98v-1.96c1.8,0,3.26-.91,3.26-2.02s-1.46-2.02-3.26-2.02v-1.96Zm0,7.96c-3.54,0-6.41-1.78-6.41-3.98s2.87-3.98,6.41-3.98v1.96c-1.8,0-3.26.91-3.26,2.02s1.46,2.02,3.26,2.02v1.96Z"/>
          <path class="cls-3" d="m114.92,87.33c3.54,0,6.41,1.78,6.41,3.98s-2.87,3.98-6.41,3.98v-1.88c1.87,0,3.39-.94,3.39-2.1s-1.52-2.1-3.39-2.1v-1.88Zm0,7.96c-3.54,0-6.41-1.78-6.41-3.98s2.87-3.98,6.41-3.98v1.88c-1.87,0-3.39.94-3.39,2.1s1.52,2.1,3.39,2.1v1.88Z"/>
        </g>
        <g>
          <path class="cls-23" d="m155.57,108.71c3.54,0,6.41,1.78,6.41,3.98s-2.87,3.98-6.41,3.98v-1.96c1.8,0,3.26-.91,3.26-2.02s-1.46-2.02-3.26-2.02v-1.96Zm0,7.96c-3.54,0-6.41-1.78-6.41-3.98s2.87-3.98,6.41-3.98v1.96c-1.8,0-3.26.9-3.26,2.02s1.46,2.02,3.26,2.02v1.96Z"/>
          <path class="cls-3" d="m155.57,107.73c3.54,0,6.41,1.78,6.41,3.98s-2.87,3.98-6.41,3.98v-1.88c1.87,0,3.39-.94,3.39-2.1s-1.52-2.1-3.39-2.1v-1.88Zm0,7.96c-3.54,0-6.41-1.78-6.41-3.98s2.87-3.98,6.41-3.98v1.88c-1.87,0-3.39.94-3.39,2.1s1.52,2.1,3.39,2.1v1.88Z"/>
        </g>
        <g>
          <ellipse class="cls-19" cx="32.56" cy="67.88" rx="10.45" ry="6.49"/>
          <ellipse class="cls-7" cx="32.56" cy="66.84" rx="10.45" ry="6.49"/>
          <path class="cls-9" d="m32.56,72.97c5.43,0,9.86-2.75,9.86-6.12s-4.43-6.12-9.86-6.12-9.86,2.75-9.86,6.12,4.43,6.12,9.86,6.12Z"/>
          <path class="cls-28" d="m24.98,65.49c.4,0,.73-.21.73-.46s-.33-.46-.73-.46-.74.21-.74.46.33.46.74.46Z"/>
          <path class="cls-28" d="m26.73,67.19c.75,0,1.36-.38,1.36-.84s-.61-.85-1.36-.85-1.36.38-1.36.85.61.84,1.36.84Z"/>
          <path class="cls-28" d="m38.64,65.94c.4,0,.74-.21.74-.46s-.33-.46-.74-.46-.74.21-.74.46.33.46.74.46Z"/>
          <path class="cls-28" d="m40.39,67.64c.75,0,1.36-.38,1.36-.85s-.61-.85-1.36-.85-1.36.38-1.36.85.61.85,1.36.85Z"/>
          <path class="cls-28" d="m26.1,69.19c.41,0,.74-.2.74-.46s-.33-.46-.74-.46-.73.21-.73.46.33.46.73.46Z"/>
          <path class="cls-28" d="m34.7,69.46c.75,0,1.36-.38,1.36-.84s-.61-.85-1.36-.85-1.36.38-1.36.85.61.84,1.36.84Z"/>
          <path class="cls-28" d="m31.09,62.34c.54,0,.98-.27.98-.61s-.44-.61-.98-.61-.98.27-.98.61.44.61.98.61Z"/>
          <path class="cls-28" d="m33.09,63.74c.75,0,1.36-.38,1.36-.85s-.61-.85-1.36-.85-1.36.38-1.36.85.61.85,1.36.85Z"/>
          <path class="cls-28" d="m30.33,72.22c.75,0,1.36-.38,1.36-.84s-.61-.85-1.36-.85-1.36.38-1.36.85.61.84,1.36.84Z"/>
          <path class="cls-28" d="m37.87,69.64c.4,0,.74-.21.74-.46s-.33-.46-.74-.46-.74.21-.74.46.33.46.74.46Z"/>
          <path class="cls-28" d="m31.68,65.36c.4,0,.73-.2.73-.46s-.33-.46-.73-.46-.74.2-.74.46.33.46.74.46Z"/>
          <path class="cls-28" d="m36.66,62.76c.4,0,.74-.2.74-.46s-.33-.46-.74-.46-.74.21-.74.46.33.46.74.46Z"/>
          <path class="cls-28" d="m28.39,64.35c.4,0,.73-.2.73-.46s-.33-.46-.73-.46-.74.2-.74.46.33.46.74.46Z"/>
          <path class="cls-28" d="m29.21,70.03c.54,0,.98-.27.98-.61s-.44-.61-.98-.61-.98.27-.98.61.44.61.98.61Z"/>
        </g>
        <g>
          <ellipse class="cls-19" cx="65.48" cy="66" rx="10.45" ry="6.49"/>
          <ellipse class="cls-7" cx="65.48" cy="64.96" rx="10.45" ry="6.49"/>
          <path class="cls-9" d="m65.48,71.08c5.43,0,9.86-2.75,9.86-6.12s-4.43-6.12-9.86-6.12-9.86,2.75-9.86,6.12,4.43,6.12,9.86,6.12Z"/>
          <path class="cls-28" d="m57.9,63.61c.41,0,.73-.21.73-.46s-.33-.46-.73-.46-.74.21-.74.46.33.46.74.46Z"/>
          <path class="cls-28" d="m59.65,65.31c.75,0,1.36-.38,1.36-.84s-.61-.85-1.36-.85-1.36.38-1.36.85.61.84,1.36.84Z"/>
          <path class="cls-28" d="m71.56,64.05c.41,0,.74-.21.74-.46s-.33-.46-.74-.46-.73.21-.73.46.33.46.73.46Z"/>
          <path class="cls-28" d="m73.31,65.76c.75,0,1.36-.38,1.36-.84s-.61-.85-1.36-.85-1.36.38-1.36.85.61.84,1.36.84Z"/>
          <path class="cls-28" d="m59.02,67.31c.4,0,.73-.2.73-.46s-.33-.46-.73-.46-.74.21-.74.46.33.46.74.46Z"/>
          <path class="cls-28" d="m67.62,67.57c.75,0,1.36-.38,1.36-.84s-.61-.85-1.36-.85-1.36.38-1.36.85.61.84,1.36.84Z"/>
          <path class="cls-28" d="m64.01,60.46c.54,0,.98-.27.98-.61s-.44-.61-.98-.61-.98.27-.98.61.44.61.98.61Z"/>
          <path class="cls-28" d="m66.01,61.86c.75,0,1.36-.38,1.36-.85s-.61-.85-1.36-.85-1.36.38-1.36.85.61.85,1.36.85Z"/>
          <path class="cls-28" d="m63.25,70.33c.75,0,1.36-.38,1.36-.84s-.61-.85-1.36-.85-1.36.38-1.36.85.61.84,1.36.84Z"/>
          <path class="cls-28" d="m70.79,67.76c.41,0,.74-.21.74-.46s-.33-.46-.74-.46-.73.21-.73.46.33.46.73.46Z"/>
          <path class="cls-28" d="m64.61,63.48c.41,0,.74-.2.74-.46s-.33-.46-.74-.46-.74.21-.74.46.33.46.74.46Z"/>
          <path class="cls-28" d="m69.58,60.88c.41,0,.74-.2.74-.46s-.33-.46-.74-.46-.73.2-.73.46.33.46.73.46Z"/>
          <path class="cls-28" d="m61.31,62.47c.4,0,.73-.2.73-.46s-.33-.46-.73-.46-.74.2-.74.46.33.46.74.46Z"/>
          <path class="cls-28" d="m62.13,68.14c.54,0,.98-.27.98-.61s-.44-.61-.98-.61-.98.27-.98.61.44.61.98.61Z"/>
        </g>
        <g>
          <path class="cls-30" d="m92.15,84.16c5.77,0,10.45,2.91,10.45,6.49s-4.68,6.49-10.45,6.49-10.45-2.9-10.45-6.49,4.68-6.49,10.45-6.49Z"/>
          <path class="cls-5" d="m92.15,83.12c5.77,0,10.45,2.9,10.45,6.49s-4.68,6.49-10.45,6.49-10.45-2.9-10.45-6.49,4.68-6.49,10.45-6.49Z"/>
          <path class="cls-9" d="m92.15,83.48c5.45,0,9.86,2.74,9.86,6.12s-4.42,6.12-9.86,6.12-9.86-2.74-9.86-6.12,4.42-6.12,9.86-6.12Z"/>
          <path class="cls-28" d="m84.57,87.34c.41,0,.74.2.74.46s-.33.46-.74.46-.73-.2-.73-.46.33-.46.73-.46Z"/>
          <path class="cls-28" d="m86.32,88.27c.75,0,1.36.38,1.36.85s-.61.85-1.36.85-1.36-.38-1.36-.85.61-.85,1.36-.85Z"/>
          <path class="cls-28" d="m98.23,87.79c.41,0,.73.2.73.46s-.33.46-.73.46-.74-.2-.74-.46.33-.46.74-.46Z"/>
          <path class="cls-28" d="m99.98,88.72c.75,0,1.36.38,1.36.84s-.61.85-1.36.85-1.36-.38-1.36-.85.61-.84,1.36-.84Z"/>
          <path class="cls-28" d="m85.68,91.05c.41,0,.74.2.74.46s-.33.46-.74.46-.74-.2-.74-.46.33-.46.74-.46Z"/>
          <path class="cls-28" d="m94.29,90.53c.75,0,1.36.38,1.36.85s-.61.85-1.36.85-1.36-.38-1.36-.85.61-.85,1.36-.85Z"/>
          <path class="cls-28" d="m90.68,83.89c.54,0,.98.27.98.61s-.44.61-.98.61-.98-.27-.98-.61.44-.61.98-.61Z"/>
          <path class="cls-28" d="m92.68,84.82c.75,0,1.36.38,1.36.85s-.61.85-1.36.85-1.36-.38-1.36-.85.61-.85,1.36-.85Z"/>
          <path class="cls-28" d="m89.92,93.29c.75,0,1.36.38,1.36.85s-.61.85-1.36.85-1.36-.38-1.36-.85.61-.85,1.36-.85Z"/>
          <path class="cls-28" d="m97.45,91.49c.41,0,.74.2.74.46s-.33.46-.74.46-.73-.2-.73-.46.33-.46.73-.46Z"/>
          <path class="cls-28" d="m91.27,87.22c.41,0,.74.2.74.46s-.33.46-.74.46-.74-.2-.74-.46.33-.46.74-.46Z"/>
          <path class="cls-28" d="m96.25,84.62c.41,0,.73.2.73.46s-.33.46-.73.46-.74-.2-.74-.46.33-.46.74-.46Z"/>
          <path class="cls-28" d="m87.98,86.21c.41,0,.74.2.74.46s-.33.46-.74.46-.73-.2-.73-.46.33-.46.73-.46Z"/>
          <path class="cls-28" d="m88.8,91.57c.54,0,.98.27.98.61s-.44.61-.98.61-.98-.27-.98-.61.44-.61.98-.61Z"/>
        </g>
        <g>
          <path class="cls-30" d="m60.55,114.1c5.75,0,10.45-2.91,10.45-6.49s-4.69-6.49-10.45-6.49-10.45,2.91-10.45,6.49,4.69,6.49,10.45,6.49Z"/>
          <path class="cls-5" d="m60.55,113.06c5.75,0,10.45-2.91,10.45-6.49s-4.69-6.49-10.45-6.49-10.45,2.91-10.45,6.49,4.69,6.49,10.45,6.49Z"/>
          <path class="cls-9" d="m60.55,112.7c5.43,0,9.86-2.75,9.86-6.12s-4.43-6.12-9.86-6.12-9.86,2.75-9.86,6.12,4.43,6.12,9.86,6.12Z"/>
          <path class="cls-28" d="m52.97,105.22c.41,0,.74-.21.74-.46s-.33-.46-.74-.46-.74.2-.74.46.33.46.74.46Z"/>
          <path class="cls-28" d="m54.73,106.93c.75,0,1.36-.38,1.36-.84s-.61-.85-1.36-.85-1.36.38-1.36.85.61.84,1.36.84Z"/>
          <path class="cls-28" d="m66.63,105.67c.4,0,.73-.21.73-.46s-.33-.46-.73-.46-.74.21-.74.46.33.46.74.46Z"/>
          <path class="cls-28" d="m68.38,107.38c.75,0,1.36-.38,1.36-.85s-.61-.85-1.36-.85-1.36.38-1.36.85.61.85,1.36.85Z"/>
          <path class="cls-28" d="m54.09,108.93c.4,0,.73-.21.73-.46s-.33-.46-.73-.46-.74.21-.74.46.33.46.74.46Z"/>
          <path class="cls-28" d="m62.7,109.19c.75,0,1.36-.38,1.36-.84s-.61-.85-1.36-.85-1.36.38-1.36.85.61.84,1.36.84Z"/>
          <path class="cls-28" d="m59.08,102.08c.54,0,.98-.27.98-.61s-.44-.61-.98-.61-.98.27-.98.61.44.61.98.61Z"/>
          <path class="cls-28" d="m61.08,103.48c.75,0,1.36-.38,1.36-.85s-.61-.85-1.36-.85-1.36.38-1.36.85.61.85,1.36.85Z"/>
          <path class="cls-28" d="m58.33,111.95c.75,0,1.36-.38,1.36-.84s-.61-.85-1.36-.85-1.36.38-1.36.85.61.84,1.36.84Z"/>
          <path class="cls-28" d="m65.86,109.38c.4,0,.73-.21.73-.46s-.33-.46-.73-.46-.74.21-.74.46.33.46.74.46Z"/>
          <path class="cls-28" d="m59.68,105.1c.41,0,.74-.2.74-.46s-.33-.46-.74-.46-.74.2-.74.46.33.46.74.46Z"/>
          <path class="cls-28" d="m64.65,102.5c.4,0,.73-.21.73-.46s-.33-.46-.73-.46-.74.21-.74.46.33.46.74.46Z"/>
          <path class="cls-28" d="m56.38,104.09c.41,0,.74-.2.74-.46s-.33-.46-.74-.46-.74.21-.74.46.33.46.74.46Z"/>
          <path class="cls-28" d="m57.2,109.76c.54,0,.98-.27.98-.61s-.44-.61-.98-.61-.98.27-.98.61.44.61.98.61Z"/>
        </g>
        <g>
          <path class="cls-8" d="m60.26,86.33c-.96-.94-2.82-6.53-8.87-6.47-11.98.13-15.5,6.58-16.18,11.64-.59,4.43,5.99,9.53,12.38,10.23,7.19.79,17.36-2.33,19.37-7.46,2.05-5.25-4.5-5.77-6.7-7.94Z"/>
          <g>
            <path class="cls-12" d="m60.26,84.74c-.96-.94-2.82-6.53-8.87-6.46-11.98.13-15.5,6.58-16.18,11.64-.59,4.43,5.99,9.53,12.38,10.23,7.19.79,17.36-2.33,19.37-7.46,2.05-5.25-4.5-5.77-6.7-7.94Z"/>
            <path class="cls-21" d="m59.36,85.17c-.87-.86-2.57-5.96-8.1-5.9-10.94.12-14.15,6.01-14.77,10.63-.54,4.04,5.47,8.7,11.3,9.34,6.56.72,15.85-2.13,17.68-6.81,1.87-4.79-4.11-5.27-6.12-7.25Z"/>
            <path class="cls-29" d="m53.87,85.7c-.77-1.01-1.95-2.12-3.78-2.19-6.1-.23-7.55,3.2-7.63,5.95-.07,2.4,3.56,5.35,6.86,5.9,3.7.62,9.29-.41,10.04-3.16.4-1.47-.9-2.71-1.86-3.35,1.24-1.02,2.76-2.12,4.45-2.97-.67-.35-1.27-.71-1.7-1.14-.24-.24-.54-.77-.95-1.44-1.87.89-3.44,1.76-5.44,2.4Z"/>
            <path class="cls-2" d="m53.29,85.2c1.68-4.32-2.51-6.34-9.16-2.55-4.63,2.63-4.89,5.16-3.79,8.58.68,2.12,4.63.01,3.77-1.54-2.57-4.62,6.43-8.89,6.31-3.81-.02.9,2.33.72,2.88-.69Z"/>
            <path class="cls-2" d="m58.22,89.69c6.35.87,7.11,4.36-.75,6.81-5.47,1.7-8.85.75-12.82-1.45-2.45-1.36,2.03-2.88,3.67-1.65,4.86,3.64,14.37-.06,7.73-2.23-1.18-.38.1-1.76,2.17-1.48Z"/>
          </g>
        </g>
        <g>
          <path class="cls-30" d="m73.09,36.79c5.75,0,10.45-2.91,10.45-6.49s-4.69-6.49-10.45-6.49-10.45,2.91-10.45,6.49,4.69,6.49,10.45,6.49Z"/>
          <path class="cls-5" d="m73.09,35.75c5.75,0,10.45-2.91,10.45-6.49s-4.69-6.49-10.45-6.49-10.45,2.91-10.45,6.49,4.69,6.49,10.45,6.49Z"/>
          <path class="cls-9" d="m73.09,35.39c5.43,0,9.86-2.75,9.86-6.12s-4.43-6.12-9.86-6.12-9.86,2.75-9.86,6.12,4.43,6.12,9.86,6.12Z"/>
          <path class="cls-28" d="m65.51,27.91c.4,0,.73-.21.73-.46s-.33-.46-.73-.46-.74.21-.74.46.33.46.74.46Z"/>
          <ellipse class="cls-24" cx="67.26" cy="28.77" rx="1.36" ry=".85"/>
          <path class="cls-28" d="m79.17,28.36c.41,0,.74-.2.74-.46s-.33-.46-.74-.46-.73.21-.73.46.33.46.73.46Z"/>
          <path class="cls-28" d="m80.92,30.06c.75,0,1.36-.38,1.36-.84s-.61-.85-1.36-.85-1.36.38-1.36.85.61.84,1.36.84Z"/>
          <path class="cls-28" d="m66.62,31.61c.41,0,.74-.2.74-.46s-.33-.46-.74-.46-.73.21-.73.46.33.46.73.46Z"/>
          <path class="cls-28" d="m75.23,31.88c.75,0,1.36-.38,1.36-.85s-.61-.85-1.36-.85-1.36.38-1.36.85.61.85,1.36.85Z"/>
          <path class="cls-28" d="m71.62,24.76c.54,0,.98-.27.98-.61s-.44-.61-.98-.61-.98.27-.98.61.44.61.98.61Z"/>
          <path class="cls-28" d="m73.62,26.16c.75,0,1.36-.38,1.36-.85s-.61-.85-1.36-.85-1.36.38-1.36.85.61.85,1.36.85Z"/>
          <path class="cls-28" d="m70.86,34.64c.75,0,1.36-.38,1.36-.85s-.61-.85-1.36-.85-1.36.38-1.36.85.61.85,1.36.85Z"/>
          <path class="cls-28" d="m78.4,32.06c.4,0,.74-.2.74-.46s-.33-.46-.74-.46-.73.21-.73.46.33.46.73.46Z"/>
          <path class="cls-28" d="m72.21,27.78c.4,0,.73-.21.73-.46s-.33-.46-.73-.46-.74.21-.74.46.33.46.74.46Z"/>
          <path class="cls-28" d="m77.19,25.18c.41,0,.74-.2.74-.46s-.33-.46-.74-.46-.74.21-.74.46.33.46.74.46Z"/>
          <path class="cls-28" d="m68.92,26.77c.4,0,.73-.21.73-.46s-.33-.46-.73-.46-.74.21-.74.46.33.46.74.46Z"/>
          <path class="cls-28" d="m69.74,32.45c.54,0,.98-.27.98-.61s-.44-.61-.98-.61-.98.27-.98.61.44.61.98.61Z"/>
        </g>
        <g>
          <path class="cls-30" d="m119.33,42.54c5.75,0,10.45-2.91,10.45-6.49s-4.69-6.49-10.45-6.49-10.45,2.91-10.45,6.49,4.69,6.49,10.45,6.49Z"/>
          <path class="cls-5" d="m119.33,41.5c5.75,0,10.45-2.91,10.45-6.49s-4.69-6.49-10.45-6.49-10.45,2.91-10.45,6.49,4.69,6.49,10.45,6.49Z"/>
          <path class="cls-9" d="m119.33,41.13c5.43,0,9.86-2.75,9.86-6.12s-4.43-6.12-9.86-6.12-9.86,2.75-9.86,6.12,4.43,6.12,9.86,6.12Z"/>
          <path class="cls-28" d="m111.75,33.66c.4,0,.74-.2.74-.46s-.33-.46-.74-.46-.74.2-.74.46.33.46.74.46Z"/>
          <path class="cls-28" d="m113.51,35.36c.75,0,1.36-.38,1.36-.85s-.61-.85-1.36-.85-1.36.38-1.36.85.61.85,1.36.85Z"/>
          <path class="cls-28" d="m125.41,34.11c.41,0,.74-.2.74-.46s-.33-.46-.74-.46-.73.21-.73.46.33.46.73.46Z"/>
          <path class="cls-28" d="m127.16,35.81c.75,0,1.36-.38,1.36-.84s-.61-.85-1.36-.85-1.36.38-1.36.85.61.84,1.36.84Z"/>
          <path class="cls-28" d="m112.87,37.36c.4,0,.73-.21.73-.46s-.33-.46-.73-.46-.74.21-.74.46.33.46.74.46Z"/>
          <path class="cls-28" d="m121.48,37.63c.75,0,1.36-.38,1.36-.85s-.61-.85-1.36-.85-1.36.38-1.36.85.61.85,1.36.85Z"/>
          <path class="cls-28" d="m117.86,30.51c.54,0,.98-.27.98-.61s-.44-.61-.98-.61-.98.27-.98.61.44.61.98.61Z"/>
          <path class="cls-28" d="m119.86,31.91c.75,0,1.36-.38,1.36-.85s-.61-.85-1.36-.85-1.36.38-1.36.85.61.85,1.36.85Z"/>
          <path class="cls-28" d="m117.11,40.39c.75,0,1.36-.38,1.36-.84s-.61-.85-1.36-.85-1.36.38-1.36.85.61.84,1.36.84Z"/>
          <path class="cls-28" d="m124.64,37.81c.41,0,.74-.21.74-.46s-.33-.46-.74-.46-.73.21-.73.46.33.46.73.46Z"/>
          <path class="cls-28" d="m118.46,33.53c.41,0,.73-.21.73-.46s-.33-.46-.73-.46-.74.21-.74.46.33.46.74.46Z"/>
          <path class="cls-28" d="m123.43,30.93c.41,0,.74-.21.74-.46s-.33-.46-.74-.46-.73.21-.73.46.33.46.73.46Z"/>
          <path class="cls-28" d="m115.16,32.52c.4,0,.73-.21.73-.46s-.33-.46-.73-.46-.74.21-.74.46.33.46.74.46Z"/>
          <path class="cls-28" d="m115.98,38.2c.54,0,.98-.27.98-.61s-.44-.61-.98-.61-.98.27-.98.61.44.61.98.61Z"/>
        </g>
        <g>
          <path class="cls-30" d="m146.76,45.02c5.75,0,10.45-2.91,10.45-6.49s-4.69-6.49-10.45-6.49-10.45,2.91-10.45,6.49,4.69,6.49,10.45,6.49Z"/>
          <path class="cls-5" d="m146.76,43.98c5.75,0,10.45-2.91,10.45-6.49s-4.69-6.49-10.45-6.49-10.45,2.91-10.45,6.49,4.69,6.49,10.45,6.49Z"/>
          <path class="cls-9" d="m146.76,43.62c5.43,0,9.86-2.75,9.86-6.12s-4.43-6.12-9.86-6.12-9.86,2.75-9.86,6.12,4.43,6.12,9.86,6.12Z"/>
          <path class="cls-28" d="m139.18,36.14c.4,0,.73-.2.73-.46s-.33-.46-.73-.46-.74.2-.74.46.33.46.74.46Z"/>
          <path class="cls-28" d="m140.93,37.85c.75,0,1.36-.38,1.36-.85s-.61-.85-1.36-.85-1.36.38-1.36.85.61.85,1.36.85Z"/>
          <path class="cls-28" d="m152.84,36.59c.4,0,.74-.21.74-.46s-.33-.46-.74-.46-.74.21-.74.46.33.46.74.46Z"/>
          <path class="cls-28" d="m154.59,38.3c.75,0,1.36-.38,1.36-.85s-.61-.85-1.36-.85-1.36.38-1.36.85.61.85,1.36.85Z"/>
          <path class="cls-28" d="m140.3,39.85c.41,0,.74-.21.74-.46s-.33-.46-.74-.46-.73.21-.73.46.33.46.73.46Z"/>
          <path class="cls-28" d="m148.91,40.11c.75,0,1.36-.38,1.36-.85s-.61-.85-1.36-.85-1.36.38-1.36.85.61.85,1.36.85Z"/>
          <path class="cls-28" d="m145.29,33c.54,0,.98-.27.98-.61s-.44-.61-.98-.61-.98.27-.98.61.44.61.98.61Z"/>
          <path class="cls-28" d="m147.29,34.39c.75,0,1.36-.38,1.36-.85s-.61-.85-1.36-.85-1.36.38-1.36.85.61.85,1.36.85Z"/>
          <path class="cls-28" d="m144.54,42.87c.75,0,1.36-.38,1.36-.84s-.61-.85-1.36-.85-1.36.38-1.36.85.61.84,1.36.84Z"/>
          <path class="cls-28" d="m152.07,40.29c.41,0,.74-.21.74-.46s-.33-.46-.74-.46-.74.21-.74.46.33.46.74.46Z"/>
          <path class="cls-28" d="m145.89,36.02c.41,0,.74-.2.74-.46s-.33-.46-.74-.46-.74.2-.74.46.33.46.74.46Z"/>
          <path class="cls-28" d="m150.86,33.42c.4,0,.73-.21.73-.46s-.33-.46-.73-.46-.74.21-.74.46.33.46.74.46Z"/>
          <path class="cls-28" d="m142.59,35.01c.4,0,.74-.2.74-.46s-.33-.46-.74-.46-.74.21-.74.46.33.46.74.46Z"/>
          <path class="cls-28" d="m143.41,40.68c.54,0,.98-.27.98-.61s-.44-.61-.98-.61-.98.27-.98.61.44.61.98.61Z"/>
        </g>
        <g>
          <path class="cls-30" d="m165.79,63.01c5.75,0,10.45-2.91,10.45-6.49s-4.69-6.49-10.45-6.49-10.45,2.91-10.45,6.49,4.69,6.49,10.45,6.49Z"/>
          <path class="cls-5" d="m165.79,61.97c5.75,0,10.45-2.91,10.45-6.49s-4.69-6.49-10.45-6.49-10.45,2.91-10.45,6.49,4.69,6.49,10.45,6.49Z"/>
          <path class="cls-9" d="m165.79,61.61c5.43,0,9.86-2.75,9.86-6.12s-4.43-6.12-9.86-6.12-9.86,2.75-9.86,6.12,4.43,6.12,9.86,6.12Z"/>
          <path class="cls-28" d="m158.21,54.13c.4,0,.74-.2.74-.46s-.33-.46-.74-.46-.74.21-.74.46.33.46.74.46Z"/>
          <path class="cls-28" d="m159.96,55.84c.75,0,1.36-.38,1.36-.84s-.61-.85-1.36-.85-1.36.38-1.36.85.61.84,1.36.84Z"/>
          <path class="cls-28" d="m171.87,54.58c.41,0,.74-.21.74-.46s-.33-.46-.74-.46-.74.21-.74.46.33.46.74.46Z"/>
          <path class="cls-28" d="m173.62,56.28c.75,0,1.36-.38,1.36-.85s-.61-.85-1.36-.85-1.36.38-1.36.85.61.85,1.36.85Z"/>
          <path class="cls-28" d="m159.32,57.83c.41,0,.74-.2.74-.46s-.33-.46-.74-.46-.74.2-.74.46.33.46.74.46Z"/>
          <path class="cls-28" d="m167.93,58.1c.75,0,1.36-.38,1.36-.84s-.61-.85-1.36-.85-1.36.38-1.36.85.61.84,1.36.84Z"/>
          <path class="cls-28" d="m164.31,50.98c.54,0,.98-.27.98-.61s-.44-.61-.98-.61-.98.27-.98.61.44.61.98.61Z"/>
          <path class="cls-28" d="m166.32,52.38c.75,0,1.36-.38,1.36-.85s-.61-.85-1.36-.85-1.36.38-1.36.85.61.85,1.36.85Z"/>
          <path class="cls-28" d="m163.56,60.86c.75,0,1.36-.38,1.36-.85s-.61-.85-1.36-.85-1.36.38-1.36.85.61.85,1.36.85Z"/>
          <path class="cls-28" d="m171.09,58.28c.41,0,.74-.21.74-.46s-.33-.46-.74-.46-.73.21-.73.46.33.46.73.46Z"/>
          <path class="cls-28" d="m164.91,54.01c.41,0,.74-.21.74-.46s-.33-.46-.74-.46-.74.21-.74.46.33.46.74.46Z"/>
          <path class="cls-28" d="m169.89,51.4c.41,0,.74-.2.74-.46s-.33-.46-.74-.46-.74.21-.74.46.33.46.74.46Z"/>
          <path class="cls-28" d="m161.62,53c.4,0,.73-.2.73-.46s-.33-.46-.73-.46-.74.2-.74.46.33.46.74.46Z"/>
          <path class="cls-28" d="m162.44,58.67c.54,0,.98-.27.98-.61s-.44-.61-.98-.61-.98.27-.98.61.44.61.98.61Z"/>
        </g>
        <g>
          <path class="cls-30" d="m166.08,91.1c5.75,0,10.45-2.91,10.45-6.49s-4.69-6.49-10.45-6.49-10.45,2.91-10.45,6.49,4.69,6.49,10.45,6.49Z"/>
          <path class="cls-5" d="m166.08,90.06c5.75,0,10.45-2.91,10.45-6.49s-4.69-6.49-10.45-6.49-10.45,2.91-10.45,6.49,4.69,6.49,10.45,6.49Z"/>
          <path class="cls-9" d="m166.08,89.7c5.43,0,9.86-2.75,9.86-6.12s-4.43-6.12-9.86-6.12-9.86,2.75-9.86,6.12,4.43,6.12,9.86,6.12Z"/>
          <path class="cls-28" d="m158.5,82.22c.41,0,.74-.21.74-.46s-.33-.46-.74-.46-.74.21-.74.46.33.46.74.46Z"/>
          <path class="cls-28" d="m160.25,83.93c.75,0,1.36-.38,1.36-.85s-.61-.85-1.36-.85-1.36.38-1.36.85.61.85,1.36.85Z"/>
          <path class="cls-28" d="m172.16,82.67c.41,0,.74-.21.74-.46s-.33-.46-.74-.46-.74.21-.74.46.33.46.74.46Z"/>
          <path class="cls-28" d="m173.91,84.37c.75,0,1.36-.38,1.36-.85s-.61-.85-1.36-.85-1.36.38-1.36.85.61.85,1.36.85Z"/>
          <path class="cls-28" d="m159.61,85.92c.41,0,.74-.21.74-.46s-.33-.46-.74-.46-.73.21-.73.46.33.46.73.46Z"/>
          <path class="cls-28" d="m168.22,86.19c.75,0,1.36-.38,1.36-.85s-.61-.85-1.36-.85-1.36.38-1.36.85.61.85,1.36.85Z"/>
          <path class="cls-28" d="m164.61,79.07c.54,0,.98-.27.98-.61s-.44-.61-.98-.61-.98.27-.98.61.44.61.98.61Z"/>
          <path class="cls-28" d="m166.61,80.47c.75,0,1.36-.38,1.36-.85s-.61-.85-1.36-.85-1.36.38-1.36.85.61.85,1.36.85Z"/>
          <path class="cls-28" d="m163.85,88.95c.75,0,1.36-.38,1.36-.84s-.61-.85-1.36-.85-1.36.38-1.36.85.61.84,1.36.84Z"/>
          <path class="cls-28" d="m171.39,86.37c.4,0,.73-.21.73-.46s-.33-.46-.73-.46-.74.2-.74.46.33.46.74.46Z"/>
          <path class="cls-28" d="m165.2,82.09c.4,0,.74-.21.74-.46s-.33-.46-.74-.46-.74.21-.74.46.33.46.74.46Z"/>
          <path class="cls-28" d="m170.18,79.49c.41,0,.74-.2.74-.46s-.33-.46-.74-.46-.74.21-.74.46.33.46.74.46Z"/>
          <path class="cls-28" d="m161.91,81.08c.41,0,.74-.2.74-.46s-.33-.46-.74-.46-.74.21-.74.46.33.46.74.46Z"/>
          <path class="cls-28" d="m162.73,86.76c.54,0,.98-.27.98-.61s-.44-.61-.98-.61-.98.27-.98.61.44.61.98.61Z"/>
        </g>
        <g>
          <ellipse class="cls-19" cx="141.16" cy="104.31" rx="10.45" ry="6.49"/>
          <ellipse class="cls-7" cx="141.16" cy="103.27" rx="10.45" ry="6.49"/>
          <ellipse class="cls-13" cx="141.16" cy="103.27" rx="9.86" ry="6.12"/>
          <path class="cls-28" d="m133.58,101.92c.41,0,.73-.21.73-.46s-.33-.46-.73-.46-.74.2-.74.46.33.46.74.46Z"/>
          <path class="cls-28" d="m135.33,103.63c.75,0,1.36-.38,1.36-.84s-.61-.85-1.36-.85-1.36.38-1.36.85.61.84,1.36.84Z"/>
          <path class="cls-28" d="m147.24,102.37c.41,0,.74-.21.74-.46s-.33-.46-.74-.46-.74.21-.74.46.33.46.74.46Z"/>
          <path class="cls-28" d="m148.99,104.07c.75,0,1.36-.38,1.36-.85s-.61-.85-1.36-.85-1.36.38-1.36.85.61.85,1.36.85Z"/>
          <path class="cls-28" d="m134.7,105.62c.4,0,.73-.21.73-.46s-.33-.46-.73-.46-.74.21-.74.46.33.46.74.46Z"/>
          <path class="cls-28" d="m143.31,105.89c.75,0,1.36-.38,1.36-.84s-.61-.85-1.36-.85-1.36.38-1.36.85.61.84,1.36.84Z"/>
          <path class="cls-28" d="m139.69,98.77c.54,0,.98-.27.98-.61s-.44-.61-.98-.61-.98.27-.98.61.44.61.98.61Z"/>
          <path class="cls-28" d="m141.69,100.17c.75,0,1.36-.38,1.36-.85s-.61-.85-1.36-.85-1.36.38-1.36.85.61.85,1.36.85Z"/>
          <path class="cls-28" d="m138.93,108.65c.75,0,1.36-.38,1.36-.84s-.61-.85-1.36-.85-1.36.38-1.36.85.61.84,1.36.84Z"/>
          <path class="cls-28" d="m146.47,106.07c.4,0,.74-.21.74-.46s-.33-.46-.74-.46-.74.21-.74.46.33.46.74.46Z"/>
          <path class="cls-28" d="m140.29,101.8c.41,0,.74-.2.74-.46s-.33-.46-.74-.46-.74.2-.74.46.33.46.74.46Z"/>
          <path class="cls-28" d="m145.26,99.2c.4,0,.73-.21.73-.46s-.33-.46-.73-.46-.74.21-.74.46.33.46.74.46Z"/>
          <path class="cls-28" d="m136.99,100.79c.4,0,.73-.21.73-.46s-.33-.46-.73-.46-.74.21-.74.46.33.46.74.46Z"/>
          <path class="cls-28" d="m137.81,106.46c.54,0,.98-.27.98-.61s-.44-.61-.98-.61-.98.27-.98.61.44.61.98.61Z"/>
        </g>
        <g>
          <path class="cls-30" d="m128.46,84.77c5.75,0,10.45-2.91,10.45-6.49s-4.69-6.49-10.45-6.49-10.45,2.91-10.45,6.49,4.69,6.49,10.45,6.49Z"/>
          <path class="cls-5" d="m128.46,83.73c5.75,0,10.45-2.91,10.45-6.49s-4.69-6.49-10.45-6.49-10.45,2.91-10.45,6.49,4.69,6.49,10.45,6.49Z"/>
          <path class="cls-9" d="m128.46,83.37c5.43,0,9.86-2.75,9.86-6.12s-4.43-6.12-9.86-6.12-9.86,2.75-9.86,6.12,4.43,6.12,9.86,6.12Z"/>
          <path class="cls-28" d="m120.88,75.9c.4,0,.73-.21.73-.46s-.33-.46-.73-.46-.74.21-.74.46.33.46.74.46Z"/>
          <path class="cls-28" d="m122.63,77.6c.75,0,1.36-.38,1.36-.84s-.61-.85-1.36-.85-1.36.38-1.36.85.61.84,1.36.84Z"/>
          <path class="cls-28" d="m134.54,76.34c.4,0,.74-.21.74-.46s-.33-.46-.74-.46-.74.21-.74.46.33.46.74.46Z"/>
          <path class="cls-28" d="m136.29,78.05c.75,0,1.36-.38,1.36-.84s-.61-.85-1.36-.85-1.36.38-1.36.85.61.84,1.36.84Z"/>
          <path class="cls-28" d="m121.99,79.6c.41,0,.74-.21.74-.46s-.33-.46-.74-.46-.74.21-.74.46.33.46.74.46Z"/>
          <path class="cls-28" d="m130.6,79.86c.75,0,1.36-.38,1.36-.85s-.61-.85-1.36-.85-1.36.38-1.36.85.61.85,1.36.85Z"/>
          <path class="cls-28" d="m126.99,72.75c.54,0,.98-.27.98-.61s-.44-.61-.98-.61-.98.27-.98.61.44.61.98.61Z"/>
          <path class="cls-28" d="m128.99,74.15c.75,0,1.36-.38,1.36-.85s-.61-.85-1.36-.85-1.36.38-1.36.85.61.85,1.36.85Z"/>
          <path class="cls-28" d="m126.23,82.62c.75,0,1.36-.38,1.36-.85s-.61-.85-1.36-.85-1.36.38-1.36.85.61.85,1.36.85Z"/>
          <path class="cls-28" d="m133.77,80.05c.4,0,.73-.21.73-.46s-.33-.46-.73-.46-.74.21-.74.46.33.46.74.46Z"/>
          <path class="cls-28" d="m127.58,75.77c.41,0,.74-.2.74-.46s-.33-.46-.74-.46-.74.21-.74.46.33.46.74.46Z"/>
          <path class="cls-28" d="m132.56,73.17c.4,0,.73-.21.73-.46s-.33-.46-.73-.46-.74.21-.74.46.33.46.74.46Z"/>
          <path class="cls-28" d="m124.29,74.76c.41,0,.74-.21.74-.46s-.33-.46-.74-.46-.73.21-.73.46.33.46.73.46Z"/>
          <path class="cls-28" d="m125.11,80.43c.54,0,.98-.27.98-.61s-.44-.61-.98-.61-.98.27-.98.61.44.61.98.61Z"/>
        </g>
        <g>
          <path class="cls-8" d="m91.73,71.2c.96-.94,2.82-6.53,8.87-6.46,11.98.13,15.5,6.58,16.18,11.64.59,4.43-5.99,9.53-12.38,10.23-7.18.79-17.36-2.33-19.37-7.46-2.05-5.25,4.5-5.77,6.7-7.94Z"/>
          <g>
            <path class="cls-26" d="m91.73,69.61c.96-.94,2.82-6.53,8.87-6.47,11.98.13,15.5,6.58,16.18,11.64.59,4.43-5.99,9.53-12.38,10.23-7.18.79-17.36-2.33-19.37-7.46-2.05-5.25,4.5-5.77,6.7-7.94Z"/>
            <path class="cls-21" d="m92.63,70.04c.87-.86,2.57-5.96,8.1-5.9,10.94.12,14.15,6.01,14.77,10.63.54,4.04-5.47,8.7-11.3,9.34-6.56.72-15.85-2.13-17.68-6.81-1.87-4.79,4.11-5.27,6.12-7.25Z"/>
            <path class="cls-29" d="m98.12,70.57c.77-1.01,1.95-2.12,3.78-2.19,6.1-.23,7.55,3.2,7.63,5.95.07,2.4-3.56,5.35-6.86,5.9-3.7.62-9.29-.41-10.04-3.16-.4-1.47.9-2.71,1.86-3.34-1.24-1.02-2.76-2.12-4.45-2.97.67-.35,1.27-.71,1.7-1.14.24-.24.54-.78.95-1.44,1.87.89,3.44,1.76,5.44,2.4Z"/>
            <path class="cls-2" d="m98.7,70.07c-1.68-4.32,2.51-6.34,9.16-2.55,4.63,2.63,4.89,5.16,3.79,8.58-.68,2.12-4.63.01-3.77-1.54,2.58-4.62-6.43-8.89-6.31-3.81.02.9-2.33.72-2.88-.69Z"/>
            <path class="cls-2" d="m93.77,74.56c-6.35.87-7.11,4.36.75,6.81,5.47,1.7,8.85.75,12.82-1.45,2.45-1.36-2.03-2.87-3.66-1.65-4.86,3.64-14.37-.06-7.73-2.23,1.18-.38-.1-1.76-2.17-1.48Z"/>
          </g>
        </g>
        <g>
          <path class="cls-8" d="m125.61,52.67c.96-.94,2.82-6.53,8.87-6.47,11.98.13,15.5,6.58,16.18,11.64.59,4.43-5.99,9.53-12.38,10.23-7.19.79-17.36-2.33-19.37-7.46-2.05-5.25,4.5-5.77,6.7-7.94Z"/>
          <g>
            <path class="cls-10" d="m125.61,51.08c.96-.94,2.82-6.53,8.87-6.47,11.98.13,15.5,6.58,16.18,11.64.59,4.43-5.99,9.53-12.38,10.23-7.19.79-17.36-2.33-19.37-7.46-2.05-5.25,4.5-5.77,6.7-7.94Z"/>
            <path class="cls-21" d="m126.51,51.52c.87-.86,2.57-5.96,8.1-5.9,10.94.12,14.15,6.01,14.77,10.63.54,4.04-5.47,8.7-11.3,9.34-6.56.72-15.85-2.13-17.68-6.81-1.87-4.79,4.11-5.27,6.12-7.25Z"/>
            <path class="cls-29" d="m132,52.04c.77-1.01,1.95-2.12,3.78-2.19,6.1-.23,7.55,3.2,7.63,5.95.07,2.4-3.56,5.35-6.86,5.9-3.7.62-9.29-.41-10.04-3.16-.4-1.47.9-2.71,1.86-3.34-1.24-1.02-2.76-2.12-4.45-2.97.67-.35,1.27-.71,1.7-1.14.24-.24.54-.78.95-1.44,1.87.89,3.44,1.76,5.43,2.4Z"/>
            <path class="cls-2" d="m132.58,51.54c-1.68-4.32,2.51-6.34,9.16-2.55,4.63,2.63,4.89,5.16,3.79,8.58-.68,2.12-4.63.01-3.77-1.54,2.57-4.62-6.43-8.89-6.31-3.81.02.9-2.33.72-2.88-.69Z"/>
            <path class="cls-2" d="m127.65,56.03c-6.35.87-7.11,4.36.75,6.81,5.47,1.7,8.85.75,12.82-1.45,2.45-1.36-2.03-2.87-3.66-1.65-4.86,3.64-14.37-.06-7.73-2.23,1.18-.38-.1-1.76-2.17-1.48Z"/>
          </g>
        </g>
        <g>
          <path class="cls-8" d="m81.28,42.98c.96-.94,2.82-6.53,8.87-6.47,11.98.13,15.5,6.58,16.18,11.64.59,4.43-5.99,9.53-12.38,10.23-7.19.79-17.36-2.33-19.37-7.46-2.05-5.25,4.5-5.77,6.7-7.94Z"/>
          <g>
            <path class="cls-14" d="m81.28,41.4c.96-.94,2.82-6.53,8.87-6.47,11.98.13,15.5,6.58,16.18,11.64.59,4.43-5.99,9.53-12.38,10.23-7.19.79-17.36-2.33-19.37-7.46-2.05-5.25,4.5-5.77,6.7-7.94Z"/>
            <path class="cls-21" d="m82.18,41.83c.87-.86,2.57-5.96,8.1-5.9,10.94.12,14.15,6.01,14.77,10.63.54,4.04-5.47,8.7-11.3,9.34-6.56.72-15.85-2.13-17.68-6.81-1.87-4.79,4.11-5.27,6.12-7.25Z"/>
            <path class="cls-29" d="m87.67,42.35c.77-1.01,1.95-2.12,3.78-2.19,6.1-.23,7.55,3.2,7.63,5.95.07,2.4-3.56,5.35-6.86,5.9-3.7.62-9.29-.41-10.04-3.16-.4-1.47.9-2.71,1.86-3.34-1.24-1.02-2.76-2.12-4.45-2.97.67-.35,1.27-.71,1.7-1.14.24-.24.54-.77.95-1.44,1.87.89,3.44,1.76,5.44,2.4Z"/>
            <path class="cls-2" d="m88.25,41.85c-1.68-4.32,2.51-6.34,9.16-2.55,4.63,2.63,4.89,5.16,3.79,8.58-.68,2.12-4.63.01-3.77-1.54,2.57-4.62-6.43-8.89-6.31-3.81.02.9-2.33.72-2.88-.69Z"/>
            <path class="cls-2" d="m83.32,46.34c-6.35.87-7.11,4.36.75,6.81,5.47,1.7,8.85.75,12.82-1.45,2.45-1.36-2.03-2.88-3.67-1.65-4.86,3.64-14.37-.06-7.73-2.23,1.18-.38-.1-1.76-2.17-1.48Z"/>
          </g>
        </g>
        <g>
          <ellipse class="cls-19" cx="47.41" cy="55.42" rx="10.45" ry="6.49"/>
          <path class="cls-5" d="m47.41,60.87c5.75,0,10.45-2.91,10.45-6.49s-4.69-6.49-10.45-6.49-10.45,2.91-10.45,6.49,4.69,6.49,10.45,6.49Z"/>
          <path class="cls-9" d="m47.41,60.51c5.43,0,9.86-2.75,9.86-6.12s-4.43-6.12-9.86-6.12-9.86,2.75-9.86,6.12,4.43,6.12,9.86,6.12Z"/>
          <path class="cls-28" d="m39.84,53.03c.4,0,.73-.21.73-.46s-.33-.46-.73-.46-.74.21-.74.46.33.46.74.46Z"/>
          <path class="cls-28" d="m41.59,54.74c.75,0,1.36-.38,1.36-.85s-.61-.85-1.36-.85-1.36.38-1.36.85.61.85,1.36.85Z"/>
          <path class="cls-28" d="m53.49,53.48c.41,0,.74-.21.74-.46s-.33-.46-.74-.46-.73.21-.73.46.33.46.73.46Z"/>
          <path class="cls-28" d="m55.24,55.18c.75,0,1.36-.38,1.36-.85s-.61-.85-1.36-.85-1.36.38-1.36.85.61.85,1.36.85Z"/>
          <path class="cls-28" d="m40.95,56.74c.41,0,.74-.21.74-.46s-.33-.46-.74-.46-.73.21-.73.46.33.46.73.46Z"/>
          <path class="cls-28" d="m49.56,57c.75,0,1.36-.38,1.36-.85s-.61-.85-1.36-.85-1.36.38-1.36.85.61.85,1.36.85Z"/>
          <path class="cls-28" d="m45.94,49.89c.54,0,.98-.27.98-.61s-.44-.61-.98-.61-.98.27-.98.61.44.61.98.61Z"/>
          <path class="cls-28" d="m47.94,51.28c.75,0,1.36-.38,1.36-.85s-.61-.85-1.36-.85-1.36.38-1.36.85.61.85,1.36.85Z"/>
          <path class="cls-28" d="m45.19,59.76c.75,0,1.36-.38,1.36-.84s-.61-.85-1.36-.85-1.36.38-1.36.85.61.84,1.36.84Z"/>
          <path class="cls-28" d="m52.72,57.18c.4,0,.74-.21.74-.46s-.33-.46-.74-.46-.74.21-.74.46.33.46.74.46Z"/>
          <path class="cls-28" d="m46.54,52.91c.4,0,.73-.21.73-.46s-.33-.46-.73-.46-.74.21-.74.46.33.46.74.46Z"/>
          <path class="cls-28" d="m51.51,50.31c.41,0,.74-.21.74-.46s-.33-.46-.74-.46-.74.21-.74.46.33.46.74.46Z"/>
          <path class="cls-28" d="m43.25,51.9c.4,0,.73-.2.73-.46s-.33-.46-.73-.46-.74.21-.74.46.33.46.74.46Z"/>
          <path class="cls-28" d="m44.06,57.57c.54,0,.98-.27.98-.61s-.44-.61-.98-.61-.98.27-.98.61.44.61.98.61Z"/>
        </g>
        <g>
          <path class="cls-8" d="m35.41,38.87c.96-.94,2.82-6.53,8.87-6.46,11.98.13,15.5,6.58,16.18,11.64.59,4.43-5.99,9.53-12.38,10.23-7.18.79-17.36-2.33-19.37-7.46-2.05-5.25,4.5-5.77,6.7-7.94Z"/>
          <g>
            <path class="cls-25" d="m35.41,37.29c.96-.94,2.82-6.53,8.87-6.46,11.98.13,15.5,6.58,16.18,11.64.59,4.43-5.99,9.53-12.38,10.23-7.18.79-17.36-2.33-19.37-7.46-2.05-5.25,4.5-5.77,6.7-7.94Z"/>
            <path class="cls-21" d="m36.3,37.72c.87-.86,2.57-5.96,8.1-5.9,10.94.12,14.15,6.01,14.77,10.63.54,4.04-5.47,8.7-11.3,9.34-6.56.72-15.85-2.13-17.68-6.81-1.87-4.79,4.11-5.27,6.12-7.25Z"/>
            <path class="cls-29" d="m41.79,38.24c.77-1.01,1.95-2.12,3.78-2.19,6.1-.23,7.55,3.2,7.63,5.95.07,2.4-3.56,5.35-6.86,5.9-3.7.62-9.29-.41-10.04-3.16-.4-1.47.9-2.71,1.86-3.35-1.24-1.02-2.76-2.12-4.45-2.97.67-.35,1.27-.71,1.7-1.14.24-.24.54-.77.95-1.44,1.87.89,3.44,1.76,5.43,2.4Z"/>
            <path class="cls-2" d="m42.37,37.74c-1.68-4.32,2.51-6.34,9.16-2.55,4.63,2.63,4.89,5.16,3.79,8.58-.68,2.12-4.63.01-3.77-1.54,2.57-4.62-6.43-8.89-6.31-3.81.02.9-2.33.72-2.88-.69Z"/>
            <path class="cls-2" d="m37.44,42.23c-6.35.87-7.11,4.36.75,6.81,5.47,1.7,8.85.75,12.82-1.45,2.45-1.36-2.03-2.88-3.66-1.65-4.86,3.64-14.37-.06-7.73-2.23,1.18-.38-.1-1.76-2.17-1.48Z"/>
          </g>
        </g>
        <g>
          <path class="cls-23" d="m93.39,99.85c2.91,0,5.27,1.47,5.27,3.27s-2.36,3.27-5.27,3.27v-1.61c1.48,0,2.68-.74,2.68-1.66s-1.2-1.66-2.68-1.66v-1.61Zm0,6.54c-2.91,0-5.27-1.47-5.27-3.27s2.36-3.27,5.27-3.27v1.61c-1.48,0-2.68.74-2.68,1.66s1.2,1.66,2.68,1.66v1.61Z"/>
          <path class="cls-3" d="m93.39,99.05c2.91,0,5.27,1.47,5.27,3.27s-2.36,3.27-5.27,3.27v-1.54c1.54,0,2.78-.77,2.78-1.73s-1.25-1.73-2.78-1.73v-1.54Zm0,6.54c-2.91,0-5.27-1.47-5.27-3.27s2.36-3.27,5.27-3.27v1.54c-1.54,0-2.78.77-2.78,1.73s1.25,1.73,2.78,1.73v1.54Z"/>
        </g>
        <g>
          <path class="cls-23" d="m68.17,48.3c2.91,0,5.27,1.47,5.27,3.27s-2.36,3.27-5.27,3.27v-1.61c1.48,0,2.68-.74,2.68-1.66s-1.2-1.66-2.68-1.66v-1.61Zm0,6.54c-2.91,0-5.27-1.47-5.27-3.27s2.36-3.27,5.27-3.27v1.61c-1.48,0-2.68.74-2.68,1.66s1.2,1.66,2.68,1.66v1.61Z"/>
          <path class="cls-3" d="m68.17,47.5c2.91,0,5.27,1.47,5.27,3.27s-2.36,3.27-5.27,3.27v-1.54c1.54,0,2.78-.77,2.78-1.73s-1.25-1.73-2.78-1.73v-1.54Zm0,6.54c-2.91,0-5.27-1.47-5.27-3.27s2.36-3.27,5.27-3.27v1.54c-1.54,0-2.78.77-2.78,1.73s1.25,1.73,2.78,1.73v1.54Z"/>
        </g>
        <g>
          <path class="cls-23" d="m49.19,67.6c2.91,0,5.27,1.47,5.27,3.27s-2.36,3.27-5.27,3.27v-1.61c1.48,0,2.68-.74,2.68-1.66s-1.2-1.66-2.68-1.66v-1.61Zm0,6.54c-2.91,0-5.27-1.47-5.27-3.27s2.36-3.27,5.27-3.27v1.61c-1.48,0-2.68.74-2.68,1.66s1.2,1.66,2.68,1.66v1.61Z"/>
          <path class="cls-3" d="m49.19,66.8c2.91,0,5.27,1.47,5.27,3.27s-2.36,3.27-5.27,3.27v-1.54c1.54,0,2.78-.77,2.78-1.73s-1.25-1.73-2.78-1.73v-1.54Zm0,6.54c-2.91,0-5.27-1.47-5.27-3.27s2.36-3.27,5.27-3.27v1.54c-1.54,0-2.78.77-2.78,1.73s1.25,1.73,2.78,1.73v1.54Z"/>
        </g>
        <g>
          <path class="cls-23" d="m129.34,89.98c2.91,0,5.27,1.47,5.27,3.27s-2.36,3.27-5.27,3.27v-1.61c1.48,0,2.68-.74,2.68-1.66s-1.2-1.66-2.68-1.66v-1.61Zm0,6.54c-2.91,0-5.27-1.47-5.27-3.27s2.36-3.27,5.27-3.27v1.61c-1.48,0-2.68.74-2.68,1.66s1.2,1.66,2.68,1.66v1.61Z"/>
          <path class="cls-3" d="m129.34,89.18c2.91,0,5.27,1.47,5.27,3.27s-2.36,3.27-5.27,3.27v-1.54c1.54,0,2.78-.77,2.78-1.73s-1.25-1.73-2.78-1.73v-1.54Zm0,6.54c-2.91,0-5.27-1.47-5.27-3.27s2.36-3.27,5.27-3.27v1.54c-1.54,0-2.78.77-2.78,1.73s1.25,1.73,2.78,1.73v1.54Z"/>
        </g>
        <g>
          <path class="cls-23" d="m134.73,116.43c2.91,0,5.27,1.47,5.27,3.27s-2.36,3.27-5.27,3.27v-1.61c1.48,0,2.68-.74,2.68-1.66s-1.2-1.66-2.68-1.66v-1.61Zm0,6.54c-2.91,0-5.27-1.47-5.27-3.27s2.36-3.27,5.27-3.27v1.61c-1.48,0-2.68.74-2.68,1.66s1.2,1.66,2.68,1.66v1.61Z"/>
          <path class="cls-3" d="m134.73,115.63c2.91,0,5.27,1.47,5.27,3.27s-2.36,3.27-5.27,3.27v-1.54c1.54,0,2.78-.77,2.78-1.73s-1.25-1.73-2.78-1.73v-1.54Zm0,6.54c-2.91,0-5.27-1.47-5.27-3.27s2.36-3.27,5.27-3.27v1.54c-1.54,0-2.78.77-2.78,1.73s1.25,1.73,2.78,1.73v1.54Z"/>
        </g>
        <g>
          <path class="cls-23" d="m189.94,78.28c2.91,0,5.27,1.47,5.27,3.27s-2.36,3.27-5.27,3.27v-1.61c1.48,0,2.68-.74,2.68-1.66s-1.2-1.66-2.68-1.66v-1.61Zm0,6.54c-2.91,0-5.27-1.47-5.27-3.27s2.36-3.27,5.27-3.27v1.61c-1.48,0-2.68.74-2.68,1.66s1.2,1.66,2.68,1.66v1.61Z"/>
          <path class="cls-3" d="m189.94,77.47c2.91,0,5.27,1.47,5.27,3.27s-2.36,3.27-5.27,3.27v-1.54c1.54,0,2.78-.77,2.78-1.73s-1.25-1.73-2.78-1.73v-1.54Zm0,6.54c-2.91,0-5.27-1.47-5.27-3.27s2.36-3.27,5.27-3.27v1.54c-1.54,0-2.78.77-2.78,1.73s1.25,1.73,2.78,1.73v1.54Z"/>
        </g>
        <g>
          <path class="cls-8" d="m174.47,92.3c-.96-.94-2.82-6.53-8.87-6.47-11.98.13-15.5,6.58-16.18,11.64-.59,4.43,5.99,9.53,12.38,10.23,7.19.79,17.36-2.33,19.37-7.46,2.05-5.25-4.5-5.77-6.7-7.94Z"/>
          <g>
            <path class="cls-20" d="m174.47,90.71c-.96-.94-2.82-6.53-8.87-6.46-11.98.13-15.5,6.58-16.18,11.64-.59,4.43,5.99,9.53,12.38,10.23,7.19.79,17.36-2.33,19.37-7.46,2.05-5.25-4.5-5.77-6.7-7.94Z"/>
            <path class="cls-21" d="m173.57,91.14c-.87-.86-2.57-5.96-8.1-5.9-10.94.12-14.15,6.01-14.77,10.63-.54,4.04,5.46,8.7,11.3,9.34,6.56.72,15.85-2.13,17.68-6.81,1.87-4.79-4.11-5.27-6.12-7.25Z"/>
            <path class="cls-29" d="m168.08,91.67c-.77-1.01-1.95-2.12-3.78-2.19-6.1-.23-7.55,3.2-7.62,5.95-.07,2.4,3.56,5.35,6.86,5.9,3.7.62,9.29-.41,10.04-3.16.4-1.47-.9-2.71-1.86-3.35,1.24-1.02,2.76-2.12,4.45-2.97-.67-.35-1.27-.71-1.7-1.14-.24-.24-.54-.77-.96-1.44-1.87.89-3.44,1.76-5.44,2.4Z"/>
            <path class="cls-2" d="m167.5,91.17c1.67-4.32-2.51-6.34-9.16-2.55-4.63,2.63-4.89,5.16-3.79,8.58.68,2.12,4.63.01,3.77-1.54-2.57-4.62,6.43-8.89,6.31-3.81-.02.9,2.33.72,2.88-.69Z"/>
            <path class="cls-2" d="m172.43,95.66c6.35.87,7.12,4.36-.75,6.81-5.47,1.7-8.85.75-12.82-1.45-2.45-1.36,2.04-2.88,3.66-1.65,4.86,3.64,14.37-.06,7.73-2.23-1.18-.38.1-1.76,2.17-1.48Z"/>
          </g>
        </g>
        <g>
          <path class="cls-23" d="m173.32,39.47c2.91,0,5.27,1.47,5.27,3.27s-2.36,3.27-5.27,3.27v-1.61c1.48,0,2.68-.74,2.68-1.66s-1.2-1.66-2.68-1.66v-1.61Zm0,6.54c-2.91,0-5.27-1.47-5.27-3.27s2.36-3.27,5.27-3.27v1.61c-1.48,0-2.68.74-2.68,1.66s1.2,1.66,2.68,1.66v1.61Z"/>
          <path class="cls-3" d="m173.32,38.66c2.91,0,5.27,1.47,5.27,3.27s-2.36,3.27-5.27,3.27v-1.54c1.54,0,2.78-.77,2.78-1.73s-1.25-1.73-2.78-1.73v-1.54Zm0,6.54c-2.91,0-5.27-1.47-5.27-3.27s2.36-3.27,5.27-3.27v1.54c-1.54,0-2.78.77-2.78,1.73s1.25,1.73,2.78,1.73v1.54Z"/>
        </g>
        <g>
          <path class="cls-23" d="m186.75,43.37c2.91,0,5.27,1.47,5.27,3.27s-2.36,3.27-5.27,3.27v-1.61c1.48,0,2.68-.74,2.68-1.66s-1.2-1.66-2.68-1.66v-1.61Zm0,6.54c-2.91,0-5.27-1.47-5.27-3.27s2.36-3.27,5.27-3.27v1.61c-1.48,0-2.68.74-2.68,1.66s1.2,1.66,2.68,1.66v1.61Z"/>
          <path class="cls-3" d="m186.75,42.57c2.91,0,5.27,1.47,5.27,3.27s-2.36,3.27-5.27,3.27v-1.54c1.54,0,2.78-.77,2.78-1.73s-1.25-1.73-2.78-1.73v-1.54Zm0,6.54c-2.91,0-5.27-1.47-5.27-3.27s2.36-3.27,5.27-3.27v1.54c-1.54,0-2.78.77-2.78,1.73s1.25,1.73,2.78,1.73v1.54Z"/>
        </g>
        <g>
          <path class="cls-23" d="m82.34,13.9c2.91,0,5.27,1.47,5.27,3.27s-2.36,3.27-5.27,3.27v-1.61c1.48,0,2.68-.74,2.68-1.66s-1.2-1.66-2.68-1.66v-1.61Zm0,6.54c-2.91,0-5.27-1.47-5.27-3.27s2.36-3.27,5.27-3.27v1.61c-1.48,0-2.68.74-2.68,1.66s1.2,1.66,2.68,1.66v1.61Z"/>
          <path class="cls-3" d="m82.34,13.1c2.91,0,5.27,1.47,5.27,3.27s-2.36,3.27-5.27,3.27v-1.54c1.54,0,2.78-.77,2.78-1.73s-1.25-1.73-2.78-1.73v-1.54Zm0,6.54c-2.91,0-5.27-1.47-5.27-3.27s2.36-3.27,5.27-3.27v1.54c-1.54,0-2.78.77-2.78,1.73s1.25,1.73,2.78,1.73v1.54Z"/>
        </g>
        <g>
          <path class="cls-8" d="m96.09,14.4c.96-.94,2.82-6.53,8.87-6.47,11.98.13,15.5,6.58,16.18,11.64.59,4.43-5.99,9.53-12.38,10.23-7.19.79-17.36-2.33-19.37-7.46-2.05-5.25,4.5-5.77,6.7-7.94Z"/>
          <g>
            <path class="cls-15" d="m96.09,12.81c.96-.94,2.82-6.53,8.87-6.47,11.98.13,15.5,6.58,16.18,11.64.59,4.43-5.99,9.53-12.38,10.23-7.19.79-17.36-2.33-19.37-7.46-2.05-5.25,4.5-5.77,6.7-7.94Z"/>
            <path class="cls-21" d="m96.98,13.24c.87-.86,2.57-5.96,8.1-5.9,10.94.12,14.15,6.01,14.77,10.63.54,4.04-5.47,8.7-11.3,9.34-6.56.72-15.85-2.13-17.68-6.81-1.87-4.79,4.11-5.27,6.12-7.25Z"/>
            <path class="cls-29" d="m102.48,13.76c.77-1.01,1.95-2.12,3.78-2.19,6.1-.23,7.55,3.2,7.62,5.95.07,2.4-3.56,5.35-6.86,5.9-3.7.62-9.29-.41-10.04-3.16-.4-1.47.89-2.71,1.86-3.35-1.24-1.02-2.76-2.12-4.45-2.97.67-.35,1.27-.71,1.7-1.14.24-.24.54-.78.95-1.44,1.87.89,3.44,1.76,5.44,2.4Z"/>
            <path class="cls-2" d="m103.06,13.26c-1.68-4.32,2.51-6.34,9.16-2.55,4.63,2.63,4.89,5.16,3.79,8.58-.68,2.12-4.63.01-3.77-1.54,2.57-4.62-6.43-8.89-6.31-3.81.02.9-2.33.72-2.88-.69Z"/>
            <path class="cls-2" d="m98.13,17.76c-6.35.87-7.11,4.36.75,6.81,5.47,1.7,8.85.75,12.82-1.45,2.45-1.36-2.04-2.87-3.67-1.65-4.86,3.64-14.37-.06-7.73-2.23,1.18-.38-.1-1.76-2.17-1.48Z"/>
          </g>
        </g>
        <g>
          <path class="cls-23" d="m134.68,26.33c2.91,0,5.27,1.47,5.27,3.27s-2.36,3.27-5.27,3.27v-1.61c1.48,0,2.68-.74,2.68-1.66s-1.2-1.66-2.68-1.66v-1.61Zm0,6.54c-2.91,0-5.27-1.47-5.27-3.27s2.36-3.27,5.27-3.27v1.61c-1.48,0-2.68.74-2.68,1.66s1.2,1.66,2.68,1.66v1.61Z"/>
          <path class="cls-3" d="m134.68,25.53c2.91,0,5.27,1.46,5.27,3.27s-2.36,3.27-5.27,3.27v-1.54c1.54,0,2.78-.77,2.78-1.73s-1.25-1.73-2.78-1.73v-1.54Zm0,6.54c-2.91,0-5.27-1.47-5.27-3.27s2.36-3.27,5.27-3.27v1.54c-1.54,0-2.78.77-2.78,1.73s1.25,1.73,2.78,1.73v1.54Z"/>
        </g>
        <g>
          <ellipse class="cls-19" cx="100.08" cy="55.73" rx="10.45" ry="6.49"/>
          <path class="cls-5" d="m100.08,61.18c5.75,0,10.45-2.91,10.45-6.49s-4.69-6.49-10.45-6.49-10.45,2.91-10.45,6.49,4.69,6.49,10.45,6.49Z"/>
          <ellipse class="cls-13" cx="100.08" cy="54.69" rx="9.86" ry="6.12"/>
          <path class="cls-28" d="m92.51,53.34c.4,0,.73-.21.73-.46s-.33-.46-.73-.46-.74.21-.74.46.33.46.74.46Z"/>
          <path class="cls-28" d="m94.26,55.04c.75,0,1.36-.38,1.36-.85s-.61-.85-1.36-.85-1.36.38-1.36.85.61.85,1.36.85Z"/>
          <path class="cls-28" d="m106.16,53.78c.4,0,.74-.2.74-.46s-.33-.46-.74-.46-.73.21-.73.46.33.46.73.46Z"/>
          <path class="cls-28" d="m107.92,55.49c.75,0,1.36-.38,1.36-.85s-.61-.85-1.36-.85-1.36.38-1.36.85.61.85,1.36.85Z"/>
          <path class="cls-28" d="m93.62,57.04c.4,0,.73-.21.73-.46s-.33-.46-.73-.46-.74.21-.74.46.33.46.74.46Z"/>
          <path class="cls-28" d="m102.23,57.3c.75,0,1.36-.38,1.36-.84s-.61-.85-1.36-.85-1.36.38-1.36.85.61.84,1.36.84Z"/>
          <path class="cls-28" d="m98.61,50.19c.54,0,.98-.27.98-.61s-.44-.61-.98-.61-.98.27-.98.61.44.61.98.61Z"/>
          <path class="cls-28" d="m100.61,51.59c.75,0,1.36-.38,1.36-.85s-.61-.85-1.36-.85-1.36.38-1.36.85.61.85,1.36.85Z"/>
          <path class="cls-28" d="m97.86,60.06c.75,0,1.36-.38,1.36-.84s-.61-.85-1.36-.85-1.36.38-1.36.85.61.84,1.36.84Z"/>
          <path class="cls-28" d="m105.39,57.49c.41,0,.74-.2.74-.46s-.33-.46-.74-.46-.74.2-.74.46.33.46.74.46Z"/>
          <path class="cls-28" d="m99.21,53.21c.4,0,.73-.21.73-.46s-.33-.46-.73-.46-.74.21-.74.46.33.46.74.46Z"/>
          <path class="cls-28" d="m104.19,50.61c.41,0,.74-.21.74-.46s-.33-.46-.74-.46-.73.21-.73.46.33.46.73.46Z"/>
          <path class="cls-28" d="m95.92,52.2c.4,0,.73-.21.73-.46s-.33-.46-.73-.46-.74.21-.74.46.33.46.74.46Z"/>
          <path class="cls-28" d="m96.74,57.88c.54,0,.98-.27.98-.61s-.44-.61-.98-.61-.98.27-.98.61.44.61.98.61Z"/>
        </g>
        <g>
          <path class="cls-30" d="m148.28,26.23c5.75,0,10.45-2.91,10.45-6.49s-4.69-6.49-10.45-6.49-10.44,2.91-10.44,6.49,4.69,6.49,10.44,6.49Z"/>
          <path class="cls-5" d="m148.28,25.19c5.75,0,10.45-2.91,10.45-6.49s-4.69-6.49-10.45-6.49-10.44,2.91-10.44,6.49,4.69,6.49,10.44,6.49Z"/>
          <path class="cls-9" d="m148.28,24.83c5.43,0,9.86-2.75,9.86-6.12s-4.43-6.12-9.86-6.12-9.86,2.75-9.86,6.12,4.43,6.12,9.86,6.12Z"/>
          <path class="cls-28" d="m140.7,17.36c.41,0,.74-.21.74-.46s-.33-.46-.74-.46-.74.21-.74.46.33.46.74.46Z"/>
          <path class="cls-28" d="m142.45,19.06c.75,0,1.36-.38,1.36-.84s-.61-.85-1.36-.85-1.36.38-1.36.85.61.84,1.36.84Z"/>
          <path class="cls-28" d="m154.36,17.8c.41,0,.74-.21.74-.46s-.33-.46-.74-.46-.74.21-.74.46.33.46.74.46Z"/>
          <path class="cls-28" d="m156.11,19.51c.75,0,1.36-.38,1.36-.85s-.61-.85-1.36-.85-1.36.38-1.36.85.61.85,1.36.85Z"/>
          <path class="cls-28" d="m141.82,21.06c.41,0,.74-.2.74-.46s-.33-.46-.74-.46-.73.21-.73.46.33.46.73.46Z"/>
          <path class="cls-28" d="m150.42,21.32c.75,0,1.36-.38,1.36-.84s-.61-.85-1.36-.85-1.36.38-1.36.85.61.84,1.36.84Z"/>
          <path class="cls-28" d="m146.81,14.21c.54,0,.98-.27.98-.61s-.44-.61-.98-.61-.98.27-.98.61.44.61.98.61Z"/>
          <ellipse class="cls-24" cx="148.81" cy="14.76" rx="1.36" ry=".85"/>
          <path class="cls-28" d="m146.05,24.08c.75,0,1.36-.38,1.36-.85s-.61-.85-1.36-.85-1.36.38-1.36.85.61.85,1.36.85Z"/>
          <path class="cls-28" d="m153.59,21.51c.41,0,.74-.21.74-.46s-.33-.46-.74-.46-.73.21-.73.46.33.46.73.46Z"/>
          <path class="cls-28" d="m147.4,17.23c.41,0,.74-.21.74-.46s-.33-.46-.74-.46-.74.21-.74.46.33.46.74.46Z"/>
          <path class="cls-28" d="m152.38,14.63c.4,0,.74-.2.74-.46s-.33-.46-.74-.46-.74.21-.74.46.33.46.74.46Z"/>
          <path class="cls-28" d="m144.11,16.22c.41,0,.74-.2.74-.46s-.33-.46-.74-.46-.74.2-.74.46.33.46.74.46Z"/>
          <path class="cls-28" d="m144.93,21.89c.54,0,.98-.27.98-.61s-.44-.61-.98-.61-.98.27-.98.61.44.61.98.61Z"/>
        </g>
        <g>
          <path class="cls-8" d="m168.23,25.39c-.95-.94-2.82-6.53-8.87-6.47-11.98.13-15.5,6.58-16.18,11.64-.59,4.43,5.99,9.53,12.38,10.23,7.19.79,17.36-2.33,19.37-7.46,2.05-5.25-4.5-5.77-6.7-7.94Z"/>
          <g>
            <path class="cls-1" d="m168.23,23.81c-.95-.94-2.82-6.53-8.87-6.47-11.98.13-15.5,6.58-16.18,11.64-.59,4.43,5.99,9.53,12.38,10.23,7.19.79,17.36-2.33,19.37-7.46,2.05-5.25-4.5-5.77-6.7-7.94Z"/>
            <path class="cls-21" d="m167.34,24.24c-.87-.86-2.57-5.96-8.1-5.9-10.94.12-14.15,6.01-14.77,10.63-.54,4.04,5.47,8.7,11.3,9.34,6.56.72,15.85-2.13,17.68-6.81,1.87-4.79-4.11-5.27-6.12-7.25Z"/>
            <path class="cls-29" d="m161.84,24.76c-.77-1.01-1.95-2.12-3.78-2.19-6.1-.23-7.55,3.2-7.63,5.95-.07,2.4,3.56,5.35,6.86,5.9,3.7.62,9.29-.41,10.04-3.16.4-1.47-.9-2.71-1.86-3.35,1.24-1.02,2.76-2.12,4.45-2.97-.67-.35-1.27-.71-1.7-1.14-.24-.24-.54-.77-.95-1.44-1.87.89-3.44,1.77-5.44,2.4Z"/>
            <path class="cls-2" d="m161.26,24.26c1.68-4.32-2.51-6.34-9.16-2.55-4.63,2.63-4.89,5.16-3.79,8.58.68,2.12,4.63.01,3.77-1.54-2.57-4.62,6.43-8.89,6.31-3.81-.02.9,2.33.72,2.88-.69Z"/>
            <path class="cls-2" d="m166.2,28.75c6.35.87,7.12,4.36-.75,6.81-5.47,1.7-8.85.75-12.82-1.45-2.45-1.36,2.04-2.87,3.66-1.65,4.86,3.64,14.37-.06,7.73-2.23-1.18-.38.1-1.76,2.17-1.48Z"/>
          </g>
        </g>
        <g>
          <path class="cls-23" d="m81.62,59.78c2.91,0,5.27,1.47,5.27,3.27s-2.36,3.27-5.27,3.27v-1.61c1.48,0,2.68-.74,2.68-1.66s-1.2-1.66-2.68-1.66v-1.61Zm0,6.54c-2.91,0-5.27-1.47-5.27-3.27s2.36-3.27,5.27-3.27v1.61c-1.48,0-2.68.74-2.68,1.66s1.2,1.66,2.68,1.66v1.61Z"/>
          <path class="cls-3" d="m81.62,58.97c2.91,0,5.27,1.47,5.27,3.27s-2.36,3.27-5.27,3.27v-1.54c1.54,0,2.78-.77,2.78-1.73s-1.25-1.73-2.78-1.73v-1.54Zm0,6.54c-2.91,0-5.27-1.47-5.27-3.27s2.36-3.27,5.27-3.27v1.54c-1.54,0-2.78.77-2.78,1.73s1.25,1.73,2.78,1.73v1.54Z"/>
        </g>
        <g>
          <path class="cls-23" d="m115.43,45.33c2.91,0,5.27,1.47,5.27,3.27s-2.36,3.27-5.27,3.27v-1.61c1.48,0,2.68-.74,2.68-1.66s-1.2-1.66-2.68-1.66v-1.61Zm0,6.54c-2.91,0-5.27-1.47-5.27-3.27s2.36-3.27,5.27-3.27v1.61c-1.48,0-2.68.74-2.68,1.66s1.2,1.66,2.68,1.66v1.61Z"/>
          <path class="cls-3" d="m115.43,44.52c2.91,0,5.27,1.47,5.27,3.27s-2.36,3.27-5.27,3.27v-1.54c1.54,0,2.78-.77,2.78-1.73s-1.25-1.73-2.78-1.73v-1.54Zm0,6.54c-2.91,0-5.27-1.47-5.27-3.27s2.36-3.27,5.27-3.27v1.54c-1.54,0-2.78.77-2.78,1.73s1.25,1.73,2.78,1.73v1.54Z"/>
        </g>
        <g>
          <path class="cls-23" d="m90.69,27.44c2.91,0,5.27,1.47,5.27,3.27s-2.36,3.27-5.27,3.27v-1.61c1.48,0,2.68-.74,2.68-1.66s-1.2-1.66-2.68-1.66v-1.61Zm0,6.54c-2.91,0-5.27-1.47-5.27-3.27s2.36-3.27,5.27-3.27v1.61c-1.48,0-2.68.74-2.68,1.66s1.2,1.66,2.68,1.66v1.61Z"/>
          <path class="cls-3" d="m90.69,26.64c2.91,0,5.27,1.47,5.27,3.27s-2.36,3.27-5.27,3.27v-1.54c1.54,0,2.78-.77,2.78-1.73s-1.25-1.73-2.78-1.73v-1.54Zm0,6.54c-2.91,0-5.27-1.47-5.27-3.27s2.36-3.27,5.27-3.27v1.54c-1.54,0-2.78.77-2.78,1.73s1.25,1.73,2.78,1.73v1.54Z"/>
        </g>
        <g>
          <path class="cls-23" d="m172.7,91.48c2.91,0,5.27,1.47,5.27,3.27s-2.36,3.27-5.27,3.27v-1.61c1.48,0,2.68-.74,2.68-1.66s-1.2-1.66-2.68-1.66v-1.61Zm0,6.55c-2.91,0-5.27-1.47-5.27-3.27s2.36-3.27,5.27-3.27v1.61c-1.48,0-2.68.74-2.68,1.66s1.2,1.66,2.68,1.66v1.61Z"/>
          <path class="cls-3" d="m172.7,90.68c2.91,0,5.27,1.47,5.27,3.27s-2.36,3.27-5.27,3.27v-1.54c1.54,0,2.78-.77,2.78-1.73s-1.25-1.73-2.78-1.73v-1.54Zm0,6.54c-2.91,0-5.27-1.47-5.27-3.27s2.36-3.27,5.27-3.27v1.54c-1.54,0-2.79.77-2.79,1.73s1.25,1.73,2.79,1.73v1.54Z"/>
        </g>
        <g>
          <path class="cls-23" d="m189.93,62.91c2.91,0,5.27,1.47,5.27,3.27s-2.36,3.27-5.27,3.27v-1.61c1.48,0,2.68-.74,2.68-1.66s-1.2-1.66-2.68-1.66v-1.61Zm0,6.54c-2.91,0-5.27-1.47-5.27-3.27s2.36-3.27,5.27-3.27v1.61c-1.48,0-2.68.74-2.68,1.66s1.2,1.66,2.68,1.66v1.61Z"/>
          <path class="cls-3" d="m189.93,62.11c2.91,0,5.27,1.47,5.27,3.27s-2.36,3.27-5.27,3.27v-1.54c1.54,0,2.78-.77,2.78-1.73s-1.25-1.73-2.78-1.73v-1.54Zm0,6.54c-2.91,0-5.27-1.47-5.27-3.27s2.36-3.27,5.27-3.27v1.54c-1.54,0-2.79.77-2.79,1.73s1.25,1.73,2.79,1.73v1.54Z"/>
        </g>
        <g>
          <path class="cls-23" d="m58.22,86.42c2.91,0,5.27,1.47,5.27,3.27s-2.36,3.27-5.27,3.27v-1.61c1.48,0,2.68-.74,2.68-1.66s-1.2-1.66-2.68-1.66v-1.61Zm0,6.54c-2.91,0-5.27-1.47-5.27-3.27s2.36-3.27,5.27-3.27v1.61c-1.48,0-2.68.74-2.68,1.66s1.2,1.66,2.68,1.66v1.61Z"/>
          <path class="cls-3" d="m58.22,85.61c2.91,0,5.27,1.47,5.27,3.27s-2.36,3.27-5.27,3.27v-1.54c1.54,0,2.78-.77,2.78-1.73s-1.25-1.73-2.78-1.73v-1.54Zm0,6.54c-2.91,0-5.27-1.47-5.27-3.27s2.36-3.27,5.27-3.27v1.54c-1.54,0-2.78.77-2.78,1.73s1.25,1.73,2.78,1.73v1.54Z"/>
        </g>
        <g>
          <path class="cls-23" d="m38.89,37.85c2.91,0,5.27,1.47,5.27,3.27s-2.36,3.27-5.27,3.27v-1.61c1.48,0,2.68-.74,2.68-1.66s-1.2-1.66-2.68-1.66v-1.61Zm0,6.54c-2.91,0-5.27-1.47-5.27-3.27s2.36-3.27,5.27-3.27v1.61c-1.48,0-2.68.74-2.68,1.66s1.2,1.66,2.68,1.66v1.61Z"/>
          <path class="cls-3" d="m38.89,37.04c2.91,0,5.27,1.47,5.27,3.27s-2.36,3.27-5.27,3.27v-1.54c1.54,0,2.78-.77,2.78-1.73s-1.25-1.73-2.78-1.73v-1.54Zm0,6.54c-2.91,0-5.27-1.47-5.27-3.27s2.36-3.27,5.27-3.27v1.54c-1.54,0-2.78.77-2.78,1.73s1.25,1.73,2.78,1.73v1.54Z"/>
        </g>
        <g>
          <path class="cls-23" d="m73.22,90.42c2.91,0,5.27,1.47,5.27,3.27s-2.36,3.27-5.27,3.27v-1.61c1.48,0,2.68-.74,2.68-1.66s-1.2-1.66-2.68-1.66v-1.61Zm0,6.54c-2.91,0-5.27-1.47-5.27-3.27s2.36-3.27,5.27-3.27v1.61c-1.48,0-2.68.74-2.68,1.66s1.2,1.66,2.68,1.66v1.61Z"/>
          <path class="cls-3" d="m73.22,89.62c2.91,0,5.27,1.47,5.27,3.27s-2.36,3.27-5.27,3.27v-1.54c1.54,0,2.78-.77,2.78-1.73s-1.25-1.73-2.78-1.73v-1.54Zm0,6.54c-2.91,0-5.27-1.47-5.27-3.27s2.36-3.27,5.27-3.27v1.54c-1.54,0-2.78.77-2.78,1.73s1.25,1.73,2.78,1.73v1.54Z"/>
        </g>
      </g>
      <g>
        <path class="cls-22" d="m143.96,91.32c3.99,1.89,6.48,3.38,9.57,6.29,1.87,1.77,3.69-1.67,5.12-.95.25.13.46-.98.53-1.05.82-.73.55,1.09,1.71-.71.63-.98,3.07-.73,2.47-1.47-.76-.94-1.93-.92-1.56-2.11.22-.73-1.58-.66-1.72-1.32-.16-.72-.81-.5-1.43-.37-.99.22.4-1.61-1.77-1.14-.69.15.1-.87-.58-.72l-1.7.37c-1.97.43-1.48.78-2.72,1.86-.54.48-1.29.05-1.89.24-.48.16-1.77,1.41-2.43.87-.46-.38-1.58-.49-2.15-.55,2.72-.15-.16-.39,1.29-.7,1.75-.38,2.39-.12,3.75-.24.5-.04,3.06-1.03,2.84-2.03-.22-1.02-.19-.12,1.14-1.1.55-.41-1.06-.03.58-1.23.61-.45-.89-2.29-1.66-1.42-.22.25-1.24,1.75-.93.79.32-.96-.16-2.59-1.3-1.32-.61.68-.71,1.42-1.23,2.13-.93,1.27-.65-.89-.33-1.54.27-.54.64-1.42-.42-.75-1.18.74-.33-.52-1.25-.32-.36.08-.82.51-1.2.68-1.43.66-1.3-1.54-2.16-.21-1.06,1.64,1.46,5.72-.76,7.05-2.84-.18-5.81.15-9.12,1.78-.09.21-.19.42-.28.63,3.35-1.51,6.15-2.08,8.62-2.11l-.08.02c-.51,3.36-2.45,3.06-3.73,5.04-.24.38-.78,1.22-.73,1.68.17,1.75,1.74-.5,1.69-.03-.08.73-.75,1.23-.62,1.83.16.75,1,.19.85,1.17-.11.74.16.67,1.01.37.9-.32.04,2.27,1.12,2.04.53-.12.88.98,1.4,1.39.43.34.77-.42,1.28.06,1.32,1.24,1.09.47,1.87-.74.45-.7.45-.64.21-1.74-.16-.74,1.04-.17,1.21-.68.5-1.6,1.74-3.78-1.04-5.19-1.14-.58-3.29-3.46-3.45-4.58Z"/>
        <path class="cls-6" d="m162.32,93.28c-2.97-.95-8.15.64-12-.51-1.2-.36-2.75-.51-3.82-1.25-1.2-.82-.79.08,1.14.18,1.55.08,2.29-.5,3.83-.45.57.02,1.3-1.18,1.67-1.55.78-.77-.43,1.47-.55,1.77-.18.45,2.2-1.64,2.53-2,1.11-1.23-.09.98-.19,1.24-.35.88,1.4-.57,2.03-.64.22-.02,1.25.31,1.4.52.72.95,1.46-.11,2.27.95.25.32,1.77,1.75,1.69,1.74Z"/>
        <path class="cls-6" d="m154,85.43c-1.08.97-1.07,1.26-1.86,2.43-.96,1.41-4.02.8-5.61,1.43-1.66.67.09-.47.78-.73.3-.12,2.27-1.28,2.18-1.25-1.08.35-.72-.06.07-.5.6-.33.88-.88,1.29-1.48.14-.2.83-1.25.64-.94-.84,1.39,1.07.89,1.7.56.27-.14.69-.29.97-.05.13.11-.23.91-.16.53Z"/>
        <path class="cls-6" d="m143.03,93.03c1.09,1.32.19,2.97.79,4.31.48,1.08.96,2.27.97,3.47,0,.96.48,1.98.71,2.74.26.87.33-.5.31-.78-.11-1.52.74.29.73.06-.05-.95-.2-1.81-.44-2.56-.1-.32-.89-1.99-.27-1.45.39.34.61.75,1.08,1.07,1.45.99.79-.18.14-1-.13-.17.7.11.87.1.01,0-3.31-3.12-1.59-2.09.2.12,1.36.14.57-.11-1.72-.53-2.01-2.41-2.99-3.26-.31-.27-.57-1.46-.6-1.85-.03-.33-.07.7-.04.86.04.19-.14.65-.22.48Z"/>
      </g>
      <g>
        <path class="cls-22" d="m165.51,41.34c-4.41.23-7.28.67-11.25,2.2-2.4.93-2.78-2.94-4.38-2.82-.28.02-.05-1.08-.1-1.17-.48-.98-.92.8-1.31-1.3-.21-1.14-2.57-1.84-1.73-2.3,1.06-.59,2.13-.12,2.24-1.37.07-.76,1.71-.01,2.09-.57.42-.61.94-.15,1.46.2.83.57.24-1.64,2.07-.38.58.4.24-.84.81-.45l1.43.98c1.66,1.14,1.08,1.28,1.82,2.75.32.65,1.18.53,1.66.94.39.33,1.1,1.97,1.92,1.72.57-.17,1.65.15,2.2.31-2.46-1.17.3-.3-.92-1.14-1.48-1.02-2.16-1.02-3.37-1.64-.45-.23-2.44-2.11-1.86-2.96.59-.86.22-.04-.64-1.45-.36-.59.99.38-.07-1.35-.4-.64,1.69-1.78,2.07-.68.11.31.49,2.09.56,1.09.07-1.01,1.13-2.34,1.71-.73.31.86.12,1.58.33,2.44.38,1.53.94-.57.89-1.29-.04-.61-.05-1.55.67-.54.81,1.14.5-.35,1.28.18.31.21.56.78.85,1.09,1.08,1.15,1.79-.93,2.08.63.36,1.92-3.52,4.74-1.97,6.81,2.7.91,5.32,2.34,7.76,5.1,0,.23.01.46.02.69-2.53-2.67-4.9-4.26-7.18-5.22l.06.04c-.8,3.31,1.11,3.76,1.54,6.08.08.44.26,1.42.04,1.83-.82,1.55-1.42-1.12-1.55-.66-.21.71.23,1.42-.12,1.92-.44.63-1-.2-1.23.76-.18.73-.41.56-1.08-.04-.71-.64-.9,2.09-1.81,1.46-.45-.31-1.19.57-1.82.75-.53.15-.55-.68-1.21-.43-1.69.64-1.18.02-1.45-1.4-.15-.81-.17-.77.46-1.69.43-.62-.9-.55-.86-1.09.15-1.67-.18-4.16,2.93-4.41,1.28-.1,4.36-1.96,4.93-2.93Z"/>
        <path class="cls-6" d="m147.77,36.2c3.11.24,7.3,3.68,11.3,4.08,1.25.12,2.73.57,4.01.29,1.42-.31.7.37-1.13-.27-1.46-.51-1.93-1.33-3.37-1.87-.53-.2-.75-1.59-.96-2.07-.43-1.01-.16,1.53-.16,1.84,0,.48-1.41-2.35-1.58-2.81-.56-1.56-.29.94-.29,1.22,0,.94-1.08-1.06-1.64-1.36-.2-.11-1.27-.18-1.5-.05-1.03.61-1.31-.66-2.46.02-.35.21-2.3.95-2.23.97Z"/>
        <path class="cls-6" d="m158.44,32.09c.64,1.3.51,1.57.81,2.95.36,1.67,3.42,2.26,4.65,3.45,1.29,1.25.09-.46-.44-.97-.24-.22-1.62-2.05-1.54-1.99.86.73.69.21.13-.49-.43-.53-.48-1.15-.63-1.86-.05-.24-.3-1.47-.24-1.11.25,1.61-1.32.42-1.79-.12-.2-.23-.53-.53-.88-.41-.16.06-.13.93-.05.55Z"/>
        <path class="cls-6" d="m165.71,43.27c-1.5.81-1.3,2.68-2.36,3.69-.86.82-1.75,1.74-2.22,2.85-.37.88-1.19,1.65-1.69,2.27-.57.71-.12-.59,0-.84.67-1.37-.8-.01-.7-.22.41-.86.87-1.6,1.38-2.2.22-.26,1.58-1.51.8-1.24-.48.16-.84.46-1.41.58-1.71.37-.66-.47.25-.98.19-.11-.69-.17-.84-.24-.01,0,4.25-1.63,2.27-1.33-.23.04-1.31-.38-.49-.31,1.79.16,2.77-1.47,4-1.89.39-.13,1.08-1.14,1.26-1.48.15-.3-.2.67-.29.81-.1.16-.12.65.02.53Z"/>
      </g>
      <g>
        <path class="cls-22" d="m62.86,41.65c3.99-1.89,6.48-3.38,9.57-6.29,1.87-1.77,3.69,1.67,5.12.94.25-.13.46.98.53,1.05.82.73.55-1.09,1.71.71.63.97,3.07.73,2.47,1.47-.76.94-1.93.92-1.56,2.11.22.73-1.58.66-1.72,1.32-.16.72-.81.5-1.43.37-.99-.22.4,1.61-1.77,1.14-.69-.15.1.87-.58.72l-1.7-.37c-1.97-.43-1.48-.78-2.73-1.86-.54-.48-1.29-.05-1.89-.24-.48-.16-1.77-1.41-2.43-.87-.46.38-1.58.49-2.15.55,2.72.15-.16.39,1.29.7,1.75.38,2.39.12,3.74.24.5.04,3.06,1.03,2.84,2.03-.22,1.02-.19.12,1.14,1.1.55.41-1.06.03.58,1.23.61.45-.89,2.29-1.66,1.41-.22-.25-1.24-1.75-.93-.79.32.96-.16,2.59-1.3,1.32-.61-.68-.71-1.42-1.23-2.13-.93-1.27-.65.88-.33,1.54.27.54.64,1.42-.42.75-1.18-.74-.33.52-1.25.32-.36-.08-.82-.51-1.2-.68-1.43-.66-1.3,1.54-2.16.21-1.06-1.64,1.46-5.72-.76-7.05-2.84.18-5.81-.15-9.12-1.78-.09-.21-.19-.42-.28-.63,3.35,1.51,6.15,2.08,8.62,2.11l-.07-.02c-.51-3.36-2.45-3.06-3.73-5.04-.24-.38-.78-1.22-.73-1.68.17-1.75,1.74.5,1.69.03-.08-.73-.75-1.23-.62-1.83.16-.75,1-.19.85-1.17-.11-.74.16-.67,1.01-.37.9.32.04-2.27,1.12-2.04.53.12.88-.98,1.4-1.39.43-.34.77.42,1.28-.06,1.32-1.24,1.09-.47,1.87.74.45.7.45.64.21,1.74-.16.74,1.04.17,1.2.68.5,1.6,1.74,3.78-1.04,5.19-1.14.58-3.29,3.46-3.45,4.58Z"/>
        <path class="cls-6" d="m81.22,39.7c-2.97.95-8.15-.64-12,.51-1.2.36-2.75.51-3.82,1.25-1.2.82-.79-.08,1.14-.18,1.55-.08,2.29.5,3.83.45.57-.02,1.3,1.18,1.67,1.55.78.77-.43-1.47-.55-1.77-.18-.45,2.2,1.64,2.53,2,1.11,1.23-.09-.97-.19-1.24-.35-.88,1.4.57,2.03.64.22.02,1.25-.31,1.4-.52.72-.95,1.47.11,2.27-.95.25-.32,1.77-1.75,1.69-1.74Z"/>
        <path class="cls-6" d="m72.91,47.54c-1.08-.97-1.07-1.26-1.86-2.43-.96-1.41-4.02-.8-5.61-1.43-1.67-.67.09.47.78.73.3.12,2.27,1.28,2.18,1.25-1.08-.35-.72.06.07.5.6.33.88.88,1.29,1.48.14.2.83,1.25.64.93-.84-1.39,1.06-.89,1.7-.56.27.14.69.29.97.05.13-.11-.23-.91-.16-.53Z"/>
        <path class="cls-6" d="m61.93,39.95c1.09-1.32.19-2.97.78-4.31.48-1.08.97-2.27.97-3.47,0-.96.48-1.98.71-2.74.26-.87.33.5.31.78-.11,1.52.74-.29.73-.06-.05.95-.2,1.81-.44,2.56-.1.32-.89,1.99-.27,1.45.39-.34.61-.75,1.08-1.07,1.45-.99.79.18.14,1-.13.17.7-.11.87-.1.01,0-3.31,3.12-1.6,2.09.2-.12,1.36-.14.57.11-1.71.53-2.01,2.41-2.99,3.26-.31.27-.57,1.46-.6,1.85-.03.33-.07-.7-.04-.86.04-.19-.14-.65-.22-.48Z"/>
      </g>
      <g>
        <path class="cls-22" d="m111.37,68.31c4.12-1.59,6.92-2.37,11.16-2.6,2.57-.14,1.33-3.82,2.85-4.36.26-.09-.39-1.01-.39-1.11.04-1.09,1.17.35.66-1.73-.27-1.13,1.59-2.72.64-2.8-1.21-.1-2,.76-2.61-.33-.37-.66-1.57.69-2.14.34-.63-.38-.92.24-1.25.79-.53.87-.89-1.4-2.04.5-.37.6-.56-.67-.92-.08l-.9,1.48c-1.05,1.72-.46,1.61-.53,3.26-.03.72-.86.97-1.13,1.54-.22.46-.2,2.25-1.05,2.36-.59.08-1.44.81-1.88,1.18,1.77-2.07-.39-.15.38-1.42.93-1.53,1.56-1.81,2.41-2.88.32-.39,1.36-2.92.48-3.46-.9-.55-.22.05,0-1.59.09-.68-.75.75-.49-1.26.1-.75-2.27-.93-2.17.23.03.33.41,2.1-.06,1.22-.48-.89-1.99-1.67-1.86.03.07.91.54,1.49.69,2.36.28,1.55-1.09-.14-1.34-.82-.21-.57-.59-1.44-.83-.22-.28,1.37-.61-.12-1.1.69-.19.32-.2.94-.33,1.34-.51,1.49-2.01-.12-1.64,1.42.46,1.9,5.15,2.88,4.58,5.41-2.09,1.94-3.9,4.31-5,7.83.09.21.18.43.26.64,1.22-3.47,2.73-5.89,4.42-7.7l-.04.07c2.08,2.69.52,3.88,1.08,6.17.11.44.34,1.4.71,1.69,1.39,1.08.83-1.6,1.14-1.24.48.56.37,1.39.9,1.71.66.4.83-.59,1.43.19.46.59.6.35.97-.48.39-.87,1.68,1.54,2.25.59.28-.47,1.32.04,1.97-.06.54-.08.22-.85.93-.89,1.81-.1,1.09-.47.75-1.87-.2-.81-.15-.77-1.11-1.35-.64-.39.6-.87.33-1.34-.82-1.46-1.53-3.87-4.48-2.82-1.21.43-4.78,0-5.7-.66Z"/>
        <path class="cls-6" d="m125.45,56.36c-2.74,1.5-5.15,6.34-8.65,8.34-1.09.62-2.26,1.64-3.54,1.91-1.42.3-.49.62.92-.7,1.13-1.06,1.22-2,2.32-3.09.41-.4.04-1.76.03-2.28-.02-1.1.77,1.33.9,1.62.2.44.33-2.72.29-3.22-.13-1.65.65.73.77,1,.39.86.55-1.41.94-1.91.14-.18,1.09-.69,1.35-.66,1.18.13.93-1.14,2.25-.99.4.05,2.49-.08,2.43-.03Z"/>
        <path class="cls-6" d="m114.03,56.98c-.05,1.45.18,1.64.47,3.02.35,1.67-2.19,3.46-2.83,5.05-.66,1.67-.28-.39,0-1.07.12-.3.64-2.53.6-2.45-.49,1.02-.54.48-.32-.4.17-.66-.03-1.25-.18-1.96-.05-.24-.33-1.47-.23-1.11.43,1.57,1.38-.16,1.58-.85.09-.29.26-.7.63-.74.17-.02.5.79.27.48Z"/>
        <path class="cls-6" d="m111.97,70.16c1.7.12,2.28,1.91,3.66,2.4,1.12.4,2.31.87,3.19,1.69.7.66,1.76,1.02,2.47,1.38.81.42-.13-.58-.35-.76-1.17-.97.72-.34.55-.49-.72-.62-1.45-1.1-2.16-1.44-.31-.15-2.06-.73-1.24-.81.51-.05.96.08,1.52-.04,1.71-.36.41-.7-.63-.79-.22-.02.56-.43.67-.56,0,0-4.54.25-2.61-.28.23-.06,1.04-.89.31-.48-1.57.87-3.13-.21-4.42-.08-.41.04-1.45-.59-1.75-.83-.26-.21.46.53.59.62.16.1.37.55.2.49Z"/>
      </g>
      <g>
        <path class="cls-22" d="m43.33,83.44c4.12-1.59,6.92-2.37,11.16-2.6,2.57-.14,1.33-3.82,2.85-4.36.26-.09-.39-1.01-.39-1.11.04-1.09,1.17.35.66-1.73-.27-1.13,1.59-2.72.64-2.8-1.21-.1-2,.76-2.61-.33-.37-.66-1.57.69-2.14.34-.63-.38-.92.24-1.25.79-.53.87-.89-1.4-2.04.5-.37.6-.56-.67-.92-.08l-.9,1.48c-1.05,1.72-.46,1.61-.53,3.26-.03.72-.86.97-1.13,1.54-.22.46-.2,2.25-1.05,2.36-.59.08-1.44.81-1.88,1.18,1.77-2.07-.39-.15.38-1.42.93-1.53,1.56-1.81,2.41-2.88.32-.39,1.36-2.92.49-3.46-.9-.55-.22.05,0-1.59.09-.68-.75.75-.49-1.26.1-.75-2.27-.93-2.17.23.03.33.41,2.1-.06,1.22-.48-.89-1.99-1.67-1.86.03.07.91.54,1.49.69,2.36.28,1.55-1.09-.14-1.34-.82-.21-.57-.59-1.44-.83-.22-.28,1.37-.61-.12-1.1.69-.19.32-.2.94-.33,1.34-.51,1.49-2.01-.12-1.64,1.42.46,1.9,5.15,2.88,4.58,5.41-2.09,1.94-3.9,4.31-5,7.83.09.21.18.43.26.64,1.22-3.47,2.73-5.89,4.42-7.7l-.04.07c2.08,2.69.52,3.88,1.08,6.17.11.44.34,1.4.71,1.69,1.39,1.08.83-1.6,1.14-1.24.48.56.37,1.39.9,1.71.66.4.83-.59,1.43.19.46.59.6.35.97-.48.39-.87,1.68,1.54,2.25.6.28-.47,1.32.04,1.97-.06.54-.08.22-.85.93-.89,1.81-.1,1.09-.47.75-1.87-.2-.81-.15-.77-1.11-1.35-.64-.39.6-.87.33-1.34-.82-1.46-1.53-3.87-4.48-2.82-1.21.43-4.78,0-5.7-.66Z"/>
        <path class="cls-6" d="m57.41,71.49c-2.74,1.5-5.15,6.34-8.65,8.34-1.09.62-2.26,1.64-3.54,1.91-1.42.3-.49.62.92-.7,1.13-1.06,1.21-2,2.31-3.09.41-.4.04-1.76.03-2.28-.02-1.1.77,1.33.9,1.62.2.44.33-2.72.29-3.22-.13-1.65.65.73.77,1,.39.86.55-1.41.94-1.91.14-.18,1.09-.69,1.35-.66,1.18.13.93-1.14,2.25-.99.4.05,2.49-.08,2.43-.03Z"/>
        <path class="cls-6" d="m46,72.11c-.05,1.45.18,1.64.47,3.02.35,1.67-2.19,3.46-2.83,5.05-.66,1.67-.28-.39,0-1.07.12-.3.64-2.53.6-2.44-.49,1.02-.54.48-.32-.4.17-.66-.03-1.25-.18-1.96-.05-.24-.33-1.47-.23-1.11.43,1.57,1.38-.16,1.58-.85.09-.29.26-.7.63-.74.17-.02.5.79.27.48Z"/>
        <path class="cls-6" d="m43.93,85.29c1.7.12,2.28,1.91,3.66,2.4,1.12.4,2.31.87,3.19,1.69.7.66,1.76,1.02,2.47,1.38.81.42-.13-.58-.35-.76-1.17-.97.72-.34.55-.49-.72-.62-1.45-1.1-2.16-1.44-.31-.15-2.06-.73-1.24-.81.51-.05.96.08,1.52-.04,1.72-.36.41-.7-.63-.79-.22-.02.56-.43.67-.56,0,0-4.54.25-2.61-.28.23-.06,1.04-.89.31-.48-1.57.87-3.13-.21-4.42-.08-.41.04-1.45-.59-1.75-.83-.26-.21.46.53.59.62.16.1.37.55.2.49Z"/>
      </g>
      <g>
        <path class="cls-22" d="m103.86,26.96c4,1.87,6.5,3.35,9.6,6.25,1.88,1.76,3.68-1.69,5.12-.97.25.12.46-.98.53-1.05.81-.73.56,1.08,1.7-.72.62-.98,3.07-.74,2.47-1.48-.76-.94-1.93-.91-1.57-2.11.22-.73-1.58-.65-1.73-1.31-.16-.72-.82-.5-1.43-.36-.99.22.4-1.61-1.77-1.13-.69.15.09-.87-.58-.72l-1.69.38c-1.97.44-1.48.78-2.72,1.87-.54.48-1.29.05-1.89.25-.48.16-1.76,1.42-2.43.88-.46-.37-1.58-.48-2.15-.54,2.72-.16-.16-.39,1.28-.71,1.75-.39,2.38-.13,3.74-.25.5-.05,3.05-1.04,2.83-2.05-.23-1.02-.19-.12,1.14-1.1.55-.41-1.06-.02.57-1.23.61-.45-.9-2.28-1.67-1.41-.22.25-1.23,1.75-.92.8.31-.96-.17-2.59-1.31-1.32-.61.68-.7,1.42-1.22,2.13-.93,1.28-.66-.88-.34-1.53.27-.55.63-1.42-.42-.75-1.18.75-.33-.52-1.26-.31-.36.08-.81.51-1.2.69-1.43.67-1.31-1.53-2.16-.2-1.05,1.65,1.48,5.71-.73,7.06-2.84-.17-5.81.17-9.11,1.82-.09.21-.19.42-.28.63,3.35-1.53,6.14-2.11,8.61-2.14l-.07.02c-.5,3.37-2.44,3.07-3.7,5.06-.24.38-.77,1.22-.73,1.69.18,1.75,1.73-.51,1.69-.04-.08.73-.74,1.23-.61,1.83.17.75,1,.19.85,1.17-.11.74.17.67,1.01.37.89-.32.05,2.27,1.13,2.04.53-.12.89.97,1.41,1.38.43.34.77-.42,1.28.05,1.33,1.23,1.09.46,1.87-.75.44-.7.45-.64.21-1.74-.16-.74,1.04-.17,1.2-.69.49-1.6,1.73-3.78-1.06-5.18-1.15-.57-3.31-3.45-3.47-4.56Z"/>
        <path class="cls-6" d="m122.23,28.84c-2.98-.94-8.14.67-12.01-.46-1.21-.35-2.75-.5-3.83-1.23-1.2-.82-.79.08,1.14.17,1.55.08,2.29-.51,3.83-.47.57.02,1.29-1.19,1.66-1.56.78-.78-.43,1.47-.54,1.77-.18.45,2.19-1.65,2.52-2.02,1.1-1.23-.08.97-.19,1.24-.34.88,1.4-.58,2.03-.65.22-.02,1.25.31,1.41.52.72.95,1.46-.12,2.27.94.25.32,1.78,1.74,1.7,1.73Z"/>
        <path class="cls-6" d="m113.88,21.03c-1.08.97-1.06,1.27-1.85,2.43-.96,1.41-4.02.81-5.6,1.46-1.66.68.09-.47.77-.74.3-.12,2.27-1.29,2.18-1.26-1.08.36-.72-.06.07-.5.6-.33.88-.89,1.28-1.49.14-.2.83-1.25.64-.94-.84,1.39,1.07.88,1.71.56.27-.14.69-.3.97-.05.13.11-.23.91-.16.53Z"/>
        <path class="cls-6" d="m102.94,28.67c1.09,1.31.2,2.97.8,4.3.49,1.08.98,2.27.99,3.47,0,.96.49,1.97.72,2.74.26.87.33-.5.31-.78-.11-1.52.74.29.73.06-.06-.95-.21-1.81-.45-2.56-.11-.32-.9-1.99-.28-1.45.39.33.61.74,1.08,1.07,1.45.99.79-.18.14-1.01-.14-.17.7.11.87.1.01,0-3.33-3.1-1.6-2.08.2.12,1.36.13.57-.11-1.72-.53-2.02-2.4-3-3.25-.31-.27-.58-1.46-.61-1.84-.03-.33-.06.7-.03.86.04.19-.14.65-.22.48Z"/>
      </g>
      <g>
        <path class="cls-22" d="m162.58,68.99c4.12-1.59,6.92-2.37,11.16-2.6,2.57-.14,1.33-3.82,2.85-4.36.26-.09-.39-1.01-.39-1.11.04-1.09,1.17.35.66-1.73-.27-1.13,1.59-2.72.64-2.8-1.21-.1-2,.76-2.61-.33-.37-.66-1.57.69-2.14.34-.63-.38-.92.24-1.25.79-.53.87-.89-1.4-2.04.5-.37.6-.56-.67-.92-.08l-.9,1.48c-1.05,1.72-.46,1.61-.53,3.26-.03.72-.86.97-1.13,1.54-.22.46-.2,2.25-1.05,2.36-.59.08-1.44.81-1.88,1.18,1.77-2.07-.39-.15.38-1.42.93-1.53,1.56-1.81,2.41-2.88.32-.39,1.36-2.92.48-3.46-.9-.55-.22.05,0-1.59.09-.68-.75.75-.49-1.26.1-.75-2.27-.93-2.17.23.03.33.41,2.1-.06,1.22-.48-.89-1.99-1.67-1.86.03.07.91.54,1.49.69,2.36.28,1.55-1.09-.14-1.34-.82-.21-.57-.59-1.44-.84-.22-.28,1.37-.61-.12-1.1.69-.19.32-.2.94-.33,1.34-.51,1.49-2.01-.12-1.64,1.42.46,1.9,5.15,2.88,4.58,5.41-2.09,1.94-3.9,4.31-5,7.83.09.21.18.43.26.64,1.22-3.47,2.73-5.89,4.42-7.7l-.04.07c2.08,2.69.52,3.88,1.08,6.17.11.44.34,1.4.71,1.69,1.39,1.08.83-1.6,1.14-1.24.48.56.37,1.39.9,1.71.66.4.83-.59,1.43.19.46.59.6.35.97-.48.39-.87,1.68,1.54,2.25.6.28-.47,1.32.04,1.97-.06.54-.08.22-.85.93-.89,1.81-.1,1.09-.47.75-1.87-.2-.81-.15-.77-1.11-1.35-.64-.39.6-.87.33-1.34-.82-1.46-1.53-3.87-4.48-2.82-1.21.43-4.78,0-5.7-.66Z"/>
        <path class="cls-6" d="m176.66,57.04c-2.74,1.5-5.15,6.34-8.65,8.34-1.09.62-2.26,1.64-3.54,1.91-1.42.3-.49.62.92-.7,1.13-1.06,1.21-2,2.32-3.09.41-.4.04-1.76.03-2.28-.02-1.1.77,1.33.9,1.62.2.44.33-2.72.29-3.22-.13-1.65.65.73.77,1,.39.86.55-1.41.94-1.91.14-.18,1.09-.69,1.35-.66,1.18.13.93-1.14,2.25-.99.4.05,2.49-.08,2.43-.03Z"/>
        <path class="cls-6" d="m165.24,57.65c-.05,1.45.18,1.64.47,3.02.35,1.67-2.19,3.46-2.83,5.05-.67,1.67-.28-.39,0-1.07.12-.3.64-2.53.6-2.44-.49,1.02-.54.48-.32-.4.17-.66-.03-1.25-.18-1.96-.05-.24-.33-1.47-.24-1.11.43,1.57,1.38-.16,1.58-.85.09-.29.26-.7.63-.74.17-.02.5.79.27.48Z"/>
        <path class="cls-6" d="m163.18,70.84c1.7.12,2.28,1.91,3.66,2.4,1.12.4,2.31.87,3.19,1.69.7.66,1.76,1.02,2.47,1.38.81.42-.13-.58-.35-.76-1.17-.97.72-.34.55-.49-.72-.62-1.45-1.1-2.16-1.44-.31-.15-2.06-.73-1.24-.81.51-.05.96.08,1.52-.04,1.72-.36.41-.7-.63-.79-.22-.02.56-.43.67-.56,0,0-4.54.25-2.61-.28.23-.06,1.04-.89.31-.48-1.57.87-3.13-.21-4.42-.08-.41.04-1.45-.59-1.75-.83-.26-.21.46.53.59.62.16.1.37.55.2.49Z"/>
      </g>
      <g>
        <path class="cls-22" d="m99.96,113.28c-4.41.23-7.28.67-11.24,2.2-2.4.93-2.78-2.94-4.38-2.82-.28.02-.05-1.08-.1-1.17-.48-.98-.92.8-1.31-1.3-.21-1.14-2.57-1.83-1.73-2.29,1.06-.59,2.13-.12,2.24-1.37.07-.76,1.71-.01,2.1-.57.42-.61.94-.15,1.46.21.83.57.24-1.64,2.07-.38.58.4.24-.84.81-.45l1.43.98c1.66,1.14,1.08,1.28,1.82,2.75.32.65,1.18.53,1.66.94.39.33,1.1,1.97,1.92,1.72.57-.17,1.65.15,2.2.31-2.46-1.17.3-.3-.92-1.14-1.48-1.02-2.16-1.02-3.37-1.64-.45-.23-2.44-2.11-1.86-2.96.59-.86.22-.04-.64-1.45-.36-.59.99.38-.07-1.35-.39-.64,1.69-1.78,2.07-.68.11.31.49,2.09.56,1.09.07-1.01,1.13-2.34,1.71-.73.31.86.12,1.58.33,2.44.38,1.53.94-.57.89-1.29-.04-.61-.05-1.55.67-.54.81,1.14.5-.35,1.28.18.31.21.56.78.86,1.09,1.08,1.15,1.79-.93,2.08.63.35,1.92-3.52,4.74-1.97,6.81,2.7.91,5.32,2.34,7.76,5.1,0,.23.01.46.02.69-2.53-2.67-4.9-4.26-7.18-5.22l.06.04c-.8,3.31,1.11,3.76,1.54,6.08.08.44.26,1.42.04,1.83-.82,1.55-1.42-1.12-1.55-.66-.21.71.23,1.42-.12,1.92-.44.63-1-.2-1.23.76-.18.73-.41.56-1.08-.04-.71-.64-.9,2.09-1.81,1.46-.45-.31-1.19.57-1.82.75-.53.15-.55-.68-1.21-.43-1.69.64-1.18.02-1.45-1.4-.15-.81-.18-.77.46-1.69.43-.62-.9-.55-.85-1.09.15-1.67-.18-4.16,2.93-4.41,1.28-.1,4.36-1.96,4.93-2.93Z"/>
        <path class="cls-6" d="m82.23,108.13c3.11.24,7.3,3.68,11.3,4.08,1.25.12,2.73.57,4.01.29,1.42-.31.7.37-1.13-.27-1.46-.51-1.93-1.33-3.38-1.87-.53-.2-.75-1.59-.96-2.07-.43-1.01-.16,1.52-.16,1.84,0,.48-1.42-2.35-1.58-2.81-.56-1.56-.29.94-.29,1.22-.01.94-1.08-1.06-1.64-1.36-.2-.11-1.27-.18-1.5-.05-1.03.61-1.31-.66-2.46.02-.35.21-2.3.95-2.23.97Z"/>
        <path class="cls-6" d="m92.89,104.02c.64,1.31.51,1.57.81,2.95.36,1.66,3.42,2.26,4.65,3.45,1.29,1.25.09-.46-.44-.97-.24-.22-1.62-2.05-1.54-1.99.86.73.69.21.13-.49-.43-.53-.48-1.15-.63-1.86-.05-.24-.3-1.47-.24-1.11.25,1.61-1.32.42-1.79-.12-.2-.23-.53-.53-.88-.41-.16.06-.13.93-.05.55Z"/>
        <path class="cls-6" d="m100.17,115.21c-1.5.81-1.3,2.68-2.36,3.69-.86.82-1.75,1.74-2.22,2.85-.37.88-1.19,1.65-1.69,2.27-.57.71-.12-.59,0-.84.67-1.37-.8-.01-.7-.22.41-.86.87-1.6,1.38-2.2.22-.26,1.58-1.51.8-1.24-.48.16-.85.46-1.41.58-1.71.37-.66-.47.25-.98.19-.11-.69-.17-.84-.24-.01,0,4.25-1.63,2.27-1.33-.23.04-1.31-.38-.49-.31,1.79.16,2.77-1.47,4-1.89.39-.13,1.08-1.14,1.26-1.48.15-.3-.2.67-.29.81-.1.16-.11.65.02.53Z"/>
      </g>
    </g>
  </g>
</svg>