<?xml version="1.0" encoding="UTF-8"?>
<svg id="Layer_2" data-name="Layer 2" xmlns="http://www.w3.org/2000/svg" xmlns:xlink="http://www.w3.org/1999/xlink" viewBox="0 0 123.36 149.83">
  <defs>
    <style>
      .cls-1 {
        fill: #d7dfe2;
      }

      .cls-1, .cls-2, .cls-3, .cls-4, .cls-5, .cls-6, .cls-7, .cls-8, .cls-9, .cls-10, .cls-11, .cls-12, .cls-13, .cls-14, .cls-15, .cls-16, .cls-17, .cls-18, .cls-19, .cls-20, .cls-21, .cls-22, .cls-23, .cls-24, .cls-25, .cls-26, .cls-27, .cls-28, .cls-29, .cls-30, .cls-31, .cls-32, .cls-33, .cls-34, .cls-35 {
        stroke-width: 0px;
      }

      .cls-1, .cls-2, .cls-3, .cls-4, .cls-5, .cls-6, .cls-7, .cls-8, .cls-9, .cls-10, .cls-11, .cls-12, .cls-13, .cls-15, .cls-16, .cls-17, .cls-18, .cls-19, .cls-21, .cls-22, .cls-23, .cls-24, .cls-25, .cls-26, .cls-28, .cls-29, .cls-30, .cls-31, .cls-32, .cls-33, .cls-34, .cls-35 {
        fill-rule: evenodd;
      }

      .cls-2 {
        fill: #fdf1de;
      }

      .cls-3 {
        fill: #c8252f;
      }

      .cls-4 {
        fill: #cc7c6c;
      }

      .cls-5 {
        fill: #da242c;
      }

      .cls-6 {
        fill: #fffac0;
      }

      .cls-7, .cls-14 {
        fill: #eabb36;
      }

      .cls-8 {
        fill: #82b941;
      }

      .cls-9 {
        fill: #9c3;
      }

      .cls-10 {
        fill: #f58220;
      }

      .cls-11, .cls-27 {
        fill: #d00209;
      }

      .cls-12, .cls-20 {
        fill: #cad5dd;
      }

      .cls-13 {
        fill: #ed4e28;
      }

      .cls-15 {
        fill: #b2d33c;
      }

      .cls-16 {
        fill: #a2b3bc;
      }

      .cls-17 {
        fill: #e2e7eb;
      }

      .cls-18 {
        fill: #d1db39;
      }

      .cls-19 {
        fill: #f7f8f9;
      }

      .cls-21 {
        fill: #ffcb05;
      }

      .cls-22 {
        fill: #fdb913;
      }

      .cls-23 {
        fill: #f3f6f9;
      }

      .cls-24 {
        fill: #a89986;
      }

      .cls-25 {
        fill: #b35542;
      }

      .cls-26 {
        fill: #fff6ba;
      }

      .cls-28 {
        fill: url(#GradientFill_1);
      }

      .cls-29 {
        fill: #eab129;
      }

      .cls-30 {
        fill: #699b42;
      }

      .cls-31 {
        fill: #ed1c24;
      }

      .cls-32 {
        fill: #a6ce39;
      }

      .cls-33 {
        fill: #fac5bd;
      }

      .cls-34 {
        fill: #ee6305;
      }

      .cls-35 {
        fill: #fff3ad;
      }
    </style>
    <linearGradient id="GradientFill_1" data-name="GradientFill 1" x1="60.35" y1="0" x2="60.35" y2="74.96" gradientUnits="userSpaceOnUse">
      <stop offset="0" stop-color="#f4f4f7"/>
      <stop offset="1" stop-color="#fff"/>
    </linearGradient>
  </defs>
  <g id="_1" data-name="1">
    <g>
      <path class="cls-24" d="m15.47,134.59c4.24,3.52,6.89,6.04,10.17,10.31,1.99,2.59,3.92-.38,5.44.94.27.23.49-.87.57-.91.87-.46.59,1.36,1.81-.11.66-.8,3.26.39,2.63-.62-.81-1.29-2.05-1.71-1.66-2.83.24-.69-1.68-1.3-1.83-2.05-.17-.82-.86-.84-1.52-.93-1.05-.15.43-1.56-1.88-1.88-.73-.1.1-.88-.62-.98l-1.8-.25c-2.09-.29-1.58.26-2.89.95-.58.3-1.37-.44-2.01-.46-.51-.01-1.87.83-2.58,0-.49-.57-1.68-1.12-2.28-1.4,2.89.87-.17-.47,1.36-.26,1.86.26,2.53.77,3.98,1.16.53.14,3.25.07,3.02-1.08-.24-1.17-.2-.2,1.21-.73.59-.22-1.12-.43.62-1.08.65-.24-.95-2.77-1.76-2.13-.23.18-1.32,1.39-.98.49.34-.9-.17-2.81-1.38-1.9-.65.49-.75,1.24-1.31,1.79-.99,1-.69-1.19-.35-1.76.29-.48.68-1.26-.44-.96-1.26.34-.35-.68-1.33-.81-.39-.05-.87.23-1.28.27-1.52.16-1.38-2.13-2.29-1.04-1.12,1.35,1.55,6.62-.81,7.2-3.02-1.27-6.17-2.04-9.68-1.56-.1.19-.2.38-.3.56,3.56-.34,6.53.11,9.16,1.03h-.08c-.54,3.37-2.6,2.31-3.96,3.93-.26.31-.83,1-.78,1.51.19,1.92,1.85.12,1.79.61-.08.75-.79,1.02-.66,1.71.17.86,1.06.58.9,1.56-.12.75.17.78,1.07.78.95,0,.05,2.43,1.19,2.59.57.08.94,1.37,1.49,2,.46.52.82-.16,1.36.55,1.4,1.81,1.16.91,1.98-.08.48-.57.48-.51.23-1.77-.17-.84,1.11.22,1.28-.27.53-1.51,1.85-3.35-1.11-5.9-1.22-1.05-3.5-4.92-3.66-6.17Z"/>
      <path class="cls-24" d="m59.27,143.46c26.2,0,47.56-13.27,47.56-29.53s-21.36-29.54-47.56-29.54-47.56,13.27-47.56,29.54,21.37,29.53,47.56,29.53Z"/>
      <path class="cls-12" d="m6.58,67.36l108.14-2.01-19.06,49.5c-4.12,10.71-18.24,19.68-36.94,19.68s-33.44-8.68-36.92-19.58l-15.21-47.59Z"/>
      <path class="cls-1" d="m85.77,126.74c-4.03,2.82-9.01,5.06-14.72,6.39-4.07.86-8.49,1.33-13.14,1.33-1.05,0-2.08-.02-3.11-.07-9.16-.61-17.2-3.33-23.13-7.33l-8.81-55.27,76.41-1.26-13.5,56.2Z"/>
      <path class="cls-23" d="m80.74,129.7c-2.92,1.44-6.16,2.6-9.69,3.43-4.07.86-8.49,1.33-13.14,1.33-1.05,0-2.08-.02-3.11-.07-5.04-.33-9.74-1.31-13.94-2.78l-.84-60.04,49.43-.87-8.72,59Z"/>
      <path class="cls-3" d="m6.58,67.36l108.14-2.01-17.69,44.74c-5.78,9.65-20.34,16.71-37.89,16.71-18.83,0-34.65-8.01-39.1-18.84l-13.46-40.59Z"/>
      <path class="cls-5" d="m87.55,119.35c-7.26,4.58-17.22,7.44-28.4,7.44s-21.38-2.85-28.7-7.44l-7.58-47.55,76.41-1.26-11.73,48.81Z"/>
      <path class="cls-31" d="m81.27,122.59c-6.32,2.65-13.89,4.2-22.12,4.2-6.6,0-12.83-.99-18.33-2.73l-.79-52.55,28.98-.48,20.45-.34-8.19,51.89Z"/>
      <path class="cls-3" d="m6.58,67.36h107.34l-5.6,14.18c-11.02,9.02-28.46,14.85-48.09,14.85s-38.34-6.26-49.28-15.84l-4.37-13.19Z"/>
      <path class="cls-28" d="m60.35,74.96c33.24,0,60.35-16.83,60.35-37.48S93.59,0,60.35,0,0,16.84,0,37.48s27.11,37.48,60.35,37.48Z"/>
      <ellipse class="cls-20" cx="60.35" cy="37.48" rx="55.67" ry="34.57"/>
      <path class="cls-17" d="m60.35,13.94c27.14,0,45.47,12.79,53.06,28.1h7.12v6.5c.12.95.18,1.91.18,2.88,0,20.7-27.03,37.48-60.35,37.48S0,72.11,0,51.42v-9.38h9.45c7.59-15.31,23.77-28.1,50.91-28.1Z"/>
      <g>
        <path class="cls-30" d="m91.5,5.07c-.03,5.08.69,9.3.2,4.19-.13-1.4,6.61-4.46,7.39-2.93.92,1.8.78,4.47-.17,5.29-5.08,4.34,2.03-.36,5.12-1.21,1.72-.47,2.07-1.63,2.44-1.47.94.41-2.23,7.48-3.74,8.25-3.27,1.66-2.05.09,1.62-2.71,1.2-.91,2.96-2.68,3.73-2.35.5.22.73,6.11-.36,7.7-2.76,4.02-.78,1.59,1.63-2.9,1.41-2.63,2.67-4.14,3.13-3.62.82.93.86,7.14-1.58,5.47-.61-.42,11.73,2.63,10.64,3.21-1.48.79-3.79,1.53-7.14,2.46.49,1.31,6.87-.27,6.32.37-4.99,5.71,3.43,1.85,2.53,3.35-3.78,6.27-8.74,15.21-12.37,21.09-.84,1.35-2.42,3.85-4.13,3.98-1.32.1-2.53.48-4.08.45-.9-.02-4.93-.34-4.77-.24-9.88-7.23-9.09-12.02-8.08-20.54.85-7.22-.51-12.44-2.5-19.93-1.17-4.4-1.53-9.33,4.2-7.9Z"/>
        <path class="cls-9" d="m91.5,5.07c-5.71.46-2.89,4.53-.29,2.87,1.12-.72,4.74-3.86,6.9-2.49,1.28.81,1.45,1.41.49,2.23-5.08,4.34,1.86,2.25,4.94,1.4,6.13-1.69,1.28,1.27-.83,2.34-3.27,1.66-2.53,4.52,1.15,1.72,1.99-1.51,6.05-2.89,3.3,1.11-2.76,4.02-.72,5.83,1.69,1.34,3.23-6.01,5.62-1.36,1.54,1.86-.42.33,16.81,4.89,9.25,4.75-2.09-.04-6.65-2.78-5.75-.37.49,1.31,10.74,2.98,5.41,3.11-8.98.21,5.5,2.14,3.92,3.21-5.58,3.78-9.23,13.9-12.86,19.77-.84,1.35-2.42,3.85-4.13,3.98-1.32.1-2.53.48-4.08.45-.9-.02-4.93-.35-4.77-.24-9.88-7.23-9.09-12.02-8.08-20.54.85-7.22-.51-12.44-2.5-19.93-1.17-4.4-1.04-8.02,4.69-6.58Z"/>
        <path class="cls-18" d="m87.66,8.16c-.12,5.7,2.23,9.35,3.27,13.29.39,1.46.21,3.01.52,4.4.23,1.01-.03,2.29.26.44.78-5.11-1.38-10.13-.99-15.02.16-2.02,3.34-3.62,1.54-3.05-1.07.33-3.84,1-4.6-.05Z"/>
        <path class="cls-18" d="m96.6,10.5c-1.24,2.14-1.05,4.65-1.29,6.27-.47,3.23-1,6.52-1.76,9.66-.87,3.61,1.08-2.98,1.35-3.76,1.05-3.08,1.42-4.8,2.74-7.79.25-.57,1.97-3.28,2.03-3.72-.98-.51-2.36.09-3.07-.66Z"/>
        <path class="cls-18" d="m100.5,14.42c-1.13,2.26-1.2,4.65-1.54,6.24-.15.71-.54,1.34-.74,2.05-.18.66-.42,1.34.2.29,1.05-1.78,2.26-3.51,3.27-5.26l1.92-3.33c.18-.32-2.21.9-3.11.01Z"/>
        <path class="cls-18" d="m113.5,21.21c-.89.94-1.4,2.04-2.32,3l-6.43,6.65-2.02,2.17,1.5-1.28,9.65-8.11c1.94-1.63-.53-.37-.39-2.43Z"/>
        <path class="cls-18" d="m115.89,25.61c-.53.79-1.18,2.32-1.92,2.93-1.54,1.29-2.5,2.57-3.76,4.2-1.81,2.36,3.23-2.56,4.23-3.18.9-.56,2.47-1.03,3.59-1.38,1.55-.48,1.52-.6-.27-1.24-.66-.23-1.96-1.72-1.87-1.34Z"/>
        <path class="cls-18" d="m110.34,17.84c-1.75,1.48-1.86,4.17-3.83,5.34-1.31.78-1.47,2.56-1.98,3.66-.52,1.11.98-.75,1.15-.96,1.61-1.93,4.36-3.95,6.5-5.46.68-.48,1.52-.57-.38-1.27-.55-.2-1.48-1.39-1.45-1.32Z"/>
      </g>
      <g>
        <path class="cls-30" d="m34.5,4.17c.03,5.08-.69,9.18-.2,4.15.13-1.37-6.61-5.67-7.39-4.29-.92,1.63-.78,4.32.17,5.32,5.08,5.28-2.03-.73-5.12-2.15-1.72-.79-2.07-2.01-2.44-1.92-.94.24,2.23,7.89,3.74,8.93,3.27,2.26,2.05.47-1.62-3.01-1.19-1.13-2.96-3.23-3.73-3.04-.51.12-.73,5.98.36,7.77,2.76,4.53.78,1.73-1.63-3.2-1.41-2.89-2.67-4.63-3.13-4.19-.81.78-.86,6.98,1.58,5.77.61-.31-11.73.47-10.64,1.25,1.48,1.06,3.8,2.23,7.15,3.78-.49,1.22-6.88-1.53-6.32-.79,4.99,6.63-3.43,1.22-2.53,2.88,3.78,6.96,8.74,16.82,12.37,23.36.84,1.51,2.42,4.3,4.13,4.74,1.32.34,2.53.94,4.08,1.2.9.15,4.93.56,4.77.64,9.88-5.41,9.09-10.35,8.08-19.05-.85-7.37.51-12.34,2.5-19.47,1.17-4.19,1.53-9.05-4.2-8.67Z"/>
        <path class="cls-9" d="m34.5,4.17c5.71,1.51,2.89,5.06.29,2.93-1.12-.92-4.74-4.73-6.89-3.75-1.28.58-1.45,1.15-.49,2.14,5.08,5.28-1.86,1.91-4.94.49-6.13-2.82-1.28,1.04.83,2.49,3.27,2.26,2.53,4.99-1.15,1.51-1.99-1.88-6.05-4-3.3.5,2.76,4.53.72,5.96-1.69,1.03-3.23-6.6-5.62-2.4-1.54,1.58.42.41-16.81,1.8-9.25,3.05,2.09.34,6.65-1.56,5.75.69-.49,1.22-10.74,1.01-5.41,2.12,8.98,1.86-5.5,1.13-3.92,2.49,5.58,4.81,9.23,15.59,12.86,22.13.84,1.51,2.42,4.3,4.13,4.74,1.32.34,2.53.94,4.08,1.2.9.15,4.93.56,4.77.64,9.88-5.41,9.09-10.35,8.08-19.05-.85-7.37.51-12.34,2.5-19.47,1.17-4.19,1.04-7.83-4.69-7.44Z"/>
        <path class="cls-18" d="m38.34,7.97c.12,5.72-2.23,8.95-3.27,12.69-.39,1.39-.21,2.97-.52,4.3-.23.96.03,2.29-.26.39-.78-5.25,1.38-9.87.99-14.84-.16-2.05-3.34-4.23-1.54-3.33,1.07.53,3.84,1.71,4.6.79Z"/>
        <path class="cls-18" d="m29.4,8.67c1.24,2.36,1.05,4.85,1.29,6.51.47,3.32,1,6.7,1.76,9.99.87,3.77-1.08-3.18-1.35-4.01-1.05-3.27-1.42-5.06-2.74-8.29-.25-.62-1.97-3.64-2.03-4.09.98-.33,2.36.53,3.07-.1Z"/>
        <path class="cls-18" d="m25.51,11.87c1.13,2.47,1.2,4.87,1.54,6.52.15.74.54,1.44.74,2.19.18.69.42,1.42-.2.26-1.05-1.97-2.26-3.93-3.27-5.86l-1.91-3.68c-.18-.35,2.21,1.31,3.11.58Z"/>
        <path class="cls-18" d="m12.51,16.28c.89,1.1,1.4,2.3,2.32,3.43l6.43,7.83,2.02,2.54-1.5-1.55-9.65-9.89c-1.94-1.99.53-.28.39-2.36Z"/>
        <path class="cls-18" d="m10.12,20.23c.53.89,1.18,2.53,1.92,3.29,1.54,1.57,2.5,3.03,3.76,4.89,1.81,2.69-3.23-3.15-4.23-3.96-.9-.72-2.47-1.49-3.59-2.04-1.55-.77-1.52-.88.27-1.19.65-.11,1.96-1.36,1.87-1Z"/>
        <path class="cls-18" d="m15.67,13.48c1.75,1.8,1.86,4.51,3.83,6.05,1.31,1.02,1.47,2.83,1.98,4.02.52,1.21-.98-.93-1.15-1.17-1.61-2.22-4.36-4.76-6.5-6.65-.68-.61-1.51-.85.38-1.2.55-.1,1.48-1.12,1.45-1.05Z"/>
      </g>
      <g>
        <path class="cls-30" d="m42.66,6.07c1.56,5.36,3.78,9.41,1.57,4.3-.6-1.39,6.7-8.36,8.13-7.19,1.69,1.39,2.37,4.27,1.45,5.66-4.86,7.39,2.38-1.51,5.89-4.12,1.96-1.46,2.03-2.87,2.53-2.9,1.28-.09-.37,9.11-1.98,10.75-3.48,3.56-2.49,1.23,1.14-3.76,1.18-1.62,2.78-4.47,3.82-4.55.69-.05,2.83,6.02,1.99,8.3-2.12,5.76-.46,2.11,1.08-3.95.9-3.55,1.96-5.83,2.69-5.54,1.29.52,3.31,7.04-.21,6.64-.88-.1,15.2-3.75,14.04-2.53-1.57,1.66-4.17,3.72-7.98,6.56,1.01,1.1,8.34-4.1,7.86-3.12-4.32,8.78,4.79.04,4.16,2.12-2.65,8.69-5.91,20.86-8.51,29.06-.6,1.89-1.75,5.4-3.8,6.48-1.59.83-2.94,1.9-4.86,2.74-1.11.48-6.15,2.38-5.92,2.4-14.38-2.12-14.92-7.6-16.38-17.12-1.24-8.07-4.55-12.8-9.35-19.58-2.82-3.98-4.81-8.97,2.65-10.64Z"/>
        <path class="cls-9" d="m42.66,6.07c-6.86,3.66-2.11,6.37.55,3.18,1.15-1.37,4.59-6.69,7.66-6.45,1.82.15,2.22.68,1.31,2.08-4.86,7.39,2.99,1.33,6.5-1.27,6.98-5.18,1.96.63-.28,2.92-3.48,3.56-1.67,6.16,1.96,1.17,1.96-2.7,6.5-6.39,4.4-.67-2.12,5.76.95,6.53,2.49.47,2.06-8.11,6.46-4.56,2.48,1.1-.41.58,22.14-4.19,12.84-.14-2.57,1.12-9.03.76-7.16,2.8,1.01,1.11,14.11-2.83,7.61.27-10.94,5.21,7.42-.8,5.81,1.2-5.65,7.08-6.93,19.75-9.53,27.95-.6,1.89-1.75,5.4-3.8,6.48-1.59.83-2.94,1.9-4.86,2.74-1.11.48-6.15,2.38-5.91,2.4-14.38-2.12-14.92-7.6-16.38-17.12-1.24-8.07-4.55-12.8-9.35-19.58-2.82-3.98-3.8-7.86,3.67-9.53Z"/>
        <path class="cls-18" d="m38.93,11.46c1.65,6.07,5.68,8.61,8.2,12.17.93,1.32,1.2,3.05,2.02,4.34.59.93.69,2.42.45.32-.66-5.81-4.88-9.89-5.95-15.25-.44-2.21,2.96-5.66.93-4.07-1.2.95-4.39,3.19-5.65,2.49Z"/>
        <path class="cls-18" d="m50.62,8.96c-.85,2.94.18,5.48.4,7.31.44,3.66.83,7.42.89,11.15.07,4.28.39-3.74.47-4.71.32-3.83.23-5.84.9-9.72.13-.74,1.38-4.54,1.31-5.04-1.36,0-2.87,1.41-3.97,1.01Z"/>
        <path class="cls-18" d="m56.62,10.91c-.67,3.01,0,5.55.08,7.42.04.83-.25,1.71-.26,2.57-.02.8-.09,1.64.34.2.73-2.46,1.67-4.95,2.35-7.35l1.3-4.57c.12-.44-2.42,2.18-3.8,1.74Z"/>
        <path class="cls-18" d="m74.7,10.85c-.79,1.48-1.07,2.93-1.9,4.45l-5.78,10.57-1.79,3.41,1.44-2.18,9.27-13.9c1.87-2.8-.77-.1-1.24-2.34Z"/>
        <path class="cls-18" d="m79.01,14.14c-.39,1.13-.72,3.09-1.43,4.16-1.48,2.21-2.26,4.09-3.28,6.51-1.48,3.49,3.15-4.49,4.19-5.7.93-1.09,2.7-2.46,3.96-3.44,1.74-1.37,1.67-1.48-.72-1.15-.87.12-2.94-.72-2.71-.37Z"/>
        <path class="cls-18" d="m69.76,9.05c-1.68,2.53-.96,5.42-3.01,7.75-1.36,1.54-.99,3.51-1.28,4.95-.28,1.46.97-1.34,1.11-1.65,1.36-2.92,4.1-6.58,6.24-9.35.69-.89,1.67-1.45-.87-1.13-.74.09-2.25-.64-2.19-.58Z"/>
      </g>
      <path class="cls-35" d="m11.16,34.67c0-4.49,2.4-3.31,5.98-3.78,1.56-.2.91-10.37,9.44-5.04,4.84,3.02,9.13-2.91,9.13-8.81,0-7.24,21.92,7.73,25.18,2.2,7.8-13.2,10.69,10.54,20.15-.63,3.24-3.83,12.04,2.65,7.87,5.98-4.31,3.45,10.8-.37,11.65-.63,6.11-1.89,3.44,8.33,4.41,8.81,4.43,2.21,10.12.38,10.12,11.03,0,34.33-46.25,41.98-77.17,32.41-11.62-3.6-26.32-9.61-32.42-19.52-3.98-6.46-1.17-24.63,5.67-22.04Z"/>
      <path class="cls-7" d="m86.1,34.36c-.96-.23-13.17,7.67-12.35,9.33,1.13,2.26,3.55,1.59,5.89,2.27,2.04.59,1.58,5.74,5.73,5.74,3.9,0,2.49-3.63,4.07-3.63,2.05,0,5.62,1.39,7.7,1.96,1.12.31,9.6-1.68,10.26-2.42,1.2-1.34.28-2.77-.75-3.93-2.49-2.78-5.62-2.28-.75-4.99,5.43-3.02-1.21-5.19-5.13-4.98-3.66.19-6.87-.6-10.26-.6-1.18,0-2.19-.47-3.47-.3-.4.05-1.52,1.46-.93,1.54Z"/>
      <path class="cls-7" d="m5.76,37.23c-.68,3.2-.67,4.42,1.6,7.22,1.03,1.28,3.9,3.02,5.73,3.02,2.54,0,5.82,7.7,11.77,7.7,4.43,0,10.02.84,11.77-4.53,2.33-7.17-10.63-9.68-14.79-12.99-7.19-5.73-11.13-1.15-16.09-.42Z"/>
      <path class="cls-7" d="m29.89,25.39c2.83,3.5,7.13,8.07,11.57,9.54,9.08,3.03,6.17-10.74,2.57-14.65-2.58-2.8-7.3-1.42-10.26.15-1.18.63-2.99,1.3-3.62,2.42-.9,1.61-.04,1.62-.25,2.54Z"/>
      <g>
        <path class="cls-13" d="m15.04,32.01c5.02,1.83,8.17,5.83,7.04,8.95-1.13,3.12-6.12,4.16-11.14,2.34-5.02-1.83-8.17-5.83-7.04-8.95,1.13-3.12,6.12-4.16,11.14-2.34Z"/>
        <path class="cls-10" d="m15.54,30.63c5.02,1.83,8.17,5.83,7.04,8.95-1.13,3.12-6.12,4.16-11.14,2.34-5.02-1.83-8.17-5.83-7.03-8.95,1.13-3.12,6.12-4.16,11.14-2.34Z"/>
      </g>
      <g>
        <path class="cls-13" d="m43.78,18.02c3.82,3.46,5.17,8.18,3.03,10.55-2.15,2.37-6.98,1.49-10.8-1.96-3.82-3.46-5.17-8.18-3.02-10.55,2.15-2.37,6.98-1.49,10.8,1.97Z"/>
        <path class="cls-10" d="m44.74,16.96c3.82,3.46,5.17,8.18,3.03,10.55-2.15,2.37-6.98,1.49-10.8-1.96-3.82-3.45-5.17-8.18-3.02-10.55,2.15-2.37,6.98-1.49,10.8,1.96Z"/>
      </g>
      <g>
        <path class="cls-22" d="m64.27,22.23c-3.37,2.59,2.11,6.2,4.15,6.72,1.73.44,3.06-.03,3.13-1.94.22-6.21-3.22-7.9-7.28-4.78Z"/>
        <path class="cls-26" d="m64.67,23.39c-1.26.97.79,2.31,1.55,2.5.65.17,1.14-.01,1.17-.72.08-2.31-1.2-2.95-2.71-1.78Z"/>
      </g>
      <g>
        <path class="cls-11" d="m23.15,52.91c4.81,0,8.74-3.93,8.74-8.74s-3.93-8.74-8.74-8.74-8.74,3.93-8.74,8.74,3.93,8.74,8.74,8.74Z"/>
        <path class="cls-34" d="m23.98,49.21c3.62,0,6.57-2.95,6.57-6.57s-2.95-6.57-6.57-6.57-6.57,2.95-6.57,6.57,2.95,6.57,6.57,6.57Z"/>
        <path class="cls-2" d="m24.51,37.37c.49-.63,1.71-.5,2.73.29,1.02.79,1.44,1.94.95,2.57-.49.63-1.71.5-2.73-.29-1.02-.79-1.44-1.94-.95-2.57Z"/>
      </g>
      <g>
        <circle class="cls-27" cx="88.83" cy="66.75" r="8.74" transform="translate(-12.96 22.19) rotate(-13.28)"/>
        <path class="cls-34" d="m89.66,71.79c3.62,0,6.57-2.95,6.57-6.57s-2.95-6.57-6.57-6.57-6.57,2.95-6.57,6.57,2.95,6.57,6.57,6.57Z"/>
        <path class="cls-2" d="m90.19,59.95c.49-.63,1.71-.5,2.73.29,1.02.79,1.44,1.94.95,2.57-.49.63-1.71.5-2.73-.29-1.02-.79-1.44-1.94-.95-2.57Z"/>
      </g>
      <g>
        <path class="cls-25" d="m108.87,21.06c-15.71,15.81-17.81,18.72-19.92,24.1.88-2.04,4.93-1.18,9-.3,3.56-6.74,9.73-12.97,21.71-24.04-4.55-1.12-8.06-.93-10.79.24Z"/>
        <path class="cls-4" d="m108.87,21.06c-1.58-2.02-3.16-4.03-4.74-6.05-15.75,16.77-16.35,19.87-19.89,25.49,1.57,1.55,3.14,3.1,4.71,4.66,2.49-6.11,5.06-8.88,19.92-24.1Z"/>
        <path class="cls-33" d="m104.14,15.01c2.65-1.27,6.07-1.54,10.82-.04.6.22,3.98,3.26,4.71,5.84-3.45-.66-6.95-1.07-10.79.24-1.58-2.02-3.16-4.03-4.74-6.05Z"/>
      </g>
      <g>
        <path class="cls-13" d="m97.5,37.58c4.35-1.78,8.78-1.02,9.88,1.68,1.1,2.7-1.53,6.33-5.88,8.11-4.35,1.78-8.77,1.03-9.88-1.68-1.1-2.7,1.53-6.33,5.88-8.11Z"/>
        <path class="cls-10" d="m97.01,36.38c4.35-1.78,8.78-1.03,9.88,1.68,1.1,2.7-1.53,6.33-5.88,8.11-4.35,1.78-8.77,1.03-9.88-1.68-1.1-2.7,1.53-6.33,5.88-8.11Z"/>
      </g>
      <g>
        <path class="cls-11" d="m87.83,46.17c4.81,0,8.74-3.93,8.74-8.74s-3.93-8.74-8.74-8.74-8.74,3.93-8.74,8.74,3.93,8.74,8.74,8.74Z"/>
        <path class="cls-34" d="m88.67,42.47c3.62,0,6.57-2.95,6.57-6.57s-2.95-6.57-6.57-6.57-6.57,2.95-6.57,6.57,2.95,6.57,6.57,6.57Z"/>
        <path class="cls-2" d="m89.2,30.63c.49-.63,1.71-.5,2.73.29,1.02.79,1.44,1.94.95,2.57-.49.63-1.71.5-2.73-.29-1.02-.79-1.44-1.94-.95-2.57Z"/>
      </g>
      <g>
        <path class="cls-22" d="m84.23,45.12c-3.37,2.59,2.11,6.2,4.15,6.72,1.73.44,3.06-.03,3.13-1.94.22-6.21-3.22-7.9-7.28-4.78Z"/>
        <path class="cls-26" d="m84.63,46.28c-1.25.97.79,2.31,1.55,2.5.64.16,1.14-.01,1.17-.72.08-2.31-1.2-2.95-2.71-1.78Z"/>
      </g>
      <g>
        <path class="cls-22" d="m100.14,46.76c.58,4.21,6.43,1.25,7.89-.26,1.25-1.28,1.49-2.67-.13-3.68-5.28-3.27-8.46-1.14-7.76,3.94Z"/>
        <path class="cls-26" d="m102.7,44.04c.21,1.57,2.4.46,2.94-.1.46-.48.56-1-.05-1.37-1.97-1.22-3.15-.42-2.89,1.47Z"/>
      </g>
      <g>
        <path class="cls-22" d="m21.18,30.3c3.37,2.59-2.11,6.2-4.15,6.72-1.73.44-3.06-.03-3.13-1.94-.22-6.21,3.22-7.9,7.28-4.78Z"/>
        <path class="cls-6" d="m20.78,31.46c1.25.97-.79,2.31-1.55,2.5-.65.17-1.14-.01-1.17-.72-.08-2.31,1.2-2.95,2.71-1.78Z"/>
      </g>
      <g>
        <path class="cls-32" d="m50.48,38.7c-.07-4.42.16-7.31,1.42-11.37.76-2.46-3.13-2.57-3.11-4.18,0-.28-1.08.02-1.17-.02-1.02-.41.73-.98-1.39-1.22-1.15-.13-2.01-2.43-2.41-1.57-.51,1.1.03,2.14-1.21,2.33-.75.12.11,1.71-.42,2.13-.58.46-.09.95.31,1.45.63.79-1.62.35-.24,2.09.44.55-.82.3-.39.84l1.08,1.36c1.25,1.58,1.35.99,2.87,1.62.67.28.61,1.14,1.05,1.59.35.36,2.04.96,1.85,1.8-.13.58.26,1.64.46,2.17-1.33-2.38-.28.32-1.2-.84-1.12-1.41-1.16-2.09-1.87-3.25-.26-.43-2.27-2.29-3.08-1.65-.82.65-.02.22-1.49-.54-.61-.32.44.96-1.36.02-.67-.35-1.66,1.81-.54,2.12.32.09,2.12.34,1.12.48-1,.14-2.25,1.29-.61,1.75.88.25,1.58,0,2.45.16,1.55.27-.51.98-1.23.98-.61,0-1.55.06-.49.71,1.19.73-.32.53.27,1.27.23.29.82.51,1.15.78,1.23,1-.8,1.85.77,2.03,1.94.22,4.48-3.84,6.66-2.43,1.1,2.63,2.7,5.15,5.62,7.39.23,0,.46-.02.69-.03-2.84-2.34-4.59-4.6-5.7-6.8l.05.06c3.24-1.03,3.82.85,6.17,1.12.45.05,1.44.16,1.83-.08,1.49-.93-1.22-1.34-.77-1.5.69-.25,1.43.13,1.91-.25.6-.48-.27-.98.68-1.28.72-.23.53-.45-.11-1.07-.68-.66,2.02-1.04,1.34-1.91-.34-.43.49-1.22.62-1.87.11-.54-.72-.5-.51-1.18.53-1.73-.06-1.18-1.49-1.35-.82-.09-.78-.12-1.65.58-.59.47-.61-.86-1.15-.78-1.65.26-4.16.11-4.19,3.23-.01,1.28-1.65,4.48-2.58,5.12Z"/>
        <path class="cls-8" d="m44.13,21.36c.46,3.09,4.17,7.03,4.85,10.99.21,1.24.76,2.69.57,3.98-.21,1.44.42.68-.34-1.1-.61-1.42-1.46-1.83-2.1-3.24-.23-.52-1.64-.64-2.13-.81-1.04-.36,1.51-.26,1.83-.29.48-.03-2.44-1.25-2.92-1.39-1.59-.45.91-.35,1.2-.38.94-.08-1.13-1.01-1.47-1.54-.12-.19-.27-1.26-.15-1.49.54-1.06-.74-1.27-.15-2.45.18-.36.79-2.36.81-2.29Z"/>
        <path class="cls-8" d="m40.76,32.28c1.35.54,1.6.4,3,.6,1.69.24,2.49,3.25,3.76,4.4,1.33,1.2-.46.13-1-.37-.24-.22-2.16-1.47-2.09-1.4.79.81.26.68-.48.16-.56-.39-1.18-.4-1.9-.5-.24-.04-1.49-.2-1.12-.16,1.62.14.33-1.35-.25-1.78-.24-.18-.57-.49-.47-.85.04-.17.92-.2.55-.09Z"/>
        <path class="cls-8" d="m52.42,38.77c.7-1.56,2.58-1.48,3.52-2.61.76-.91,1.61-1.87,2.69-2.41.86-.43,1.56-1.3,2.15-1.84.67-.62-.59-.08-.83.06-1.32.77-.07-.79-.27-.68-.83.46-1.53.98-2.1,1.53-.24.24-1.39,1.68-1.18.88.13-.49.4-.87.48-1.44.25-1.74-.51-.63-.96.32-.09.2-.21-.68-.29-.82,0,0-1.33,4.35-1.17,2.35.02-.23-.47-1.28-.35-.46.28,1.77-1.27,2.86-1.61,4.12-.11.4-1.06,1.16-1.39,1.36-.29.17.66-.25.78-.34.15-.11.64-.16.53-.01Z"/>
      </g>
      <g>
        <path class="cls-25" d="m29.11,23.67c9.33,20.24,10.29,23.7,10.43,29.47-.13-2.22-4.22-2.8-8.35-3.37-1.03-7.55-4.69-15.52-12.14-30.03,4.66.51,7.89,1.89,10.05,3.93Z"/>
        <path class="cls-4" d="m29.11,23.67c2.17-1.35,4.35-2.7,6.53-4.05,9.03,21.16,8.53,24.28,9.92,30.77-2.01.92-4.01,1.84-6.02,2.76-.24-6.59-1.7-10.08-10.43-29.47Z"/>
        <path class="cls-33" d="m35.64,19.62c-2.06-2.1-5.17-3.53-10.15-3.75-.64,0-4.86,1.7-6.43,3.87,3.46.57,6.89,1.38,10.05,3.93,2.17-1.35,4.35-2.7,6.53-4.05Z"/>
      </g>
      <g>
        <path class="cls-4" d="m64.09,35.82c-3.9,21.94-3.96,25.53-2.64,31.15-.44-2.18,3.37-3.78,7.22-5.38-.92-7.57.61-16.2,4.15-32.12-4.38,1.67-7.16,3.83-8.73,6.35Z"/>
        <path class="cls-25" d="m64.09,35.82c-2.45-.76-4.89-1.51-7.34-2.27-3.39,22.76-2.11,25.65-1.82,32.28,2.17.38,4.35.76,6.52,1.15-1.44-6.44-.91-10.18,2.64-31.15Z"/>
        <path class="cls-33" d="m56.75,33.55c1.46-2.56,4.11-4.72,8.87-6.2.62-.16,5.13.41,7.2,2.12-3.21,1.43-6.32,3.08-8.73,6.35-2.45-.76-4.89-1.51-7.34-2.27Z"/>
      </g>
      <g>
        <path class="cls-4" d="m77.11,39.94c-6.95,21.17-7.52,24.72-6.99,30.47-.13-2.22,3.87-3.27,7.9-4.31.16-7.62,2.88-15.95,8.63-31.22-4.57,1.04-7.62,2.78-9.54,5.06Z"/>
        <path class="cls-25" d="m77.11,39.94c-2.32-1.09-4.63-2.19-6.95-3.28-6.55,22.05-5.7,25.09-6.34,31.7,2.1.68,4.2,1.37,6.29,2.05-.52-6.58.53-10.21,6.99-30.47Z"/>
        <path class="cls-33" d="m70.17,36.66c1.8-2.33,4.73-4.1,9.65-4.89.63-.08,5.02,1.13,6.83,3.11-3.38.96-6.69,2.16-9.54,5.06-2.32-1.09-4.63-2.19-6.95-3.28Z"/>
      </g>
      <g>
        <path class="cls-13" d="m59.41,63.28c5.11.6,8.95,3.67,8.58,6.84-.37,3.17-4.82,5.26-9.94,4.66-5.11-.6-8.95-3.67-8.58-6.84.37-3.17,4.82-5.26,9.94-4.66Z"/>
        <path class="cls-10" d="m59.57,61.87c5.11.6,8.95,3.67,8.58,6.84s-4.82,5.26-9.94,4.66c-5.11-.6-8.95-3.67-8.58-6.84.37-3.17,4.82-5.26,9.94-4.66Z"/>
      </g>
      <g>
        <path class="cls-30" d="m14.12,49.65c2.89,3.75,5.9,6.47,2.57,2.97-.91-.96,2.86-6.67,4.37-5.95,1.79.85,3.2,2.88,2.89,3.97-1.67,5.8,1.46-1.31,3.5-3.52,1.14-1.24.76-2.26,1.15-2.33,1-.18,2.47,6.63,1.67,7.97-1.73,2.9-1.63,1.12-.23-2.83.46-1.28.89-3.49,1.7-3.64.54-.1,4.11,4.11,4.12,5.84.05,4.37.27,1.57-.33-2.96-.35-2.66-.19-4.41.49-4.26,1.2.26,4.81,4.8,1.85,4.83-.74,0,11.11-4.11,10.55-3.12-.76,1.34-2.23,3.08-4.44,5.48,1.15.71,5.48-3.73,5.39-2.98-.81,6.76,3.88-.41,4,1.15.51,6.54,1.58,15.66,1.97,21.84.09,1.42.23,4.07-1.1,5.04-1.03.75-1.8,1.65-3.09,2.43-.75.45-4.24,2.28-4.04,2.28-12.24-.22-14.34-4.15-18.41-10.92-3.45-5.73-7.56-8.86-13.48-13.34-3.48-2.63-6.61-6.07-1.1-7.96Z"/>
        <path class="cls-9" d="m14.12,49.65c-4.42,3.28.23,4.81,1.41,2.26.51-1.1,1.66-5.27,4.22-5.37,1.51-.06,2,.29,1.68,1.39-1.67,5.8,2.81.7,4.85-1.51,4.05-4.39,1.77.28.66,2.14-1.73,2.9.53,4.62,1.93.67.76-2.13,3.3-5.23,3.34-.89.04,4.37,2.75,4.65,2.15.11-.8-6.07,3.82-3.89,2.33.57-.15.46,16.58-5.06,10.31-1.27-1.73,1.05-7.04,1.38-4.92,2.69,1.15.71,10.51-3.34,6.22-.5-7.24,4.78,5.73-1.26,5.05.34-2.4,5.65.42,14.95.81,21.13.09,1.42.23,4.07-1.1,5.04-1.03.75-1.8,1.65-3.09,2.43-.75.45-4.24,2.28-4.04,2.28-12.24-.22-14.34-4.15-18.41-10.92-3.45-5.73-7.56-8.86-13.48-13.34-3.48-2.63-5.45-5.35.06-7.24Z"/>
        <path class="cls-18" d="m12.75,53.9c3.17,4.25,7.19,5.72,10.31,8.07,1.15.87,1.9,2.1,2.95,2.96.76.62,1.29,1.69.46.19-2.3-4.15-6.94-6.72-9.43-10.51-1.03-1.57.66-4.37-.49-3.03-.68.79-2.57,2.71-3.79,2.32Z"/>
        <path class="cls-18" d="m21.42,51.02c.21,2.21,1.81,3.96,2.55,5.27,1.47,2.62,2.92,5.3,4.1,8,1.36,3.1-.82-2.75-1.05-3.46-.91-2.8-1.59-4.26-2.23-7.12-.12-.55-.27-3.42-.47-3.77-1.09.12-1.88,1.28-2.89,1.09Z"/>
        <path class="cls-18" d="m26.85,51.89c.38,2.24,1.69,4.03,2.32,5.37.28.6.32,1.26.57,1.89.23.58.43,1.2.34.11-.16-1.85-.16-3.74-.34-5.54l-.34-3.43c-.03-.33-1.29,1.8-2.54,1.61Z"/>
        <path class="cls-18" d="m41.4,50.19c-.19,1.15.03,2.22-.18,3.39l-1.45,8.19-.41,2.63.5-1.71,3.25-10.92c.65-2.2-.65,0-1.72-1.59Z"/>
        <path class="cls-18" d="m45.88,52.18c.03.85.36,2.31.11,3.14-.52,1.74-.58,3.17-.67,5.02-.13,2.67,1.17-3.54,1.64-4.51.42-.87,1.43-2.03,2.14-2.86.99-1.15.9-1.22-.93-.77-.67.17-2.59-.25-2.3-.02Z"/>
        <path class="cls-18" d="m36.88,49.34c-.58,1.98.87,4.01-.07,5.89-.62,1.24.27,2.63.48,3.7.21,1.08.37-1.06.39-1.29.21-2.24,1.3-5.15,2.19-7.35.28-.7.91-1.2-1.04-.74-.57.13-2.01-.26-1.94-.22Z"/>
      </g>
      <g>
        <path class="cls-12" d="m120.53,40.96v7.57c.12.95.18,1.91.18,2.88,0,20.7-27.03,37.48-60.35,37.48S0,72.11,0,51.42v-10.46h4.96c2.81,17.46,26.54,31.09,55.39,31.09s52.58-13.63,55.39-31.09h4.78Z"/>
        <path class="cls-19" d="m120.44,40.96c-2.83,19.06-28.66,34-60.09,34S3.09,60.02.26,40.96h4.7c2.81,17.46,26.54,31.09,55.39,31.09s52.58-13.63,55.39-31.09h4.7Z"/>
      </g>
      <path class="cls-16" d="m120.53,49.7v1.09c.02.19.04.37.06.56-1.91,19.63-28.15,35.19-60.24,35.19S0,69.76,0,49.06c0-.38.01-.76.03-1.13.95,20.18,27.6,36.37,60.32,36.37s57.8-15.25,60.17-34.59Z"/>
      <g>
        <path class="cls-32" d="m97.71,53.31c3.99,1.89,6.48,3.38,9.57,6.29,1.87,1.77,3.69-1.67,5.12-.94.25.13.46-.98.53-1.05.82-.73.55,1.09,1.71-.71.63-.97,3.07-.73,2.47-1.47-.76-.94-1.93-.92-1.56-2.11.22-.72-1.58-.66-1.72-1.32-.16-.72-.81-.5-1.43-.36-.99.21.4-1.61-1.77-1.14-.69.15.1-.87-.58-.72l-1.7.37c-1.97.43-1.48.78-2.73,1.86-.54.48-1.29.05-1.89.24-.48.16-1.77,1.41-2.43.87-.46-.38-1.58-.49-2.15-.55,2.72-.15-.16-.39,1.29-.7,1.75-.38,2.39-.12,3.74-.24.5-.04,3.06-1.03,2.84-2.03-.22-1.02-.19-.12,1.14-1.1.55-.41-1.06-.03.58-1.23.61-.45-.89-2.29-1.66-1.42-.22.25-1.24,1.75-.93.79.32-.96-.16-2.59-1.3-1.32-.61.68-.71,1.42-1.23,2.13-.93,1.27-.65-.88-.33-1.54.27-.54.63-1.42-.42-.75-1.18.74-.33-.52-1.25-.32-.36.08-.82.51-1.21.68-1.43.66-1.3-1.54-2.16-.21-1.06,1.64,1.46,5.72-.76,7.05-2.84-.18-5.81.15-9.12,1.78-.09.21-.19.42-.28.63,3.35-1.51,6.15-2.08,8.62-2.11l-.08.02c-.51,3.36-2.45,3.06-3.73,5.04-.24.38-.78,1.22-.73,1.68.17,1.75,1.74-.5,1.69-.03-.08.73-.75,1.23-.62,1.83.16.75,1,.19.85,1.17-.11.74.16.67,1.01.37.9-.32.04,2.27,1.12,2.04.53-.12.88.98,1.4,1.39.43.34.77-.42,1.28.06,1.32,1.24,1.09.47,1.87-.75.45-.7.45-.64.21-1.74-.16-.74,1.04-.17,1.2-.68.5-1.6,1.74-3.78-1.04-5.19-1.14-.58-3.29-3.46-3.45-4.58Z"/>
        <path class="cls-8" d="m116.07,55.27c-2.97-.95-8.15.64-12-.51-1.2-.36-2.75-.51-3.82-1.25-1.2-.82-.79.08,1.14.18,1.55.08,2.29-.5,3.83-.45.57.02,1.3-1.18,1.67-1.55.78-.77-.43,1.47-.55,1.77-.18.45,2.2-1.64,2.53-2,1.11-1.23-.09.97-.19,1.24-.35.88,1.41-.57,2.04-.64.22-.02,1.25.31,1.4.52.72.95,1.46-.11,2.27.95.25.32,1.77,1.75,1.69,1.74Z"/>
        <path class="cls-8" d="m107.76,47.42c-1.08.97-1.07,1.26-1.86,2.43-.96,1.41-4.02.8-5.61,1.43-1.67.67.09-.47.78-.73.3-.12,2.27-1.28,2.18-1.25-1.08.35-.72-.06.07-.5.6-.33.88-.88,1.29-1.48.14-.2.83-1.25.64-.93-.84,1.39,1.06.89,1.7.56.27-.14.69-.29.97-.05.13.11-.23.91-.16.53Z"/>
        <path class="cls-8" d="m96.79,55.02c1.09,1.32.19,2.97.78,4.31.48,1.08.97,2.27.97,3.47,0,.96.48,1.98.71,2.74.26.87.33-.5.31-.78-.11-1.52.74.29.73.06-.05-.95-.2-1.81-.44-2.56-.1-.32-.89-1.99-.27-1.45.39.34.61.75,1.08,1.07,1.45.99.79-.18.14-1-.13-.17.7.11.87.1.01,0-3.31-3.12-1.6-2.08.2.12,1.36.14.57-.11-1.72-.53-2.01-2.41-2.99-3.26-.31-.27-.57-1.46-.6-1.85-.03-.33-.07.7-.04.86.04.19-.14.65-.22.48Z"/>
      </g>
      <g>
        <path class="cls-32" d="m14.67,129.34c3.99,1.89,6.48,3.38,9.57,6.29,1.87,1.77,3.69-1.67,5.12-.95.25.13.46-.98.53-1.05.82-.73.55,1.09,1.71-.71.63-.97,3.07-.73,2.47-1.47-.76-.94-1.93-.92-1.56-2.11.22-.73-1.58-.66-1.72-1.32-.16-.72-.81-.5-1.43-.37-.99.22.4-1.61-1.77-1.14-.69.15.1-.87-.58-.72l-1.7.37c-1.97.43-1.48.78-2.73,1.86-.54.48-1.29.04-1.89.24-.48.16-1.77,1.41-2.43.87-.46-.37-1.58-.49-2.15-.55,2.72-.15-.16-.39,1.29-.7,1.75-.38,2.39-.12,3.74-.24.5-.04,3.06-1.03,2.84-2.03-.22-1.02-.19-.12,1.14-1.1.55-.41-1.06-.03.58-1.23.61-.45-.89-2.29-1.66-1.42-.22.25-1.24,1.75-.93.79.32-.96-.16-2.59-1.3-1.32-.61.68-.71,1.42-1.23,2.13-.93,1.27-.65-.88-.33-1.53.27-.54.64-1.42-.42-.75-1.18.74-.33-.52-1.25-.32-.36.08-.82.51-1.2.69-1.44.66-1.3-1.54-2.16-.21-1.06,1.64,1.46,5.72-.76,7.05-2.84-.18-5.81.15-9.12,1.78-.09.21-.19.42-.28.63,3.35-1.51,6.15-2.08,8.62-2.11l-.07.02c-.51,3.36-2.45,3.06-3.73,5.04-.24.38-.78,1.22-.73,1.68.17,1.75,1.74-.5,1.69-.03-.08.73-.75,1.23-.62,1.83.16.75,1,.19.85,1.17-.11.74.16.67,1.01.37.9-.32.04,2.27,1.12,2.04.53-.12.88.98,1.4,1.39.43.34.77-.42,1.28.06,1.32,1.24,1.09.47,1.87-.74.45-.7.45-.64.21-1.74-.16-.74,1.04-.17,1.21-.68.49-1.6,1.74-3.78-1.04-5.19-1.14-.58-3.29-3.46-3.45-4.58Z"/>
        <path class="cls-8" d="m33.03,131.3c-2.97-.95-8.15.64-12-.51-1.2-.36-2.75-.51-3.82-1.25-1.2-.82-.79.08,1.14.18,1.55.08,2.29-.5,3.83-.45.57.02,1.3-1.18,1.67-1.55.78-.77-.43,1.47-.55,1.77-.18.45,2.2-1.64,2.53-2,1.11-1.23-.09.97-.19,1.24-.35.88,1.41-.57,2.04-.64.22-.02,1.25.31,1.4.52.72.95,1.46-.11,2.27.95.25.33,1.77,1.75,1.69,1.74Z"/>
        <path class="cls-8" d="m24.72,123.46c-1.08.97-1.07,1.26-1.86,2.43-.96,1.41-4.02.8-5.61,1.43-1.67.67.09-.47.78-.73.3-.12,2.27-1.28,2.18-1.25-1.08.35-.72-.06.07-.5.6-.33.88-.88,1.29-1.48.14-.2.83-1.25.64-.94-.84,1.39,1.06.89,1.7.56.27-.14.69-.29.97-.05.13.11-.23.91-.16.53Z"/>
        <path class="cls-8" d="m13.75,131.05c1.09,1.32.19,2.97.78,4.31.48,1.08.97,2.27.97,3.47,0,.96.48,1.98.71,2.74.26.87.33-.5.31-.78-.11-1.52.74.29.73.06-.05-.95-.2-1.81-.44-2.56-.1-.32-.89-1.99-.27-1.45.39.34.61.75,1.08,1.07,1.44.99.79-.18.14-1-.13-.17.7.11.87.1.01,0-3.31-3.12-1.6-2.09.2.12,1.36.14.57-.11-1.72-.53-2.01-2.41-2.99-3.26-.31-.27-.57-1.46-.6-1.85-.03-.33-.07.7-.04.86.03.19-.14.65-.22.48Z"/>
      </g>
      <ellipse class="cls-14" cx="83.36" cy="24.55" rx="1.12" ry="1.83"/>
      <path class="cls-7" d="m53.39,25.82c.52-.35,1.39.06,1.96.9.56.84.6,1.8.08,2.15-.52.34-1.39-.06-1.95-.9-.56-.84-.6-1.81-.08-2.15Z"/>
      <path class="cls-7" d="m78.72,26.19c.49-.38,1.39-.04,2.01.76.62.8.73,1.76.23,2.14-.49.38-1.39.04-2.01-.76-.62-.8-.72-1.76-.23-2.14Z"/>
      <path class="cls-7" d="m46.8,41.67c.52-.34,1.39.06,1.95.9.56.84.6,1.81.08,2.15s-1.39-.06-1.96-.9c-.56-.84-.6-1.81-.08-2.15Z"/>
      <path class="cls-7" d="m81.85,54c.36-.5,1.33-.43,2.15.17.82.59,1.19,1.49.82,1.99-.36.5-1.33.43-2.15-.17-.82-.59-1.19-1.49-.82-1.99Z"/>
      <path class="cls-7" d="m81.18,55.47c.6-.14,1.28.54,1.51,1.53.23.99-.07,1.9-.68,2.04-.6.14-1.28-.54-1.51-1.53-.23-.99.07-1.9.68-2.04Z"/>
      <path class="cls-7" d="m54.01,18.08c.6-.14,1.28.54,1.51,1.53.23.99-.07,1.9-.68,2.04s-1.28-.54-1.51-1.53c-.23-.99.07-1.9.68-2.04Z"/>
      <path class="cls-7" d="m72.92,18.89c-.07.62-.94,1.03-1.95.91-1.01-.11-1.77-.71-1.7-1.32.07-.62.94-1.03,1.95-.91,1.01.11,1.77.71,1.7,1.32Z"/>
      <path class="cls-7" d="m91.26,25.07c-.07.62-.94,1.03-1.95.91-1.01-.11-1.77-.71-1.7-1.32.07-.62.94-1.03,1.95-.91,1.01.11,1.77.71,1.7,1.32Z"/>
      <path class="cls-21" d="m85.55,92.93c-.51.15-1.02.29-1.53.42.08-.42.13-.81.16-1.16.04-.49.06-.86.06-1.13,0-.35-.03-.58-.09-.68-.06-.1-.14-.12-.25-.05-.2.12-.38.36-.54.72-.16.36-.29.78-.39,1.26l-.28,1.38c-.62.15-1.24.3-1.87.44.13-.5.27-.98.44-1.45.27-.78.57-1.5.89-2.15.32-.65.67-1.21,1.03-1.68.37-.48.74-.84,1.13-1.08.29-.17.52-.24.73-.21.2.04.36.14.48.33.12.19.22.44.27.76.05.32.08.67.08,1.04,0,.24,0,.48,0,.72-.01.83-.12,1.66-.31,2.5Z"/>
      <path class="cls-29" d="m85.55,92.93c-.51.15-1.02.29-1.53.42.08-.42.13-.81.16-1.16.04-.49.06-.86.06-1.13,0-.35-.03-.58-.09-.68-.06-.1-.14-.12-.25-.05-.2.12-.38.36-.54.72-.16.36-.29.78-.39,1.26l-.28,1.38c-.62.15-1.24.3-1.87.44.13-.5.27-.98.44-1.45.27-.78.57-1.5.89-2.15.32-.65.67-1.21,1.03-1.68.37-.48.74-.84,1.13-1.08.29-.17.52-.24.73-.21.2.04.36.14.48.33.12.19.22.44.27.76.05.32.08.67.08,1.04,0,.24,0,.48,0,.72-.01.83-.12,1.66-.31,2.5Z"/>
      <polygon class="cls-15" points="57.07 98.12 58.19 101.59 61.83 101.58 58.88 103.72 60.01 107.18 57.07 105.04 54.12 107.19 55.26 103.72 52.3 101.59 55.95 101.59 57.07 98.12"/>
      <g>
        <path class="cls-21" d="m85.91,101.58c-.37.57-.71,1.1-1.04,1.58-.14.21-.29.41-.45.62-.15.2-.3.4-.46.57-.15.18-.29.33-.43.47-.05.05-.1.08-.15.13-.07.06-.15.14-.21.18h-.01s-.08.04-.12.05c-.07.02-.13.03-.18,0-.02,0-.04-.03-.06-.05-.05-.04-.09-.09-.12-.16-.05-.11-.08-.24-.1-.41,0-.01,0-.03,0-.04-.02-.15-.03-.31-.03-.48,0-.16.01-.32.03-.49.02-.17.04-.35.07-.52.03-.17.06-.34.09-.49.03-.15.06-.28.09-.39.07-.25.19-.62.35-1.11.17-.51.39-1.15.66-1.92.34-.99.64-1.95.89-2.9.24-.95.49-1.91.74-2.87.25-.98.39-1.94.41-2.9,0-.24,0-.49,0-.72,0-.37-.03-.72-.08-1.04-.03-.18-.08-.33-.13-.47-.04-.1-.08-.2-.14-.28-.12-.19-.29-.29-.48-.33-.06-.01-.12,0-.18.01-.16.02-.34.07-.54.19-.39.23-.76.6-1.13,1.08h0c-.36.48-.7,1.04-1.02,1.68-.22.44-.42.93-.62,1.44-.09.23-.18.46-.27.71-.27.78-.49,1.6-.66,2.45-.17.85-.33,1.64-.48,2.37-.14.68-.21,1.43-.24,2.23,0,.06,0,.11-.01.17-.4.25-.77.55-1.13.9-.03.03-.07.07-.1.1-.02.02-.04.04-.06.05-.4.4-.8.88-1.18,1.44-.38.56-.69,1.12-.93,1.69-.19.45-.36.89-.52,1.31l-.11.3c-.04.11-.07.21-.1.31-.14.4-.25.79-.33,1.18-.04.2-.07.39-.09.58-.02.18-.03.36-.04.54,0,0,0,0,0,0v.04c-.12.18-.23.35-.36.53-.04.06-.08.11-.12.17-.1.14-.2.28-.3.41-.14.18-.28.34-.42.48-.14.13-.27.23-.4.28-.17.08-.28.04-.33-.11-.04-.13-.07-.33-.07-.57,0-.04,0-.06,0-.1,0-.35.06-.81.15-1.37.1-.56.19-1.06.26-1.5.08-.44.15-.87.21-1.28.02-.17.04-.31.05-.46.02-.23.04-.44.04-.63,0-.2-.02-.36-.05-.47,0,0,0,0,0,0-.03-.1-.08-.17-.14-.2,0,0,0,0,0,0-.05-.03-.1-.03-.15-.03-.02,0-.03-.01-.05,0-.06.01-.13.04-.2.07-.02,0-.03,0-.05.02-.07.03-.14.06-.21.1-.03.01-.05.03-.08.04-.04.02-.08.04-.12.06-.08.04-.15.07-.22.09,0,0,0,0,0,0-.08.03-.15.03-.22.04-.07,0-.14-.02-.18-.08-.05-.05-.1-.11-.15-.16-.05-.05-.12-.09-.19-.12-.02,0-.05,0-.07,0-.07,0-.15,0-.26.05-.09.04-.19.1-.28.16-.32.17-.64.39-.96.66-.41.36-.79.79-1.15,1.26-.07.09-.14.18-.2.28-.29.4-.56.82-.8,1.28-.12.23-.24.46-.36.71-.1.21-.2.46-.29.69-.07.17-.15.33-.21.5-.21.56-.38,1.09-.51,1.57-.02.09-.04.18-.07.27,0,.03-.01.05-.02.08-.01.05-.01.09-.02.14-.08.4-.13.79-.15,1.15-.09.1-.19.2-.29.3-.11.11-.2.2-.31.29-.07.07-.15.15-.22.21l-.06.05h0c-.14.13-.29.24-.41.33-.15.11-.29.18-.4.23-.05.02-.1,0-.15-.06-.04-.04-.08-.12-.12-.2-.01-.02-.02-.03-.04-.06-.05-.11-.09-.24-.12-.39-.03-.15-.05-.32-.05-.49,0-.05,0-.09,0-.14,0-.02,0-.04,0-.06.02-.12.04-.24.06-.37.03-.15.06-.29.09-.43.03-.13.06-.26.09-.38.03-.12.06-.22.09-.29.27-.69.58-1.42.91-2.16l.03-.07c.18-.41.36-.83.54-1.25.14-.32.28-.63.41-.95l.06-.15.12-.28c.15-.35.28-.7.42-1.05.11-.28.23-.56.34-.84.09-.23.17-.45.26-.68h0s0,0,0,0c0-.02,0-.03.02-.05.19-.52.36-1.04.52-1.55.07-.23.13-.45.19-.68.14-.51.27-1.01.36-1.49.03-.14.05-.28.07-.41.09-.55.13-1.07.13-1.57,0-.25-.02-.49-.06-.72-.02-.09-.04-.17-.06-.25-.04-.12-.09-.22-.15-.31-.04-.06-.1-.11-.15-.16-.05-.04-.1-.06-.16-.09-.04-.02-.08-.04-.12-.05,0,0-.02,0-.03,0-.13-.03-.28,0-.45.04-.03,0-.06.01-.1.02-.04.01-.08.03-.12.04-.3.11-.6.3-.9.56-.08.07-.16.14-.24.22-.31.32-.61.7-.9,1.13-.06.08-.11.17-.17.26-.27.43-.53.93-.79,1.45-.06.13-.13.25-.19.38-.08.17-.15.35-.23.53-.22.52-.44,1.05-.64,1.6-.06.17-.12.34-.18.53-.21.65-.41,1.44-.62,2.35-.26,1.17-.4,1.76-.4,1.76v.09s-.26,1.62-.26,1.62c-.17,1.14-.26,2.03-.26,2.67,0,.29.01.58.03.85.02.28.05.54.09.81h0c-.14.24-.29.47-.43.69-.08.11-.16.22-.24.34-.06.08-.11.15-.16.23-.14.19-.29.36-.43.52-.14.16-.28.29-.42.4-.14.12-.27.19-.4.23,0,0,0,0,0,0-.08.02-.15.03-.21,0-.06-.03-.1-.08-.12-.16-.05-.15-.08-.38-.08-.68,0-.35.06-.81.15-1.35.04-.23.08-.44.12-.64.02-.1.04-.2.05-.29.03-.18.07-.37.1-.53.08-.43.15-.85.21-1.25,0-.03,0-.06,0-.09.05-.37.08-.7.08-.99,0-.14-.01-.25-.03-.35,0-.04-.01-.09-.02-.12-.03-.11-.08-.19-.14-.24-.06-.05-.13-.07-.21-.06h0c-.07,0-.16.02-.25.04-.07.02-.13.05-.21.07-.07.02-.14.04-.2.06-.08.03-.16.05-.23.06-.08.01-.15,0-.22,0-.07,0-.13-.05-.18-.1-.04-.04-.07-.09-.11-.13-.01-.02-.03-.04-.04-.05-.05-.06-.12-.11-.2-.15-.04-.02-.09-.03-.14-.03-.05,0-.12,0-.19.03-.11.03-.22.09-.34.13-.14.06-.27.11-.41.19-.17.09-.33.19-.49.32h-.01c-.4.31-.78.68-1.14,1.1-.17.2-.33.4-.49.62-.18.25-.36.51-.52.79-.12.21-.24.44-.36.67-.07.13-.13.27-.2.42-.1.23-.21.45-.31.7-.12.29-.22.57-.31.84-.12.34-.21.67-.28.98-.13.55-.19,1.08-.19,1.57h0c0,.44.06.82.19,1.14.12.31.3.57.51.77.11.1.23.18.36.24.12.06.24.1.37.13.09.02.18.02.26.03.09,0,.19,0,.29,0,.1,0,.2-.01.3-.04.11-.03.22-.07.33-.12.17-.07.33-.15.5-.25.24-.15.47-.32.7-.5l.1-.08c.25-.22.48-.46.7-.72.21-.25.39-.49.54-.72.15.38.33.64.53.84.05.06.1.13.16.17h0s.1.06.15.08c.02,0,.04.03.06.03.15.06.33.08.51.06.09,0,.18-.03.28-.06.24-.07.49-.22.73-.39.09-.06.18-.12.27-.19.06-.05.11-.11.17-.16.27-.25.53-.51.77-.81.11-.14.2-.29.31-.43.16-.22.33-.43.47-.65l.05-.07c.03-.05.06-.1.09-.15.02.05.04.1.06.15.21.46.45.79.73,1,.23.17.47.23.73.19.06,0,.12-.02.18-.04.1-.03.2-.08.3-.13.12-.06.25-.13.38-.21.22-.13.45-.3.69-.47.02-.01.03-.02.05-.04h0c.25-.19.51-.4.76-.62.06-.05.12-.11.18-.16l.2-.18c.06-.05.12-.11.17-.16.02-.02.04-.04.06-.05h0s0,0,0,0h0s0,0,0,0h0s.08.08.12.12c.02.02.04.05.07.07.18.14.37.22.59.26.04,0,.09.01.14.02.18.01.35,0,.54-.05.1-.02.21-.05.31-.09.06-.02.12-.05.18-.08.22-.1.43-.24.65-.41.27-.21.54-.44.79-.7.25-.25.48-.53.69-.81.21-.28.39-.55.54-.8.2.45.42.75.69.91.14.08.29.12.45.11s.35-.06.55-.15c.25-.11.5-.3.75-.51.08-.07.17-.14.25-.22h0c.05-.05.09-.12.14-.17.28-.29.54-.59.79-.93.13-.18.24-.36.36-.54h.01c.04.07.08.14.14.2.04.04.09.08.13.12.08.06.17.11.27.15.1.04.2.06.31.08h0c.29.04.63-.05,1.02-.25.28-.14.55-.34.83-.58.12-.1.24-.21.35-.33.08-.08.15-.16.22-.25.08-.09.16-.17.25-.27.27-.31.53-.65.78-1.01.26-.37.49-.75.71-1.13.07.14.14.26.22.37,0,.01.02.03.02.04,0,.01.02.02.03.03.08.1.17.18.26.24.05.04.11.06.16.08.15.07.29.12.44.13.17,0,.32-.01.47-.05.03,0,.06-.01.09-.02.17-.06.3-.11.38-.16.13-.08.27-.18.41-.31l.08-.07c.18-.17.36-.36.54-.57.14-.16.28-.32.42-.49h0c.05-.07.1-.12.15-.19.19-.24.37-.48.55-.72.41-.56.84-1.18,1.27-1.84-.09-.62-.18-1.25-.27-1.88Zm-3.81-.88v-.53c0-.09,0-.19,0-.3,0-.11,0-.23,0-.36,0-.25.02-.54.04-.85.02-.31.04-.65.06-.99.01-.17.03-.45.06-.85.03-.4.07-.85.13-1.36.05-.5.14-1.04.25-1.6.11-.56.22-1.08.31-1.55.06-.28.12-.53.2-.77.06-.17.12-.34.19-.49.06-.14.13-.24.19-.34.02-.03.04-.08.06-.11.01-.02.03-.03.04-.04.08-.09.16-.18.24-.23.05-.03.1-.05.15-.04s.08.04.11.09c.06.1.09.33.09.69,0,.27-.02.65-.05,1.13-.02.26-.06.56-.11.86-.02.11-.03.22-.06.34-.04.23-.1.47-.15.71-.05.21-.08.42-.14.64-.11.47-.23.93-.34,1.41-.07.29-.14.57-.21.85-.05.18-.09.35-.14.53-.28,1.03-.59,2.08-.93,3.16Zm-2.53,5.67c-.07.15-.15.31-.24.46-.09.16-.18.3-.28.44-.04.06-.09.11-.13.16-.06.07-.11.15-.17.21l-.02.03c-.07.07-.15.12-.23.17-.02.01-.04.04-.07.05-.08.04-.14.07-.21.1-.11.05-.22.08-.3.09h0c-.13.02-.23,0-.3-.04,0,0,0,0,0,0-.07-.04-.13-.11-.15-.2-.03-.09-.04-.19-.04-.29,0-.32.05-.7.15-1.13,0-.03,0-.05.01-.07.11-.47.27-1.04.48-1.72.08-.28.18-.54.28-.79.02-.06.05-.11.08-.17.1-.22.2-.44.31-.64.04-.06.07-.13.11-.19.31-.51.66-.99,1.06-1.42,0,0,.01.06.02.19,0,.09,0,.21,0,.34,0,.06,0,.12,0,.19,0,0,0,.01,0,.02,0,.21,0,.44.01.7,0,.26.02.6.02,1.01,0,.41.02.72.03.91s.02.33.04.42c-.11.32-.23.62-.36.91-.04.08-.07.18-.1.26Zm-13.01,5.97s0-.01,0-.02c0,0,0,0,.01-.01v.03Zm-2.22-4.11c-.02.05-.05.11-.07.16,0-.17.03-.37.05-.55.04-.51.11-1.07.22-1.71.01-.07.02-.12.03-.19.02-.09.03-.15.04-.23.13-.78.2-1.2.2-1.2,0,0,.02-.07.04-.17.06-.23.17-.69.36-1.42.08-.31.15-.58.22-.84.05-.18.09-.33.14-.48.04-.14.08-.29.12-.42.07-.23.14-.43.21-.6.07-.19.14-.35.21-.51.07-.15.13-.28.2-.41.05-.11.11-.22.16-.31.13-.21.24-.36.36-.46.06-.05.12-.09.18-.11.04-.02.07.04.08.18.01.13.03.29.02.49,0,.07-.02.16-.03.23-.04.44-.12.92-.24,1.43-.03.14-.07.29-.11.44-.2.78-.44,1.57-.71,2.38-.1.31-.21.62-.32.92-.17.49-.36.97-.55,1.45-.08.21-.16.4-.24.59-.19.48-.38.93-.56,1.34Zm-1.78,6.71s0,0,0,0c0,0,0,0,0,0h0Zm-4.6-3.75c-.17.84-.35,1.68-.5,2.51-.04.22-.08.5-.16.84-.08.34-.19.68-.32,1.02-.09.24-.2.46-.31.66-.05.08-.1.16-.16.24-.09.13-.18.23-.28.31,0,0,0,0,0,0-.1.08-.21.13-.32.16-.14.04-.25.03-.35-.03-.09-.05-.16-.14-.21-.25-.01-.02-.02-.06-.03-.09-.04-.09-.07-.19-.09-.32-.02-.15-.03-.31-.03-.48,0-.29.03-.61.1-.95.05-.24.13-.53.23-.83.04-.13.08-.26.13-.4.17-.48.35-.89.52-1.23.09-.18.2-.34.3-.5.07-.1.12-.22.19-.32l.04-.06.04-.06c.1-.14.2-.26.31-.38.12-.13.24-.25.36-.35.24-.2.48-.34.73-.41-.06.3-.12.6-.18.9Zm11.82,1.03c-.07.05-.14.11-.21.14-.01,0-.02,0-.03,0-.12.04-.23.05-.31.02-.09-.04-.16-.11-.22-.21l-.02-.03c-.05-.1-.08-.22-.1-.36-.02-.14-.03-.3-.03-.46,0,0,0,0,0-.01,0-.29.03-.61.1-.96l.02-.12c.07-.33.18-.71.33-1.17.17-.5.34-.94.51-1.3.18-.37.37-.71.57-1.02.21-.32.43-.59.67-.82.17-.17.34-.29.52-.4.07-.04.14-.09.21-.12-.19.96-.37,1.91-.55,2.86-.04.22-.09.43-.12.65-.03.15-.06.34-.1.56-.02.1-.04.19-.06.3-.05.21-.12.41-.19.62-.05.15-.08.3-.13.45-.13.35-.29.68-.48.96-.12.19-.25.32-.39.43Z"/>
        <path class="cls-21" d="m51.48,104.97c-.29-.46-.67-.82-1.14-1.11-.21-.13-.44-.23-.68-.32-.17-.06-.35-.11-.53-.15-.13-.03-.26-.08-.4-.1-.03,0-.06,0-.09,0-.57-.08-1.16-.09-1.76,0-.16.02-.29.07-.45.1-.45.08-.87.19-1.26.32-.31.1-.61.2-.89.33-.3.14-.56.29-.81.45-.38.23-.73.48-1.02.76-.49.47-.86.97-1.1,1.53-.24.55-.37,1.1-.37,1.65,0,.5.1.94.27,1.33.03.08.05.16.08.23.09.16.19.32.3.47.18.26.38.5.62.72.38.34.82.65,1.31.92.48.27.98.51,1.49.73.09.04.17.07.26.11.42.18.83.36,1.24.53.49.21.93.44,1.31.69.25.16.45.34.64.53.1.11.21.21.29.33.05.07.07.16.11.23.14.28.23.59.23.96,0,.4-.1.77-.27,1.12-.04.1-.07.2-.13.29-.06.1-.13.18-.2.28-.23.32-.49.62-.81.89-.32.26-.69.47-1.08.65-.11.05-.22.12-.34.16-.52.21-1.05.34-1.58.41-.44.05-.88.04-1.29-.02-.12-.02-.22-.05-.32-.08-.28-.07-.55-.17-.78-.31-.1-.06-.19-.15-.28-.22-.19-.16-.36-.34-.49-.55-.19-.32-.29-.71-.29-1.17,0-.21.01-.41.03-.58.01-.11.03-.21.05-.3,0-.06.02-.13.03-.19.02-.14.05-.28.07-.41.01-.09.02-.16.02-.24,0-.04.01-.08.01-.11,0-.24-.07-.42-.2-.53-.13-.1-.29-.16-.49-.15-.06,0-.12.01-.18.03h0c-.14.04-.28.09-.42.17-.22.12-.42.29-.6.51-.18.22-.34.49-.46.8-.12.32-.19.69-.19,1.11,0,.82.17,1.52.5,2.12.32.57.74,1.03,1.26,1.4h0s.08.07.08.07c.56.38,1.19.65,1.9.79.72.14,1.45.17,2.2.08.06,0,.12-.02.18-.03.39-.06.79-.14,1.18-.26.08-.02.17-.04.25-.07.54-.18,1.04-.4,1.53-.68.1-.06.19-.12.29-.18.37-.24.73-.5,1.07-.8.41-.38.78-.79,1.08-1.25.09-.14.17-.29.25-.44.18-.33.35-.67.47-1.04.09-.27.15-.54.2-.83.04-.28.06-.57.06-.87h0s0-.05,0-.08c0-.45-.09-.85-.21-1.21-.04-.13-.07-.27-.13-.38-.11-.21-.23-.41-.37-.59-.16-.21-.34-.41-.55-.59-.38-.33-.82-.6-1.3-.83-.23-.11-.46-.2-.69-.3-.27-.12-.53-.24-.81-.35-.41-.16-.81-.32-1.2-.48-.1-.04-.2-.08-.29-.12-.49-.2-.92-.42-1.31-.67-.38-.25-.69-.54-.93-.86-.23-.32-.35-.69-.35-1.13,0-.11.02-.22.04-.33,0-.04.02-.08.03-.11.03-.11.07-.23.12-.35.06-.12.13-.23.21-.35.09-.12.19-.23.3-.34.03-.03.05-.06.08-.09.1-.08.21-.16.32-.24.05-.04.09-.07.14-.11.17-.11.35-.2.54-.29.29-.13.62-.23.99-.31.14-.03.28-.07.43-.09.49-.07.95-.09,1.36-.08.3.01.55.06.78.12.09.03.19.05.28.08.17.07.31.15.43.25.1.08.19.16.26.26.04.05.06.12.09.19.09.19.16.4.16.65,0,.21-.04.46-.12.73-.03.1-.07.2-.11.3-.05.13-.1.26-.17.39-.03.06-.05.12-.09.19-.03.06-.05.11-.08.16-.11.22-.2.42-.25.59-.01.04-.03.08-.05.12-.03.11-.05.2-.07.3,0,.03-.01.06-.01.08-.01.09-.02.17-.02.25h0s.01.06.01.09c.01.17.06.31.16.39.06.05.12.08.2.09,0,0,.01,0,.02,0,.07.01.14.01.23,0,.24-.05.51-.2.81-.46.09-.07.16-.18.25-.27.2-.23.4-.49.58-.83.26-.49.45-.94.56-1.36.03-.09.04-.18.06-.26.07-.32.12-.64.12-.93,0-.64-.14-1.19-.43-1.65Z"/>
      </g>
    </g>
  </g>
</svg>