<?xml version="1.0" encoding="UTF-8"?>
<svg id="Layer_2" data-name="Layer 2" xmlns="http://www.w3.org/2000/svg" xmlns:xlink="http://www.w3.org/1999/xlink" viewBox="0 0 227.95 156.31">
  <defs>
    <style>
      .cls-1 {
        fill: #f8e5a8;
      }

      .cls-1, .cls-2, .cls-3, .cls-4, .cls-5, .cls-6, .cls-7, .cls-8, .cls-9, .cls-10, .cls-11, .cls-12, .cls-13, .cls-14, .cls-15, .cls-16, .cls-17, .cls-18, .cls-19, .cls-20, .cls-21, .cls-22, .cls-23, .cls-24, .cls-25, .cls-26, .cls-27 {
        stroke-width: 0px;
      }

      .cls-1, .cls-2, .cls-3, .cls-4, .cls-6, .cls-7, .cls-8, .cls-9, .cls-11, .cls-12, .cls-13, .cls-14, .cls-15, .cls-16, .cls-17, .cls-18, .cls-19, .cls-20, .cls-21, .cls-22, .cls-23, .cls-25, .cls-26, .cls-27 {
        fill-rule: evenodd;
      }

      .cls-2 {
        fill: #e52614;
      }

      .cls-3 {
        fill: #fc9e14;
      }

      .cls-4 {
        fill: url(#GradientFill_2);
      }

      .cls-5 {
        fill: #ac3019;
      }

      .cls-6, .cls-10 {
        fill: #b96b0b;
      }

      .cls-7 {
        fill: #db8061;
      }

      .cls-8 {
        fill: #94230f;
      }

      .cls-9 {
        fill: #9c3;
      }

      .cls-11 {
        fill: #c40202;
      }

      .cls-12 {
        fill: url(#GradientFill_2-5);
      }

      .cls-13 {
        fill: #b96137;
      }

      .cls-14 {
        fill: #c95838;
      }

      .cls-15 {
        fill: url(#GradientFill_2-3);
      }

      .cls-16 {
        fill: #d1db39;
      }

      .cls-17 {
        fill: url(#GradientFill_2-2);
      }

      .cls-18 {
        fill: #a89986;
      }

      .cls-19 {
        fill: #699b42;
      }

      .cls-20 {
        fill: #f8dab0;
      }

      .cls-21 {
        fill: #e47b06;
      }

      .cls-22 {
        fill: #f07464;
      }

      .cls-23 {
        fill: #f6d290;
      }

      .cls-24 {
        fill: #ffcb05;
      }

      .cls-25 {
        fill: url(#GradientFill_2-4);
      }

      .cls-26 {
        fill: #febd30;
      }

      .cls-27 {
        fill: #ffb596;
      }
    </style>
    <linearGradient id="GradientFill_2" data-name="GradientFill 2" x1="35.48" y1="26.3" x2="33.54" y2="63.37" gradientUnits="userSpaceOnUse">
      <stop offset="0" stop-color="#eb262b"/>
      <stop offset=".69" stop-color="#eb262b"/>
      <stop offset="1" stop-color="#fff"/>
    </linearGradient>
    <linearGradient id="GradientFill_2-2" data-name="GradientFill 2" x1="65.53" y1="46.25" x2="68.12" y2="83.29" xlink:href="#GradientFill_2"/>
    <linearGradient id="GradientFill_2-3" data-name="GradientFill 2" x1="101.92" y1="68.43" x2="99.98" y2="105.51" xlink:href="#GradientFill_2"/>
    <linearGradient id="GradientFill_2-4" data-name="GradientFill 2" x1="133.41" y1="89.62" x2="136" y2="126.66" xlink:href="#GradientFill_2"/>
    <linearGradient id="GradientFill_2-5" data-name="GradientFill 2" x1="170.97" y1="104.33" x2="169.03" y2="141.4" xlink:href="#GradientFill_2"/>
  </defs>
  <g id="_1" data-name="1">
    <g>
      <path class="cls-18" d="m222.34,133.85c-4.79-1.65-8.68-3-12.43-4.93-1.42-4.01-5.13-8.01-11.76-11.66L70.98,42.98c-24.41-12.63-58.28-3.03-65.07,12.01-3.25.59-5.77,1.73-5.91,4.18v.43c.03.52.16,1.1.4,1.73,1.04-.35,2.04-.67,2.96-.94-1.07,1.6-3.84,5.38-2.39,6.66.32.29.62.47.9.53.02,0,.04,0,.06.01.07.01.13.02.2.01,1.26.05,2.84-.35,4.06-.93-.28,1.28-.74,2.8-1.04,3.85-.74,2.55-.6,3.07-.11,2.66h0c.2.29,1.68-.5,3.4-1.63-.46,1.12-.57,2.03.18,1.88h0c.1.15,1.2-.08,2.59-.5.18.17.36.34.55.51-2.84,2.35-2.85,3.52-1.73,3.45h0c.57.21,2.86-.37,4.54-1.18.71.52,1.43,1.04,2.15,1.56.07.13.13.26.2.39-.89,1.56-1.54,3.23-.67,4,.32.29.62.47.9.53.02,0,.04,0,.06.01.07.01.13.02.2.01,1.26.05,2.84-.35,4.06-.93-.28,1.28-.74,2.8-1.04,3.85-.74,2.55-.6,3.07-.11,2.66h0c.2.29,1.68-.5,3.4-1.63-.46,1.12-.57,2.03.18,1.87h0c.15.21,2.42-.36,4.64-1.19-.22.19-.47.38-.73.59-3.61,2.77-3.71,4.15-2.5,4.06h0c.7.25,4.03-.67,5.6-1.78,1.23,2.42,3.25,6.7,4.11,6.68.08.02.14,0,.19-.09v-.02s.08-.12.11-.2c.5-.99.98-2.23,1.49-3.78.69,1.49,1.29,2.91,1.54,2.22h0c.52-.55.96-.98,1.35-1.32.31.2.62.41.93.61.56,1.29,1.11,2.33,1.51,1.71.16-.13.32-.26.48-.39,7.94,5.16,16.14,10.22,24.56,15.21.1.79.58,1.67,1.54,2.66l.14.15c.52-.33,1.02-.63,1.52-.93.25.15.5.29.75.44-.33,1.94-.67,4.9,1.03,5.64.46.2.83.3,1.13.3.02,0,.04,0,.06,0,.07,0,.14-.01.21-.03,1.26-.21,2.61-.91,3.53-1.69.34,1.24.62,2.73.83,3.76.5,2.5.88,2.96,1.17,2.47h0c.33.22,1.4-.8,2.55-2.2.08,1.13.42,1.98,1.08,1.69h0c.21.14,1.66-.57,3.19-1.54.11.06.23.13.34.19-2.19,3.28-1.64,4.57-.49,4.24h0c.7.08,2.88-1.05,4.11-2.23,1.11.61,2.25,1.22,3.37,1.83,1.92,1.58,3.83,3.04,4.37,2.92.09,0,.14-.03.14-.12v-.02c.02-.05.02-.12,0-.21,0-.04,0-.08,0-.12,14.13,7.6,28.77,15.02,43.86,22.31,16.2,7.83,34.65,7.3,48.39,2.54.33.54.66,1.08.98,1.6.12.83,1.74-.72,3.23-2.13.29.45.61,1.1.97,1.99h0c-.08.69,1.18-.5,2.57-1.73-.24,1.53-.37,2.78-.36,3.79-.01.09-.01.15,0,.21v.02c0,.09.05.13.14.12.83.19,4.86-3.33,7.22-5.31,1,1.34,3.82,2.88,4.62,2.79h0c1.15.32,1.71-.97-.5-4.26-.16-.24-.3-.47-.44-.69,1.78,1.22,3.73,2.22,3.97,2.05h0c.66.29,1-.56,1.08-1.69,1.14,1.39,2.21,2.42,2.55,2.2h0c.28.48.67.03,1.17-2.47.21-1.03.48-2.52.83-3.76.92.79,2.27,1.48,3.53,1.69.06.02.13.03.2.03.02,0,.04,0,.06,0,.31,0,.68-.11,1.13-.3,2.03-.89,1.14-4.94.86-6.63.76.44,1.59.94,2.44,1.48.99-.99,1.52-1.86,1.67-2.65v-.95c-.36-1.75-2.72-2.99-5.6-3.98Z"/>
      <path class="cls-13" d="m19.39,72.38c34.43,25.53,75.33,48.52,120.4,70.31,37.84,18.29,88.6-11.59,53.53-30.91L72.92,41.47c-32.83-16.99-83.75,8.5-53.53,30.91Z"/>
      <path class="cls-21" d="m18.51,67.72c35.46,26.6,77.78,50.57,124.25,72.58,37.98,17.99,88.6-11.59,53.53-30.91L72.04,36.82c-32.83-16.99-83.62,8.33-53.53,30.91Z"/>
      <path class="cls-23" d="m19.14,62.74c35.95,26.15,79.01,50.11,125.4,72.84,37.74,18.49,88.6-11.59,53.53-30.91L72.67,31.84C39.84,14.85-11.28,40.61,19.14,62.74Z"/>
      <g>
        <path class="cls-19" d="m3.01,40.7c5.95-.72,10.77-.67,4.87-.39-1.61.07-6.28,6.38-4.62,6.85,1.96.56,5.1.07,6.21-.87,5.9-5.03-.75,1.82-2.24,4.63-.83,1.57-2.24,2.03-2.11,2.33.33.76,9.11-2.97,10.25-4.39,2.47-3.08.43-1.8-3.44,1.79-1.26,1.17-3.62,2.95-3.35,3.57.17.41,7.03-.19,9.07-1.36,5.15-2.96,1.99-.9-3.65,1.82-3.3,1.59-5.27,2.89-4.73,3.22.95.58,8.22-.22,6.66-2.13-.39-.48,1.19,9.88,2.04,8.85,1.16-1.4,2.4-3.52,4.03-6.58,1.45.25-1.42,6.04-.59,5.47,7.48-5.14,1.62,2.75,3.51,1.75,7.94-4.15,19.21-9.71,26.66-13.68,1.72-.91,4.9-2.64,5.32-4.15.32-1.17.96-2.27,1.18-3.63.12-.79.39-4.26.49-4.13-6.87-7.64-12.6-6.29-22.73-4.26-8.58,1.73-14.47,1.25-22.92.53-4.96-.42-10.68-.06-9.92,4.74Z"/>
        <path class="cls-9" d="m3.01,40.7c1.46-5.05,5.77-3.14,3.41-.64-1.02,1.08-5.28,4.66-4.02,6.36.75,1,1.42,1.07,2.53.12,5.9-5.03,2.33,1.32.84,4.13-2.96,5.59,1.28.94,2.87-1.04,2.47-3.08,5.7-2.82,1.83.77-2.09,1.94-4.35,5.68.76,2.73,5.15-2.96,6.93-1.42,1.3,1.29-7.55,3.64-2.5,5.09,1.93,1.09.46-.41,3.02,14.02,4.07,7.43.29-1.82-2.19-5.43.49-4.97,1.45.25,1.76,8.98,2.77,4.3,1.69-7.87,1.62,4.51,3.13,2.98,5.32-5.39,17.75-9.96,25.2-13.93,1.72-.91,4.9-2.64,5.32-4.15.32-1.17.96-2.27,1.18-3.63.13-.79.39-4.26.49-4.13-6.87-7.64-12.6-6.3-22.73-4.26-8.58,1.73-14.47,1.25-22.92.53-4.96-.42-9.22.19-8.46,4.99Z"/>
        <path class="cls-16" d="m7.25,36.93c6.69-.88,10.59.67,15.03,1.04,1.64.14,3.49-.23,5.06-.15,1.14.06,2.68-.33.47.16-6.11,1.38-11.63.18-17.41,1.18-2.39.41-4.77,3.41-3.82,1.76.56-.98,1.79-3.49.67-4Z"/>
        <path class="cls-16" d="m8.55,44.42c2.7-1.37,5.61-1.55,7.55-1.98,3.86-.85,7.79-1.76,11.59-2.86,4.36-1.25-3.66,1.35-4.62,1.69-3.78,1.34-5.85,1.9-9.55,3.45-.71.3-4.15,2.17-4.68,2.28-.45-.78.49-2.08-.28-2.59Z"/>
        <path class="cls-16" d="m12.51,47.28c2.83-1.29,5.63-1.68,7.55-2.19.85-.23,1.65-.66,2.52-.93.8-.25,1.64-.55.31.14-2.25,1.16-4.47,2.46-6.68,3.57l-4.21,2.13c-.4.2,1.41-2.05.52-2.71Z"/>
        <path class="cls-16" d="m18.37,57.71c1.24-.91,2.62-1.5,3.88-2.44l8.82-6.52,2.87-2.06-1.74,1.49-11.04,9.54c-2.22,1.92-.35-.41-2.79,0Z"/>
        <path class="cls-16" d="m23.12,59.2c1.01-.57,2.9-1.35,3.74-2.08,1.75-1.52,3.41-2.54,5.52-3.86,3.05-1.91-3.51,3.17-4.4,4.13-.8.87-1.61,2.3-2.19,3.32-.81,1.42-.95,1.41-1.4-.07-.17-.54-1.69-1.48-1.27-1.45Z"/>
        <path class="cls-16" d="m14.93,55.41c2.01-1.73,5.18-2.19,6.87-4.08,1.12-1.25,3.23-1.63,4.6-2.23,1.38-.6-1.04.96-1.3,1.14-2.52,1.67-5.33,4.35-7.43,6.42-.67.66-.92,1.4-1.43-.16-.15-.45-1.39-1.1-1.31-1.09Z"/>
      </g>
      <g>
        <path class="cls-19" d="m21.42,65.8c5.68-1.92,10.41-2.85,4.69-1.38-1.56.4-4.85,7.53-3.12,7.65,2.03.14,5.01-.97,5.91-2.12,4.75-6.13-.36,1.94-1.25,4.99-.5,1.71-1.78,2.45-1.59,2.71.48.68,8.31-4.76,9.14-6.39,1.79-3.52.06-1.86-3,2.45-.99,1.4-2.94,3.63-2.56,4.18.25.37,6.84-1.62,8.6-3.18,4.44-3.95,1.76-1.29-3.21,2.52-2.91,2.23-4.57,3.91-3.98,4.12,1.05.38,8-1.89,6.09-3.44-.48-.39,3.18,9.44,3.81,8.25.85-1.61,1.63-3.94,2.6-7.26,1.47-.05-.16,6.2.54,5.47,6.28-6.56,2.14,2.36,3.8,1,6.93-5.68,16.83-13.42,23.32-18.83,1.5-1.25,4.26-3.58,4.36-5.14.08-1.21.48-2.42.41-3.79-.04-.8-.49-4.25-.36-4.14-8.28-6.08-13.62-3.6-23.12.46-8.05,3.44-13.91,4.17-22.33,5.19-4.94.6-10.47,2.12-8.74,6.66Z"/>
        <path class="cls-9" d="m21.42,65.8c.4-5.24,5.01-4.25,3.2-1.33-.78,1.26-4.22,5.64-2.64,7.05.93.83,1.61.76,2.51-.39,4.75-6.13,2.55.81,1.67,3.87-1.76,6.07,1.45.66,2.6-1.61,1.79-3.52,5-3.92,1.95.38-1.65,2.33-3.1,6.44,1.31,2.52,4.44-3.95,6.5-2.81,1.53,1-6.65,5.1-1.41,5.5,2.11.68.36-.5,5.81,13.11,5.5,6.45-.09-1.84-3.25-4.87-.53-4.97,1.47-.05,3.56,8.43,3.59,3.65.05-8.05,2.5,4.09,3.67,2.28,4.11-6.36,15.34-13.36,21.83-18.77,1.5-1.25,4.26-3.58,4.36-5.15.08-1.21.48-2.42.42-3.79-.04-.8-.49-4.25-.36-4.14-8.28-6.08-13.62-3.59-23.12.46-8.05,3.44-13.91,4.17-22.33,5.19-4.94.6-8.98,2.06-7.26,6.61Z"/>
        <path class="cls-16" d="m24.8,61.24c6.37-2.23,10.5-1.5,14.92-2.04,1.64-.2,3.37-.94,4.92-1.18,1.13-.17,2.56-.88.49.06-5.7,2.59-11.35,2.54-16.81,4.71-2.26.89-3.97,4.31-3.38,2.5.35-1.07,1.04-3.78-.16-4.06Z"/>
        <path class="cls-16" d="m27.6,68.31c2.36-1.89,5.18-2.66,6.98-3.47,3.6-1.62,7.26-3.31,10.76-5.16,4.01-2.12-3.31,2.07-4.18,2.6-3.42,2.08-5.34,3.05-8.65,5.33-.63.44-3.62,2.97-4.12,3.18-.6-.67.05-2.13-.8-2.48Z"/>
        <path class="cls-16" d="m32.06,70.31c2.51-1.84,5.17-2.79,6.94-3.69.79-.4,1.48-.98,2.28-1.42.73-.41,1.49-.87.33.07-1.97,1.6-3.88,3.32-5.82,4.86l-3.69,2.94c-.35.28.96-2.3-.05-2.76Z"/>
        <path class="cls-16" d="m39.92,79.32c1.03-1.14,2.25-2,3.3-3.18l7.3-8.18,2.38-2.6-1.39,1.81-8.87,11.59c-1.79,2.33-.43-.33-2.73.56Z"/>
        <path class="cls-16" d="m44.88,79.81c.88-.76,2.56-1.91,3.24-2.8,1.4-1.84,2.82-3.18,4.62-4.9,2.6-2.49-2.79,3.82-3.47,4.94-.6,1.01-1.1,2.57-1.47,3.7-.51,1.55-.64,1.57-1.39.22-.27-.5-1.96-1.1-1.53-1.16Z"/>
        <path class="cls-16" d="m36.09,77.77c1.62-2.1,4.62-3.2,5.9-5.39.84-1.45,2.83-2.26,4.05-3.12,1.23-.87-.82,1.15-1.04,1.38-2.12,2.15-4.33,5.34-5.96,7.8-.52.79-.61,1.56-1.43.14-.24-.41-1.58-.8-1.5-.8Z"/>
      </g>
      <g>
        <path class="cls-19" d="m49.71,76.77c5.68-1.92,10.41-2.85,4.69-1.38-1.56.4-4.85,7.53-3.12,7.65,2.03.14,5.01-.97,5.9-2.12,4.75-6.13-.36,1.94-1.25,4.99-.5,1.71-1.78,2.45-1.59,2.71.48.68,8.31-4.76,9.14-6.39,1.79-3.52.06-1.86-3,2.45-.99,1.4-2.94,3.63-2.56,4.18.25.37,6.84-1.62,8.6-3.18,4.44-3.95,1.76-1.29-3.21,2.52-2.91,2.23-4.57,3.91-3.98,4.12,1.05.38,8-1.89,6.09-3.44-.48-.39,3.18,9.43,3.81,8.25.85-1.61,1.63-3.94,2.6-7.26,1.47-.05-.16,6.2.54,5.47,6.28-6.55,2.14,2.36,3.8,1,6.93-5.68,16.83-13.42,23.32-18.83,1.49-1.25,4.26-3.58,4.36-5.14.08-1.21.48-2.42.41-3.79-.04-.8-.49-4.25-.36-4.14-8.28-6.08-13.62-3.6-23.12.46-8.05,3.44-13.91,4.17-22.33,5.19-4.94.6-10.47,2.12-8.74,6.66Z"/>
        <path class="cls-9" d="m49.71,76.77c.4-5.24,5.01-4.25,3.2-1.33-.78,1.26-4.22,5.64-2.64,7.05.93.83,1.61.76,2.51-.39,4.75-6.13,2.55.81,1.67,3.87-1.76,6.07,1.45.66,2.6-1.61,1.79-3.52,5-3.93,1.95.38-1.65,2.33-3.1,6.44,1.31,2.52,4.44-3.95,6.5-2.81,1.53,1-6.65,5.1-1.41,5.5,2.11.68.36-.5,5.81,13.11,5.5,6.45-.09-1.84-3.25-4.87-.53-4.97,1.47-.05,3.56,8.43,3.59,3.65.05-8.05,2.5,4.09,3.67,2.28,4.11-6.36,15.34-13.36,21.83-18.77,1.49-1.25,4.26-3.58,4.36-5.14.08-1.21.48-2.42.42-3.79-.04-.8-.49-4.25-.36-4.14-8.28-6.08-13.62-3.6-23.12.46-8.05,3.44-13.91,4.17-22.33,5.19-4.94.6-8.98,2.06-7.26,6.61Z"/>
        <path class="cls-16" d="m53.08,72.21c6.37-2.23,10.5-1.5,14.92-2.04,1.64-.2,3.37-.94,4.92-1.18,1.13-.17,2.56-.87.49.07-5.7,2.59-11.35,2.54-16.81,4.7-2.26.89-3.97,4.31-3.38,2.5.35-1.07,1.04-3.78-.16-4.06Z"/>
        <path class="cls-16" d="m55.89,79.28c2.36-1.9,5.18-2.66,6.98-3.48,3.6-1.62,7.26-3.31,10.76-5.16,4.01-2.12-3.31,2.07-4.18,2.6-3.42,2.08-5.34,3.05-8.65,5.33-.63.44-3.62,2.97-4.12,3.18-.6-.67.05-2.13-.8-2.48Z"/>
        <path class="cls-16" d="m60.34,81.28c2.51-1.84,5.17-2.79,6.94-3.69.79-.4,1.48-.98,2.28-1.42.73-.41,1.49-.87.33.07-1.97,1.6-3.88,3.32-5.82,4.86l-3.69,2.94c-.35.28.96-2.3-.05-2.76Z"/>
        <path class="cls-16" d="m68.21,90.29c1.03-1.14,2.25-2,3.3-3.18l7.3-8.18,2.39-2.6-1.4,1.81-8.87,11.59c-1.79,2.33-.43-.33-2.73.56Z"/>
        <path class="cls-16" d="m73.17,90.78c.88-.76,2.56-1.91,3.24-2.8,1.4-1.84,2.82-3.18,4.62-4.9,2.6-2.49-2.79,3.82-3.47,4.94-.6,1.01-1.1,2.58-1.47,3.7-.51,1.55-.64,1.57-1.39.22-.27-.5-1.96-1.1-1.53-1.16Z"/>
        <path class="cls-16" d="m64.37,88.74c1.62-2.1,4.62-3.2,5.9-5.39.84-1.45,2.83-2.26,4.05-3.12,1.23-.87-.82,1.15-1.05,1.38-2.12,2.15-4.33,5.34-5.96,7.8-.52.79-.61,1.56-1.43.14-.24-.41-1.58-.8-1.5-.8Z"/>
      </g>
      <g>
        <path class="cls-19" d="m71.29,101.42c4.66-2.77,8.81-4.43,3.93-2.09-1.33.64-1.71,8.19-.02,8.04,1.99-.17,4.4-1.73,4.8-3.01,2.16-6.79.4,1.97.74,5.13.19,1.76-.75,2.69-.47,2.93.72.6,6.08-5.99,6.23-7.72.34-3.75-.66-1.84-1.91,2.89-.41,1.54-1.4,4.04-.82,4.53.38.32,5.89-2.66,6.96-4.47,2.7-4.58,1.18-1.54-2.08,2.99-1.91,2.65-2.84,4.57-2.2,4.69,1.15.21,6.89-3.1,4.47-4.34-.61-.31,6.66,8.83,6.81,7.56.19-1.72.04-4.14-.32-7.57,1.38-.28,2.24,6.15,2.63,5.32,3.44-7.45,2.95,2,4,.4,4.4-6.69,10.84-15.86,14.93-22.21.94-1.46,2.67-4.2,2.17-5.76-.39-1.21-.48-2.46-1.07-3.81-.34-.78-2.1-4.12-1.95-4.04-10.23-4.73-14.35-1.45-21.83,4.03-6.34,4.64-11.63,6.27-19.25,8.58-4.47,1.36-9.15,3.71-5.75,7.94Z"/>
        <path class="cls-9" d="m71.29,101.42c-1.65-5.24,3.12-4.98,2.54-1.8-.25,1.37-1.84,6.23.21,7.37,1.21.68,1.83.5,2.23-.78,2.16-6.79,2.74.41,3.08,3.56.67,6.27,1.63.43,1.85-1.99.34-3.75,3.25-4.65,2,.08-.67,2.55-.46,6.85,2.22,2.29,2.7-4.58,5.1-3.78,1.84.75-4.36,6.07.78,5.65,2.27.34.15-.55,10.59,12.05,7.72,5.52-.79-1.8-4.97-4.31-2.42-4.82,1.38-.28,6.64,7.78,4.82,3.05-3.06-7.96,3.96,3.65,4.38,1.69,1.46-6.92,9.45-15.58,13.54-21.93.94-1.46,2.67-4.2,2.16-5.76-.39-1.21-.48-2.46-1.07-3.81-.34-.78-2.1-4.12-1.95-4.04-10.23-4.73-14.35-1.45-21.83,4.03-6.34,4.64-11.63,6.27-19.25,8.58-4.47,1.36-7.75,3.43-4.36,7.65Z"/>
        <path class="cls-16" d="m72.74,96.4c5.21-3.19,9.42-3.11,13.42-4.32,1.48-.45,2.84-1.45,4.23-1.92,1.01-.35,2.1-1.26.49-.01-4.42,3.44-9.82,4.27-14.18,7.25-1.8,1.23-2.12,4.88-2.25,3-.08-1.11-.46-3.9-1.71-3.99Z"/>
        <path class="cls-16" d="m78.14,102.94c1.52-2.24,3.9-3.43,5.31-4.51,2.8-2.16,5.64-4.4,8.25-6.76,3-2.71-2.35,2.56-2.97,3.22-2.46,2.59-3.9,3.84-6.18,6.6-.44.53-2.31,3.49-2.69,3.78-.83-.57-.77-2.12-1.72-2.32Z"/>
        <path class="cls-16" d="m83.15,104.23c1.67-2.21,3.84-3.56,5.18-4.71.6-.52,1.03-1.2,1.62-1.76.54-.52,1.08-1.09.34.02-1.25,1.88-2.41,3.88-3.66,5.7l-2.37,3.47c-.23.33.03-2.42-1.11-2.72Z"/>
        <path class="cls-16" d="m94.11,111.92c.54-1.29,1.37-2.33,1.92-3.65l3.79-9.21,1.27-2.94-.63,2-3.97,12.82c-.8,2.58-.54-.26-2.38.97Z"/>
        <path class="cls-16" d="m99.02,111.64c.54-.89,1.7-2.28,2-3.26.62-2.04,1.46-3.58,2.51-5.56,1.51-2.86-1.19,4.2-1.39,5.42-.19,1.09-.06,2.71.03,3.88.12,1.61,0,1.66-1.24.43-.45-.45-2.29-.79-1.91-.91Z"/>
        <path class="cls-16" d="m89.86,110.98c.73-2.33,3.17-3.87,3.53-6.24.24-1.56,1.82-2.67,2.65-3.71.83-1.05-.34,1.26-.46,1.52-1.19,2.45-2.06,5.95-2.67,8.63-.19.86.02,1.63-1.31.36-.39-.37-1.82-.54-1.74-.56Z"/>
      </g>
      <g>
        <path class="cls-19" d="m107.14,112.27c5.68-1.92,10.41-2.85,4.69-1.38-1.56.4-4.85,7.53-3.12,7.65,2.03.14,5.01-.97,5.9-2.12,4.75-6.13-.36,1.94-1.25,4.99-.5,1.71-1.78,2.45-1.59,2.71.48.68,8.31-4.76,9.14-6.39,1.79-3.52.06-1.86-3,2.45-.99,1.4-2.94,3.63-2.55,4.18.25.37,6.84-1.62,8.6-3.18,4.44-3.95,1.76-1.29-3.21,2.52-2.91,2.23-4.57,3.91-3.98,4.12,1.05.38,8-1.89,6.09-3.44-.48-.39,3.18,9.44,3.81,8.25.85-1.61,1.63-3.94,2.6-7.26,1.47-.05-.16,6.2.54,5.47,6.28-6.56,2.14,2.36,3.8,1,6.93-5.68,16.83-13.42,23.32-18.83,1.5-1.25,4.26-3.58,4.36-5.14.08-1.21.48-2.42.41-3.79-.04-.8-.49-4.25-.36-4.14-8.28-6.08-13.62-3.6-23.12.46-8.05,3.44-13.91,4.17-22.33,5.19-4.94.6-10.47,2.12-8.74,6.66Z"/>
        <path class="cls-9" d="m107.14,112.27c.4-5.24,5-4.25,3.2-1.33-.78,1.26-4.22,5.64-2.64,7.05.93.83,1.61.76,2.51-.39,4.75-6.13,2.55.81,1.67,3.87-1.76,6.07,1.45.66,2.6-1.61,1.79-3.52,5.01-3.93,1.95.38-1.65,2.33-3.1,6.44,1.31,2.52,4.44-3.95,6.5-2.81,1.53,1-6.65,5.1-1.41,5.5,2.11.68.36-.5,5.81,13.11,5.5,6.45-.09-1.84-3.25-4.87-.53-4.97,1.47-.05,3.56,8.43,3.59,3.65.05-8.05,2.5,4.09,3.67,2.28,4.11-6.36,15.34-13.36,21.83-18.77,1.49-1.25,4.26-3.58,4.36-5.14.08-1.21.48-2.42.42-3.79-.04-.8-.49-4.25-.36-4.14-8.28-6.08-13.62-3.6-23.12.46-8.05,3.44-13.91,4.17-22.33,5.19-4.95.6-8.98,2.06-7.26,6.61Z"/>
        <path class="cls-16" d="m110.52,107.71c6.37-2.23,10.5-1.5,14.92-2.04,1.64-.2,3.37-.94,4.92-1.18,1.13-.17,2.56-.87.49.07-5.7,2.59-11.35,2.54-16.81,4.71-2.25.89-3.97,4.31-3.38,2.5.35-1.07,1.04-3.78-.16-4.06Z"/>
        <path class="cls-16" d="m113.33,114.78c2.36-1.89,5.18-2.66,6.99-3.48,3.6-1.62,7.26-3.31,10.76-5.16,4.01-2.12-3.31,2.07-4.18,2.6-3.42,2.08-5.34,3.05-8.65,5.33-.63.44-3.62,2.97-4.12,3.18-.6-.67.05-2.13-.8-2.48Z"/>
        <path class="cls-16" d="m117.78,116.78c2.51-1.84,5.17-2.79,6.94-3.69.79-.4,1.48-.98,2.28-1.42.73-.41,1.49-.87.33.07-1.97,1.6-3.88,3.32-5.82,4.86l-3.69,2.94c-.35.28.96-2.3-.05-2.76Z"/>
        <path class="cls-16" d="m125.65,125.79c1.03-1.14,2.25-2,3.3-3.18l7.3-8.18,2.38-2.6-1.39,1.81-8.87,11.59c-1.79,2.33-.43-.33-2.73.56Z"/>
        <path class="cls-16" d="m130.61,126.28c.88-.76,2.56-1.91,3.24-2.8,1.4-1.85,2.82-3.18,4.62-4.9,2.6-2.49-2.79,3.82-3.47,4.94-.6,1.01-1.1,2.58-1.47,3.7-.51,1.55-.64,1.57-1.39.22-.27-.5-1.96-1.1-1.53-1.16Z"/>
        <path class="cls-16" d="m121.81,124.24c1.62-2.1,4.62-3.2,5.89-5.39.84-1.45,2.83-2.26,4.05-3.12,1.23-.87-.82,1.15-1.05,1.38-2.12,2.15-4.33,5.34-5.96,7.8-.52.79-.61,1.56-1.43.14-.24-.41-1.58-.8-1.5-.8Z"/>
      </g>
      <g>
        <path class="cls-19" d="m136.58,134.19c4.31-3.48,8.28-5.79,3.67-2.69-1.26.85-.39,8.08,1.31,7.63,2.01-.52,4.21-2.44,4.41-3.73,1.08-6.83.74,1.8,1.61,4.73.48,1.64-.32,2.69,0,2.86.83.44,5.22-6.78,5.1-8.46-.27-3.62-.98-1.63-1.47,3.08-.16,1.53-.76,4.08-.09,4.44.45.24,5.58-3.59,6.37-5.51,2-4.84.95-1.68-1.63,3.21-1.51,2.86-2.15,4.85-1.47,4.84,1.21,0,6.53-4.19,3.85-4.93-.67-.18,8.28,7.17,8.21,5.94-.09-1.67-.65-3.94-1.58-7.13,1.37-.52,3.31,5.43,3.57,4.57,2.29-7.69,3.35,1.36,4.16-.34,3.39-7.14,8.46-17.01,11.59-23.77.72-1.56,2.04-4.47,1.26-5.85-.6-1.07-.9-2.25-1.72-3.42-.48-.68-2.83-3.53-2.66-3.48-11.24-2.63-14.91,1.23-21.65,7.79-5.71,5.55-10.86,8.06-18.26,11.63-4.35,2.1-8.74,5.18-4.57,8.57Z"/>
        <path class="cls-9" d="m136.58,134.19c-2.55-4.67,2.37-5.29,2.3-2.17-.03,1.34-.85,6.24,1.43,6.95,1.35.42,1.95.15,2.16-1.14,1.08-6.83,2.87-.11,3.74,2.82,1.72,5.83,1.74.11,1.57-2.22-.27-3.62,2.55-5,2.06-.29-.27,2.54.66,6.58,2.65,1.77,2-4.84,4.59-4.51,2.01.38-3.45,6.55,1.73,5.22,2.38-.09.07-.55,12.82,9.51,8.81,3.84-1.11-1.57-5.79-3.18-3.27-4.14,1.37-.52,8.07,6.17,5.43,2.02-4.45-7,4.66,2.75,4.75.81.34-6.83,7.08-16.49,10.21-23.25.72-1.56,2.04-4.47,1.26-5.85-.6-1.07-.9-2.25-1.72-3.42-.48-.68-2.83-3.53-2.66-3.48-11.24-2.63-14.91,1.23-21.65,7.79-5.71,5.55-10.86,8.06-18.26,11.63-4.35,2.1-7.36,4.66-3.19,8.05Z"/>
        <path class="cls-16" d="m137.24,129.16c4.79-3.97,9.11-4.66,13.01-6.54,1.44-.69,2.67-1.89,4.01-2.59.97-.51,1.94-1.58.5-.1-3.95,4.07-9.33,5.83-13.3,9.45-1.64,1.49-1.36,5.01-1.8,3.25-.26-1.04-1.12-3.61-2.41-3.47Z"/>
        <path class="cls-16" d="m143.84,134.39c1.18-2.4,3.42-3.96,4.68-5.24,2.51-2.56,5.03-5.19,7.32-7.91,2.62-3.12-1.98,2.85-2.51,3.59-2.08,2.9-3.35,4.35-5.22,7.38-.36.58-1.78,3.73-2.12,4.08-.94-.39-1.14-1.87-2.14-1.89Z"/>
        <path class="cls-16" d="m149.18,134.71c1.35-2.4,3.34-4.07,4.52-5.41.52-.6.86-1.32,1.36-1.96.47-.59.93-1.23.35-.04-.97,2.01-1.83,4.12-2.8,6.07l-1.85,3.73c-.18.36-.37-2.3-1.59-2.38Z"/>
        <path class="cls-16" d="m161.66,140.01c.34-1.32,1.02-2.46,1.36-3.81l2.36-9.43.81-3.02-.31,2.01-1.94,12.88c-.39,2.59-.59-.15-2.27,1.36Z"/>
        <path class="cls-16" d="m166.63,138.85c.41-.94,1.37-2.48,1.51-3.46.3-2.05.9-3.66,1.64-5.73,1.08-2.99-.52,4.2-.53,5.39,0,1.07.39,2.58.67,3.68.39,1.51.27,1.57-1.19.63-.53-.34-2.47-.33-2.1-.51Z"/>
        <path class="cls-16" d="m157.16,139.89c.36-2.34,2.6-4.25,2.58-6.56-.01-1.53,1.42-2.86,2.09-4,.68-1.15-.14,1.26-.22,1.53-.81,2.54-1.12,6.02-1.3,8.67-.06.85.29,1.55-1.28.58-.45-.28-1.95-.19-1.87-.21Z"/>
      </g>
      <g>
        <path class="cls-19" d="m223.07,128.11c-4.4-2.54-8.42-4.01-3.74-1.9,1.28.58.6,7.95-1.11,7.87-2.02-.09-4.27-1.53-4.51-2.77-1.26-6.57-.69,1.94-1.48,5.04-.44,1.73.39,2.61.07,2.85-.82.61-5.39-5.64-5.31-7.33.18-3.66.94-1.83,1.55,2.75.2,1.49.86,3.9.2,4.4-.44.33-5.67-2.39-6.51-4.12-2.12-4.39-.99-1.47,1.71,2.85,1.58,2.53,2.27,4.37,1.59,4.51-1.21.25-6.63-2.79-3.97-4.09.67-.33-8.09,8.89-8.06,7.65.05-1.68.55-4.06,1.4-7.43-1.38-.22-3.17,6.11-3.45,5.31-2.49-7.16-3.31,2.07-4.16.54-3.58-6.38-8.89-15.13-12.2-21.19-.76-1.4-2.15-4.01-1.41-5.56.57-1.19.84-2.43,1.63-3.77.46-.78,2.74-4.11,2.57-4.02,11.17-5,14.94-1.94,21.85,3.15,5.85,4.31,11.06,5.71,18.55,7.7,4.4,1.16,8.87,3.29,4.79,7.56Z"/>
        <path class="cls-9" d="m223.07,128.11c2.43-5.19-2.51-4.76-2.35-1.67.07,1.33,1.01,6.03-1.25,7.22-1.34.71-1.95.56-2.18-.68-1.26-6.57-2.87.5-3.66,3.6-1.57,6.16-1.74.48-1.62-1.88.18-3.66-2.68-4.43-2.07.15.33,2.48-.49,6.68-2.6,2.32-2.12-4.39-4.71-3.51-2,.8,3.62,5.78-1.6,5.56-2.38.42-.08-.53-12.58,12.18-8.71,5.69,1.07-1.8,5.71-4.4,3.17-4.81-1.38-.22-7.91,7.86-5.38,3.16,4.26-7.91-4.58,3.72-4.73,1.81-.52-6.72-7.5-14.9-10.81-20.96-.76-1.4-2.15-4.01-1.41-5.56.57-1.19.84-2.43,1.63-3.77.46-.78,2.74-4.11,2.57-4.02,11.17-5,14.94-1.94,21.85,3.15,5.85,4.31,11.06,5.71,18.55,7.69,4.4,1.17,7.48,3.07,3.4,7.33Z"/>
        <path class="cls-16" d="m222.28,123.24c-4.89-2.93-9.23-2.7-13.17-3.74-1.46-.38-2.72-1.31-4.08-1.73-.99-.3-1.98-1.16-.51,0,4.06,3.21,9.48,3.82,13.54,6.58,1.68,1.14,1.49,4.7,1.89,2.85.24-1.09,1.03-3.83,2.32-3.96Z"/>
        <path class="cls-16" d="m215.82,129.85c-1.24-2.13-3.52-3.22-4.81-4.22-2.58-2.01-5.17-4.1-7.52-6.32-2.7-2.54,2.05,2.42,2.6,3.04,2.16,2.44,3.47,3.61,5.41,6.24.37.5,1.87,3.33,2.23,3.6.93-.59,1.09-2.1,2.09-2.34Z"/>
        <path class="cls-16" d="m210.49,131.3c-1.41-2.1-3.44-3.34-4.66-4.43-.54-.48-.89-1.13-1.41-1.66-.48-.49-.96-1.03-.36.03,1.02,1.8,1.93,3.71,2.95,5.45l1.95,3.31c.19.32.31-2.37,1.53-2.7Z"/>
        <path class="cls-16" d="m198.15,139.22c-.37-1.24-1.08-2.23-1.46-3.5l-2.6-8.88-.89-2.83.36,1.94,2.27,12.4c.46,2.5.59-.28,2.31.87Z"/>
        <path class="cls-16" d="m193.15,139.13c-.43-.85-1.43-2.17-1.6-3.12-.35-1.97-.99-3.45-1.79-5.35-1.15-2.75.62,4.07.67,5.25.04,1.06-.33,2.66-.58,3.8-.35,1.58-.23,1.62,1.21.38.52-.46,2.46-.85,2.09-.96Z"/>
        <path class="cls-16" d="m202.64,138.15c-.42-2.25-2.7-3.68-2.75-5.98-.03-1.52-1.5-2.54-2.2-3.53-.71-1,.17,1.23.26,1.47.88,2.35,1.28,5.75,1.52,8.35.08.83-.25,1.6,1.3.3.45-.38,1.94-.6,1.86-.61Z"/>
      </g>
      <path class="cls-19" d="m26.26,61.51c.83.42,1.39.96,1.39,1.85,0,1.96,1.02,2.76,2.21,3.49,1.22-.61,2.3-.77,3.42-1.33.81-.41,2.71-1.37,3.47-1.46,2.52-.33.97,2.34,2.26,2.56,1.49-.53,3.4-1.88,4.52-2.02,1.21-.16,1.62-1.92,1.62-3.32,0-2.93-12.75-3.16-15.34-3.16-1.86,0-3.62,1.5-3.54,3.39Z"/>
      <path class="cls-19" d="m65.1,82.66c1.33.39.29,2.9,1.16,3.39.82.46,3.45-1.42,4.16-1.7.46-.17.46,1.75.46,2.16,0,2,3.64-3.72,4.01-.54.23,1.98,3.6,1.05,5.16.77,3.57-.63,7.01-3.44,7.01-7.25,0-4.61-14.81-.26-17.34.54-1.75.56-3.11,2.56-4.62,2.63Z"/>
      <path class="cls-19" d="m77.16,94.98c.67,1.1,1.19,1.67,1.19,3.41,0,.42-.06,1.18.08,1.54.13.34.76.85.73,1.22.32-.1.47-.1.66-.38.12-.18.65-.51.92-.69.6-.39,2.12-1.92,2.7-1.66-.1.55-.17,1.62-.39,1.97-.36.58-.56,1.26-.85,2.01-.35.91.55,1.42.94,1.83.54-.67,1.47-1.74,2.29-2.14.33-.16.59-.54.85-.69.27-.16.48-.3.4-.57.04.32.76.95.76,1.65,0,.81-.23,1.44-.23,2.47,0,1.35,2.1.07,2.47,0,2.08-.41,1.42,1.7,2.16,1.7,1.2,0,1.91-2.54,2.62-2.78.8.91-.67,3.47.69,3.47s1.72-2.32,2.54-2.39c1.72-.16-1.18,5.8,1.62,3.93.87-.58,2.36-3.02,3.16-2.93.87.1.37,2.78,1.7,2.78.6,0,3.75-2,4.62-2.39,1.44-.65,2.84-1.29,4.08-2.31,1.76-1.44,1.56-2.85,2.65-4.34-.07,0-1.01-1.89-1.34-2.29-3.3-4.15-34.71-9.32-37.02-2.41Z"/>
      <path class="cls-19" d="m132.22,126.02c1.53,4.73,3.9.76,6.47,1.92,2.03.91,2.35,2.59,4.01,3.63,2.68,1.67,8.45-4.39,6.78-7.87-1.43-2.99-11.64-1.57-14.33-.38-.9.4-2.74,2.89-2.93,2.71Z"/>
      <g>
        <g>
          <path class="cls-11" d="m20.55,39.47c1.48-1.45,4.35-10.08,13.7-9.98,18.51.2,23.94,10.16,24.98,17.98.92,6.84-9.25,14.71-19.12,15.8-11.09,1.22-26.81-3.6-29.9-11.52-3.17-8.11,6.95-8.92,10.35-12.27Z"/>
          <g>
            <path class="cls-4" d="m20.55,37.02c1.48-1.45,4.35-10.08,13.7-9.98,18.51.2,23.94,10.16,24.98,17.98.92,6.84-9.25,14.71-19.12,15.8-11.09,1.22-26.81-3.6-29.9-11.52-3.17-8.11,6.95-8.92,10.35-12.27Z"/>
            <path class="cls-22" d="m21.93,37.69c1.35-1.33,3.97-9.2,12.5-9.11,16.89.18,21.85,9.28,22.81,16.41.84,6.24-8.44,13.43-17.46,14.42-10.13,1.12-24.47-3.29-27.3-10.52-2.89-7.4,6.34-8.14,9.45-11.2Z"/>
            <path class="cls-27" d="m30.42,38.5c1.19-1.56,3.01-3.28,5.83-3.39,9.42-.36,11.66,4.94,11.78,9.18.1,3.71-5.5,8.27-10.59,9.11-5.72.95-14.35-.64-15.5-4.88-.62-2.27,1.38-4.19,2.87-5.17-1.91-1.58-4.26-3.28-6.87-4.58,1.03-.54,1.96-1.1,2.63-1.75.37-.37.84-1.2,1.47-2.23,2.88,1.38,5.32,2.72,8.39,3.7Z"/>
            <path class="cls-2" d="m31.31,37.73c-2.59-6.67,3.87-9.79,14.15-3.94,7.15,4.07,7.55,7.96,5.85,13.26-1.05,3.27-7.15.02-5.82-2.38,3.98-7.14-9.93-13.72-9.74-5.88.03,1.39-3.6,1.11-4.44-1.06Z"/>
            <path class="cls-2" d="m23.69,44.66c-9.8,1.35-10.99,6.73,1.15,10.51,8.44,2.63,13.67,1.16,19.79-2.24,3.78-2.1-3.14-4.44-5.66-2.55-7.5,5.62-22.2-.09-11.93-3.44,1.82-.59-.16-2.72-3.35-2.28Z"/>
          </g>
        </g>
        <g>
          <path class="cls-11" d="m80.93,61.13c-1.48-1.45-4.35-10.08-13.7-9.98-18.51.2-23.94,10.16-24.98,17.98-.92,6.84,9.25,14.71,19.12,15.8,11.1,1.22,26.81-3.6,29.91-11.52,3.17-8.11-6.95-8.92-10.35-12.27Z"/>
          <g>
            <path class="cls-17" d="m80.93,58.68c-1.48-1.45-4.35-10.08-13.7-9.98-18.51.2-23.94,10.16-24.98,17.98-.92,6.84,9.25,14.71,19.12,15.8,11.1,1.22,26.81-3.6,29.91-11.53,3.17-8.1-6.95-8.92-10.35-12.27Z"/>
            <path class="cls-22" d="m79.55,59.35c-1.35-1.33-3.97-9.2-12.5-9.11-16.89.18-21.85,9.28-22.81,16.41-.84,6.24,8.44,13.43,17.46,14.42,10.13,1.12,24.47-3.29,27.3-10.52,2.89-7.4-6.34-8.14-9.45-11.2Z"/>
            <path class="cls-27" d="m71.07,60.15c-1.19-1.56-3.02-3.28-5.83-3.39-9.42-.36-11.66,4.94-11.78,9.18-.1,3.71,5.5,8.27,10.59,9.11,5.72.95,14.35-.63,15.51-4.88.62-2.27-1.38-4.19-2.87-5.16,1.91-1.58,4.26-3.28,6.87-4.58-1.03-.54-1.96-1.1-2.63-1.75-.37-.37-.84-1.2-1.47-2.23-2.88,1.38-5.32,2.72-8.39,3.71Z"/>
            <path class="cls-2" d="m70.17,59.38c2.59-6.67-3.87-9.79-14.15-3.94-7.15,4.07-7.55,7.96-5.85,13.26,1.05,3.27,7.15.02,5.82-2.38-3.97-7.14,9.93-13.72,9.74-5.88-.03,1.39,3.6,1.11,4.44-1.07Z"/>
            <path class="cls-2" d="m77.79,66.32c9.8,1.35,10.99,6.73-1.15,10.51-8.44,2.63-13.67,1.16-19.79-2.24-3.79-2.1,3.14-4.44,5.66-2.55,7.5,5.62,22.2-.09,11.93-3.44-1.82-.59.16-2.72,3.35-2.28Z"/>
          </g>
        </g>
        <g>
          <path class="cls-11" d="m86.99,81.61c1.48-1.45,4.35-10.08,13.7-9.98,18.51.2,23.94,10.16,24.98,17.98.92,6.84-9.25,14.71-19.12,15.8-11.09,1.22-26.81-3.6-29.9-11.53-3.17-8.11,6.95-8.92,10.35-12.27Z"/>
          <g>
            <path class="cls-15" d="m86.99,79.16c1.48-1.45,4.35-10.08,13.7-9.98,18.51.2,23.94,10.16,24.98,17.98.92,6.84-9.25,14.71-19.12,15.8-11.09,1.22-26.81-3.6-29.9-11.53-3.17-8.1,6.95-8.92,10.35-12.27Z"/>
            <path class="cls-22" d="m88.37,79.83c1.35-1.33,3.97-9.21,12.5-9.11,16.89.18,21.85,9.28,22.81,16.41.84,6.24-8.44,13.43-17.46,14.42-10.13,1.12-24.47-3.29-27.3-10.52-2.89-7.4,6.34-8.14,9.45-11.2Z"/>
            <path class="cls-27" d="m96.85,80.64c1.19-1.56,3.01-3.28,5.83-3.38,9.42-.36,11.66,4.94,11.77,9.18.1,3.71-5.5,8.27-10.59,9.11-5.72.95-14.35-.64-15.5-4.88-.62-2.27,1.38-4.19,2.87-5.16-1.91-1.58-4.26-3.28-6.87-4.58,1.03-.54,1.96-1.1,2.63-1.75.37-.37.84-1.2,1.47-2.23,2.88,1.38,5.32,2.72,8.39,3.7Z"/>
            <path class="cls-2" d="m97.75,79.86c-2.59-6.67,3.87-9.79,14.15-3.94,7.15,4.07,7.55,7.96,5.85,13.26-1.05,3.28-7.15.02-5.82-2.38,3.98-7.14-9.93-13.72-9.74-5.88.03,1.39-3.6,1.11-4.45-1.07Z"/>
            <path class="cls-2" d="m90.13,86.8c-9.8,1.35-10.99,6.73,1.15,10.51,8.44,2.63,13.67,1.16,19.79-2.24,3.79-2.1-3.14-4.44-5.66-2.55-7.5,5.62-22.2-.09-11.93-3.44,1.82-.59-.16-2.72-3.35-2.28Z"/>
          </g>
        </g>
        <g>
          <path class="cls-11" d="m148.81,104.49c-1.48-1.45-4.35-10.08-13.7-9.98-18.51.2-23.94,10.17-24.98,17.98-.92,6.84,9.25,14.71,19.12,15.8,11.09,1.22,26.81-3.6,29.91-11.53,3.17-8.1-6.95-8.92-10.35-12.27Z"/>
          <g>
            <path class="cls-25" d="m148.81,102.04c-1.48-1.45-4.35-10.08-13.7-9.98-18.51.2-23.94,10.16-24.98,17.98-.92,6.84,9.25,14.71,19.12,15.8,11.09,1.22,26.81-3.6,29.91-11.52,3.17-8.11-6.95-8.92-10.35-12.27Z"/>
            <path class="cls-22" d="m147.42,102.71c-1.35-1.33-3.97-9.21-12.5-9.11-16.89.18-21.85,9.28-22.81,16.41-.84,6.24,8.44,13.43,17.45,14.42,10.13,1.11,24.47-3.29,27.3-10.52,2.89-7.4-6.34-8.14-9.45-11.2Z"/>
            <path class="cls-27" d="m138.94,103.52c-1.19-1.56-3.01-3.28-5.83-3.39-9.42-.36-11.66,4.94-11.78,9.18-.1,3.71,5.5,8.27,10.59,9.11,5.72.95,14.35-.64,15.51-4.88.62-2.27-1.38-4.19-2.87-5.17,1.91-1.58,4.26-3.28,6.87-4.58-1.03-.54-1.96-1.1-2.63-1.75-.37-.37-.84-1.2-1.47-2.23-2.88,1.38-5.32,2.73-8.39,3.71Z"/>
            <path class="cls-2" d="m138.04,102.74c2.59-6.67-3.87-9.79-14.15-3.94-7.15,4.07-7.55,7.96-5.85,13.26,1.05,3.27,7.15.02,5.82-2.38-3.98-7.14,9.93-13.72,9.74-5.88-.03,1.39,3.6,1.11,4.44-1.07Z"/>
            <path class="cls-2" d="m145.66,109.68c9.8,1.35,10.99,6.73-1.15,10.51-8.44,2.63-13.67,1.16-19.79-2.24-3.79-2.1,3.14-4.44,5.66-2.55,7.5,5.62,22.2-.09,11.93-3.44-1.82-.59.16-2.72,3.35-2.28Z"/>
          </g>
        </g>
        <g>
          <path class="cls-11" d="m156.04,117.5c1.48-1.45,4.35-10.08,13.7-9.98,18.51.2,23.94,10.16,24.98,17.98.92,6.84-9.25,14.71-19.12,15.8-11.09,1.22-26.81-3.6-29.91-11.52-3.17-8.11,6.95-8.92,10.35-12.27Z"/>
          <g>
            <path class="cls-12" d="m156.04,115.05c1.48-1.45,4.35-10.08,13.7-9.98,18.51.2,23.94,10.17,24.98,17.98.92,6.84-9.25,14.71-19.12,15.8-11.09,1.22-26.81-3.6-29.91-11.52-3.17-8.11,6.95-8.92,10.35-12.27Z"/>
            <path class="cls-22" d="m157.42,115.72c1.35-1.33,3.97-9.2,12.5-9.11,16.89.18,21.85,9.28,22.81,16.41.84,6.24-8.44,13.43-17.46,14.42-10.13,1.11-24.47-3.29-27.3-10.52-2.89-7.4,6.34-8.14,9.45-11.2Z"/>
            <path class="cls-27" d="m165.9,116.53c1.19-1.56,3.01-3.28,5.83-3.39,9.42-.36,11.66,4.94,11.78,9.18.1,3.71-5.5,8.27-10.59,9.11-5.72.95-14.35-.63-15.51-4.88-.62-2.27,1.38-4.19,2.87-5.17-1.91-1.58-4.26-3.28-6.87-4.58,1.03-.54,1.96-1.1,2.63-1.75.37-.37.84-1.2,1.47-2.23,2.88,1.38,5.32,2.72,8.39,3.71Z"/>
            <path class="cls-2" d="m166.8,115.76c-2.59-6.67,3.87-9.79,14.15-3.94,7.15,4.07,7.55,7.96,5.85,13.26-1.05,3.27-7.15.02-5.82-2.38,3.98-7.14-9.93-13.72-9.74-5.88.03,1.39-3.6,1.11-4.44-1.07Z"/>
            <path class="cls-2" d="m159.18,122.69c-9.8,1.35-10.99,6.73,1.15,10.51,8.44,2.63,13.67,1.16,19.79-2.24,3.79-2.1-3.14-4.44-5.66-2.55-7.5,5.62-22.2-.09-11.93-3.44,1.82-.59-.16-2.72-3.35-2.28Z"/>
          </g>
        </g>
      </g>
      <g>
        <g>
          <path class="cls-8" d="m31.9,50.63c40.08,29.03,85.3,57.48,136.02,80.83,39.18,18.04,42.06-8.09,16.5-21.53-47.94-25.2-95.44-49.42-137.29-80.17-27.15-19.95-44.34-.23-15.22,20.86Z"/>
          <path class="cls-14" d="m29.91,40.98c39.34,31.84,88.44,64.67,140.51,84.83,20.34,7.88,27.12-1.04,11.87-8.23-49.02-19.81-115.08-56.12-144.78-85.76-17.18-17.14-24.94-3.12-7.6,9.16Z"/>
          <g>
            <path class="cls-7" d="m39.46,40.14c40.08,29.03,75.39,57.86,127.46,78.02,20.34,7.88,11.7-.96,4.98-4.22-52.94-22.05-97.54-47.47-134.47-79.92-14.26-12.53-15.3-6.16,2.04,6.12Z"/>
            <path class="cls-10" d="m178.11,121.49h0c-1.99,0-5.78-1.07-11.24-3.19-45.02-17.44-77.25-41.15-111.38-66.25-5.25-3.86-10.67-7.85-16.11-11.79-8.66-6.14-13.36-11.32-12.89-12.79.06-.19.23-.41.68-.41,1.24,0,4.61,1.8,10.36,6.84,18.16,15.96,38.19,30.3,61.21,43.85,21.77,12.81,45.72,24.6,73.22,36.05,3.4,1.65,8.15,5.28,7.77,6.93-.12.5-.66.76-1.62.76ZM27.17,27.35c-.34,0-.39.16-.41.21-.28.87,2.56,5.21,12.79,12.46,5.44,3.94,10.87,7.93,16.11,11.79,34.11,25.09,66.33,48.79,111.31,66.21,5.43,2.1,9.18,3.17,11.14,3.17.55,0,1.23-.09,1.33-.53.29-1.24-3.7-4.69-7.61-6.59-27.51-11.46-51.47-23.25-73.25-36.07-23.04-13.56-43.08-27.91-61.26-43.88-5.69-5-9.03-6.77-10.16-6.77Z"/>
          </g>
        </g>
        <path class="cls-5" d="m26.17,43.8c-.53.32-1.1.5-1.67.56-1.78-1.8-3.23-3.56-4.37-5.25.28-.95.91-1.81,1.83-2.36,4.4-2.63,12.56-6.81,20.24-7.97h0c1.04-.16,2.07-.26,3.09-.3.61.41,1.22.84,1.83,1.29,3.71,2.72,7.46,5.4,11.25,8.02-.2.28-.44.56-.71.84-.74.74-1.95,1.19-3.72,1.86-3.34,1.25-9.86,3.7-11.18,5.68-.04.06-.08.12-.12.17,5.72-2.42,12.65-5.62,18.87-5.51.47,0,.92.02,1.35.05,3.45,2.33,6.92,4.63,10.43,6.9v.19c-.1,5.4-6.51,7.5-7.24,14.23,1.06-.28,2.4-.72,3.9-1.2,5.43-2.82,11.88-4.4,18.84-3.49,3.31,2.02,6.65,4.01,10,5.99-.07.39-.18.81-.35,1.25-.28.74-.94,1.7-1.87,3.07-2.47,3.61-9.48,12.64-5.78,10.52,5.17-2.75,12.8-6.82,22.14-6.68,2.54,1.44,5.08,2.86,7.64,4.28,0,.24,0,.48-.04.72-.06.4-.17.78-.33,1.13-2.2,5.41-2.25,12.11-1.2,16.99.3,1.38.66,2.56,1.08,3.46,1.06-.71,2.24-1.57,3.48-2.46,5.63-4.06,12.34-8.91,17.34-8.18,4.55.67,7.08,4.16,5.86,12.45-1.48,10.08-1.41,13.38-.57,13.51,1.3.19,4.67-1.81,8.27-3.96,3.85-2.29,7.93-4.72,11.97-5.67,2.04-.48,3.8-.67,5.32-.61l6.97,3.66c.87,1.3,1.48,2.89,1.9,4.7.66,2.81.68,6.11.69,9.53.01,3.65.03,7.46.95,10.13.64,1.87-.14,3.88-1.77,4.85-1.83-.49-3.79-1.12-5.88-1.9-.04-.09-.08-.19-.11-.29-1.37-3.96-1.38-8.48-1.4-12.8,0-2.88-.02-5.65-.49-7.66-.35-1.47-1.41-2.29-4.32-1.6-2.81.66-6.32,2.76-9.66,4.74-3.92,2.33-7.64,4.54-11.11,5.01-2.75-1.38-5.49-2.77-8.21-4.18-1.69-3.47-2.08-9.33-.71-18.66.35-2.35,1.47-3.06,1.1-3.12-1.73-.25-6.96,3.53-11.35,6.7-2.14,1.55-4.12,2.98-5.68,3.9-.85.5-1.72.78-2.6.85-2.14-1.19-4.27-2.39-6.39-3.59-.16-.24-.31-.48-.45-.73-.95-1.67-1.74-3.88-2.27-6.38-1.01-4.71-1.19-10.79.04-16.54-6.57.44-12.32,3.5-16.32,5.63-2.62,1.4-4.77,2.54-6.71,2.76-1.99-1.23-3.97-2.47-5.94-3.71-2.23-5.2,2.37-13.28,5.92-18.68-5.49-.36-10.21.23-15.43,2.88-3.19,1.04-5.84,1.9-8.19,1.9v.02c-4.28,0-6.72-1.85-6.72-7.03-.11-6.21,2.9-9.08,5.35-12.59,1.15-1.65,2.15-3.08,2.15-3.27.01-.79-14.09,2.12-16.02,2.83-4.31,1.6-8.03,3.95-11,4.41-1.99-1.42-3.96-2.84-5.93-4.26-1-5.45,7.23-12.47,11.07-14.78-6.54.43-13.84,4.84-17.04,7.77Z"/>
      </g>
      <g>
        <path class="cls-10" d="m23.44,44.29c-1.95,1.16-4.47.53-5.63-1.42-1.16-1.95-.53-4.47,1.42-5.63,4.4-2.63,12.56-6.82,20.24-7.97h0c5.8-.87,11.41-.09,15.47,3.98,1.95,1.95,1.93,3.93-.01,5.87-.74.74-1.95,1.19-3.72,1.86-3.34,1.25-9.86,3.7-11.18,5.68-.04.06-.08.12-.12.17,5.72-2.42,12.65-5.62,18.87-5.51,8.95.16,11.86,2.8,11.78,7.13-.09,5.4-6.51,7.5-7.24,14.23,1.06-.28,2.4-.72,3.9-1.2,7.28-3.79,16.39-5.34,26.1-1.65.09.04.18.07.27.12,2.42,1.01,3.06,2.78,2.12,5.28-.28.74-.94,1.7-1.87,3.07-2.47,3.61-9.48,12.64-5.78,10.52,5.91-3.15,15.04-8.01,26.25-6.35,2.25.33,3.8,2.42,3.48,4.67-.06.4-.17.78-.33,1.13-2.2,5.42-2.25,12.11-1.21,16.99.3,1.38.66,2.56,1.08,3.46,1.06-.71,2.24-1.57,3.48-2.46,5.63-4.06,12.34-8.91,17.34-8.18,4.55.67,7.08,4.16,5.86,12.45-1.48,10.08-1.41,13.38-.57,13.51,1.3.19,4.67-1.81,8.27-3.96,3.85-2.29,7.93-4.72,11.97-5.67,9.13-2.16,12.73,1.53,14.2,7.75.66,2.81.68,6.11.69,9.53.01,3.65.03,7.46.95,10.13.74,2.14-.4,4.48-2.54,5.21-2.14.74-4.48-.4-5.21-2.54-1.37-3.96-1.38-8.48-1.4-12.8-.01-2.88-.02-5.65-.5-7.66-.35-1.47-1.41-2.29-4.32-1.6-2.8.66-6.32,2.76-9.66,4.74-4.9,2.91-9.46,5.63-13.65,5.02-5.79-.85-8.77-6.6-6.38-22.84.34-2.35,1.47-3.06,1.09-3.12-1.73-.25-6.96,3.53-11.35,6.7-2.14,1.55-4.12,2.98-5.68,3.9-1.27.75-2.59,1-3.94.82-2.26-.32-4.13-1.86-5.51-4.29-.95-1.67-1.74-3.88-2.27-6.38-1.01-4.71-1.2-10.79.03-16.54-6.57.44-12.32,3.5-16.32,5.63-4.36,2.32-7.4,3.94-10.4,1.8-6.38-4.57-.59-14.94,3.67-21.42-5.5-.36-10.21.23-15.43,2.88-3.19,1.04-5.84,1.9-8.19,1.9v.02c-4.28,0-6.72-1.85-6.72-7.03-.11-6.21,2.9-9.08,5.35-12.59,1.15-1.65,2.15-3.08,2.15-3.27.01-.79-14.09,2.12-16.02,2.83-6.07,2.25-10.98,6.02-14.26,3.83-8.04-5.36,3.61-15.57,8.41-18.46-6.54.43-13.84,4.83-17.04,7.77Z"/>
        <path class="cls-24" d="m18.18,38.12c.29-.34.63-.64,1.04-.88,4.4-2.63,12.56-6.82,20.24-7.97h0c5.8-.87,11.41-.09,15.47,3.98,1.18,1.18,1.64,2.37,1.39,3.55-.16.2-.34.41-.55.61-.74.74-1.95,1.19-3.72,1.86-1.19.45-16.65,7.65-12.03,7.39-.04.06-.08.12-.12.17,5.72-2.42,12.65-5.62,18.87-5.51,8.95.16,11.86,2.8,11.78,7.13-.01.77-.16,1.47-.39,2.13-1.52,2.4-3.27,3.46-5.43,7.02-.77,1.28-1.58,3.28-1.42,5.07.15,1.53,2.4-.72,3.9-1.2,7.28-3.79,16.39-5.34,26.1-1.65.09.04.18.07.27.12,2.3.96,3,2.62,2.24,4.93-.31.49-.69,1.05-1.14,1.7-1.85,2.7-6.24,8.44-6.78,10.26-1.07,1.79-1.39,2.84.15,1.96,5.91-3.15,15.04-8.01,26.25-6.35,2.25.33,3.8,2.42,3.48,4.67-.06.4-.17.78-.33,1.13-2.2,5.42-2.25,12.11-1.21,16.99.3,1.38.66,2.56,1.08,3.46,1.06-.71,2.24-1.57,3.48-2.46,5.63-4.06,12.34-8.91,17.34-8.18,4.55.67,7.08,4.16,5.86,12.45-1.48,10.08-1.41,13.38-.57,13.51,1.3.19,4.67-1.81,8.27-3.96,3.85-2.29,7.93-4.72,11.97-5.67,9.13-2.16,12.73,1.53,14.2,7.75.66,2.81.68,6.11.69,9.53.01,3.65.03,7.46.95,10.13.26.76.29,1.54.12,2.26-.46.55-1.07.99-1.8,1.24-2.14.74-4.48-.4-5.21-2.54-1.37-3.96-1.38-8.48-1.4-12.8,0-2.88-.02-5.65-.49-7.66-.35-1.47-1.41-2.29-4.32-1.6-2.81.66-6.33,2.76-9.66,4.74-4.89,2.91-9.46,5.63-13.65,5.02-5.79-.85-8.77-6.6-6.38-22.84.35-2.35,1.47-3.06,1.1-3.12-1.73-.25-6.96,3.53-11.35,6.7-2.14,1.55-4.12,2.98-5.68,3.9-1.27.75-2.59,1-3.94.82-2.26-.32-4.13-1.86-5.51-4.29-.95-1.67-1.74-3.88-2.27-6.38-1.67-6.56,1.79-16.14.04-16.54-6.57.44-12.38,2.82-16.38,4.95-4.36,2.32-7.34,4.62-10.34,2.48-4.27-3.05-3.09-8.7-.57-14.04,1.42-2.7,2.75-5.11,4.24-7.38-8.82-3.5-30.32,12.69-30.34-2.23-.04-2.43.39-4.36,1.09-6,1.01-1.75,2.27-3.25,3.41-4.88.32-.46,2.99-4.15,3.01-4.98.01-.79-5.94-.19-16.58,2.4-6.07,2.25-10.42,6.45-13.7,4.27-2.99-1.99-3.25-4.66-2.17-7.36,2.37-4,7.08-7.8,9.72-9.39,3.14-1.02,2.72-1.59.85-1.71-6.54.43-13.84,4.83-17.04,7.77-1.95,1.16-4.47.53-5.63-1.42-.57-.95-.71-2.04-.47-3.04Z"/>
        <g>
          <path class="cls-1" d="m20.84,37.82c-.56.58-.26,1.93.81,1.93s.81-1.18,2.92-1.74c2.11-.56,8.46-3.96,10.28-4.79,1.82-.83,6.11-1.4,2.79-1.4s-8.94,2.78-11.17,3.77c-2.23.99-3.26,1.04-4.06,1.44-.8.4-1.63.8-1.57.79Z"/>
          <path class="cls-1" d="m41.61,37.78c-1.37,1.47-2.85,3.32-4.52,4.47-1.92,1.33-5.6,4.85-4.52,7.62,1.15,2.95,5.2,1.03,7.14,0,2.38-1.26.51-1.75-1.31-1.37-4.52.95-.8-3.76.16-5.21.78-1.19,1.73-2.21,2.52-3.31.13-.18,1.25-2.05.53-2.21Z"/>
          <path class="cls-1" d="m61.22,53.32c-.18,1.67-2.19,4.68-2.91,6.49-.97,2.43-.74,7.01,2.73,7.15,1.05.04,2.25.32,3.2-.16,1.59-.79-2.21-1.47-2.57-1.52-2.14-.33-1.54-5.48-1-6.94.42-1.14,1.16-2.37,1.16-3.57,0-1.42-.55-1.29-.6-1.45Z"/>
          <path class="cls-1" d="m66.17,64.05c-1.12,2.01,1.52.86,2.58.12,1.58-1.09,3.02-1.61,4.73-2.42,1.24-.58.92-1.17-.42-1.1-2.61.12-5.94,1.66-6.89,3.4Z"/>
          <path class="cls-1" d="m84.91,70.01c-1.75,2.69-3.33,7.38-3.33,10.72,0,2.85,2.3,3.71,4.83,2.52.69-.33,5.19-2.66,3.05-2.79-3.01-.17-6.55,1.81-5.88-3.26.23-1.72,1.28-3.14,1.63-4.78.14-.65.37-1.12.37-1.84,0-.45-.74-.74-.66-.58Z"/>
          <path class="cls-1" d="m110.53,88c-.39,1.7.58,10.34,2.29,12.34,3.04,3.55,9.5-1.03,12.08-3.21,3.82-3.23-.48-1.81-2.26-.37-1.88,1.52-9.82,5.24-10.08,0-.07-1.32-.81-9.08-2.03-8.76Z"/>
          <path class="cls-1" d="m140.1,111.85c0,4.21,4.79,5.99,8.15,3.47.94-.71,7.08-4.42,7.17-5.13.11-.81-1.92-.04-2.2.05-1.43.47-3.16,2.07-4.68,2.83-1.23.61-4.05,2.22-5.51,1.42-1.45-.8-1.58-2.44-2.93-2.64Z"/>
        </g>
        <path class="cls-6" d="m53.36,38.77c1.08-.43,1.87-.82,2.41-1.36.2-.2.38-.41.55-.61.25-1.18-.21-2.37-1.39-3.55-.5-.5-1.03-.95-1.57-1.36v6.88h0Zm0,4.32v-1.17c1.83-.41,3.65-.64,5.41-.61,8.95.16,11.86,2.8,11.78,7.13-.01.77-.16,1.47-.39,2.13-1.4,2.21-3,3.28-4.93,6.23-.04-.02,0-3.1-.22-3.65-.55-1.44-1.17-2.38-2.66-2.83-.49-.15-.94-.01-1.39.19.9-1.29,2.24-3.31,2.25-3.9,0-.54-2.76-.43-7.9.51.03-.26.05-.5.05-.64,0-1.37-.34-1.38-.91-2.42-.23-.42-.61-.74-1.07-.97h0Zm20.87,15.65c.31.03.6.08.86.16,1.58.49,2.62,2.41,3.25,3.75.34.73.45,1.32.49,2.04,2.77-.58,5.29-.75,7.21.01-1.05,1.61-2.03,3.29-3.02,5.09h0c1.34-1.42,3.29-1.67,5.06-.89.66.29,1.61.93,2.08,1.5.12.14.56.93.74,1.49,1.37-1.96,2.88-4.01,3.79-5.33.45-.65.83-1.21,1.14-1.7.75-2.31.06-3.97-2.24-4.93-.09-.04-.18-.08-.27-.12-6.79-2.58-13.3-2.6-19.08-1.08h0Zm23.19,15.68h0s0,0,0,0h0Zm1.96-.66c.29.06.65.2,1.19.4,2.56.97,3.44,3.02,3.01,5.36,1.76-.4,3.6-.69,5.51-.82.59.13.59,1.31.39,3.07,1.83-.36,3.65.12,5.16,1.4.45.38.87.85,1.21,1.36.28-2.16.8-4.31,1.6-6.28.16-.35.28-.73.33-1.13.33-2.25-1.23-4.34-3.48-4.67-5.53-.82-10.55-.05-14.93,1.31h0Zm27.67,18.16h.02s-.02,0-.02,0h0Zm.11-.07c.72-.44,1.4-.43,2.39-.43,1.45,0,2.78,1.2,3.5,2.08.21.26.42,1.25.42,1.58,0,.26.08.86.05,1.23,1.91-1.18,3.49-1.95,4.3-1.83.35.05-.61.68-1.02,2.68.05.05.07.08,0,.04,1.12-.44,1.42-.8,2.68-.8,1.73,0,3.06.57,4.33,1.58.12.09.29.34.43.6.58-6.93-1.9-9.93-6.08-10.54-3.2-.47-7.11,1.35-10.99,3.79h0Zm31.95,14.16h0c4.01-1.6,9.85,1.03,12.92,3.08,1.78,1.19,2.64,2.68,3.66,4.42.55.94,1.16,2,1.92,2.75.32.32.58.6.88.87-.08-1.77-.25-3.46-.61-5-1.47-6.22-5.07-9.9-14.2-7.75-1.52.36-3.05.93-4.57,1.62ZM35.44,30.12c.95.06,1.72.32,2.59,1.19,1.32,1.32,1.12,2.33,1.03,3.79.76-.15,1.52-.25,2.27-.3,1.51.1,2.07.49.58,1.17.3.02.59.07.86.17,1.14.44,2.21,1.65,2.83,2.67.15.25,1.13,2.33.99,3.02,2.62-1.3,5.02-2.39,5.47-2.56.47-.18.91-.34,1.3-.5v-6.88c-3.88-2.88-8.81-3.39-13.9-2.62h0c-1.34.2-2.68.5-4.03.86h0Zm17.93,11.8v1.17c-.86-.43-2.01-.54-3.02-.36,1.01-.31,2.01-.59,3.02-.81h0Zm-4.27,1.22h0s0,0,0,0h0Z"/>
      </g>
      <g>
        <path class="cls-21" d="m34.43,28.58c38.15,29.58,79.48,54.35,129.34,76.06,20.77,9.04,35.29,16.88,45.95,13.15,10.34-3.62-1.14-25.59-12.39-34.49C161.74,55.18,132.18,30.39,82.66,7.47,46.92-9.06,2.15,3.55,34.43,28.58Z"/>
        <path class="cls-3" d="m203.4,89.31c-1.94-2.31-4.01-4.38-6.07-6.01C161.74,55.18,132.18,30.39,82.66,7.47,54.25-5.67,20.15-.4,23.55,14.89c1.18,1.12,2.53,2.26,4.04,3.44,38.15,29.58,79.47,54.35,129.34,76.06,20.77,9.04,35.3,16.88,45.95,13.15,5.88-2.06,4.7-10.07.51-18.22Z"/>
        <path class="cls-26" d="m79.07,8.84C62.55,1.2,15.93.79,37,17.13c17.33,13.44,126.78,71.93,143.73,66.9,15.25-5.8-85.76-67.84-101.66-75.19Z"/>
        <g>
          <g>
            <path class="cls-21" d="m65.59,31.34c1.49,0,2.71.69,2.71,1.53s-1.21,1.53-2.71,1.53-2.71-.69-2.71-1.53,1.21-1.53,2.71-1.53Z"/>
            <path class="cls-20" d="m66.19,30.54c1.49,0,2.7.69,2.7,1.53s-1.21,1.53-2.7,1.53-2.71-.69-2.71-1.53,1.21-1.53,2.71-1.53Z"/>
          </g>
          <g>
            <path class="cls-21" d="m81.88,23.64c1.38.57,2.24,1.66,1.92,2.44-.32.78-1.7.96-3.08.39-1.38-.57-2.24-1.66-1.92-2.44.32-.78,1.7-.96,3.08-.39Z"/>
            <path class="cls-20" d="m82.74,23.12c1.38.57,2.24,1.66,1.92,2.44-.32.78-1.7.96-3.08.39-1.38-.57-2.24-1.66-1.92-2.44.32-.78,1.7-.96,3.08-.39Z"/>
          </g>
          <g>
            <path class="cls-21" d="m52.32,18.8c1.36.55,2.17,1.55,1.81,2.22-.35.68-1.74.78-3.1.23-1.36-.55-2.17-1.55-1.81-2.22.36-.68,1.74-.78,3.1-.23Z"/>
            <path class="cls-20" d="m53.2,18.38c1.36.55,2.17,1.55,1.81,2.22-.35.68-1.74.78-3.1.23-1.36-.55-2.17-1.55-1.81-2.22.36-.68,1.74-.78,3.1-.23Z"/>
          </g>
          <g>
            <path class="cls-21" d="m65.2,2.73c1.47-.24,2.78.24,2.92,1.07.14.83-.94,1.71-2.42,1.95-1.47.24-2.78-.24-2.92-1.07-.14-.84.94-1.71,2.42-1.96Z"/>
            <path class="cls-20" d="m65.66,1.85c1.47-.24,2.78.24,2.92,1.07.14.83-.95,1.71-2.42,1.95-1.47.24-2.78-.24-2.92-1.07-.14-.83.94-1.71,2.42-1.95Z"/>
          </g>
          <g>
            <path class="cls-21" d="m79.33,15.37c1.34-.58,2.62-.46,2.86.26.23.73-.66,1.79-2.01,2.37-1.34.58-2.62.46-2.86-.26-.23-.73.66-1.79,2.01-2.37Z"/>
            <path class="cls-20" d="m79.64,14.45c1.34-.58,2.62-.46,2.86.26.23.73-.67,1.79-2.01,2.37-1.34.58-2.62.46-2.86-.26-.23-.73.66-1.79,2.01-2.37Z"/>
          </g>
          <g>
            <path class="cls-21" d="m41.49,5.16c1.41-.47,2.76-.32,3.02.32.25.65-.69,1.56-2.1,2.03-1.41.47-2.76.33-3.02-.32-.25-.65.69-1.56,2.1-2.03Z"/>
            <path class="cls-20" d="m41.81,4.36c1.41-.47,2.76-.32,3.02.33.25.65-.69,1.56-2.1,2.03-1.41.47-2.76.33-3.02-.32-.25-.65.69-1.56,2.1-2.03Z"/>
          </g>
          <g>
            <path class="cls-21" d="m55.44,11.71c1.34-.67,2.73-.59,3.1.17.38.76-.4,1.91-1.74,2.58-1.34.67-2.73.59-3.1-.17-.38-.76.4-1.91,1.74-2.58Z"/>
            <path class="cls-20" d="m55.62,10.72c1.34-.67,2.73-.59,3.1.17.38.76-.4,1.91-1.74,2.58-1.34.67-2.73.59-3.11-.17-.38-.76.4-1.91,1.74-2.58Z"/>
          </g>
          <g>
            <path class="cls-21" d="m70.51,18.69c1.74-.13,3.18.34,3.22,1.07.04.72-1.35,1.42-3.09,1.55-1.74.13-3.18-.34-3.22-1.07-.03-.72,1.35-1.42,3.09-1.55Z"/>
            <path class="cls-20" d="m71.18,17.95c1.74-.13,3.18.34,3.22,1.07.03.72-1.35,1.42-3.09,1.55-1.74.13-3.18-.34-3.22-1.07-.03-.72,1.35-1.42,3.09-1.55Z"/>
          </g>
          <g>
            <path class="cls-21" d="m116.22,32.97c1.38.57,2.24,1.66,1.92,2.44s-1.7.96-3.08.39c-1.38-.57-2.24-1.66-1.92-2.44.32-.78,1.7-.96,3.08-.39Z"/>
            <path class="cls-20" d="m117.08,32.45c1.38.57,2.24,1.66,1.92,2.44-.32.78-1.7.96-3.08.39-1.38-.57-2.24-1.66-1.92-2.44s1.7-.96,3.08-.39Z"/>
          </g>
          <g>
            <path class="cls-21" d="m113.67,24.7c1.34-.58,2.62-.46,2.86.26.23.73-.67,1.79-2.01,2.37-1.34.58-2.62.46-2.86-.26-.23-.73.66-1.79,2.01-2.37Z"/>
            <path class="cls-20" d="m113.98,23.78c1.34-.58,2.62-.46,2.86.26.24.73-.67,1.79-2.01,2.37-1.34.58-2.62.46-2.86-.26s.67-1.79,2.01-2.37Z"/>
          </g>
          <g>
            <path class="cls-21" d="m93.42,20.98c1.46.29,2.52,1.21,2.35,2.04-.17.83-1.49,1.26-2.96.97-1.46-.3-2.52-1.21-2.35-2.04.17-.83,1.49-1.26,2.95-.97Z"/>
            <path class="cls-20" d="m94.16,20.32c1.46.29,2.51,1.21,2.35,2.04-.17.83-1.49,1.26-2.95.97-1.46-.29-2.52-1.21-2.35-2.04.17-.83,1.49-1.26,2.96-.97Z"/>
          </g>
          <g>
            <path class="cls-21" d="m104.85,28.02c1.74-.13,3.18.34,3.22,1.07.03.72-1.35,1.42-3.09,1.55-1.74.13-3.18-.34-3.22-1.07-.03-.72,1.35-1.42,3.09-1.55Z"/>
            <path class="cls-20" d="m105.52,27.28c1.74-.13,3.18.34,3.22,1.07.03.72-1.35,1.42-3.09,1.55-1.74.13-3.18-.34-3.22-1.07-.03-.72,1.35-1.42,3.09-1.55Z"/>
          </g>
          <g>
            <path class="cls-21" d="m101.98,51.21c1.49,0,2.71.69,2.71,1.53s-1.21,1.53-2.71,1.53-2.7-.69-2.7-1.53,1.21-1.53,2.7-1.53Z"/>
            <path class="cls-20" d="m102.58,50.42c1.49,0,2.7.69,2.7,1.53s-1.21,1.53-2.7,1.53-2.7-.69-2.7-1.53,1.21-1.53,2.7-1.53Z"/>
          </g>
          <g>
            <path class="cls-21" d="m88.71,38.67c1.36.55,2.17,1.55,1.81,2.22-.36.68-1.74.78-3.1.23-1.36-.55-2.17-1.55-1.81-2.22.35-.68,1.74-.78,3.1-.23Z"/>
            <path class="cls-20" d="m89.59,38.25c1.36.55,2.17,1.55,1.81,2.22-.36.68-1.74.78-3.1.23-1.35-.55-2.17-1.55-1.81-2.22.35-.68,1.74-.78,3.1-.23Z"/>
          </g>
          <g>
            <path class="cls-21" d="m82.16,29.63c1.34-.67,2.73-.59,3.1.17.38.76-.4,1.91-1.74,2.58-1.34.67-2.73.59-3.1-.17-.38-.76.4-1.91,1.74-2.58Z"/>
            <path class="cls-20" d="m82.34,28.65c1.34-.67,2.73-.59,3.1.17.38.76-.4,1.91-1.74,2.58-1.34.67-2.73.59-3.11-.16-.38-.76.4-1.91,1.74-2.58Z"/>
          </g>
          <g>
            <path class="cls-21" d="m106.91,38.56c1.74-.13,3.18.34,3.22,1.07.03.72-1.35,1.42-3.09,1.55-1.74.13-3.18-.34-3.22-1.07-.03-.72,1.35-1.42,3.09-1.55Z"/>
            <path class="cls-20" d="m107.57,37.83c1.74-.13,3.18.34,3.22,1.07.03.72-1.35,1.42-3.09,1.55-1.74.14-3.18-.34-3.22-1.07-.03-.72,1.35-1.42,3.09-1.55Z"/>
          </g>
          <g>
            <path class="cls-21" d="m128.26,60.71c1.36.55,2.17,1.55,1.81,2.22-.36.68-1.74.78-3.1.23-1.36-.55-2.17-1.55-1.81-2.22.35-.68,1.74-.78,3.1-.23Z"/>
            <path class="cls-20" d="m129.14,60.3c1.36.55,2.17,1.55,1.81,2.22-.35.68-1.74.78-3.1.23-1.36-.55-2.17-1.55-1.81-2.22.35-.68,1.74-.78,3.1-.23Z"/>
          </g>
          <g>
            <path class="cls-21" d="m132.64,42.12c1.47-.24,2.78.23,2.92,1.07.14.83-.95,1.71-2.42,1.95-1.47.25-2.78-.24-2.92-1.07-.14-.83.94-1.71,2.42-1.95Z"/>
            <path class="cls-20" d="m133.09,41.23c1.47-.24,2.78.24,2.92,1.07.14.83-.94,1.71-2.42,1.95-1.47.24-2.78-.24-2.92-1.07-.14-.84.94-1.71,2.42-1.96Z"/>
          </g>
          <g>
            <path class="cls-21" d="m117.43,47.08c1.41-.47,2.76-.33,3.02.32.25.65-.69,1.56-2.1,2.03-1.41.47-2.76.32-3.02-.32-.25-.65.69-1.56,2.1-2.03Z"/>
            <path class="cls-20" d="m117.75,46.28c1.41-.47,2.76-.33,3.02.32.25.65-.69,1.56-2.1,2.03-1.41.47-2.76.33-3.02-.33-.25-.65.69-1.56,2.1-2.03Z"/>
          </g>
          <g>
            <path class="cls-21" d="m131.38,53.62c1.34-.66,2.73-.59,3.1.17.38.76-.4,1.91-1.74,2.58-1.34.67-2.73.59-3.1-.17-.38-.76.4-1.91,1.74-2.58Z"/>
            <path class="cls-20" d="m131.56,52.64c1.34-.67,2.73-.59,3.1.17.38.76-.4,1.91-1.74,2.58-1.34.67-2.73.59-3.1-.17-.38-.76.4-1.91,1.74-2.58Z"/>
          </g>
          <g>
            <path class="cls-21" d="m158.54,68.81c1.38.57,2.24,1.66,1.92,2.44-.32.78-1.7.96-3.08.39-1.38-.57-2.24-1.66-1.92-2.44.32-.78,1.7-.96,3.08-.39Z"/>
            <path class="cls-20" d="m159.39,68.3c1.38.57,2.24,1.66,1.92,2.44-.32.78-1.7.96-3.08.39-1.38-.57-2.24-1.66-1.92-2.44.32-.78,1.7-.96,3.08-.39Z"/>
          </g>
          <g>
            <path class="cls-21" d="m155.98,60.54c1.34-.58,2.62-.46,2.86.26.23.73-.67,1.79-2.01,2.37s-2.62.46-2.86-.26c-.23-.73.67-1.79,2.01-2.37Z"/>
            <path class="cls-20" d="m156.3,59.62c1.34-.58,2.62-.46,2.86.26.23.73-.67,1.79-2.01,2.37-1.34.58-2.62.46-2.86-.26-.23-.73.67-1.79,2.01-2.37Z"/>
          </g>
          <g>
            <path class="cls-21" d="m147.17,63.86c1.74-.13,3.18.34,3.22,1.07.03.72-1.35,1.42-3.09,1.55-1.74.13-3.18-.34-3.22-1.07-.03-.72,1.35-1.42,3.09-1.55Z"/>
            <path class="cls-20" d="m147.84,63.13c1.74-.13,3.18.34,3.22,1.07.03.72-1.35,1.42-3.09,1.55-1.74.14-3.18-.34-3.22-1.07-.03-.72,1.35-1.42,3.09-1.55Z"/>
          </g>
          <g>
            <path class="cls-21" d="m170.08,66.16c1.46.3,2.52,1.21,2.35,2.04-.17.83-1.49,1.26-2.95.97-1.46-.29-2.52-1.21-2.35-2.04.17-.83,1.49-1.26,2.95-.97Z"/>
            <path class="cls-20" d="m170.82,65.49c1.46.29,2.52,1.21,2.35,2.04-.17.83-1.49,1.26-2.96.97-1.46-.29-2.52-1.21-2.35-2.04.17-.83,1.49-1.26,2.95-.97Z"/>
          </g>
        </g>
      </g>
    </g>
  </g>
</svg>